<?xml version="1.0" encoding="utf-8"?>
<!-- Generator: Adobe Illustrator 23.0.1, SVG Export Plug-In . SVG Version: 6.00 Build 0)  -->
<svg version="1.1" id="Слой_2" xmlns="http://www.w3.org/2000/svg" xmlns:xlink="http://www.w3.org/1999/xlink" x="0px" y="0px"
	 viewBox="0 0 4000 2000" style="enable-background:new 0 0 4000 2000;" xml:space="preserve">
<style type="text/css">
	.st0{fill:#EAF1F8;}
	.st1{fill:#ACD29A;}
	.st2{fill:#4A75CB;}
	.st3{fill:#699FF0;}
	.st4{fill:#EBF2F9;}
	.st5{fill:#ADCBF9;}
	.st6{fill:#F1A34F;}
	.st7{fill:#D86713;}
	.st8{fill:#EE9849;}
	.st9{fill:#FFFFFF;}
	.st10{fill:#C95C12;}
	.st11{fill:#163560;}
	.st12{fill:#B77446;}
	.st13{fill:#365DA4;}
	.st14{fill:#285493;}
	.st15{fill:#D9935C;}
	.st16{fill:#80BDCC;}
	.st17{fill:#5F9AA8;}
	.st18{fill:#A86337;}
	.st19{fill:#CA5F00;}
	.st20{fill:#E69D43;}
	.st21{fill:#CC7C46;}
	.st22{fill:#B84C42;}
	.st23{fill:#B74B42;}
	.st24{fill:#E58638;}
	.st25{fill:#A6C7F9;}
	.st26{fill:#A6D9F1;}
	.st27{opacity:0.4;fill:#D86713;}
	.st28{opacity:0.2;fill:#D86713;}
	.st29{fill:#3B76CA;}
	.st30{fill:#466AA5;}
	.st31{fill:#699DEE;}
	.st32{fill:#E49963;}
	.st33{fill:#D38957;}
	.st34{fill:#2F5791;}
	.st35{fill:#C65447;}
	.st36{fill:#FFB27D;}
	.st37{fill:#E58D5C;}
	.st38{fill:#CC620A;}
	.st39{fill:#D68D5D;}
	.st40{fill:#992B25;}
	.st41{fill:#739AF0;}
	.st42{fill:#373480;}
	.st43{fill:#575B9F;}
	.st44{fill:#E2E7F2;}
	.st45{fill:#CED4EA;}
	.st46{fill:#BCC5DD;}
	.st47{fill:#1C468A;}
	.st48{fill:#283250;}
</style>
<g>
	<path class="st0" d="M286.45,1728.03c0,0-193.64-614.52,122.96-822.2c305.34-200.3,605.19-24.61,714.97-260.51
		c70.81-152.16,485.79-294.49,702.62,14.92c216.83,309.41,403.23,307.84,552.83,250.61c171.57-65.64,260.64-288.17,529.2-246.39
		c310.4,48.28,290.68,333.06,483.87,315.01c351.31-32.82,648.45,427.56,252.65,752.44L286.45,1728.03z"/>
	<g>
		<path class="st1" d="M1550.32,1726.77c0,0-65.22-183.01,188.95-182.25c309.74,0.92,118.82-151.33,331.79-227.61
			c177.7-63.65,363.8,108.69,363.8,108.69s206.91-562.14,479.26-402.38c272.35,159.76-92.12,462.59-92.12,462.59
			s183.51,114.3,197.89,244.35L1550.32,1726.77z"/>
		<path class="st1" d="M2921.77,1685.05c0,0,193.54-5,178.68-62.65S2921.77,1685.05,2921.77,1685.05z"/>
		<path class="st1" d="M2948.88,1650.04c0,0,121.83-63.23,94.47-95.37C3015.99,1522.52,2948.88,1650.04,2948.88,1650.04z"/>
		<path class="st1" d="M1866.87,1613c0,0-55.96-313.77-152.23-325.83C1618.36,1275.11,1683.47,1419.46,1866.87,1613z"/>
		<path class="st1" d="M1798.59,1579.37c0,0-106.08-165.64-163.81-149.76S1648.29,1512.4,1798.59,1579.37z"/>
	</g>
	<g>
		<g>
			<path class="st2" d="M2969.71,387.67h-633.86c-19.87,0-36.13,16.26-36.13,36.13v1267.58c0,19.87,16.26,36.13,36.13,36.13h633.86
				c19.87,0,36.13-16.26,36.13-36.13V423.81C3005.84,403.93,2989.58,387.67,2969.71,387.67z"/>
			<path class="st3" d="M2901.26,387.67H2267.4c-19.87,0-36.13,16.26-36.13,36.13v1267.58c0,19.87,16.26,36.13,36.13,36.13h633.86
				c19.87,0,36.13-16.26,36.13-36.13V423.81C2937.4,403.93,2921.13,387.67,2901.26,387.67z"/>
			<rect x="2258.01" y="494.8" class="st4" width="654.13" height="1085.7"/>
			<g>
				<path class="st2" d="M2664.41,438.39h-183.56c-3.93,0-7.14,3.21-7.14,7.14c0,3.93,3.21,7.14,7.14,7.14h183.56
					c3.93,0,7.14-3.21,7.14-7.14C2671.55,441.6,2668.33,438.39,2664.41,438.39z"/>
				<path class="st2" d="M2697.01,438.39L2697.01,438.39c-3.93,0-7.14,3.21-7.14,7.14c0,3.93,3.21,7.14,7.14,7.14l0,0
					c3.93,0,7.14-3.21,7.14-7.14C2704.15,441.6,2700.93,438.39,2697.01,438.39z"/>
			</g>
			<path class="st2" d="M2569.8,1626.41c-20.2,0-36.57,16.37-36.57,36.57s16.37,36.57,36.57,36.57c20.2,0,36.57-16.37,36.57-36.57
				S2590,1626.41,2569.8,1626.41z"/>
		</g>
		<rect x="2255.42" y="1198.11" class="st5" width="656.72" height="394.28"/>
		<g>
			<g>
				<path class="st3" d="M2561.17,1521.74c-72.06,0-130.69-58.63-130.69-130.69c0-72.06,58.63-130.69,130.69-130.69
					s130.69,58.63,130.69,130.69C2691.86,1463.11,2633.23,1521.74,2561.17,1521.74z M2561.17,1277.43
					c-62.65,0-113.62,50.97-113.62,113.62c0,62.65,50.97,113.62,113.62,113.62c62.65,0,113.62-50.97,113.62-113.62
					C2674.79,1328.4,2623.82,1277.43,2561.17,1277.43z"/>
			</g>
			<path class="st6" d="M2473.02,1371.64c0,0,57.27,66.32,91.31,96.54c0,0,65.86-135.46,144.89-230.21
				c0,0-91.49,67.81-168.26,153.47C2540.96,1391.44,2519.61,1388.39,2473.02,1371.64z"/>
		</g>
		<g>
			<polygon class="st7" points="2469.36,694.56 2776.37,694.56 2815.66,988.62 2559.99,988.62 			"/>
			<g>
				<g>
					<path class="st7" d="M2669.7,726.75c-0.02,0-0.05,0-0.07,0c-2.52-0.04-4.54-2.12-4.5-4.64c0.99-64.51-9.08-107.47-29.93-127.69
						c-10.42-10.1-23.31-14.65-39.43-13.91c-61.03,2.82-65.67,140.41-65.71,141.8c-0.07,2.52-2.18,4.48-4.7,4.44
						c-2.52-0.07-4.51-2.17-4.44-4.7c0.17-6.02,4.98-147.47,74.43-150.67c18.52-0.85,34.05,4.69,46.21,16.48
						c23.05,22.36,33.75,66.32,32.7,134.39C2674.23,724.75,2672.19,726.75,2669.7,726.75z"/>
				</g>
				<polygon class="st8" points="2712.09,694.56 2427.67,694.56 2367.64,988.62 2680.2,988.62 				"/>
				<g>
					<path class="st9" d="M2553.46,800.99c-2.89,8.89-8.16,16.47-15.82,22.72c-7.66,6.25-15.94,9.38-24.86,9.38
						c-8.79,0-15.05-3.12-18.77-9.38c-3.72-6.25-4.14-13.82-1.25-22.72c2.97-9.15,8.34-16.92,16.1-23.3
						c7.76-6.38,16.17-9.57,25.22-9.57c9.05,0,15.35,3.29,18.9,9.86C2556.28,784.16,2556.44,791.84,2553.46,800.99z M2517.95,817.18
						c4.39,0,8.43-1.67,12.1-5.01c3.16-2.96,5.49-6.75,6.99-11.37c1.46-4.5,1.59-8.29,0.4-11.38c-1.29-3.6-4.13-5.4-8.52-5.4
						c-4.53,0-8.58,1.74-12.16,5.21c-3.16,2.96-5.51,6.81-7.06,11.57c-1.38,4.24-1.38,8.03-0.01,11.37
						C2511.06,815.51,2513.81,817.18,2517.95,817.18z M2609.06,774.32c-0.63,1.94-2.25,4.52-4.86,7.75l-53.95,66.09
						c-2.91,3.74-7.41,9.36-13.48,16.84c-7.44,9.07-18.55,22.73-33.33,41c-4.31,5.3-8.66,7.95-13.06,7.95
						c-2.46,0-4.26-0.81-5.42-2.42c-1.16-1.62-1.33-3.65-0.54-6.11c0.63-1.94,2.57-4.91,5.81-8.92l98.85-121.59
						c4.52-5.56,8.78-8.34,12.79-8.34C2608.35,766.57,2610.74,769.15,2609.06,774.32z M2600,880.4
						c-2.94,9.05-8.26,16.68-15.97,22.88c-7.71,6.21-16.02,9.31-24.94,9.31c-8.66,0-14.84-3.17-18.54-9.5
						c-3.7-6.33-4.11-13.9-1.26-22.69c3.02-9.31,8.34-17.13,15.96-23.46c7.62-6.33,16.01-9.5,25.2-9.5c9.31,0,15.66,3.14,19.05,9.41
						C2602.9,863.11,2603.06,870.97,2600,880.4z M2583.51,879.82c1.47-4.52,1.61-8.34,0.42-11.44c-1.5-3.36-4.44-5.04-8.83-5.04
						c-4.4,0-8.41,1.81-12.04,5.43c-3.21,3.1-5.54,6.92-7.01,11.44c-1.39,4.27-1.42,7.95-0.1,11.05c1.45,3.49,4.24,5.24,8.38,5.24
						c4.39,0,8.45-1.75,12.17-5.24C2579.66,888.29,2582,884.47,2583.51,879.82z"/>
				</g>
				<g>
					<path class="st7" d="M2640.11,726.75c-0.02,0-0.05,0-0.07,0c-2.52-0.04-4.54-2.12-4.5-4.64
						c0.99-64.51-9.08-107.47-29.93-127.69c-10.42-10.1-23.31-14.65-39.43-13.91c-61.03,2.82-65.67,140.41-65.71,141.8
						c-0.07,2.52-2.18,4.48-4.7,4.44c-2.52-0.07-4.51-2.17-4.44-4.7c0.17-6.02,4.98-147.47,74.43-150.67
						c18.52-0.85,34.05,4.69,46.21,16.48c23.05,22.36,33.75,66.32,32.7,134.39C2644.64,724.75,2642.6,726.75,2640.11,726.75z"/>
				</g>
			</g>
			<polygon class="st10" points="2744.97,705.74 2719.49,988.51 2790.18,988.51 			"/>
		</g>
		<g>
			<path class="st5" d="M2356.36,1073.48l183.66-0.4c3.87-0.01,7.03-3.18,7.02-7.05c-0.01-3.87-3.18-7.03-7.05-7.02l-183.66,0.4
				c-3.87,0.01-7.03,3.18-7.02,7.05l0,0C2349.32,1070.33,2352.49,1073.49,2356.36,1073.48z"/>
			<path class="st5" d="M2330.71,1073.54l0.5,0c3.87-0.01,7.02-3.18,7.02-7.05c-0.01-3.87-3.18-7.03-7.05-7.02l-0.5,0
				c-3.87,0.01-7.03,3.18-7.02,7.05C2323.67,1070.39,2326.85,1073.54,2330.71,1073.54z"/>
			<path class="st5" d="M2356.41,1098.3l183.66-0.4c3.87-0.01,7.03-3.18,7.02-7.05s-3.18-7.03-7.05-7.02l-183.66,0.4
				c-3.87,0.01-7.03,3.18-7.02,7.05l0,0C2349.38,1095.15,2352.55,1098.31,2356.41,1098.3z"/>
			<path class="st5" d="M2330.77,1098.36l0.5,0c3.87-0.01,7.03-3.18,7.02-7.05c-0.01-3.87-3.18-7.03-7.05-7.02l-0.5,0
				c-3.87,0.01-7.03,3.18-7.02,7.05C2323.73,1095.21,2326.9,1098.36,2330.77,1098.36z"/>
			<path class="st5" d="M2540.1,1108.65l-183.66,0.4c-3.87,0.01-7.03,3.18-7.02,7.05c0.01,3.87,3.18,7.03,7.05,7.02l183.66-0.4
				c3.87-0.01,7.03-3.18,7.02-7.05C2547.14,1111.8,2543.97,1108.65,2540.1,1108.65z"/>
			<path class="st5" d="M2331.29,1109.11l-0.5,0c-3.87,0.01-7.03,3.18-7.02,7.05l0,0c0.01,3.87,3.18,7.03,7.05,7.02l0.5,0
				c3.87-0.01,7.03-3.18,7.02-7.05S2335.16,1109.1,2331.29,1109.11z"/>
		</g>
	</g>
	<g>
		<path class="st11" d="M1293.87,853.92c0,0-62.29-27.17-72.67,36.64c-5,30.75,21.98,61.68,15.27,77.56
			c-6.72,15.88-32.37,50.07-15.88,65.95c0,0-1.22-15.27,8.55-26.87c0,0-13.11,42.23,14.21,47.68s72.51-18.98,69.45-61.72
			C1309.75,950.41,1293.87,853.92,1293.87,853.92z"/>
		<path class="st11" d="M1338.45,863.69c0,0-13.44-18.32-48.85-12.21c-35.42,6.11-24.46,79.28,5.78,91.85L1338.45,863.69z"/>
		<path class="st12" d="M1484.99,1718.66c-0.75,2.27-5.01,6.8-16.02,8.86h-28.07c-5.95-1.03-7.65-2.27-17.54-1.05
			c-15.09,1.86-28.39,1.86-29.16-7.57c-0.27-3.32,0.33-6.6,0.93-9.81c1.13-5.91,5.93-10.42,5.04-17.17
			c-1.97-15.04-21.21-60.9-21.21-60.9l33.05-6.17c0,0,8.38,53.51,17.55,65.26c8.14,10.43,18.77,17.09,31.08,20.12
			c1.38,0.34,2.75,0.67,4.13,0.99C1475.68,1713.79,1485.88,1715.97,1484.99,1718.66z"/>
		<path class="st13" d="M1484.99,1718.66c-0.75,2.27-5.01,6.8-16.02,8.86h-28.07c-5.95-1.03-7.65-2.27-17.54-1.05
			c-15.09,1.86-28.39,1.86-29.16-7.57c-0.27-3.32,0.33-6.6,0.93-9.81c9.8,0.98,24.32,6.8,38.53,8.12
			c17.42,1.62,30.98-5.79,30.98-5.79l0.13-0.2C1475.68,1713.79,1485.88,1715.97,1484.99,1718.66z"/>
		<g>
			<path class="st13" d="M1423.75,1663.39c0,0-8.66,5.73-16.79,7.21c-12.21,2.22-17.87-0.24-17.87-0.24s-58.71-147.4-55.36-197.21
				c0.08-1.2,0.13-2.47,0.14-3.82c0.1-8.64-1.15-20.16-3.29-33.42c-0.79-4.86-1.7-9.95-2.71-15.22
				c-2.35-12.28-5.27-25.53-8.47-39.04c-1.41-5.95-2.88-11.95-4.37-17.94c-14.76-58.94-32.79-117.01-32.79-117.01
				s105.94-34.61,111.93-2.26c2.3,12.41,9.96,62.08,6.51,138.02c-2.78,61.13-0.98,108.82,4.3,164.16
				C1409.61,1595.22,1417.56,1637.02,1423.75,1663.39z"/>
		</g>
		<path class="st14" d="M1333.87,1469.32c0.1-8.64-1.15-20.16-3.29-33.42c-0.79-4.86-1.7-9.95-2.71-15.22
			c-2.35-12.28-5.27-25.53-8.47-39.04c-1.41-5.95-2.88-11.95-4.37-17.94c2.09-17.98,3.78-30.32,3.78-30.32
			S1362.78,1393.13,1333.87,1469.32z"/>
		<path class="st12" d="M1351.34,1718.66c-0.75,2.27-5.01,6.8-16.02,8.86h-28.07c-5.95-1.03-7.65-2.27-17.54-1.05
			c-15.08,1.86-28.39,1.86-29.15-7.57c-0.28-3.32,0.32-6.6,0.92-9.81c1.13-5.91,5.04-10.36,5.04-17.17
			c0-20.22-4.68-56.96-4.68-56.96l31.07,11.1c0,0-7.01,36.52,3,44.05c10.57,7.95,18.78,17.09,31.08,20.12
			c1.38,0.34,2.76,0.67,4.13,0.99C1342.03,1713.79,1352.23,1715.97,1351.34,1718.66z"/>
		<path class="st13" d="M1351.34,1718.66c-0.75,2.27-5.01,6.8-16.02,8.86h-28.07c-5.95-1.03-7.65-2.27-17.54-1.05
			c-15.08,1.86-28.39,1.86-29.15-7.57c-0.28-3.32,0.32-6.6,0.92-9.81c9.8,0.98,24.33,6.8,38.53,8.12
			c17.42,1.62,30.98-5.79,30.98-5.79l0.13-0.2C1342.03,1713.79,1352.23,1715.97,1351.34,1718.66z"/>
		<path class="st13" d="M1346.04,1235.17c0,0-34.47,171.78-40.29,265.27s-13.09,170.9-13.09,170.9s-7.52,2.71-16.15,2.22
			c-9.11-0.52-16.34-3.33-16.34-3.33s-34.16-140.67-22.85-196.97c11.31-56.3,1.89-108.24-3.54-154.94
			c-7.79-66.96,22.18-98.09,43.09-119.31C1298.05,1177.53,1346.04,1235.17,1346.04,1235.17z"/>
		<path class="st15" d="M1353.57,1010.35l-16.51,24.77l-33.27-1.64l-15.37-39.72c0,0,4.74-0.9,6.95-50.43L1336.9,956
			c0,0-2.21,12.91,0.74,26.97C1339.68,992.78,1344.17,1003.24,1353.57,1010.35z"/>
		<path class="st15" d="M1358.2,992.88c-2.14,0-41.25-13.08-97.1,9.66c0,0,26.51,151.69,15.13,180.65
			c-11.39,28.95-15.72,54.65-15.72,54.65l123.56,1.53c0,0-1.73-99.37,3.97-134.54C1393.72,1069.65,1358.2,992.88,1358.2,992.88z"/>
		<path class="st16" d="M1563.41,1094.95c-0.37-4.32-1.73-5.3-1.73-5.3c-39.5,5.8-65.68,5.47-78.51,7.97
			c-10.08,1.95-14.2,2.23-15.93-0.21c-54.57-76.73-93.19-100.84-93.19-100.84s-4.12-2.45-20.23-4.67c0,0-2.32,29.18-17.31,31.65
			c-25.94,4.28-46.83-19.48-52.94-29.04c0,0-29.78,7.52-38.53,17.48c-6.28,7.16-5.46,24.29-3.6,35.06c0.59,3.42,1.29,6.2,1.89,7.81
			c1.84,4.88,8.82,40.65,12,54.89c0.07,0.36,0.15,0.7,0.21,1.01c0.22,0.95,0.41,1.79,0.59,2.49c0.01,0.02,0.01,0.04,0.01,0.06
			c0.19,0.76,0.34,1.35,0.47,1.74c0.07,0.23,0.15,0.47,0.22,0.7c0,0.01,0.01,0.03,0.02,0.04c4.59,14.65,7.36,29.58,5.73,47.88
			c-0.19,2.15-0.69,4.75-1.42,7.67c-4.15,21.27-21.39,63.22-24.97,82.47c2.06,4.35,6.74,7.79,12.43,10.53
			c7.42,3.58,16.54,5.97,23.81,7.63c5.62,1.29,14.27,2.74,24.24,3.86c5.29,0.59,10.96,1.09,16.73,1.43c0.81,0.05,1.62,0.1,2.43,0.13
			c37.22,1.85,78.9,0.93,84.33-16.76c2.6-8.49-7.77-59.54-9.16-74.71c-2.42-26.65,1.52-63.14,3.3-91.4
			c30.55,33.66,62.07,45.78,62.07,45.78c7.55-0.35,16.24-1.77,25.33-3.8c9.76-2.18,20-5.08,29.78-8.19
			c27.67-8.76,53.68-21.02,53.68-21.02S1564.23,1104.48,1563.41,1094.95z"/>
		<path class="st17" d="M1342.26,1220.37c-7.05,23.92-11.15,43.6-28.86,56.91c-5.77-0.33-11.44-0.84-16.73-1.43
			c-9.97-1.12-18.62-2.57-24.24-3.86c-7.26-1.67-16.39-4.05-23.81-7.63c-5.69-2.74-10.36-6.18-12.43-10.53
			c3.58-19.26,20.82-61.2,24.97-82.47c0.41-2.07,0.69-3.94,0.82-5.58c1.54-19.06-0.93-34.71-5.13-49.98
			c-0.01-0.01-0.02-0.03-0.02-0.04c-0.23-0.81-0.46-1.62-0.69-2.43c-0.01-0.02-0.01-0.04-0.01-0.06c-0.15-0.53-0.35-1.38-0.59-2.49
			c-0.07-0.31-0.14-0.64-0.21-1.01c-2.84-13.49-10.28-55.84-12.17-61.36c-0.6-1.75-1.27-4.74-1.86-8.43l14.88-14.31
			c0,0,85.35,36.45,104.16,86.72C1379.15,1162.65,1352.39,1186.06,1342.26,1220.37z"/>
		<path class="st17" d="M1511.5,1128.33c-18.89,5.99-39.45,11.24-55.11,11.99c0,0-31.34-11.6-62.07-45.78
			c-1.29-5.81-3.16-16.21,3.88-13.4c9.87,3.94,46.36,50.8,60.17,51.78C1468.25,1133.62,1496.35,1130.29,1511.5,1128.33z"/>
		<path class="st16" d="M1444.09,1114.98c0,0-42.07,21.13-78.55,29.88c-10.5,2.52-20.61,4.3-29.23,4.71c0,0-39.5-11.87-69.17-54
			c-54.81-77.84-13.18-89.74-13.18-89.74s38.63,24.1,93.19,100.83c1.91,2.69,6.7,2.08,19.11-0.43c13.26-2.68,39.64-2.36,76.07-7.71
			c0,0,0.61,1.35,0.98,5.67C1444.14,1113.73,1444.09,1114.98,1444.09,1114.98z"/>
		<path class="st18" d="M1565.18,1107.31c0,0-26.01,12.26-53.68,21.02c-9.79,3.11-20.02,6.01-29.78,8.19
			c-3.92-17.44-1.21-31.03,1.45-38.9c12.83-2.5,40.24-2.67,79.74-8.47L1565.18,1107.31z"/>
		<path class="st18" d="M1553.05,1091.61c0,0,9.99-1.94,18.32-6.11s30.53-6.94,35.25-2.5c4.72,4.44-5,22.48-25.26,23.04
			c-20.26,0.55-26.09,3.89-26.09,3.89L1553.05,1091.61z"/>
		<g>
			<path class="st19" d="M1589.08,1030.15l-112.97,21.96c-4.95,0.96-8.99,5.79-8.99,10.74v78.07c0,4.95,4.05,8.21,8.99,7.24
				l112.97-21.96c4.95-0.96,8.99-5.79,8.99-10.74v-78.07C1598.07,1032.44,1594.02,1029.18,1589.08,1030.15z"/>
			<path class="st20" d="M1593.58,1030.15l-112.97,21.96c-4.95,0.96-8.99,5.79-8.99,10.74v78.07c0,4.95,4.05,8.21,8.99,7.24
				l112.97-21.96c4.95-0.96,8.99-5.79,8.99-10.74v-78.07C1602.57,1032.44,1598.52,1029.18,1593.58,1030.15z"/>
			<path class="st19" d="M1482.49,1058.2c-2.04,0.4-3.69,2.37-3.69,4.41s1.65,3.37,3.69,2.97c2.04-0.4,3.69-2.37,3.69-4.41
				C1486.18,1059.14,1484.53,1057.81,1482.49,1058.2z"/>
		</g>
		<path class="st12" d="M1495.08,1089.01c-5.04-4.74-28.74-1.78-37.63,2.67c-5.2,2.6-11,4.39-14.92,5.42
			c-0.01-0.04-0.01-0.06-0.01-0.06c-36.43,5.35-63,6.51-76.25,9.19c4.15,8.95,7.28,22.79-0.72,38.63
			c34.84-8.35,75.66-26.99,79.26-28.65c4.09-1.04,11.34-2.28,23.32-2.6C1489.75,1113.01,1500.12,1093.75,1495.08,1089.01z"/>
		<path class="st21" d="M1337.63,982.97c-17.16-1.39-42.26-39.64-42.26-39.64L1336.9,956C1336.9,956,1334.69,968.91,1337.63,982.97z
			"/>
		<path class="st15" d="M1347.77,958.8c0,0-49.72,9.98-55.46-21.07c-5.74-31.06-16.03-50.69,15.48-58.38
			c31.5-7.69,39.88,3.02,44.32,12.92C1356.54,902.18,1360.56,955.41,1347.77,958.8z"/>
		<path class="st11" d="M1323.48,871.6c0,0,0.87,10.53-15.48,28.41c-16.35,17.88-7.07,45.96-7.07,45.96s-32.94-48.02-18.24-64.56
			C1297.39,864.88,1323.48,871.6,1323.48,871.6z"/>
		<path class="st11" d="M1303.48,857.9c0,0,24.72-8.27,49.25,15.9c10.57,10.41,8.97,30.88,3.31,42.76c0,0-8.69-25.45-24.51-31
			C1315.71,880,1303.48,857.9,1303.48,857.9z"/>
		<path class="st9" d="M1332.28,943.52c0,0,1.33,3.69,10.69,2.01c0,0,7.86-1.4,7.14-5.54C1350.11,940,1342.09,937.92,1332.28,943.52
			z"/>
	</g>
	<g>
		<path class="st15" d="M1794.43,1069.35l-7.5,12.14c-3.89,4.47-4.94,6.97-8.02,8.49c-7.44,3.66-21.19,13.06-22.23,32.81
			c0,0,0.23,11.18,7.73,7.55c7.49-3.62,4.22-3.29,14.87-8.17c10.65-4.88,14.6-20.4,15.53-25.69l8.69-11.41L1794.43,1069.35z"/>
		<g>
			<path class="st15" d="M2269.03,891.47c0,0,7.95-19.47,16.69-20.27c8.74-0.8,36.56-5.17,38.55-1.19c1.99,3.97,0,18.28-5.96,23.45
				c-5.96,5.17-42.92,13.51-42.92,13.51L2269.03,891.47z"/>
			<path class="st15" d="M2134.84,1715.21c-0.98,3.04-6.63,9.17-21.43,12.04h-38.7c-5.11-0.94-8.01-1.9-14.97-1.44
				c-0.26,0.02-0.53,0.04-0.8,0.06c-0.34,0.02-0.69,0.05-1.04,0.09c-1.33,0.12-2.82,0.3-4.47,0.51c-2.2,0.3-4.38,0.56-6.5,0.78
				c-0.96,0.1-1.91,0.19-2.84,0.27h-15.98c-0.58-0.08-1.14-0.17-1.69-0.27c-1.83-0.34-3.48-0.81-4.94-1.45
				c-0.02,0-0.04-0.01-0.06-0.02c-3.84-1.68-6.27-4.5-6.68-8.88c-0.41-4.38,0.33-8.74,1.08-12.99c0.09-0.51,0.2-1.02,0.31-1.53
				c1.55-7.27,5.56-9.65,6.3-18.05c1.36-15.71-11.64-70.24-11.64-70.24h49.54c0,0-1.34,49.36,4.33,65.99
				c5.34,15.69,21.51,20.52,37.83,24.35c1.83,0.42,3.66,0.84,5.49,1.25c0.67,0.14,1.33,0.3,1.99,0.44
				C2123.67,1709.17,2135.92,1711.81,2134.84,1715.21z"/>
			<g>
				<path class="st16" d="M1957.09,1183.38c4.18,23.47,10.15,47.73,15.33,72.96c8.32,40.57,14.61,83.66,8.17,130.06
					c-0.82,5.97-1.27,12.56-1.37,19.65c-1.25,82.01,35.4,230.64,35.4,230.64s9.95,4.29,26.63,3.47c8.59-0.43,21.77-5.96,21.77-5.96
					s3.47-92.15,3.68-216.08c0.15-89.83,17.79-208.11,21.35-277.61c2.16-42.06-2.53-98.09-2.53-98.09s-73.05-58.74-99.28-28.69
					C1960.32,1043.42,1941.44,1095.57,1957.09,1183.38z"/>
			</g>
			<path class="st17" d="M1980.59,1386.4c-0.82,5.97-1.27,12.56-1.37,19.65c54.71-79.26,66.8-252.09,66.8-252.09l-60.09,29.16
				c0,0-6.59,32.41-13.52,73.22C1980.74,1296.91,1987.02,1340,1980.59,1386.4z"/>
			<path class="st15" d="M1976.8,1715.84c-0.91,2.83-5.87,8.35-18.52,11.41h-44.84c-3.42-0.68-6.36-1.17-11.74-0.81
				c-0.26,0.02-0.53,0.03-0.8,0.06c-0.34,0.02-0.69,0.05-1.04,0.08c-1.33,0.12-2.82,0.3-4.47,0.52c-0.39,0.05-31.23-0.36-31.95-0.67
				c-0.02,0-0.05-0.01-0.06-0.02c-3.85-1.69-6.27-4.5-6.68-8.88c-0.41-4.39,0.33-8.74,1.08-12.99c0.09-0.51,0.19-1.02,0.31-1.53
				c1.54-7.27,5.8-11.89,6.55-20.28c1.36-15.71-1.49-71.09-1.49-71.09l45.9,3.83c0,0-8.11,48.6-2.44,65.24
				c5.35,15.68,21.52,20.52,37.84,24.35c1.83,0.41,3.66,0.84,5.48,1.24c0.68,0.15,1.34,0.3,2,0.45
				C1965.62,1709.79,1977.87,1712.43,1976.8,1715.84z"/>
			<path class="st16" d="M1863.17,1640.88c0,0,11.8,5.58,20.29,7.28c8.49,1.7,26.14-1.62,26.14-1.62
				c3.18-35.69,10.58-91.49,24.95-154.46c16.37-71.69,40.72-156.41,74.67-236.64c7.25-17.13,37.15-98.23,42.23-118.7
				c15.35-61.84-0.06-55.18-0.06-55.18l-134.12-15.74c0,0-16.52,8.49-24.13,95.82c-2.28,26.15-2.56,139.07-5.99,160.47
				c-3.25,20.27-7.06,37.13-11.52,48.08C1850.71,1431.36,1863.17,1640.88,1863.17,1640.88z"/>
			<path class="st22" d="M1976.8,1715.98c-0.91,2.87-5.87,8.45-18.52,11.54h-44.84c-3.42-0.68-6.36-1.18-11.74-0.82
				c-0.26,0.02-0.53,0.03-0.8,0.06c-0.34,0.02-0.69,0.06-1.04,0.09c-1.36,0.1-2.85,0.25-4.5,0.44c-0.67,0.08-1.34,0.16-2.01,0.23
				h-27.06c-1.01-0.23-1.96-0.5-2.85-0.83c-0.02,0-0.05-0.01-0.06-0.02c-3.85-1.71-6.27-4.55-6.68-8.98
				c-0.41-4.44,0.33-8.83,1.08-13.13c0.09-0.52,0.19-1.03,0.31-1.55c13.51,1.9,32.74,9.53,51.58,11.36
				c21.42,2.1,38.66-5.78,42.26-7.58C1965.62,1709.87,1977.87,1712.54,1976.8,1715.98z"/>
			<path class="st22" d="M2134.84,1715.37c-0.98,3.08-6.63,9.28-21.43,12.19h-38.7c-5.11-0.95-8.01-1.92-14.97-1.46
				c-0.26,0.02-0.53,0.04-0.8,0.06c-0.34,0.02-0.69,0.05-1.04,0.09c-1.36,0.1-2.84,0.24-4.5,0.45c-2.86,0.34-5.67,0.64-8.4,0.86
				c-6.27,0.52-12.11,0.62-17.03,0c-2.4-0.3-4.58-0.78-6.49-1.47c-0.02,0-0.04-0.01-0.06-0.02c-3.84-1.7-6.27-4.55-6.68-8.99
				c-0.41-4.43,0.33-8.85,1.08-13.15c0.09-0.52,0.2-1.03,0.31-1.55c13.51,1.9,32.74,9.54,51.58,11.37
				c21.42,2.12,38.66-5.78,42.26-7.58C2123.67,1709.25,2135.92,1711.92,2134.84,1715.37z"/>
			<path class="st23" d="M2068.39,664.22c4.53-37-7.02-96.2-80.87-86.74c-73.84,9.46-97.12,82.03-82.22,114.3
				c14.89,32.27-21.44,40.05-32.85,74.75c-9.8,29.81-13.21,66.82-29.07,83.43c-51.12,53.55,49.08,135.91,109.48,118.54
				c110.02-31.63,124.2-36.35,120.29-122.8c-2-44.29-36.46-61.45-14.58-74.27C2111.43,740.48,2058.14,747.94,2068.39,664.22z"/>
			<path class="st15" d="M1959.85,761.06l20.35,52.57l43.9,2.14l21.9-32.71c-13.82-10.51-19.66-26.28-21.81-40.4
				c-1.75-11.29-1.27-21.51-0.78-27.06c0.29-2.82,0.58-4.48,0.58-4.48l-54.71-16.65l-0.19-0.1c-0.68,14.5-1.46,25.89-2.34,34.75
				C1963.65,760.38,1959.85,761.06,1959.85,761.06z"/>
			<path class="st15" d="M2046.2,759.21c-2.83,0-50.78-9.76-131.77,10.96c0,0,44.35,203.21,29.29,241.51
				c-15.07,38.3-20.79,72.29-20.79,72.29l163.46,2.03c0,0-2.29-131.46,5.25-177.99C2099.16,861.48,2046.2,759.21,2046.2,759.21z"/>
			<path class="st20" d="M2269.7,881.71c0,0-93.14,35.01-102.4,35.67c-20.16,1.44-40.68-95.89-59.53-128.32
				c-12.76-21.96-55.77-28.96-61.18-29.76c-0.13-0.03-0.26-0.05-0.4-0.08c0,0,0,0.02,0,0.02c-0.11-0.02-0.17-0.02-0.17-0.02
				l0.12,0.5c-0.42,4.45-4.17,37.74-22.69,40.79c-34.31,5.66-61.95-25.77-70.03-38.42l-0.01,0c0,0,0,0,0,0
				c0,0-38.88,1.54-56.91,18.31c-20.39,18.97-50.73,134.97-58.92,191.46c0,0-41.15,78.42-54.25,109.53c0,0,2.45,4.25,7.36,7.46
				c4.76,3.11,10.76,4.34,10.76,4.34s74.23-82.85,79.1-95.95c2.32-6.22,20-34.95,37.39-75.1c6.15,19.51,9.89,39.35,7.71,63.74
				c-2.39,26.9-27.52,88.36-22.09,101.46c5.7,13.75,13.61,20.71,30.93,24.69c11.94,2.75,28.34,4.08,51.56,5.23
				c49.24,2.45,102.01-3.74,109.19-27.15c3.44-11.24,2.12-54.71,0.29-74.78c-2.4-26.38-0.08-60.05,2.22-90.99
				c0.11,0.17,0.22,0.34,0.34,0.52c5.38,8.16,11.47,16.93,17.75,25.05c9.44,12.2,19.29,22.9,27.72,27.77c2.04,1.19,4,2.02,5.86,2.46
				c6.45,1.53,18.26-2.04,32.28-8.19c4.97-2.18,10.23-4.69,15.62-7.41c38.89-19.65,84.88-50.44,84.88-50.44
				C2285.21,896.24,2269.7,881.71,2269.7,881.71z"/>
			<path class="st24" d="M1903.6,1087.33c5.7,13.75,13.61,20.71,30.93,24.69c23.15-4.45,38.42-47.05,46.28-68.01
				c9.06-24.16-38.13-148.37-51.16-147.24c-9.68,0.84-11.54,16.68-11.86,24.77c6.26,19.7,10.09,39.7,7.89,64.33
				C1923.3,1012.78,1898.17,1074.24,1903.6,1087.33z"/>
			<path class="st24" d="M2098.14,924.85c5.38,8.16,11.47,16.93,17.75,25.05c9,11.08,18.93,21.79,27.72,27.77
				c2.04,1.19,4,2.02,5.86,2.46c6.45,1.53,18.26-2.04,32.28-8.19c-8.34,0.61-16.54,0.32-24.59-0.37
				c-14.11-1.2-18.21-16.48-40.52-39.39C2103.3,918.49,2099.25,920.6,2098.14,924.85z"/>
			<path class="st21" d="M1969.29,694.48c8.28,13.53,28.23,41.37,54.91,48.19c-1.75-11.29-1.27-21.51-0.78-27.06
				c0.29-2.82,0.58-4.48,0.58-4.48L1969.29,694.48z"/>
			<path class="st15" d="M2038.37,714.84c0,0-65.77,13.21-73.37-27.88c-7.6-41.09-21.2-67.05,20.47-77.23
				c41.67-10.17,52.75,3.99,58.63,17.09C2049.97,639.93,2055.28,710.35,2038.37,714.84z"/>
			<path class="st23" d="M2006.23,599.48c0,0,1.15,13.94-20.48,37.58c-21.63,23.65-17.42,71.47-17.42,71.47
				s-35.52-74.19-16.07-96.07C1971.71,590.58,2006.23,599.48,2006.23,599.48z"/>
			<path class="st23" d="M1979.78,581.35c0,0,32.7-10.94,65.15,21.03c13.98,13.78,11.87,40.85,4.38,56.57
				c0,0-11.5-33.67-32.43-41.01C1995.95,610.59,1979.78,581.35,1979.78,581.35z"/>
			<path class="st9" d="M2017.88,694.63c0,0,1.76,4.88,14.14,2.66c0,0,10.4-1.86,9.44-7.33
				C2041.46,689.96,2030.85,687.21,2017.88,694.63z"/>
		</g>
	</g>
	<path class="st25" d="M1041.25,1540.93H334.5c-9.85,0-17.91,7.76-17.91,17.24v0c0,9.48,8.06,17.24,17.91,17.24h16.28v141.02
		c0,6.03,5.13,10.97,11.4,10.97h66.77c6.27,0,11.4-4.93,11.4-10.97V1575.4h463.71v140.96c0,6.07,5.16,11.03,11.47,11.03h66.63
		c6.31,0,11.47-4.96,11.47-11.03V1575.4h47.63c9.85,0,17.91-7.76,17.91-17.24v0C1059.17,1548.69,1051.1,1540.93,1041.25,1540.93z"/>
	<g>
		<g>
			<path class="st26" d="M1606.79,415.66h-172.76c-45.45,0-82.63,37.18-82.63,82.63V640.6c0,45.45,37.19,82.63,82.63,82.63h172.76
				c45.45,0,82.63-37.19,82.63-82.63V498.29C1689.43,452.84,1652.24,415.66,1606.79,415.66z"/>
			<g>
				<path class="st7" d="M1431.9,553.22c0,0-64.97,32.34-66.19,40.41l135.79,0.33c0,0,32.03-6.38,38.42-31.67
					c9.6-37.98,26.44-35.74,26.44-35.74l-0.86,67.56l19.32,0.05c0,0,28.98-100.54,29.03-120.37c0.05-19.83-8.2-25.36-8.2-25.36
					s-50.68,3.73-110.39,95.57C1495.27,544.01,1483.51,555.18,1431.9,553.22z"/>
			</g>
			<g>
				<path class="st6" d="M1483.51,614c0,0-57.97,43.66-57.7,51.82l133.57-24.47c0,0,30.32-12.12,31.99-38.15
					c2.51-39.1,19.47-39.97,19.47-39.97l11.49,66.58l19.01-3.48c0,0,10.14-104.14,6.56-123.65c-3.57-19.5-12.69-23.43-12.69-23.43
					s-49.15,12.92-91.08,114.12C1544.13,593.37,1534.61,606.5,1483.51,614z"/>
				<path class="st4" d="M1461.98,603.45c0,0,5.47,20.26-5.77,27.14c-10.74,6.58-20.26,7.88-20.26,7.88s32.59-1.59,40,26.87
					c0,0-9.92-30.19,19.54-36.9C1495.49,628.44,1474.64,636.64,1461.98,603.45z"/>
			</g>
		</g>
		<g>
			<path class="st26" d="M1504.68,875.13c-2.64,1.12-3.87,4.17-2.75,6.81c1.12,2.64,4.17,3.87,6.81,2.75
				c2.64-1.12,3.87-4.17,2.75-6.81C1510.37,875.24,1507.32,874,1504.68,875.13z"/>
			<path class="st26" d="M1542.15,832.2c-5,2.12-7.33,7.9-5.21,12.9c2.12,5,7.9,7.33,12.9,5.21c5-2.12,7.33-7.9,5.21-12.9
				C1552.92,832.41,1547.15,830.08,1542.15,832.2z"/>
			<path class="st26" d="M1585.53,769.48c-3.37-7.94-12.54-11.64-20.48-8.27c-7.94,3.37-11.64,12.54-8.27,20.48
				c3.37,7.94,12.54,11.64,20.48,8.27C1585.2,786.58,1588.91,777.41,1585.53,769.48z"/>
		</g>
	</g>
	<g>
		<g>
			<path class="st8" d="M669.17,896.57H562.93c-27.95,0-50.81,22.87-50.81,50.81v87.51c0,27.95,22.87,50.81,50.81,50.81h106.23
				c27.95,0,50.81-22.87,50.81-50.81v-87.51C719.98,919.44,697.11,896.57,669.17,896.57z"/>
			<g>
				<g>
					<path class="st24" d="M601.92,955.57c0,7.65-2.39,14.18-7.15,19.56c-4.76,5.4-10.91,8.09-18.46,8.09
						c-7.44,0-13.6-2.69-18.48-8.09c-4.86-5.38-7.31-11.91-7.31-19.56c0-7.88,2.42-14.57,7.23-20.06
						c4.82-5.51,11.05-8.25,18.72-8.25c7.66,0,13.89,2.83,18.72,8.5C599.68,941.08,601.92,947.69,601.92,955.57z M576.31,969.52
						c3.71,0,6.67-1.44,8.86-4.32c1.86-2.54,2.79-5.8,2.79-9.79c0-3.87-0.94-7.15-2.79-9.8c-2.07-3.1-4.98-4.65-8.7-4.65
						c-3.83,0-6.79,1.5-8.87,4.49c-1.86,2.54-2.78,5.86-2.78,9.96c0,3.64,1.03,6.92,3.11,9.79
						C570.02,968.08,572.8,969.52,576.31,969.52z M641.64,932.6c0,1.67-0.65,3.9-1.98,6.67l-27.49,56.93
						c-1.43,3.22-3.69,8.06-6.77,14.51c-3.79,7.82-9.45,19.59-16.94,35.32c-2.19,4.57-5.14,6.85-8.86,6.85
						c-2.08,0-3.83-0.71-5.26-2.09c-1.42-1.39-2.12-3.14-2.12-5.26c0-1.67,0.81-4.23,2.46-7.68L624.9,933.1
						c2.3-4.79,5.14-7.18,8.54-7.18C638.9,925.93,641.64,928.16,641.64,932.6z M663.15,1023.98c0,7.79-2.4,14.37-7.23,19.71
						c-4.81,5.34-11,8.02-18.54,8.02c-7.33,0-13.44-2.73-18.3-8.2c-4.88-5.45-7.31-11.96-7.31-19.54c0-8.02,2.35-14.76,7.05-20.21
						c4.7-5.45,10.94-8.18,18.72-8.18c7.88,0,14.12,2.71,18.72,8.1C660.85,1009.08,663.15,1015.85,663.15,1023.98z M649.03,1023.48
						c0-3.9-0.92-7.18-2.79-9.86c-2.19-2.9-5.14-4.35-8.86-4.35c-3.73,0-6.63,1.56-8.7,4.69c-1.87,2.66-2.79,5.95-2.79,9.84
						c0,3.68,0.98,6.85,2.95,9.53c2.19,3,5.04,4.51,8.54,4.51c3.71,0,6.67-1.51,8.86-4.51
						C648.11,1030.78,649.03,1027.49,649.03,1023.48z"/>
				</g>
				<g>
					<path class="st9" d="M666.01,1003.68c-4.6-5.4-10.83-8.1-18.72-8.1c-7.78,0-14.01,2.73-18.72,8.18
						c-4.7,5.45-7.05,12.19-7.05,20.21c0,7.57,2.43,14.08,7.31,19.54c4.86,5.46,10.97,8.2,18.3,8.2c7.55,0,13.73-2.68,18.54-8.02
						c4.82-5.34,7.23-11.92,7.23-19.71C672.9,1015.85,670.6,1009.08,666.01,1003.68z M655.99,1033.33c-2.19,3-5.14,4.51-8.86,4.51
						c-3.5,0-6.35-1.51-8.54-4.51c-1.98-2.68-2.95-5.84-2.95-9.53c0-3.89,0.92-7.18,2.79-9.84c2.07-3.13,4.97-4.69,8.7-4.69
						c3.71,0,6.67,1.46,8.86,4.35c1.87,2.68,2.79,5.95,2.79,9.86C658.78,1027.49,657.86,1030.78,655.99,1033.33z"/>
					<path class="st9" d="M604.53,975.14c4.76-5.38,7.15-11.91,7.15-19.56c0-7.88-2.24-14.49-6.73-19.82
						c-4.82-5.67-11.06-8.5-18.72-8.5c-7.67,0-13.89,2.75-18.72,8.25c-4.81,5.49-7.23,12.18-7.23,20.06
						c0,7.65,2.44,14.18,7.31,19.56c4.88,5.4,11.04,8.09,18.48,8.09C593.61,983.23,599.77,980.53,604.53,975.14z M577.69,965.2
						c-2.08-2.87-3.11-6.14-3.11-9.79c0-4.11,0.92-7.42,2.78-9.96c2.08-2.99,5.04-4.49,8.87-4.49c3.71,0,6.63,1.55,8.7,4.65
						c1.86,2.65,2.79,5.93,2.79,9.8c0,3.98-0.94,7.25-2.79,9.79c-2.19,2.88-5.14,4.32-8.86,4.32
						C582.55,969.52,579.77,968.08,577.69,965.2z"/>
					<path class="st9" d="M649.42,939.28c1.32-2.77,1.98-5,1.98-6.67c0-4.45-2.74-6.67-8.2-6.67c-3.39,0-6.24,2.39-8.54,7.18
						l-50.23,104.74c-1.64,3.45-2.46,6.01-2.46,7.68c0,2.12,0.71,3.87,2.12,5.26c1.43,1.39,3.18,2.09,5.26,2.09
						c3.71,0,6.67-2.28,8.86-6.85c7.5-15.73,13.15-27.5,16.94-35.32c3.09-6.44,5.34-11.28,6.77-14.51L649.42,939.28z"/>
				</g>
			</g>
		</g>
		<g>
			<path class="st8" d="M606.38,1179.7c-1.62,0.69-2.38,2.56-1.69,4.19c0.69,1.62,2.56,2.38,4.19,1.69
				c1.62-0.69,2.38-2.56,1.69-4.19C609.87,1179.76,608,1179.01,606.38,1179.7z"/>
			<path class="st8" d="M629.41,1153.3c-3.07,1.31-4.51,4.86-3.2,7.93c1.31,3.08,4.86,4.51,7.93,3.2c3.07-1.31,4.51-4.86,3.2-7.93
				C636.04,1153.43,632.49,1152,629.41,1153.3z"/>
			<path class="st8" d="M656.09,1114.73c-2.07-4.88-7.71-7.16-12.59-5.08c-4.88,2.07-7.16,7.71-5.09,12.59
				c2.07,4.88,7.71,7.16,12.59,5.08C655.89,1125.25,658.17,1119.61,656.09,1114.73z"/>
		</g>
	</g>
	<g>
		<path class="st26" d="M3555.15,825.03h-173.28c-45.58,0-82.88,37.3-82.88,82.88v142.74c0,45.58,37.3,82.88,82.88,82.88h173.28
			c45.58,0,82.88-37.3,82.88-82.88V907.91C3638.03,862.33,3600.74,825.03,3555.15,825.03z"/>
		<g>
			<path class="st26" d="M3452.73,1286.84c-2.65,1.12-3.88,4.18-2.76,6.83s4.18,3.88,6.83,2.76c2.65-1.12,3.88-4.18,2.76-6.83
				C3458.44,1286.95,3455.38,1285.72,3452.73,1286.84z"/>
			<path class="st26" d="M3490.31,1243.79c-5.02,2.13-7.35,7.92-5.22,12.94s7.92,7.35,12.94,5.22s7.36-7.92,5.23-12.94
				C3501.12,1244,3495.33,1241.66,3490.31,1243.79z"/>
			<path class="st26" d="M3533.83,1180.88c-3.38-7.96-12.58-11.68-20.54-8.29c-7.96,3.38-11.68,12.58-8.29,20.54
				c3.38,7.96,12.58,11.68,20.54,8.29C3533.5,1198.03,3537.21,1188.84,3533.83,1180.88z"/>
		</g>
		<g>
			<path class="st20" d="M3593.69,932.43l-228.82-44.22c-4.35-0.84-8.59,2.03-9.43,6.38l-24.27,125.59
				c-0.84,4.35,2.03,8.59,6.38,9.43l228.82,44.22c4.35,0.84,8.59-2.03,9.43-6.38l24.27-125.59
				C3600.91,937.52,3598.04,933.27,3593.69,932.43z"/>
			
				<rect x="3458.26" y="820.76" transform="matrix(0.1898 -0.9818 0.9818 0.1898 1885.3745 4175.3525)" class="st7" width="28.5" height="249.16"/>
			
				<rect x="3425.91" y="896.3" transform="matrix(0.1898 -0.9818 0.9818 0.1898 1830.0292 4162.6377)" class="st27" width="22.41" height="152.45"/>
			<path class="st7" d="M3381.32,991.34l-18.59-3.59c-3.3-0.64-6.49,1.52-7.13,4.82l-3.1,16.04c-0.64,3.3,1.52,6.49,4.82,7.13
				l18.59,3.59c3.3,0.64,6.49-1.52,7.13-4.82l3.1-16.04C3386.78,995.17,3384.62,991.98,3381.32,991.34z"/>
			<g>
				<path class="st28" d="M3563.03,1022.24L3416,993.83c-1.28-0.25-2.51,0.59-2.76,1.87l-0.44,2.26c-0.25,1.28,0.59,2.51,1.87,2.76
					l147.03,28.42c1.28,0.25,2.51-0.59,2.76-1.87l0.44-2.26C3565.14,1023.72,3564.31,1022.49,3563.03,1022.24z"/>
				<path class="st28" d="M3560.53,1035.32l-147.09-28.43c-1.26-0.24-2.48,0.58-2.73,1.84l-0.42,2.16
					c-0.24,1.26,0.58,2.49,1.84,2.73l147.09,28.42c1.26,0.24,2.48-0.58,2.73-1.84l0.42-2.16
					C3562.62,1036.79,3561.79,1035.56,3560.53,1035.32z"/>
				<path class="st28" d="M3558.12,1047.39l-146.94-28.4c-1.3-0.25-2.56,0.6-2.82,1.9l-0.47,2.44c-0.25,1.3,0.6,2.56,1.9,2.82
					l146.94,28.4c1.3,0.25,2.56-0.6,2.82-1.9l0.47-2.44C3560.28,1048.9,3559.42,1047.64,3558.12,1047.39z"/>
			</g>
		</g>
	</g>
	<g>
		<polygon class="st29" points="285.26,1583.31 403.26,1583.31 418.36,1729.88 320.09,1729.88 		"/>
		<g>
			<g>
				<path class="st30" d="M362.26,1599.15c-0.01,0-0.02,0-0.02,0c-1.07-0.01-1.92-0.49-1.91-1.08c0.41-17.55-4-28.87-13.08-33.64
					c-3.68-1.93-8.04-2.77-13.37-2.63c-19.34,0.6-24.68,26.41-25.1,36.31c-0.03,0.58-1.04,1.1-1.99,1.03
					c-1.06-0.02-1.91-0.5-1.89-1.09c0.07-1.53,1.92-37.55,28.76-38.37c6.29-0.26,11.82,0.88,16.26,3.21
					c10.03,5.27,14.7,16.78,14.28,35.2C364.18,1598.69,363.31,1599.15,362.26,1599.15z"/>
			</g>
			<polygon class="st31" points="269.24,1583.31 246.17,1729.88 366.3,1729.88 378.55,1583.31 			"/>
			<g>
				<path class="st30" d="M350.89,1599.15c-0.01,0-0.02,0-0.02,0c-1.07-0.01-1.92-0.49-1.91-1.08c0.41-17.55-4-28.87-13.08-33.64
					c-3.68-1.93-8.03-2.77-13.37-2.63c-19.35,0.6-24.68,26.41-25.1,36.31c-0.02,0.58-0.82,1.1-1.99,1.03
					c-1.06-0.02-1.91-0.5-1.89-1.09c0.07-1.53,1.91-37.55,28.76-38.37c6.3-0.26,11.82,0.88,16.26,3.21
					c10.03,5.27,14.7,16.78,14.28,35.2C352.81,1598.69,351.94,1599.15,350.89,1599.15z"/>
			</g>
		</g>
	</g>
	<g>
		<polygon class="st7" points="685.94,1441.05 790.67,1441.05 804.07,1541.37 716.85,1541.37 		"/>
		<g>
			<g>
				<path class="st7" d="M754.28,1452.03c-0.01,0-0.02,0-0.02,0c-0.86-0.01-1.55-0.72-1.53-1.58c0.34-22-3.1-36.66-10.21-43.56
					c-3.55-3.45-7.96-5.01-13.45-4.75c-20.82,0.96-22.4,47.9-22.42,48.37c-0.02,0.86-0.75,1.53-1.6,1.51
					c-0.86-0.03-1.54-0.74-1.51-1.6c0.06-2.05,1.7-50.31,25.39-51.4c6.31-0.29,11.62,1.6,15.76,5.62
					c7.86,7.63,11.51,22.62,11.16,45.84C755.83,1451.35,755.13,1452.03,754.28,1452.03z"/>
			</g>
			<polygon class="st20" points="671.72,1441.05 651.24,1541.37 757.86,1541.37 768.74,1441.05 			"/>
			<g>
				<path class="st7" d="M694.99,1452.03c-0.02,0-0.03,0-0.05,0c-0.86-0.02-1.54-0.74-1.51-1.6c0.06-2.05,1.7-50.31,25.39-51.4
					c6.31-0.29,11.62,1.6,15.76,5.62c7.86,7.63,11.51,22.62,11.16,45.85c-0.01,0.85-0.71,1.53-1.56,1.53c-0.01,0-0.02,0-0.02,0
					c-0.86-0.01-1.55-0.72-1.53-1.58c0.34-22.01-3.1-36.66-10.21-43.56c-3.55-3.45-7.96-5.01-13.45-4.75
					c-10.68,0.49-16.2,13.41-18.96,24.16c-3.08,12.03-3.46,24.09-3.46,24.21C696.53,1451.36,695.83,1452.03,694.99,1452.03z"/>
			</g>
		</g>
		<polygon class="st10" points="779.96,1444.87 771.26,1541.33 795.38,1541.33 		"/>
	</g>
	<g>
		<path class="st32" d="M586.88,1403.35c0,0,11.97-7.45,17.16-6.32c5.19,1.13,19.42,5.19,19.87,11.06
			c0.45,5.87-20.32,15.13-35.67,9.93S586.88,1403.35,586.88,1403.35z"/>
		<path class="st33" d="M523.44,1715.67c0.01,2.63,1.3,4.44,3.5,5.65c0.01,0.01,0.02,0.01,0.03,0.01
			c4.07,2.24,10.57,0.52,18.34,0.18c1-0.04,2.54,1.88,3.34,1.88c0.21,0,0.42,0,0.62,0.01c0.16,0,0.33,0.01,0.48,0.01
			c7.69,0.19,6.88,2.49,21.5,3.75c16.67,1.42,22.81-3.68,23.79-6c0.83-1.97-6.33-4.21-14.32-6.76c-0.39-0.12-0.77-0.25-1.17-0.37
			c-1.06-0.34-2.13-0.69-3.2-1.04c-9.52-3.16-18.88-6.92-21.22-16.55c-2.48-10.21,4.97-38.72,4.97-38.72l-26.41-2.85
			c0,0-2.55,29.8-4.21,39.09c-0.89,4.96-3.14,8.9-4.46,13.15c-0.09,0.3-0.18,0.6-0.26,0.89
			C524.11,1710.48,523.43,1713.03,523.44,1715.67z"/>
		<g>
			<path class="st34" d="M523.44,1715.67c0.01,2.63,1.3,4.44,3.5,5.65c0.01,0.01,0.02,0.01,0.03,0.01
				c5.9,3.79,16.38-1.48,33.44,6.39c0.73,0.34,6.46-0.06,10.44-0.11c5.18-0.07,12.64,0.39,14.39,0.11c8.06-1.3,9.25-5.27,9.8-6.57
				c0.83-1.97-6.33-4.21-14.32-6.76c-2.24,0.87-12.93,4.58-25.57,2.18c-11.12-2.09-22.17-7.63-30.11-9.48
				c-0.09,0.3-0.18,0.6-0.26,0.89C524.11,1710.48,523.43,1713.03,523.44,1715.67z"/>
			<polygon class="st34" points="526.1,1720.24 529.99,1727.52 538.46,1727.52 538.46,1722.19 			"/>
		</g>
		<path class="st23" d="M386.96,1461.62l85.51-8.15c0,0,130.87,0.59,143.06,17.87c0,0,23.37,16.2-3.05,83.14
			c-26.41,66.95-57.43,133.85-57.43,133.85s-7.9,2.16-18.74,1.32c-4.28-0.33-10.05-1.8-10.05-1.8s5.96-99.9,19.17-138.77
			c13.21-38.87,17.27-31.31-6.1-29.15c-23.37,2.16-98.54,19.44-133.08,15.12C371.72,1530.73,386.96,1461.62,386.96,1461.62z"/>
		<path class="st32" d="M856.32,1715.67c-0.01,2.63-1.3,4.44-3.5,5.65c-0.01,0.01-0.02,0.01-0.03,0.01
			c-4.07,2.24-11.22,2.47-18.99,2.13c-1-0.04-1.89-0.07-2.69-0.07c-0.21,0-0.42,0-0.62,0.01c-0.16,0-0.33,0.01-0.48,0.01
			c-7.69,0.19-6.88,2.49-21.5,3.75c-16.67,1.42-22.81-3.68-23.79-6c-0.83-1.97,6.33-4.21,14.32-6.76c0.39-0.12,0.77-0.25,1.16-0.37
			c1.06-0.34,2.13-0.69,3.2-1.04c9.52-3.16,18.88-6.92,21.22-16.55c2.48-10.21-4.97-38.72-4.97-38.72l26.41-2.85
			c0,0,2.55,29.8,4.21,39.09c0.89,4.96,3.14,8.9,4.46,13.15c0.09,0.3,0.18,0.6,0.26,0.89
			C855.65,1710.48,856.33,1713.03,856.32,1715.67z"/>
		<path class="st35" d="M856.32,1715.67c-0.01,2.63-1.3,4.44-3.5,5.65c-0.01,0.01-0.02,0.01-0.03,0.01c-4.33,2-11.36,2.3-18.98,2.08
			c-1-0.03-1.89-0.03-2.7-0.02c-0.21,0-0.42,0-0.62,0.01c-0.16,0-0.33,0.01-0.48,0.01c-7.69,0.19-6.88,2.49-21.5,3.75
			c-16.67,1.42-22.81-3.68-23.79-6c-0.83-1.97,6.33-4.21,14.32-6.76c2.24,0.87,12.93,4.58,25.57,2.18
			c11.12-2.09,22.17-7.63,30.11-9.48c0.09,0.3,0.18,0.6,0.26,0.89C855.65,1710.48,856.33,1713.03,856.32,1715.67z"/>
		<path class="st32" d="M506.96,1715.67c0.01,2.63,1.3,4.44,3.5,5.65c0.01,0.01,0.02,0.01,0.03,0.01
			c4.07,2.24,10.57,0.52,18.34,0.18c1-0.04,2.54,1.88,3.34,1.88c0.21,0,0.42,0,0.62,0.01c0.16,0,0.33,0.01,0.48,0.01
			c7.69,0.19,6.88,2.49,21.5,3.75c16.67,1.42,22.81-3.68,23.79-6c0.83-1.97-6.33-4.21-14.32-6.76c-0.39-0.12-0.77-0.25-1.16-0.37
			c-1.06-0.34-2.13-0.69-3.2-1.04c-9.52-3.16-18.88-6.92-21.22-16.55c-2.48-10.21,4.97-38.72,4.97-38.72l-26.41-2.85
			c0,0-2.55,29.8-4.21,39.09c-0.89,4.96-3.14,8.9-4.46,13.15c-0.09,0.3-0.18,0.6-0.26,0.89
			C507.63,1710.48,506.95,1713.03,506.96,1715.67z"/>
		<path class="st32" d="M684.93,1681.95c-1.47,7.34-11.92,6.11-23.61,3.26c-11.68-2.86-8.91,0.54-25.53-1.3
			c-16.63-1.84-21.66-8.04-22.17-10.51c-0.45-2.19,7.76-2.97,16.57-3.98c1.11-0.12,2.22-0.26,3.33-0.4
			c9.95-1.25,17.24-7.67,26.27-12.94c8.56-4.99,21.33-25.34,21.33-25.34l22.8,1.81c0,0-11.97,18.17-16.59,26.08
			c-2.72,4.65-2.58,10.79-2.24,15.54C685.28,1676.73,685.45,1679.37,684.93,1681.95z"/>
		<path class="st35" d="M661.32,1685.21c-11.68-2.86-8.91,0.54-25.53-1.3c-16.63-1.84-21.66-8.04-22.17-10.51
			c-0.45-2.19,7.76-2.97,16.57-3.98l0.08,0.17c0,0,9.97,7.07,23.81,7.4c11.28,0.27,23.23-2.96,31.02-2.83
			c0.18,2.58,0.34,5.22-0.18,7.8C683.46,1689.29,673,1688.06,661.32,1685.21z"/>
		<path class="st36" d="M735.66,1347.04c0,0-5.43-13.31-11.41-13.85c-5.98-0.54-24.99-3.53-26.35-0.81c-1.36,2.72,0,12.5,4.07,16.03
			c4.07,3.53,29.34,9.24,29.34,9.24L735.66,1347.04z"/>
		<path class="st13" d="M772.31,1536.15l49.14,132.25c0,0,7.55,0.73,14.79-1.35c6.66-1.92,14.29-6.96,14.29-6.96
			s-12.19-126.99-34.54-153.4C793.64,1480.27,772.31,1536.15,772.31,1536.15z"/>
		<path class="st30" d="M966.68,1482.64c0,0-141.21-47.75-172.7-37.59c-31.49,10.16-126.05,198.28-126.05,198.28
			s2.13,2.84,7.96,5.02c5.42,2.03,18.53,1.9,18.53,1.9s85.33-73.14,95.49-94.48c10.16-21.33,14.22-41.65,24.38-39.62
			c10.16,2.03,131.05,49.78,158.48,21.33c27.43-28.45,20.26-65.4,20.26-65.4L966.68,1482.64z"/>
		<path class="st23" d="M880.39,1260.52c-2.25-4.66-4.78-12.92-6.01-27.67c0.19,1.46,2.73,20.06,9.88,30.58
			c29.37,19.28,85.65,83.66,84.54,95.86c0,0,19.83-33.63,20.17-33.83c0,0,36.57-46.51-6.77-73.15c-22.03-13.54-21.92-30.92-21-46.01
			c0.93-15.1-6.01-80.08-50.14-63.07c0,0-7.08-3.15-10.25-2.68c0,0,2.59,0.5,3.91,1.86c-5.12-0.3-12.43,0.08-18.53,3.55
			C870,1155.15,855.52,1237.63,880.39,1260.52z"/>
		<path class="st36" d="M886,1264.4c-0.15,0.07,14.18,7.5,24.96,4.56c10.14-2.76,16.76-15.91,16.62-15.94
			c-4.29-0.85-5.53-6.75-5.44-32.1l-1.94,0.38l-32.63,6.46c0,0,0.74,10.27,0.76,19.94C888.35,1255.82,887.86,1263.53,886,1264.4z"/>
		<path class="st37" d="M887.56,1227.76c0,0,0.74,10.27,0.76,19.94c18.26-0.51,27.91-17.17,31.86-26.4L887.56,1227.76z"/>
		<path class="st23" d="M923.56,1217.75c0,0,9.57-15.12,11.87-28.05c1.64-9.23-3.06-43.44-37.44-38.51c0,0-9.99,0.98-19.37,7.32
			c-7.46,5.04-18.24,15.92-6.19,45.78l3.13,10.08L923.56,1217.75z"/>
		<path class="st36" d="M881.46,1236.92c0,0,43.2,0.71,43.23-26.2c0.03-26.91,5.63-44.94-21.96-46.53
			c-27.58-1.59-32.95,8.67-35.15,17.65C865.4,1190.82,870.23,1236.04,881.46,1236.92z"/>
		<path class="st23" d="M883.06,1163.53c0,0,11.83,31.57,29.98,36.24c18.15,4.67,26.03-0.2,26.03-0.2s-13.92-11.06-16.81-30.37
			C922.26,1169.2,891.99,1148.5,883.06,1163.53z"/>
		<path class="st23" d="M886,1166.09c0,0-8.83,7.05-10.99,13.9c-2.15,6.85-3.12,20.96-7.23,20.48c0,0-8.91-21.46,1.1-33.6
			C879.5,1154,886,1166.09,886,1166.09z"/>
		<path class="st31" d="M982.19,1380.62c4.26-17.87-10.23-52.54-25.36-81.24c-13.73-26.01-27.98-47.12-29.26-46.36
			c-36.21,21.49-39.48,3.62-39.48,3.62s-32.89,4.37-42.2,20.4c-12.88,22.17-26.91,88.69-40.69,87.71
			c-6.33-0.45-69.99-24.38-69.99-24.38s-10.61,9.94-8.57,22.13c0,0,31.43,21.05,58.02,34.48c14.06,7.1,26.77,12.08,32.74,10.67
			c12.11-2.85,31.03-30.92,41.25-47.45c0.02-0.04,0.04-0.07,0.07-0.11c13.05,73.84-4.69,90.66,4.29,98.45
			c9.48,8.22,23.03-3.91,52.83,9c19.55,8.48,46.67,20.74,64.93,22.87c9.58,1.13,16.72-0.54,19.05-7.01
			C1006.58,1464.59,974.07,1414.68,982.19,1380.62z"/>
		<path class="st9" d="M891.07,1220.61c0,0-0.8,3.42-9.31,2.89c0,0-7.14-0.44-6.92-4.2C874.84,1219.3,881.76,1216.63,891.07,1220.61
			z"/>
		<path class="st29" d="M999.8,1483.39c-2.33,6.47-9.48,8.13-19.05,7.01c-12.64-5.51-67.23-26.66-66.63-40.99
			c0.91-21.22,10.5-21.9,3.73-48.09c-5.44-21.03,45.01-60.13,53.05-68.63c15.13,28.7,15.55,30.06,11.29,47.93
			C974.07,1414.68,1006.58,1464.59,999.8,1483.39z"/>
		<path class="st29" d="M858.64,1360.19c-10.22,16.53-29.14,44.6-41.25,47.45c-5.97,1.41-18.68-3.56-32.74-10.67
			c10.26,2.65,20.23,2.57,29.92,1.64c10.5-1.02,13.55-13.88,30.14-33.19C855.47,1352.91,858.11,1356.06,858.64,1360.19z"/>
		<g>
			<path class="st38" d="M905.56,1419.72l-12.55-31.75c-0.4-1.02-1.66-1.75-2.78-1.62l-17.81,2.05c-0.61,0.07-1.05,0.39-1.27,0.82
				l-0.02,0l-1.71,2.25l15.83,34.81l17.11-1.97l1.1-0.54l1.98-2.63l0-0.01C905.7,1420.75,905.77,1420.25,905.56,1419.72z"/>
			<path class="st8" d="M903.68,1422.23l-12.55-31.75c-0.4-1.02-1.66-1.75-2.78-1.62l-17.81,2.05c-1.13,0.13-1.72,1.07-1.32,2.09
				l12.55,31.75c0.4,1.02,1.66,1.75,2.78,1.62l17.81-2.05C903.49,1424.19,904.08,1423.25,903.68,1422.23z"/>
			<path class="st38" d="M877.48,1393.04c-0.21-0.57-0.89-1-1.52-0.94l-4.2,0.36c-0.63,0.05-0.97,0.57-0.76,1.14
				c0.21,0.57,0.89,1,1.52,0.94l4.2-0.36C877.35,1394.13,877.69,1393.62,877.48,1393.04z"/>
		</g>
		<path class="st36" d="M909.22,1400.81c0,0-9.14-7.11-17.78-5.42c-8.64,1.69-12.87,7.62-12.53,10.33
			c0.34,2.71,4.91,10.33,11.51,11.01c6.6,0.68,25.4-4.06,25.4-4.06L909.22,1400.81z"/>
		<path class="st31" d="M927.57,1253.02c0,0,35.21,2.17,47.4,19.17c17.16,23.93,46.96,121.63,38.83,143.98l-107.12-0.45
			c0,0-2.6-12.13,1.02-18c3.61-5.87,62.31-15.35,65.02-18.06c2.71-2.71-33.86-52.83-33.86-60.96
			C938.85,1310.57,927.57,1253.02,927.57,1253.02z"/>
		<path class="st35" d="M375.01,1467.7l80.19-6.77c0,0,130.87,0.57,143.06,17.3c0,0,19.78,12.39-6.64,77.22
			c-26.41,64.84-53.17,136.19-53.17,136.19s-5.93,0.81-13.09,0.23c-9.02-0.73-12.02-3.66-12.02-3.66s1.86-88.72,15.07-126.37
			c13.21-37.65,18.29-33.81-5.08-31.72c-23.37,2.09-89.06,18.48-134.34,9.81C354.8,1533.38,375.01,1467.7,375.01,1467.7z"/>
		<path class="st11" d="M459.96,1143.24c0,0-26.82-13.73-39.24,21.49c0,0,11.97-14.9,18.29-14.22
			C445.33,1151.18,459.96,1143.24,459.96,1143.24z"/>
		<g>
			<path class="st13" d="M506.96,1715.67c0.01,2.63,1.3,4.44,3.5,5.65c0.01,0.01,0.02,0.01,0.03,0.01
				c5.9,3.79,16.38-1.48,33.44,6.39c0.73,0.34,6.46-0.06,10.44-0.11c5.18-0.07,12.64,0.39,14.39,0.11c8.06-1.3,9.25-5.27,9.81-6.57
				c0.83-1.97-6.33-4.21-14.32-6.76c-2.24,0.87-12.93,4.58-25.57,2.18c-11.12-2.09-22.17-7.63-30.11-9.48
				c-0.09,0.3-0.18,0.6-0.26,0.89C507.63,1710.48,506.95,1713.03,506.96,1715.67z"/>
			<polygon class="st13" points="509.62,1720.24 513.51,1727.52 521.98,1727.52 521.98,1722.19 			"/>
		</g>
		<path class="st8" d="M592.73,1418.83c-0.13,0.75-0.34,1.46-0.64,2.13c-3.39,7.45-73.82,16.93-82.63,12.19
			c-3.94-2.12-9.66-37.64-14.78-76.26c-6.33-47.75-11.75-100.25-11.75-100.25s29.24,9.22,32.63,24.8
			c3.39,15.58,4.06,111.75,12.87,116.49c8.8,4.74,46.06,0.68,58.92,2.71C587.34,1400.64,594.07,1411.3,592.73,1418.83z"/>
		<path class="st11" d="M484.84,1145.96c-5.47-4.4-13.42-3.85-18.53-3.55c1.32-1.36,3.91-1.86,3.91-1.86
			c-3.17-0.47-10.25,2.68-10.25,2.68c-44.13-17-49.4,63.03-11.47,72.17C463.19,1218.95,540.94,1191.02,484.84,1145.96z"/>
		<path class="st32" d="M485.02,1264.4c0.15,0.07-14.18,7.5-24.96,4.56c-10.14-2.76-16.76-15.91-16.62-15.94
			c4.29-0.85,5.53-6.75,5.44-32.1l1.94,0.38l32.63,6.46c0,0-0.74,10.27-0.76,19.94C482.67,1255.82,483.16,1263.53,485.02,1264.4z"/>
		<path class="st39" d="M483.46,1227.76c0,0-0.74,10.27-0.76,19.94c-18.26-0.51-27.91-17.17-31.86-26.4L483.46,1227.76z"/>
		<path class="st11" d="M447.46,1217.75c0,0-9.57-15.12-11.87-28.05c-1.64-9.23,3.06-43.44,37.44-38.51c0,0,9.99,0.98,19.37,7.32
			c7.46,5.04,18.24,15.92,6.19,45.78l-3.13,10.08L447.46,1217.75z"/>
		<path class="st32" d="M489.55,1236.92c0,0-43.2,0.71-43.23-26.2c-0.03-26.91-5.63-44.94,21.96-46.53
			c27.58-1.59,32.95,8.67,35.15,17.65C505.62,1190.82,500.79,1236.04,489.55,1236.92z"/>
		<path class="st11" d="M487.96,1163.53c0,0-11.83,31.57-29.98,36.24c-18.15,4.67-26.03-0.2-26.03-0.2s13.92-11.06,16.81-30.37
			C448.76,1169.2,479.03,1148.5,487.96,1163.53z"/>
		<path class="st24" d="M500.12,1296.5c-0.76-3.07,5.71-5.37,7.3-2.64c2.97,5.12,3.56,11.57,4.74,16.71c3.39,14.67,0,34.77,0,34.77
			L500.12,1296.5z"/>
		<path class="st11" d="M485.02,1166.09c0,0,8.83,7.05,10.99,13.9c2.15,6.85,3.12,20.96,7.23,20.48c0,0,8.91-21.46-1.1-33.6
			C491.52,1154,485.02,1166.09,485.02,1166.09z"/>
		<path class="st9" d="M479.95,1220.61c0,0,0.8,3.42,9.31,2.89c0,0,7.14-0.44,6.92-4.2C496.18,1219.3,489.26,1216.63,479.95,1220.61
			z"/>
		<path class="st24" d="M592.73,1418.83c-0.13,0.75-0.34,1.46-0.64,2.13c-3.39,7.45-73.82,16.93-82.63,12.19
			c-3.94-2.12-10.84-46.28-5.88-85.79c5.32,22.59,6.95,68.93,19.42,71.11C537.14,1420.96,574.25,1416.23,592.73,1418.83z"/>
		<path class="st8" d="M514.8,1347.14c-17.51,84.4-2.86,97.36-11.95,105.66c-0.05,0.04-8.07,3.51-8.13,3.56
			c-9.48,8.22-9.72-1.74-39.52,11.18c-14.2,6.16-32.39,14.31-48.29,19.13c-5.99,1.81-11.64,3.16-16.64,3.74
			c-9.58,1.13-16.72-0.54-19.05-7.01c-6.77-18.79,25.74-68.71,17.61-102.77c-0.07-0.29-0.14-0.59-0.2-0.88
			c-0.59-2.98-0.7-6.4-0.39-10.15c1.52-19,13.52-46.62,25.95-70.21c13.73-26.01,27.98-47.12,29.26-46.36
			c36.21,21.49,39.48,3.62,39.48,3.62S520.77,1318.35,514.8,1347.14z"/>
		<path class="st24" d="M497.6,1455.17C497.55,1455.21,497.65,1455.12,497.6,1455.17c-9.48,8.22-12.6-0.55-42.4,12.36
			c-14.2,6.16-32.39,14.31-48.29,19.13c-7.22,2.4-12.97,3.59-16.64,3.74c-9.58,1.13-16.72-0.54-19.05-7.01
			c-6.77-18.79,25.74-68.71,17.61-102.77c-0.07-0.29,11.74-41.14,23.77-63.96c0.4-14.33,68.47-1.35,54.18,82.63
			C462.4,1425.03,493.84,1435.19,497.6,1455.17z"/>
		<path class="st32" d="M494.66,1459.46c0,0,13.32-3.16,19.42-0.68c6.1,2.48,18.29,8.8,17.16,12.19
			c-1.13,3.39-15.58,5.19-21.67,1.81c-6.1-3.39-10.61,0.9-18.06-1.58C484.05,1468.71,494.66,1459.46,494.66,1459.46z"/>
		<path class="st8" d="M443.45,1253.02c0,0-49.13,0.66-57.94,24.36c-8.8,23.71-6.1,107.01,6.77,132.07
			c12.87,25.06,86.02,58.92,94.14,60.28c8.13,1.35,13.21-11.18,12.87-12.53c-0.34-1.35-76.87-63.33-76.53-69.76
			C423.1,1381,443.45,1253.02,443.45,1253.02z"/>
		<g>
			<path class="st40" d="M619.55,1378.13l-0.03,0c-0.42-0.51-1.1-0.81-1.94-0.73l-24.4,2.46c-1.54,0.16-3.01,1.49-3.25,2.97
				l-7.49,46.09c-0.13,0.77,0.12,1.42,0.59,1.86l0,0.02l3.41,2.93l1.63,0.4l23.44-2.37l10.99-51.15L619.55,1378.13z"/>
			<path class="st35" d="M620.83,1380.21l-24.4,2.46c-1.54,0.16-3.01,1.49-3.25,2.97l-7.49,46.09c-0.24,1.48,0.83,2.56,2.37,2.41
				l24.4-2.46c1.55-0.16,3.01-1.5,3.25-2.98l7.49-46.09C623.45,1381.13,622.38,1380.05,620.83,1380.21z"/>
			<path class="st40" d="M619.64,1382.64l-5.71,0.74c-0.85,0.11-1.64,0.88-1.75,1.7c-0.11,0.83,0.5,1.41,1.35,1.3l5.71-0.74
				c0.85-0.11,1.64-0.88,1.75-1.7C621.1,1383.11,620.5,1382.53,619.64,1382.64z"/>
		</g>
	</g>
	<g>
		<path class="st11" d="M3672.95,1726.59c0,0,65.15,5.58,67.93-6.77c0.37-1.64,9.53-63.33,9.53-63.33l11.24-78.81
			c0,0-19.05-2.3-26.48,20.12c-7.43,22.42-29.33,58.54-61.82,67.97C3639.17,1675.69,3672.95,1726.59,3672.95,1726.59z"/>
		<path class="st32" d="M3363.52,1407.82l5.81,2.06c0,0,15.2-25.71,46.27-15.31c0,0,12.41,5.19,5.05,11.99
			c-7.36,6.79-5.54,3.28-15.7,13.05c-10.16,9.77-24.04,14.67-33.6,11.37l-10.6-3.73L3363.52,1407.82z"/>
		<path class="st11" d="M3101.73,1623.12c0,0,216.6-165.5,278.22-167.31s261.49,271.76,261.49,271.76h-74.84
			c0,0-131.88-70.19-178.28-136.89c-4.67-6.71-14.65-6.4-18.98,0.52c-23.98,38.33-86.68,132.32-127.23,136.37
			C3198.58,1731.91,3101.73,1623.12,3101.73,1623.12z"/>
		<path class="st32" d="M3122.46,1172.77c0,0-1.37,10.85-3.13,24.23c-2.34,17.39-5.47,38.99-7.52,45.73l-65.17,16.51l-4.79-47.39
			c0,0,16.32-32.73,16.22-79.04L3122.46,1172.77z"/>
		<g>
			<path class="st2" d="M3065.78,1271.41l92.6,113.44l32.38,39.67c0,0,58,10.86,88.45,13.51c21.97,1.9,92.12-7.05,92.12-7.05
				l-2.02-21.09c0,0-43.53-18.51-64.21-22.85c-21.1-4.42-74.39-16.45-74.39-16.45c-20.15-7.33-96.73-106.32-96.73-106.32
				L3065.78,1271.41z"/>
		</g>
		<path class="st41" d="M3005.36,1676.48l189.39-15.46c0,0,0.52-3.8,1.4-10.17c0.27-1.97,0.42-4.03,0.48-6.18
			c0.43-18.92-7-44.42-10.2-69.5c-2.12-16.55-2.39-32.91,2.68-47.06c5.83-16.32,8.51-47.32,9.7-76.78
			c1.49-36.89,0.63-71.38,0.65-71.62c1.9-23.5-3.69-49.59-13.05-74.4c-18.47-48.92-52.92-76.62-69.11-93.05
			c0,0-19.76,4.88-71.14-10.54c-1.53-0.46-5.93,6.01-7.89,9.78c0,0-22.23,28.14-31.37,96.75
			C2998.7,1369.66,3005.36,1676.48,3005.36,1676.48z"/>
		<path class="st2" d="M3052.75,1336.4c0.37,8.61,76.57,251.19,67.24,269.08c-45.19,86.57,68.73,47.57,74.91,25.24
			c-2.2-14.91-5.61-83.44-0.23-103.64c4.46-16.75,2.95-46.29,4.13-75.75c-1.91-10.75-6.37-21.85-12.4-32.57
			C3158.08,1414.33,3049.91,1269.62,3052.75,1336.4z"/>
		<g>
			<path class="st42" d="M3431.53,1383.71l-23.49-16.13c-0.2-0.14-0.41-0.24-0.63-0.32l-0.02-0.01l-4.43-1.81l-21.61,68.25
				l18.9,15.3l3.4,1.48c0,0,0.01,0,0.01,0l0.05,0.02l0-0.01c1.54,0.62,3.49-0.36,4.3-2.37l24.47-59.96
				C3433.18,1386.45,3432.78,1384.57,3431.53,1383.71z"/>
			<path class="st43" d="M3427.44,1382.04l-23.49-16.13c-1.6-1.1-3.89-0.09-4.79,2.11l-23.39,57.32c-0.66,1.61-0.35,3.38,0.75,4.3
				l22.41,18.76c1.58,1.32,4.04,0.35,4.99-1.96l24.47-59.96C3429.09,1384.78,3428.69,1382.9,3427.44,1382.04z"/>
			<polygon class="st44" points="3380.16,1422.3 3402.24,1440.78 3424.43,1386.41 3401.29,1370.52 			"/>
			<path class="st42" d="M3387.89,1432.2c-0.85-0.35-1.78,0.26-2.09,1.35c-0.31,1.09,0.13,2.26,0.98,2.6
				c0.85,0.34,1.78-0.26,2.09-1.35C3389.18,1433.71,3388.74,1432.55,3387.89,1432.2z"/>
			<polygon class="st45" points="3402.29,1374.16 3382.82,1420.86 3401.95,1435.77 3421.08,1387.42 			"/>
			<polygon class="st46" points="3403.01,1380.94 3389.36,1413.66 3402.76,1424.11 3416.17,1390.23 			"/>
		</g>
		<path class="st32" d="M3366.25,1440.89l11.91-0.39c0,0,11.87-24.62,39.05-12.95c0,0,10.9,5.69,4.89,12.04
			c-6.01,6.35-4.61,2.97-12.89,12.12c-8.28,9.15-19.98,13.34-28.34,9.65l-9.28-4.17L3366.25,1440.89z"/>
		<path class="st41" d="M3070.35,1212.68c0,0,46.5,19.64,70.64,61.59c16.09,27.96,43.8,75.52,60.5,104.15
			c8.89,15.24,23.75,26.07,40.98,29.86l56.43,12.41l79.25,19.81c0,0,1.88,3.36,1.42,8.85c-0.65,7.8-5.75,9.36-5.75,9.36
			s-73.99,17.81-100.33,19.79c-64.9,4.88-95.66-3.63-105.19-7.13c-2.13-0.78-4.03-1.92-5.79-3.35
			c-9.94-8.08-48.07-40.02-68.14-70.54c-19.53-29.69-73.38-106.86-73.38-106.86L3070.35,1212.68z"/>
		<path class="st47" d="M3005.36,1603.15c0,0-19.97,124.42,37.29,124.42s630.3,0,630.3,0s17.41-11.75,18.63-34.15
			c1.29-23.75-6.21-32.16-6.21-32.16s-225.63-7.85-271.45-23.21C3184.31,1561.11,3005.36,1603.15,3005.36,1603.15z"/>
		<path class="st39" d="M3122.46,1172.77c0,0-1.37,10.85-3.13,24.23c-60.21-17.56-61.26-64.19-61.26-64.19L3122.46,1172.77z"/>
		<path class="st32" d="M3131.94,1176.24c0,0-73.19,2.17-73.84-43.43s-10.53-76.03,36.17-79.34s56.03,13.96,59.95,29.13
			C3158.14,1097.76,3150.96,1174.5,3131.94,1176.24z"/>
		<path class="st47" d="M3058.1,1132.81c0,0,18.97-61.95,84.08-58.72c38.45,1.91,33.08-42.66,33.08-42.66s-51.47-11.84-93.3-0.28
			C3010.37,1050.94,3051.69,1123.06,3058.1,1132.81z"/>
	</g>
	<path class="st48" d="M3816.45,1735.31H180.77c-1.95,0-3.55-1.6-3.55-3.55v-0.68c0-1.96,1.6-3.55,3.55-3.55h3635.67
		c1.96,0,3.55,1.6,3.55,3.55v0.68C3820,1733.71,3818.4,1735.31,3816.45,1735.31z"/>
</g>
</svg>
