<svg width="249" height="174" viewBox="0 0 249 174" fill="none" xmlns="http://www.w3.org/2000/svg">
<g clip-path="url(#clip0)">
<path opacity="0.1" d="M21.3379 172.919H239.079C257.126 157.842 247.838 112.473 232.769 103.276C216.542 93.3758 242.309 59.1366 217.312 48.0243C200.992 40.7685 175.035 48.6772 178.526 29.2636C183.363 2.33954 126.774 -4.55711 85.0806 2.69859C40.007 10.5441 81.1693 49.1186 31.6003 56.8876C6.11167 60.884 11.0373 95.0772 13.4141 102.139C15.4878 108.29 29.1786 118.056 10.1463 131.494C-17.7622 151.202 20.6802 172.553 21.3379 172.919Z" fill="#9BC1F9"/>
<path d="M214.748 57.7622C214.748 57.7622 211.184 65.533 208.785 68.8162C206.387 72.0994 204.101 75.2379 202.188 84.3492C200.276 93.4605 200.603 94.3758 200.079 96.7293C199.555 99.0828 196.146 108.617 196.127 110.366C196.108 112.114 189.238 122.067 187.477 126.726C185.717 131.385 182.602 138.038 182.776 141.426L183.559 141.227C183.559 141.227 184.197 133.328 189.628 125.344C195.058 117.361 194.282 115.854 200.448 111.748C206.615 107.643 210.598 96.3214 210.598 96.3214C210.598 96.3214 216.872 84.016 216.58 77.6182C216.288 71.2204 217.953 65.4536 214.748 57.7622Z" fill="#256653"/>
<path d="M206.401 45.8093C206.401 45.8093 206.193 50.9145 204.549 53.9478C202.904 56.9811 201.489 58.8223 201.19 62.1035C200.891 65.3848 199.858 73.8431 195.274 77.9726C190.69 82.1022 190.104 94.4765 186.613 98.2192C183.122 101.962 182.667 104.653 183.312 111.073C183.956 117.493 186.146 126.386 181.078 138.002L179.931 135.113C179.931 135.113 183.553 125.56 182.676 119.965C181.799 114.371 178.748 105.918 179.865 101.869C180.983 97.82 176.829 97.0234 179.33 90.8917C181.831 84.7601 180.803 82.6297 184.206 77.3282C184.206 77.3282 184.555 77.0803 185.449 72.5945C186.343 68.1088 193.559 59.8879 196.883 57.0835C200.207 54.2791 205.011 49.7761 206.401 45.8093Z" fill="#256653"/>
<path d="M192.858 71.0852C192.858 71.0852 188.876 77.912 188.82 82.3058C188.763 86.6996 189.238 90.2748 187.223 96.2915C185.209 102.308 189.205 106.113 188.058 109.439C186.911 112.764 186.815 116.694 186.851 119.677C186.888 122.659 182.291 132.532 181.593 137.53C180.895 142.528 181.784 142.545 181.784 142.545C181.784 142.545 182.549 135.946 183.601 133.764C184.652 131.582 187.873 124.058 188.625 121.147C189.376 118.237 191.412 116.369 193.168 111.44C194.924 106.511 197.427 102.353 197.236 95.3637C197.045 88.3742 199.853 80.9826 192.858 71.0852Z" fill="#3C8F7C"/>
<path d="M184.425 137.962C184.425 137.962 186.282 129.298 194.111 128.432C201.941 127.567 206.54 129.118 212.072 122.788C217.604 116.458 220.816 106.415 222.583 104.683C222.583 104.683 219.804 103.247 215.183 107.577C210.562 111.906 207.317 115.185 204.642 117.703C201.967 120.221 199.795 118.58 196.972 120.24C194.605 121.631 191.544 125.654 190.196 127.76C189.76 128.445 189.238 129.072 188.643 129.623C188.101 130.125 187.454 130.74 187.039 131.192C186.21 132.097 183.819 137.99 183.819 137.99L184.425 137.962Z" fill="#3C8F7C"/>
<path d="M181.668 136.434C181.668 136.434 184.427 125.837 182.579 120.652C180.731 115.466 174.945 111.63 175.177 108.372C175.409 105.115 179.125 96.3081 176.096 89.7571C176.096 89.7571 174.949 95.6034 173.81 96.9036C172.671 98.2039 164.882 103.449 166.264 110.376C167.645 117.303 175.22 118.922 177.085 120.961C178.951 123 181.469 122.998 181.483 124.353C181.498 125.709 181.991 130.639 181.154 135.504L181.668 136.434Z" fill="#3C8F7C"/>
<path d="M184.686 129.342L188.562 118.159C188.562 118.159 190.839 109.164 192.159 101.663C193.479 94.1622 192.858 71.0852 192.858 71.0852C192.858 71.0852 188.876 77.912 188.82 82.3058C188.763 86.6996 189.237 90.2748 187.223 96.2916C185.209 102.308 189.205 106.113 188.058 109.439C186.91 112.764 186.815 116.694 186.851 119.677C186.887 122.659 182.291 132.532 181.593 137.53C181.21 140.268 181.306 141.51 181.469 142.074C180.842 137.699 184.686 129.342 184.686 129.342Z" fill="#327F6B"/>
<path d="M203.781 122.68C200.322 123.372 197.231 123.136 193.125 126.196C189.02 129.256 186.606 132.524 186.606 132.524C186.606 132.524 184.76 135.826 183.998 137.568C183.888 137.834 183.823 137.993 183.823 137.993L184.428 137.962C184.428 137.962 186.286 129.298 194.115 128.432C201.944 127.566 206.544 129.118 212.075 122.788C217.607 116.458 220.819 106.415 222.586 104.683C222.586 104.683 216.703 109.266 213.068 113.323C209.433 117.38 207.239 121.988 203.781 122.68Z" fill="#327F6B"/>
<path d="M173.812 96.9035C172.677 98.2047 164.885 103.449 166.266 110.376C167.648 117.303 175.223 118.921 177.088 120.961C178.953 123 181.471 122.997 181.486 124.353C181.5 125.709 181.993 130.639 181.157 135.504L181.38 135.91C181.789 134.011 182.356 131.122 182.541 128.92C182.842 125.356 182.265 123.879 181.121 120.991C179.978 118.104 172.867 112.22 171.083 109.127C169.299 106.035 174.519 100.865 175.672 98.3684C176.825 95.8723 176.09 89.7512 176.09 89.7512C176.09 89.7512 174.945 95.6033 173.812 96.9035Z" fill="#327F6B"/>
<path d="M192.293 131.314L193.507 128.368C194.451 126.201 196.868 125.167 198.904 126.058C204.036 128.301 206.266 134.546 203.888 140.006L202.148 143.998C201.383 145.746 201.651 147.671 202.679 149.026C203.613 150.259 203.765 151.971 203.118 153.457L202.201 155.563C201.719 156.671 201.003 157.662 200.102 158.466C199.202 159.271 198.138 159.871 196.984 160.225C196.283 160.443 195.638 160.811 195.093 161.303C194.549 161.795 194.117 162.4 193.828 163.075L192.529 166.055C191.095 169.349 187.419 170.922 184.323 169.569L182.556 168.796C179.46 167.442 178.114 163.675 179.55 160.38C181.871 156.441 181.686 153.502 180.863 151.507C180.258 150.027 179.956 148.441 179.976 146.842C179.995 145.243 180.335 143.664 180.976 142.2L181.16 141.778C181.83 140.235 182.822 138.853 184.068 137.724C185.314 136.595 186.786 135.745 188.386 135.23C189.797 134.781 191.259 133.689 192.293 131.314Z" fill="#50BFA5"/>
<path d="M170.378 172.919C172.868 169.684 186.526 152.36 195.432 149.472C205.261 146.282 195.993 158.94 195.993 158.94C195.993 158.94 213.43 139.844 219.829 141.566C225.696 143.143 219.829 154.98 219.829 154.98C219.829 154.98 226.436 148.425 234.449 148.425C242.245 148.425 228.999 171.67 228.286 172.915L170.378 172.919Z" fill="#96D9C9"/>
<path d="M222.93 135.436C215.746 146.679 210.57 159.087 207.633 172.107L207.146 171.976C210.11 159.072 215.263 146.773 222.38 135.614C224.033 133.029 225.822 129.958 228.914 128.949C228.973 128.93 228.996 129.021 228.939 129.045C226.114 130.108 224.476 133.017 222.93 135.436Z" fill="#3C8F7C"/>
<path d="M209.35 172.572C217.585 161.35 227.404 151.386 238.5 142.992C238.614 142.905 238.77 143.106 238.654 143.195C227.719 151.608 218.052 161.557 209.951 172.733L209.35 172.572Z" fill="#3C8F7C"/>
<path d="M223.582 128.526C223.765 128.796 224.467 129.501 224.674 130.426C224.95 131.304 224.732 132.403 224.708 132.365C224.655 132.387 225.521 131.654 225.791 130.489C226.141 129.37 225.895 127.82 225.46 127.307C224.709 126.146 223.395 126.028 223.14 126.591C222.869 127.152 223.213 127.911 223.582 128.526Z" fill="#3C8F7C"/>
<path d="M225.286 138.472C225.019 138.28 224.33 137.566 223.41 137.341C222.539 137.047 221.437 137.245 221.475 137.268C221.452 137.321 222.201 136.469 223.37 136.222C224.492 135.893 226.036 136.169 226.539 136.615C227.687 137.391 227.776 138.708 227.209 138.953C226.645 139.216 225.892 138.854 225.286 138.472Z" fill="#3C8F7C"/>
<path d="M222.713 142.832C222.447 142.64 221.757 141.926 220.837 141.702C219.966 141.407 218.865 141.606 218.903 141.628C218.88 141.681 219.629 140.828 220.797 140.581C221.92 140.253 223.463 140.529 223.968 140.975C225.115 141.751 225.204 143.068 224.637 143.312C224.073 143.573 223.319 143.214 222.713 142.832Z" fill="#3C8F7C"/>
<path d="M231.888 152.943C231.622 152.752 230.932 152.038 230.013 151.814C229.142 151.519 228.04 151.718 228.078 151.74C228.055 151.792 228.803 150.94 229.972 150.693C231.095 150.365 232.638 150.641 233.142 151.087C234.289 151.862 234.378 153.18 233.811 153.424C233.247 153.684 232.495 153.325 231.888 152.943Z" fill="#3C8F7C"/>
<path d="M236.575 148.808C236.309 148.616 235.619 147.902 234.7 147.677C233.829 147.382 232.726 147.581 232.765 147.604C232.742 147.657 233.49 146.805 234.659 146.557C235.782 146.229 237.325 146.505 237.829 146.95C238.976 147.726 239.065 149.043 238.498 149.289C237.934 149.548 237.182 149.189 236.575 148.808Z" fill="#3C8F7C"/>
<path d="M219.982 133.459C220.205 133.697 221.009 134.282 221.359 135.163C221.771 135.986 221.728 137.106 221.699 137.072C221.65 137.102 222.389 136.241 222.472 135.048C222.642 133.889 222.157 132.397 221.645 131.959C220.721 130.93 219.405 131.021 219.242 131.618C219.062 132.213 219.521 132.91 219.982 133.459Z" fill="#3C8F7C"/>
<path d="M216.2 138.402C216.518 138.572 217.634 138.881 218.189 139.712C218.822 140.453 218.903 141.723 218.858 141.696C218.798 141.75 219.651 140.472 219.614 139.104C219.693 137.738 218.882 136.281 218.168 136.012C216.846 135.263 215.154 135.931 215.013 136.667C214.858 137.408 215.536 137.988 216.2 138.402Z" fill="#3C8F7C"/>
<path d="M212.218 145.89C212.561 146.003 213.709 146.118 214.4 146.848C215.149 147.472 215.44 148.709 215.395 148.691C215.346 148.754 215.969 147.35 215.705 146.01C215.553 144.649 214.51 143.35 213.76 143.205C212.326 142.69 210.776 143.633 210.762 144.381C210.729 145.136 211.496 145.594 212.218 145.89Z" fill="#3C8F7C"/>
<path d="M223.999 151.107C224.248 151.263 225.135 151.575 225.543 152.286C226.015 152.924 226.009 153.961 225.976 153.937C225.925 153.979 226.69 152.988 226.741 151.873C226.883 150.765 226.307 149.535 225.741 149.274C224.708 148.59 223.294 149.037 223.139 149.628C222.964 150.221 223.483 150.733 223.999 151.107Z" fill="#3C8F7C"/>
<path d="M230.131 130.279C229.982 130.156 229.606 129.705 229.072 129.528C228.569 129.315 227.908 129.384 227.93 129.4C227.914 129.43 228.394 128.959 229.097 128.863C229.774 128.719 230.675 128.949 230.954 129.236C231.598 129.744 231.594 130.527 231.248 130.647C230.902 130.767 230.473 130.531 230.131 130.279Z" fill="#3C8F7C"/>
<path d="M228.703 127.096C228.709 127.288 228.839 127.862 228.65 128.396C228.511 128.924 228.053 129.406 228.054 129.38C228.021 129.374 228.686 129.284 229.19 128.782C229.719 128.333 230.087 127.477 230.031 127.081C230.021 126.261 229.4 125.785 229.094 125.987C228.788 126.189 228.712 126.673 228.703 127.096Z" fill="#3C8F7C"/>
<path d="M239.951 144.595C239.802 144.473 239.425 144.021 238.892 143.845C238.389 143.632 237.728 143.701 237.75 143.716C237.734 143.747 238.214 143.276 238.916 143.18C239.594 143.036 240.495 143.266 240.774 143.552C241.417 144.061 241.414 144.844 241.068 144.964C240.721 145.084 240.293 144.848 239.951 144.595Z" fill="#3C8F7C"/>
<path d="M238.228 141.386C238.25 141.577 238.427 142.142 238.282 142.685C238.186 143.223 237.77 143.738 237.768 143.714C237.735 143.714 238.39 143.564 238.851 143.026C239.342 142.534 239.638 141.652 239.55 141.262C239.473 140.445 238.815 140.018 238.526 140.247C238.238 140.477 238.202 140.962 238.228 141.386Z" fill="#3C8F7C"/>
<path d="M237.029 162.127C229.753 162.925 222.975 166.141 216.456 169.277C212.058 171.392 212.279 171.994 211.383 172.309C211.349 172.32 211.314 172.321 211.28 172.312C211.246 172.303 211.216 172.284 211.192 172.258C211.169 172.232 211.154 172.199 211.149 172.164C211.144 172.13 211.149 172.094 211.164 172.062C211.508 171.379 212.411 170.913 213.041 170.523C213.775 170.068 214.534 169.652 215.313 169.278C216.973 168.471 218.677 167.746 220.369 167.009C223.811 165.51 227.311 164.101 230.948 163.147C232.94 162.617 234.972 162.254 237.024 162.062C237.063 162.063 237.066 162.117 237.024 162.122L237.029 162.127Z" fill="#3C8F7C"/>
<path d="M230.472 159.867C230.52 160.167 230.83 161.034 230.639 161.891C230.525 162.737 229.909 163.572 229.904 163.53C229.851 163.53 230.86 163.256 231.55 162.381C232.284 161.583 232.69 160.187 232.527 159.585C232.354 158.314 231.3 157.696 230.865 158.068C230.43 158.439 230.405 159.206 230.472 159.867Z" fill="#3C8F7C"/>
<path d="M224.063 162.166C224.11 162.464 224.422 163.332 224.23 164.19C224.116 165.035 223.499 165.87 223.495 165.828C223.442 165.828 224.456 165.553 225.142 164.679C225.875 163.88 226.28 162.483 226.118 161.881C225.946 160.611 224.891 159.993 224.455 160.365C224.019 160.736 223.996 161.505 224.063 162.166Z" fill="#3C8F7C"/>
<path d="M217.551 165.072C217.598 165.371 217.909 166.239 217.718 167.097C217.604 167.942 216.987 168.777 216.982 168.735C216.93 168.735 217.943 168.46 218.63 167.586C219.363 166.787 219.768 165.39 219.606 164.788C219.433 163.518 218.378 162.9 217.943 163.271C217.508 163.643 217.483 164.412 217.551 165.072Z" fill="#3C8F7C"/>
<path d="M232.385 165.864C232.254 165.617 232.003 164.805 231.38 164.28C230.825 163.72 229.905 163.45 229.925 163.482C229.888 163.514 230.786 163.148 231.776 163.406C232.762 163.584 233.84 164.386 234.055 164.921C234.636 165.953 234.203 166.998 233.672 166.968C233.142 166.939 232.706 166.388 232.385 165.864Z" fill="#3C8F7C"/>
<path d="M225.719 168.227C225.587 167.98 225.336 167.168 224.713 166.643C224.159 166.083 223.239 165.813 223.259 165.845C223.222 165.877 224.119 165.511 225.11 165.769C226.096 165.947 227.173 166.749 227.389 167.284C227.969 168.317 227.536 169.361 227.007 169.331C226.477 169.302 226.037 168.751 225.719 168.227Z" fill="#3C8F7C"/>
<path d="M237.462 163.431C237.347 163.294 237.08 162.817 236.622 162.57C236.199 162.291 235.586 162.243 235.604 162.261C235.584 162.286 236.1 161.938 236.756 161.968C237.398 161.95 238.18 162.311 238.386 162.619C238.887 163.193 238.753 163.903 238.418 163.954C238.083 164.005 237.732 163.719 237.462 163.431Z" fill="#3C8F7C"/>
<path d="M236.692 160.293C236.666 160.47 236.692 161.017 236.426 161.468C236.212 161.925 235.715 162.288 235.72 162.263C235.69 162.253 236.313 162.28 236.855 161.91C237.412 161.588 237.89 160.871 237.906 160.502C238.035 159.752 237.548 159.214 237.237 159.347C236.926 159.48 236.772 159.907 236.692 160.293Z" fill="#3C8F7C"/>
<path d="M49.3257 117.577C40.7776 109.943 36.3825 98.9811 34.1998 91.1279C31.8317 82.6065 31.4865 75.7998 31.4827 75.7319L31.0181 75.7031C31.0181 75.7721 31.368 82.6256 33.7515 91.2074C35.9504 99.1372 40.3951 110.212 49.0485 117.94L49.3257 117.577Z" fill="#3C8F7C"/>
<path d="M32.4565 73.7627C32.8771 75.7255 32.5253 77.5801 31.6266 78.9187C30.2183 77.8798 29.1103 76.2167 28.6886 74.2539C28.267 72.2911 28.6207 70.4364 29.5185 69.0979C30.9277 70.1358 32.0348 71.7999 32.4565 73.7627Z" fill="#3C8F7C"/>
<path d="M29.8341 79.3523C31.3074 80.7244 32.1678 82.5273 32.3352 84.2622C30.7185 84.3359 28.9392 83.6791 27.4669 82.3071C25.9945 80.935 25.1331 79.1321 24.9658 77.3962C26.5787 77.3225 28.3618 77.9803 29.8341 79.3523Z" fill="#3C8F7C"/>
<path d="M29.1437 85.2245C30.9254 85.7919 32.4314 87.0051 33.3666 88.6264C32.0387 89.4814 30.2594 89.7266 28.4286 89.1521C26.6479 88.5836 25.143 87.3702 24.2085 85.7492C25.5336 84.8952 27.3128 84.6491 29.1437 85.2245Z" fill="#3C8F7C"/>
<path d="M31.9623 92.2887C33.4117 92.7473 34.5714 93.9163 35.2282 95.3975C34.1288 96.3224 32.6889 96.6729 31.2395 96.2152C29.7902 95.7575 28.6304 94.5875 27.9736 93.1063C29.0731 92.1814 30.512 91.831 31.9623 92.2887Z" fill="#3C8F7C"/>
<path d="M34.4372 82.2065C34.9661 81.6645 35.6108 81.2495 36.3228 80.9926C37.0348 80.7357 37.7956 80.6437 38.5482 80.7234C38.595 81.5074 38.4773 82.2926 38.2028 83.0284C37.9283 83.7642 37.5031 84.4343 36.9545 84.9956C36.4253 85.5373 35.7806 85.9522 35.0687 86.209C34.3567 86.4658 33.596 86.5581 32.8434 86.4787C32.7969 85.6947 32.9146 84.9095 33.1891 84.1738C33.4635 83.438 33.8887 82.7679 34.4372 82.2065Z" fill="#3C8F7C"/>
<path d="M35.7566 87.2695C36.2856 86.7275 36.9303 86.3124 37.6423 86.0554C38.3542 85.7984 39.1151 85.7061 39.8677 85.7854C39.9144 86.5695 39.7967 87.3546 39.5222 88.0904C39.2477 88.8262 38.8225 89.4963 38.2739 90.0577C37.7449 90.5996 37.1003 91.0147 36.3883 91.2717C35.6763 91.5287 34.9155 91.621 34.1629 91.5418C34.116 90.7577 34.2336 89.9724 34.5081 89.2366C34.7826 88.5008 35.2079 87.8307 35.7566 87.2695Z" fill="#3C8F7C"/>
<path d="M44.1699 127.933C36.2757 126.784 29.5202 122.093 25.2399 118.371C20.5963 114.327 17.7893 110.504 17.7616 110.466L17.4805 110.628C17.5082 110.666 20.3362 114.517 25.0095 118.589C29.328 122.353 36.1533 127.084 44.146 128.251L44.1699 127.933Z" fill="#50BFA5"/>
<path d="M17.578 108.945C18.5752 109.923 19.08 111.137 19.0714 112.26C17.8543 112.198 16.5732 111.656 15.576 110.678C14.5788 109.699 14.074 108.485 14.0826 107.361C15.4003 107.45 16.6417 108.012 17.578 108.945Z" fill="#50BFA5"/>
<path d="M18.1957 113.202C19.5772 113.434 20.7685 114.15 21.5305 115.095C20.6193 115.759 19.3315 116.061 17.951 115.829C16.5704 115.597 15.3782 114.88 14.6162 113.935C15.5273 113.269 16.8132 112.969 18.1957 113.202Z" fill="#50BFA5"/>
<path d="M20.0438 116.88C21.2966 116.526 22.6361 116.654 23.8002 117.237C23.3556 118.244 22.4158 119.07 21.1309 119.439C19.8782 119.793 18.5386 119.666 17.3745 119.083C17.8191 118.076 18.7598 117.25 20.0438 116.88Z" fill="#50BFA5"/>
<path d="M24.3891 119.904C25.4073 119.616 26.5307 119.848 27.4791 120.455C27.3456 120.935 27.0906 121.372 26.7389 121.725C26.3872 122.077 25.9506 122.332 25.4714 122.466C24.4532 122.753 23.3307 122.521 22.3823 121.914C22.5158 121.435 22.7706 120.997 23.1221 120.645C23.4737 120.293 23.9101 120.038 24.3891 119.904Z" fill="#50BFA5"/>
<path d="M21.9655 113.092C22.0652 112.573 22.281 112.083 22.5968 111.66C22.9126 111.237 23.3201 110.891 23.7887 110.648C24.1164 111.086 24.3488 111.587 24.4712 112.121C24.5935 112.654 24.603 113.207 24.4991 113.744C24.3993 114.262 24.1834 114.752 23.8676 115.175C23.5519 115.598 23.1444 115.944 22.6759 116.187C22.3483 115.749 22.1158 115.248 21.9934 114.715C21.8711 114.182 21.8616 113.629 21.9655 113.092Z" fill="#50BFA5"/>
<path d="M24.674 115.526C24.7739 115.008 24.9899 114.518 25.3056 114.095C25.6214 113.672 26.0287 113.325 26.4972 113.082C26.8245 113.52 27.0568 114.022 27.1791 114.555C27.3014 115.088 27.3111 115.641 27.2075 116.178C27.1077 116.697 26.8918 117.187 26.5761 117.61C26.2603 118.033 25.8528 118.379 25.3843 118.622C25.0567 118.184 24.8243 117.683 24.702 117.15C24.5796 116.616 24.5701 116.063 24.674 115.526Z" fill="#50BFA5"/>
<path d="M48.9272 151.595C39.8207 155.057 29.7973 153.229 22.9921 151.085C15.6036 148.757 10.3061 145.567 10.2535 145.531L10.0518 145.914C10.1043 145.947 15.4411 149.162 22.8773 151.506C29.7495 153.672 39.8771 155.518 49.0955 152.013L48.9272 151.595Z" fill="#96D9C9"/>
<path d="M9.13356 143.683C10.7194 144.296 12.0067 145.5 12.7255 147.042C11.387 147.725 9.69955 147.828 8.04652 147.185C6.46064 146.572 5.17335 145.368 4.45459 143.825C5.7883 143.142 7.48053 143.04 9.13356 143.683Z" fill="#96D9C9"/>
<path d="M12.3589 148.811C13.1236 148.54 13.9363 148.433 14.745 148.495C15.5537 148.557 16.3405 148.788 17.055 149.172C16.7544 149.915 16.2979 150.586 15.7163 151.137C15.1347 151.689 14.4416 152.109 13.684 152.369C12.9192 152.64 12.1063 152.748 11.2974 152.686C10.4885 152.624 9.70151 152.393 8.98682 152.009C9.28768 151.265 9.7444 150.595 10.3261 150.043C10.9079 149.492 11.601 149.071 12.3589 148.811Z" fill="#96D9C9"/>
<path d="M16.5487 152.419C17.696 151.134 19.2448 150.493 20.7659 150.522C20.8338 151.34 20.7345 152.164 20.4741 152.943C20.2138 153.722 19.7978 154.439 19.2515 155.052C18.1043 156.337 16.5554 156.977 15.0343 156.949C14.9666 156.13 15.0659 155.306 15.3262 154.528C15.5866 153.749 16.0025 153.031 16.5487 152.419Z" fill="#96D9C9"/>
<path d="M22.4103 154.281C23.5576 152.997 25.1064 152.356 26.6275 152.385C26.6952 153.204 26.5959 154.027 26.3355 154.806C26.0752 155.585 25.6593 156.302 25.1131 156.915C23.9658 158.199 22.4161 158.84 20.895 158.812C20.8276 157.993 20.9272 157.169 21.1877 156.39C21.4482 155.612 21.8642 154.894 22.4103 154.281Z" fill="#96D9C9"/>
<path d="M16.8957 148.263C15.887 146.949 15.4377 145.364 15.5447 143.927C16.8727 144.082 18.2303 144.855 19.238 146.169C20.2457 147.484 20.696 149.068 20.589 150.506C19.261 150.35 17.9034 149.578 16.8957 148.263Z" fill="#96D9C9"/>
<path d="M22.9848 150.171C21.957 148.872 21.4838 147.293 21.5669 145.851C22.894 145.983 24.2611 146.733 25.2889 148.032C26.3167 149.332 26.7899 150.912 26.7058 152.353C25.3788 152.221 24.0116 151.472 22.9848 150.171Z" fill="#96D9C9"/>
<path d="M30.1156 154.791C30.2372 154.472 30.4294 154.184 30.6777 153.949C30.926 153.714 31.2241 153.538 31.5497 153.435C31.7042 153.755 31.7914 154.105 31.8058 154.46C31.8203 154.816 31.7618 155.171 31.6338 155.504C31.5122 155.823 31.32 156.111 31.0717 156.346C30.8234 156.581 30.5253 156.757 30.1997 156.86C30.0452 156.54 29.958 156.19 29.9436 155.835C29.9291 155.479 29.9876 155.124 30.1156 154.791Z" fill="#96D9C9"/>
<path d="M68.471 172.249C68.471 172.249 80.0729 126.29 76.2257 121.677C70.908 115.296 66.5226 136.465 66.0914 134.666C62.0272 117.687 60.9449 95.9607 47.8306 93.6618C40.3781 92.3539 49.5515 109.817 49.0008 114.54C48.4501 119.264 35.0212 103.582 26.8593 95.3642C18.6974 87.1462 14.4831 92.3501 19.6401 102.68C24.6269 112.669 40.7586 123.586 37.4334 124.881C34.1082 126.177 13.92 113.278 11.4485 118.793C8.41685 125.555 38.6963 134.756 35.8473 136.276C32.9982 137.795 18.5234 132.792 18.9183 137.962C19.3131 143.132 38.77 142.941 38.4372 145.215C37.899 148.897 25.0304 140.562 24.4653 145.657C23.8869 150.869 41.3944 149.918 41.0913 153.987C40.9163 156.322 37.1599 152.799 36.6064 156.035C35.3444 163.413 58.4238 172.4 58.4238 172.4L68.471 172.249Z" fill="#3C8F7C"/>
<path d="M77.3181 172.527C77.3181 172.527 66.2765 155.574 60.9627 152.373C55.3019 148.962 59.6118 159.171 59.6118 159.171C59.6118 159.171 48.0434 145.383 44.8272 148.185C41.611 150.986 44.5299 154.23 44.5299 154.23C44.5299 154.23 34.1432 151.148 32.277 154.966C29.4088 160.833 46.508 165.698 46.508 165.698C46.508 165.698 39.1673 165.619 40.5182 169.58C42.5546 175.557 77.3181 172.527 77.3181 172.527Z" fill="#50BFA5"/>
<path d="M32.2764 154.968C34.1426 151.151 44.5293 154.233 44.5293 154.233C44.5293 154.233 41.6104 150.989 44.8266 148.188C48.0428 145.386 57.2966 153.77 57.2966 153.77C57.2966 153.77 56.3271 146.855 63.2959 152.946C68.2731 157.297 77.3175 172.526 77.3175 172.526L32.2764 154.968Z" fill="#96D9C9"/>
<path d="M63.915 129.959L64.4102 129.62C55.4232 115.985 52.6764 99.798 51.9575 88.6186C51.1773 76.4874 52.5474 67.471 52.5608 67.381L51.947 67.2019C51.9326 67.2977 50.553 76.3697 51.336 88.5736C52.0598 99.8478 54.8295 116.179 63.915 129.959Z" fill="#96D9C9"/>
<path d="M54.3299 65.2571C54.35 67.9955 53.4006 70.2599 51.8862 71.6186C50.2629 69.5139 49.3703 66.936 49.344 64.2767C49.3249 61.5374 50.2733 59.273 51.7877 57.9143C53.4115 60.0191 54.3042 62.5975 54.3299 65.2571Z" fill="#96D9C9"/>
<path d="M49.4606 71.4138C50.9903 73.8352 51.6223 76.5544 51.3728 78.8878C49.2694 78.2884 47.1518 76.6674 45.6192 74.246C44.0866 71.8245 43.4585 69.1053 43.7071 66.771C45.8114 67.3704 47.9281 68.9914 49.4606 71.4138Z" fill="#96D9C9"/>
<path d="M47.0051 78.7691C49.1608 80.2946 50.7524 82.4911 51.5321 85.0166C49.5932 85.5594 47.2298 85.1123 45.0308 83.5804C42.8735 82.0557 41.2804 79.8591 40.5 77.3329C42.4408 76.789 44.7994 77.2324 47.0051 78.7691Z" fill="#96D9C9"/>
<path d="M49.8821 91.6108C50.8279 92.1878 51.5552 93.0636 51.9491 94.1002C51.1594 94.3951 50.167 94.2917 49.2052 93.7115C48.2589 93.1348 47.5313 92.2589 47.1372 91.222C47.9269 90.9271 48.9193 91.0353 49.8821 91.6108Z" fill="#96D9C9"/>
<path d="M50.6623 96.3674C51.6083 96.9445 52.3358 97.8203 52.7303 98.8569C51.9406 99.1509 50.9472 99.0427 49.9854 98.4682C49.0395 97.891 48.312 97.0153 47.9175 95.9787C48.7072 95.6848 49.7005 95.7929 50.6623 96.3674Z" fill="#96D9C9"/>
<path d="M54.6331 77.1127C56.4076 76.1035 58.488 76.1188 60.3274 76.948C60.0186 79.0037 58.9115 80.8219 57.1342 81.8311C55.3568 82.8403 53.2793 82.8298 51.436 81.9958C51.7487 79.9392 52.8558 78.1209 54.6331 77.1127Z" fill="#96D9C9"/>
<path d="M54.9877 84.2783C56.765 83.2701 58.8425 83.2806 60.6868 84.1145C60.377 86.1702 59.2699 87.9884 57.4935 88.9976C55.7172 90.0068 53.6377 89.9953 51.7944 89.1613C52.1052 87.1056 53.2104 85.2865 54.9877 84.2783Z" fill="#96D9C9"/>
<path d="M54.6356 94.5347C55.7925 93.8788 57.1453 93.8855 58.3451 94.4284C58.1434 95.7689 57.4235 96.9494 56.2667 97.6062C55.1098 98.263 53.757 98.2554 52.5571 97.7125C52.7579 96.3749 53.4788 95.1915 54.6356 94.5347Z" fill="#96D9C9"/>
<path d="M181.486 134.968C182.531 135.138 182.469 135.309 182.604 135.327C182.762 135.348 184.648 134.4 184.648 134.4C184.648 134.4 190.225 131.643 190.52 131.483L194.545 126.409L197.646 127.845C197.646 127.845 193.124 133.237 192.837 133.471C192.551 133.706 184.556 136.517 183.86 136.788C183.86 136.788 183.159 137.429 182.706 137.817C182.253 138.205 181.646 138.358 181.5 138.446C181.111 138.643 180.698 138.788 180.272 138.878C179.663 139.011 180.171 138.596 180.171 138.596C180.171 138.596 181.248 138.141 181.195 138.058C181.154 137.994 180.582 138.28 179.909 138.434C179.737 138.473 179.565 138.512 179.409 138.546C178.996 138.635 178.814 138.398 179.229 138.234C179.415 138.156 179.607 138.092 179.803 138.042C180.002 138 180.171 137.895 180.332 137.833C180.653 137.711 180.89 137.626 180.876 137.615C180.863 137.605 180.906 137.529 180.72 137.565C180.498 137.609 180.051 137.809 179.716 137.847C179.525 137.869 179.137 137.943 179.137 137.943C179.137 137.943 178.445 138.009 178.44 137.912C178.43 137.699 178.856 137.582 179.117 137.586C179.304 137.517 179.499 137.469 179.696 137.442C179.696 137.442 180.499 137.124 180.452 137.005C180.434 136.958 179.948 137.031 179.432 137.066C178.887 137.104 178.493 137.104 178.463 136.998C178.417 136.83 178.851 136.767 178.851 136.767C178.851 136.767 179.234 136.711 179.359 136.683C179.505 136.649 179.933 136.513 179.933 136.513C179.933 136.513 181.408 135.97 181.355 135.862C181.303 135.754 181.058 135.524 180.954 135.525C180.849 135.526 180.667 135.629 180.56 135.63C180.453 135.631 180.232 135.61 180.216 135.479C180.199 135.348 180.778 135.077 180.778 135.077C180.778 135.077 181.185 134.919 181.486 134.968Z" fill="#F8A492"/>
<path d="M191.744 129.553C191.744 129.553 192.749 130.467 193.166 130.767C193.514 131.017 195.205 131.834 195.205 131.834C195.205 131.834 196.889 129.249 197.625 127.958C198.518 126.387 199.136 124.052 198.925 123.988C198.332 123.81 197.518 123.701 196.764 124.048C194.16 125.245 191.744 129.553 191.744 129.553Z" fill="#355389"/>
<path d="M182.463 136.317C182.015 136.388 181.558 136.303 181.36 135.893C181.316 136.379 182.051 136.62 182.463 136.317Z" fill="#FE875E"/>
<path d="M57.6505 118.209C57.7126 116.706 57.4928 115.221 56.8245 113.822C56.2508 112.617 54.8253 111.934 53.527 111.933C49.4044 111.927 48.8796 117.406 46.2552 119.519C45.454 120.164 44.5572 120.69 43.799 121.387C40.9968 123.958 42.2588 128.717 44.8316 130.972C46.6165 132.536 49.4207 133.425 51.6196 132.202C52.7669 131.564 53.6398 130.503 54.2612 129.34C55.1427 127.69 55.7106 125.787 56.3378 124.028C57.0128 122.156 57.5721 120.207 57.6505 118.209Z" fill="#13375B"/>
<path d="M58.3285 125.489C57.0407 121.577 55.3408 121.638 55.3408 121.638L56.7137 129.968C57.5092 129.751 58.5446 129.266 59.3391 129.041C59.0762 127.804 58.645 126.452 58.3285 125.489Z" fill="#F7CC7F"/>
<path d="M64.8361 138.833L60.1284 135.237C60.1284 135.237 59.6504 131.881 59.0204 128.904C58.2259 129.128 57.5088 129.752 56.7134 129.97L57.9113 136.638L64.0808 139.826L65.8237 142.068L66.2205 139.77L64.8361 138.833Z" fill="#F48C7F"/>
<path d="M107.749 133.214C109.156 133.212 110.54 133.578 111.764 134.275C111.921 134.363 112.083 134.441 112.25 134.509C115.868 135.997 119.826 133.241 119.826 129.324V110.063H100.597C96.686 110.063 93.9345 106.098 95.4202 102.476C95.4877 102.309 95.566 102.146 95.6544 101.989C96.372 100.718 96.7363 99.2773 96.7093 97.8175C96.6823 96.3577 96.265 94.9318 95.501 93.6883C94.7369 92.4449 93.6539 91.4293 92.3648 90.7473C91.0757 90.0653 89.6276 89.7418 88.1713 89.8106C83.936 90.0021 80.5228 93.4911 80.4071 97.7356C80.3638 99.1858 80.7087 100.621 81.4062 101.893C81.4934 102.053 81.5706 102.218 81.6376 102.387C83.1118 106.069 80.3163 110.068 76.3544 110.068H57.2866V153.957C57.2866 164.31 65.6675 172.703 76.0054 172.703H119.83V153.505C119.83 149.569 115.859 146.796 112.219 148.279C112.052 148.347 111.889 148.425 111.731 148.512C110.643 149.12 109.431 149.469 108.188 149.535C106.944 149.6 105.702 149.38 104.557 148.89C103.412 148.401 102.394 147.655 101.581 146.71C100.769 145.765 100.183 144.647 99.8685 143.44C99.5544 142.233 99.5205 140.97 99.7692 139.749C100.018 138.527 100.543 137.378 101.304 136.391C102.064 135.404 103.041 134.604 104.158 134.053C105.275 133.502 106.503 133.215 107.749 133.214Z" fill="#F47458"/>
<path d="M149.433 122.529C149.495 121.12 149.924 119.751 150.676 118.558C150.771 118.404 150.857 118.244 150.933 118.079C152.586 114.529 150.022 110.441 146.115 110.258L126.903 109.358L126.004 128.603C125.822 132.516 121.739 135.083 118.195 133.427C118.031 133.352 117.871 133.266 117.717 133.17C116.483 132.392 115.063 131.959 113.605 131.917C112.147 131.875 110.704 132.226 109.427 132.932C108.151 133.639 107.086 134.675 106.346 135.934C105.605 137.192 105.215 138.626 105.216 140.087C105.216 144.334 108.53 147.908 112.757 148.226C114.202 148.336 115.65 148.058 116.951 147.42C117.114 147.34 117.283 147.271 117.455 147.212C121.196 145.909 125.054 148.892 124.869 152.855L123.979 171.93L167.756 173.98C178.081 174.459 186.845 166.471 187.328 156.13L189.374 112.288L170.226 111.392C166.3 111.208 163.349 115.05 164.658 118.764C164.717 118.935 164.787 119.102 164.867 119.263C165.425 120.38 165.719 121.609 165.728 122.857C165.737 124.106 165.46 125.339 164.919 126.464C164.377 127.588 163.586 128.573 162.605 129.343C161.624 130.113 160.48 130.648 159.26 130.906C158.041 131.165 156.779 131.14 155.57 130.833C154.362 130.526 153.24 129.947 152.291 129.138C151.341 128.329 150.589 127.314 150.093 126.169C149.596 125.024 149.369 123.78 149.427 122.533L149.433 122.529Z" fill="#F7CC7F"/>
<path d="M95.8999 92.234C95.9712 93.6435 95.6747 95.0473 95.0395 96.3071C94.9588 96.4684 94.8886 96.6347 94.8291 96.805C93.527 100.498 96.4745 104.319 100.38 104.122L119.589 103.155L118.624 83.9174C118.427 80.0062 122.242 77.0543 125.93 78.3584C126.1 78.4176 126.266 78.4876 126.427 78.5681C127.731 79.2249 129.187 79.5191 130.643 79.4201C132.1 79.321 133.503 78.8323 134.706 78.005C135.909 77.1776 136.869 76.042 137.485 74.7165C138.1 73.3911 138.349 71.9245 138.206 70.4698C137.797 66.2435 134.151 63.0073 129.913 63.102C128.464 63.1322 127.051 63.5501 125.818 64.3123C125.664 64.4074 125.504 64.4931 125.34 64.5689C121.742 66.2282 117.615 63.6325 117.415 59.6705L116.459 40.5986L72.6839 42.7989C62.3584 43.3188 54.4097 52.1227 54.9288 62.4625L57.1278 106.296L76.2729 105.332C80.1985 105.135 82.7636 101.024 81.102 97.457C81.0266 97.2923 80.941 97.1324 80.8458 96.9783C80.1832 95.9211 79.7713 94.7258 79.6419 93.4844C79.5125 92.2429 79.6689 90.9883 80.0992 89.8168C80.5295 88.6453 81.2222 87.5882 82.124 86.7267C83.0259 85.8651 84.1129 85.222 85.3017 84.8468C86.4904 84.4716 87.7492 84.3743 88.9813 84.5623C90.2135 84.7503 91.3862 85.2186 92.4095 85.9313C93.4327 86.644 94.2792 87.5821 94.8839 88.6735C95.4887 89.7649 95.8356 90.9807 95.898 92.2273L95.8999 92.234Z" fill="#50BFA5"/>
<path d="M135.216 81.6167C133.808 81.618 132.424 81.2524 131.2 80.5558C131.043 80.4677 130.881 80.3894 130.714 80.3212C127.097 78.8333 123.139 81.5889 123.139 85.5059V104.767H142.372C146.283 104.767 149.035 108.732 147.549 112.355C147.481 112.522 147.403 112.685 147.315 112.842C146.596 114.113 146.23 115.554 146.257 117.014C146.283 118.475 146.7 119.901 147.465 121.146C148.229 122.39 149.312 123.406 150.602 124.088C151.892 124.77 153.341 125.094 154.798 125.024C159.033 124.833 162.446 121.344 162.562 117.1C162.605 115.649 162.26 114.214 161.563 112.942C161.475 112.783 161.398 112.618 161.331 112.448C159.857 108.766 162.653 104.767 166.614 104.767H185.682V60.8779C185.682 50.5248 177.301 42.1326 166.964 42.1326H123.135V61.3298C123.135 65.266 127.105 68.0388 130.746 66.5557C130.913 66.4883 131.076 66.4106 131.234 66.323C132.321 65.7133 133.534 65.3613 134.778 65.2941C136.023 65.2269 137.267 65.4463 138.413 65.9355C139.56 66.4247 140.58 67.1706 141.393 68.1159C142.207 69.0613 142.794 70.1809 143.109 71.3887C143.423 72.5966 143.457 73.8606 143.208 75.0836C142.958 76.3066 142.432 77.4561 141.67 78.4438C140.908 79.4315 139.93 80.231 138.811 80.7811C137.692 81.3311 136.462 81.6169 135.216 81.6167Z" fill="#184655"/>
<path d="M44.7678 166.608C44.7678 166.608 44.4809 168.631 43.9781 169.283C43.8098 169.502 43.5 169.779 43.3031 170.175C42.9895 170.791 43.1625 171.707 43.3939 172.213C43.5124 172.473 43.3853 172.472 43.6549 172.556C44.0439 172.671 44.4612 172.638 44.828 172.465C45.1948 172.292 45.4856 171.991 45.6454 171.618C45.8811 171.073 46.0134 170.488 46.0355 169.894C46.1206 168.059 46.6895 167.125 46.6895 167.125L44.7678 166.608Z" fill="#F7A491"/>
<path d="M53.51 167.533C53.51 167.533 53.6888 169.813 53.5435 170.554C53.466 170.951 53.032 171.768 53.2309 172.141C53.4297 172.515 53.6573 172.608 53.6573 172.608L58.82 172.691C59.1011 172.696 58.9156 172.515 58.6881 172.347C58.3171 172.073 58.0188 171.893 56.8333 171.317C56.7559 171.28 56.4738 171.1 56.3725 171.038C56.0975 170.855 55.8491 170.635 55.6344 170.384C55.2644 169.969 55.2319 167.961 55.2319 167.961L53.51 167.533Z" fill="#F7A491"/>
<path d="M57.5423 137.223C57.5423 137.223 58.1924 140.925 57.766 143.351C57.3396 145.778 55.2918 168.277 55.2918 168.277L53.0154 168.405C53.0154 168.405 52.5374 159.008 52.6244 157.701C52.7114 156.394 53.3892 154.207 53.3892 154.207L53.1569 146.62L56.0251 136.652L57.5423 137.223Z" fill="#355389"/>
<path d="M50.8551 136.444C50.8551 136.444 49.0625 139.152 48.6361 141.392C48.2097 143.633 48.9496 150.518 48.1284 153.456C47.6838 155.045 46.0002 157.5 45.7449 159.554C45.4897 161.607 44.4839 166.983 44.4839 166.983L46.7593 167.436L52.0454 154L56.1918 141.857L57.254 135.603L50.8551 136.444Z" fill="#466EB6"/>
<path d="M52.3051 121.041C52.3051 121.041 49.9321 120.89 48.9942 121.916C48.0563 122.943 51.0756 131.067 51.2467 132.374C51.4178 133.681 50.3767 137.156 50.3767 137.156C50.3767 137.156 55.9496 138.282 57.5472 137.224C57.5472 137.224 57.7183 127.825 57.5472 126.891C57.376 125.958 55.9544 122.162 55.613 121.788C55.2717 121.415 52.3051 121.041 52.3051 121.041Z" fill="#F7CC7F"/>
<path d="M53.0947 117.865C53.0947 117.865 53.0822 117.935 53.0602 118.056C52.9541 118.631 52.5468 120.528 52.2715 121.05C51.9397 121.682 53.4102 123.694 54.8261 123.444C55.2477 123.37 54.4704 121.595 54.5077 121.406C54.5794 121.046 54.676 120.555 54.7754 120.051C54.8309 119.764 54.8882 119.477 54.9418 119.208L55.2161 117.809L53.0947 117.865Z" fill="#F7A491"/>
<path d="M53.0616 118.049C53.0836 117.93 53.096 117.857 53.096 117.857L55.2176 117.803L54.9422 119.205C54.8887 119.474 54.8323 119.761 54.7768 120.044C54.3967 119.976 54.0446 119.799 53.7634 119.534C53.4126 119.224 53.1489 118.828 52.9985 118.385C53.0224 118.253 53.0444 118.138 53.0616 118.049Z" fill="#F47458"/>
<path d="M54.5229 113.019C54.5229 113.019 53.5229 112.903 52.8976 113.717C52.2724 114.53 51.5955 117.047 53.152 118.415C54.7084 119.783 56.2477 118.234 56.4762 116.596C56.7046 114.957 56.7897 112.959 54.5229 113.019Z" fill="#F7A491"/>
<path d="M56.9358 116.568C56.7494 116.931 56.4377 117.132 56.2389 117.017C56.04 116.902 56.0295 116.515 56.215 116.155C56.4005 115.796 56.7131 115.592 56.9119 115.707C57.1108 115.822 57.1213 116.205 56.9358 116.568Z" fill="#F7A491"/>
<path d="M54.6352 112.75C54.6352 112.75 53.2967 115.144 52.3406 115.254C51.3845 115.364 51.2603 116.635 51.2603 116.635C51.2603 116.635 51.6016 113.706 52.5481 113.141C53.4946 112.576 54.6352 112.75 54.6352 112.75Z" fill="#13375B"/>
<path d="M45.7998 171.214C44.5569 171.441 43.7347 170.713 43.3054 170.168C42.9908 170.785 42.8369 171.706 43.0683 172.213C43.2729 172.661 43.8695 172.647 44.3389 172.665C44.8361 172.684 45.2195 172.407 45.4661 171.972C45.6023 171.731 45.7141 171.477 45.7998 171.214Z" fill="#F47458"/>
<path d="M56.3703 171.037C55.005 171.389 53.9964 171.15 53.4323 170.922C53.287 171.335 53.0939 171.855 53.1962 172.154C53.3214 172.521 53.4992 172.604 53.657 172.608C54.8999 172.641 58.2232 172.685 59.1735 172.698C59.2033 172.698 59.2326 172.69 59.2579 172.674C59.2832 172.659 59.3034 172.636 59.3161 172.609C59.3288 172.582 59.3335 172.552 59.3295 172.522C59.3256 172.493 59.3133 172.465 59.2939 172.442C59.0588 172.16 56.4716 171.1 56.3703 171.037Z" fill="#F47458"/>
<path d="M52.5936 115.854C52.671 116.279 52.5142 116.669 52.2437 116.724C51.9731 116.78 51.6911 116.481 51.6136 116.054C51.5362 115.627 51.692 115.239 51.9626 115.184C52.2331 115.128 52.5152 115.43 52.5936 115.854Z" fill="#F7A491"/>
<path d="M54.1544 117.327L55.3609 117.381C55.3609 117.381 55.3121 117.839 54.7815 117.83C54.1333 117.82 54.1544 117.327 54.1544 117.327Z" fill="white"/>
<path d="M157.023 20.9934C157.173 20.9992 157.586 21.137 158.187 22.2764C158.952 23.7318 160.08 28.1266 160.08 28.1266L156.726 29.377L156.295 28.4598L155.585 21.3975C155.585 21.3975 156.986 20.9915 157.023 20.9934Z" fill="#DD513A"/>
<path d="M152.587 20.3596C153.543 20.3596 155.919 20.6411 157.021 20.9935C157.021 20.9935 157.83 27.9571 156.292 33.2491C155.948 34.4335 156.579 38.159 156.579 38.159L146.642 38.0278C146.642 38.0278 147.819 29.0209 147.376 27.5655C146.933 26.1102 146.922 21.0404 146.922 21.0404C146.922 21.0404 146.99 21.0298 149.154 20.6574C150.289 20.4703 151.437 20.3708 152.587 20.3596Z" fill="#F47458"/>
<path d="M151.432 51.085C151.432 51.085 151.652 53.6261 152.056 54.3298C152.461 55.0336 152.035 56.2294 152.013 56.3941C151.991 56.5588 151.162 56.7924 149.844 56.6517C148.526 56.5109 148.546 56.2064 148.653 55.7134C148.76 55.2203 149.461 54.5874 149.504 54.1182C149.547 53.6491 149.099 51.961 149.099 51.961L151.432 51.085Z" fill="#F7A491"/>
<path d="M155.456 36.0621C155.456 36.0621 162.315 35.6791 163.847 36.6098C165.379 37.5404 162.759 42.098 162.759 42.098C162.759 42.098 157.986 41.8778 148.636 42.4187C146.423 42.5461 146.232 36.6376 146.645 36.1483C147.059 35.659 155.456 36.0621 155.456 36.0621Z" fill="#E0973F"/>
<path d="M149.679 56.8488C148.32 56.7042 148.489 56.0359 148.598 55.5284C148.666 55.2106 149.056 54.8362 149.288 54.4829C149.409 54.5787 149.607 54.75 150.197 54.9253C150.809 55.1062 151.649 54.7472 152.184 54.5231C152.323 55.0969 152.384 55.687 152.365 56.2772C152.343 56.4466 151.036 56.9943 149.679 56.8488Z" fill="#DD513A"/>
<path d="M150.429 40.9796C150.702 43.0564 152.06 53.3961 152.06 53.3961L148.911 53.7868C148.911 53.7868 145.039 40.2864 145.237 38.2269C145.435 36.1674 146.886 35.9893 146.886 35.9893C146.886 35.9893 149.703 35.479 150.429 40.9796Z" fill="#F7CC7F"/>
<path d="M146.813 21.814C147.742 21.4655 148.197 29.8491 148.323 33.3036C149.968 33.4626 152.835 33.3036 153.549 33.251C153.885 33.2261 154.66 32.9417 154.994 32.8986C155.265 32.8516 155.54 32.8384 155.814 32.8594C155.877 32.8699 157.592 33.5727 157.738 33.7268C157.921 33.9183 158.412 34.3971 158.329 34.6077C158.246 34.8184 157.383 34.0275 157.383 34.0275L156.961 33.79C157.487 34.3042 158.491 34.9802 158.343 35.2262C158.196 35.4723 157.299 34.7801 156.656 34.3128C157.207 34.8117 157.899 35.7059 157.736 35.8448C157.594 35.9702 156.814 34.9352 155.98 34.6374C155.67 34.5273 155.362 34.8289 155.119 34.8701C154.941 34.8969 154.664 34.9543 154.489 34.9045L153.587 34.6489C153.279 34.6767 153.271 34.8586 152.961 34.9246C152.6 35.0012 152.004 35.0826 151.548 35.1946C148.904 35.8419 148.022 36.1425 147.213 36.1425C144.759 36.1368 144.618 22.6393 146.813 21.814Z" fill="#F7A491"/>
<path d="M145.05 29.6814C144.876 26.1464 144.902 21.7899 146.88 21.0469C147.661 20.753 149.037 22.5167 148.792 29.7532C147.734 29.8442 146.182 29.915 145.05 29.6814Z" fill="#DD513A"/>
<path d="M160.639 53.2583C160.639 53.2583 160.364 54.1401 160.856 54.7242C161.347 55.3082 163.392 55.8798 163.661 56.1958C163.929 56.5118 163.908 56.7808 163.908 56.7808L158.172 56.6228L158.235 54.887L158.499 53.6422L160.639 53.2583Z" fill="#F7A491"/>
<path d="M161.213 55.0144C161.213 55.0144 159.739 55.6119 159.027 55.2586C158.314 54.9053 158.336 54.8066 158.13 54.9388C157.923 55.0709 157.85 56.6976 157.85 56.6976L164.301 56.8891C164.75 56.8786 164.977 56.5473 164.613 56.2639C164.39 56.1061 164.154 55.9662 163.909 55.8455C163.404 55.5535 161.213 55.0144 161.213 55.0144Z" fill="#DD513A"/>
<path d="M160.421 37.6906C160.865 36.7561 161.873 35.5392 163.647 36.2717C165.34 36.9706 165.794 38.6883 165.26 40.4472C164.725 42.2061 161.211 52.5468 161.089 53.9686L158.282 53.9868C158.282 53.9868 158.792 45.7995 158.917 43.8204C159.037 41.916 159.654 39.3078 160.421 37.6906Z" fill="#F7CC7F"/>
<path d="M164.978 28.167H155.596C155.474 28.1672 155.355 28.2038 155.254 28.272C155.153 28.3402 155.075 28.437 155.03 28.55L152.14 35.6305H146.968C146.898 35.6307 146.832 35.6586 146.783 35.7079C146.734 35.7573 146.706 35.8241 146.706 35.8938C146.706 35.9634 146.734 36.0301 146.783 36.0793C146.832 36.1285 146.899 36.1561 146.968 36.1561H161.691C161.89 36.1561 162.084 36.0985 162.25 35.9902C162.417 35.882 162.548 35.7278 162.629 35.5462L165.538 29.0354C165.58 28.9418 165.598 28.839 165.591 28.7364C165.583 28.6339 165.55 28.5349 165.494 28.4485C165.439 28.3621 165.362 28.2911 165.272 28.2419C165.182 28.1927 165.081 28.167 164.978 28.167Z" fill="black"/>
<path d="M159.926 32.2899C159.863 32.6078 159.587 32.8203 159.309 32.7686C159.032 32.7169 158.859 32.4096 158.927 32.0917C158.995 31.7738 159.266 31.5613 159.544 31.613C159.821 31.6647 159.989 31.972 159.926 32.2899Z" fill="white"/>
<path d="M154.819 11.8543C154.536 11.7605 154.259 11.6493 153.989 11.5211C153.685 11.3746 153.292 11.2023 153.043 11.164C152.52 11.0826 151.62 11.1372 151.123 11.6763C150.505 12.3465 149.402 11.7979 149.627 15.3194C149.877 19.3054 152.09 18.8678 152.144 18.7998C152.199 18.7318 154.117 16.2501 154.117 16.2501C154.117 16.2501 154.787 17.7208 154.787 17.6671C154.787 17.6135 158.216 12.9995 154.819 11.8543Z" fill="#0E2E35"/>
<path d="M153.139 19.0948L153.33 20.5185C153.33 20.5185 153.759 22.5704 153.208 22.9658C152.657 23.3613 150.867 20.4601 150.867 20.4601L151.058 16.8514L153.139 19.0948Z" fill="#F7A491"/>
<path d="M150.995 18.0215C151.45 19.2518 152.532 20.0082 153.302 20.3022L153.139 19.0948L151.058 16.8514L150.995 18.0215Z" fill="#F47458"/>
<path d="M153.027 12.926C153.3 12.8839 153.579 12.9022 153.845 12.9796C154.11 13.057 154.356 13.1917 154.564 13.3742C154.772 13.5566 154.938 13.7825 155.049 14.0359C155.161 14.2892 155.216 14.564 155.21 14.8409C155.196 15.4527 155.143 16.0628 155.051 16.6678C154.797 18.3118 153.677 19.7595 152.937 19.6302C152.197 19.5009 150.332 18.0829 150.66 15.7438C150.867 14.3028 151.802 13.1223 153.027 12.926Z" fill="#F7A491"/>
<path d="M151.174 16.0262C151.111 16.3881 150.823 16.639 150.528 16.5882C150.234 16.5375 150.05 16.2053 150.108 15.8405C150.167 15.4757 150.46 15.2277 150.755 15.2784C151.049 15.3292 151.237 15.6652 151.174 16.0262Z" fill="#F7A491"/>
<path d="M150.755 15.2783C150.755 15.2783 151.65 15.5014 151.982 14.925C152.315 14.3486 153.502 13.1059 155.013 13.6191C156.524 14.1323 153.684 12.3648 153.564 12.3648L151.993 12.3542C151.993 12.3542 150.874 13.2753 150.834 13.3768C150.794 13.4783 150.472 14.5804 150.472 14.5804L150.755 15.2783Z" fill="#0E2E35"/>
<path d="M152.397 17.6855L154.022 17.9967C154.022 17.9967 153.867 18.6114 153.146 18.4956C152.268 18.3539 152.397 17.6855 152.397 17.6855Z" fill="white"/>
<path d="M124.832 131.286C124.871 131.438 124.931 131.583 125.01 131.717C125.52 132.649 126.706 133.978 126.706 133.978L127.623 131.909C127.623 131.909 127.474 131.259 127.215 130.33C126.328 130.562 125.485 130.695 124.832 131.286Z" fill="#F8A492"/>
<path d="M130.089 129.492C130.089 129.492 124.975 131.694 124.81 131.656C124.703 131.628 122.707 128.29 122.69 125.151C122.681 123.701 124.184 121.956 125.862 122.302C126.706 122.475 126.693 122.711 127.943 124.529C129.193 126.347 130.089 129.492 130.089 129.492Z" fill="#13375B"/>
<path d="M134.456 169.038C134.456 169.038 134.334 171.049 134.333 171.049C134.289 171.305 134.113 171.936 134.113 172.168C134.113 173.041 138.249 171.427 137.322 171.04C137.238 171.006 136.799 170.742 136.771 170.445C136.728 169.987 136.621 169.061 136.621 169.061L134.456 169.038Z" fill="#F7A491"/>
<path d="M137.312 171.038C137.312 171.038 136.341 171.304 135.844 171.371C135.346 171.438 134.691 170.876 134.339 171.028C133.952 171.195 133.967 172.698 133.967 172.698C133.967 172.698 139.174 173.126 140.638 172.683C141.218 172.507 139.298 171.659 137.312 171.038Z" fill="#DD513A"/>
<path d="M125.996 169.038C125.996 169.038 125.875 171.049 125.874 171.049C125.829 171.305 125.654 171.936 125.654 172.168C125.654 173.041 129.79 171.427 128.862 171.04C128.778 171.006 128.208 170.544 128.181 170.247C128.139 169.79 128.162 169.061 128.162 169.061L125.996 169.038Z" fill="#F7A491"/>
<path d="M128.852 171.038C128.852 171.038 127.882 171.304 127.384 171.371C126.887 171.438 126.231 170.876 125.88 171.028C125.492 171.195 125.477 172.698 125.477 172.698C125.477 172.698 130.708 173.197 132.179 172.683C132.75 172.483 130.838 171.659 128.852 171.038Z" fill="#DD513A"/>
<path d="M127.259 132.402L130.902 127.291C130.917 127.247 130.95 127.155 130.998 127.015C131.181 126.508 131.563 125.453 131.895 124.403V124.392C131.999 124.025 132.221 123.385 132.435 122.764C132.674 122.076 132.969 121.221 132.979 121.076L132.93 120.947C132.797 120.6 132.616 119.773 132.547 119.415C132.507 119.186 132.466 118.629 132.739 118.629C133.166 118.629 132.962 119.185 133.159 119.532C133.284 119.153 133.383 118.766 133.456 118.374L133.527 117.287C133.541 117.206 133.454 116.606 133.754 116.606H133.768C134.037 116.627 134.031 117.263 134.143 118.341C134.178 118.217 134.214 118.068 134.239 117.931C134.257 117.739 134.289 117.549 134.334 117.362C134.281 117.061 134.311 116.587 134.632 116.632C134.791 116.654 134.778 117.316 134.778 117.316C134.778 117.406 134.766 118.105 134.772 118.244C134.805 118.009 134.933 117.009 135.183 117.009C135.391 117.009 135.408 117.278 135.403 117.487C135.403 117.613 135.27 118.697 135.263 118.828C135.358 118.663 135.477 117.708 135.573 117.708C135.979 117.708 135.832 119.066 135.683 119.419C135.664 119.482 135.649 119.546 135.637 119.611C135.576 119.964 135.459 120.305 135.29 120.621C135.036 121.057 134.685 121.75 134.632 121.856C134.592 122.073 134.47 122.851 134.317 123.831C134.251 124.249 134.179 124.709 134.105 125.184C134.091 125.288 134.016 125.615 133.722 126.844C133.328 128.525 133.287 128.598 133.27 128.628C133.099 128.932 129.171 134.273 129.004 134.501L128.909 134.635L127.259 132.402Z" fill="#F7A491"/>
<path d="M134.034 120.483C134.034 120.483 133.739 119.726 133.212 119.724C133.304 119.695 133.402 119.689 133.497 119.706C133.592 119.722 133.682 119.761 133.759 119.82C134.011 120.018 134.034 120.483 134.034 120.483Z" fill="#F47458"/>
<path d="M126.379 119.02L125.911 121.988C125.911 121.988 127.698 123.425 128.739 123.122C129.613 122.868 129.013 121.724 129.013 121.724C129.013 121.724 128.548 120.139 128.691 119.307C128.834 118.476 126.379 119.02 126.379 119.02Z" fill="#F7A491"/>
<path d="M126.717 119.917C127.36 120.206 128.041 120.399 128.739 120.492C128.673 120.075 128.635 119.636 128.691 119.311C128.757 118.928 128.269 118.837 127.725 118.851C127.014 118.911 126.379 119.023 126.379 119.023L126.29 119.597C126.411 119.729 126.556 119.838 126.717 119.917Z" fill="#FE875E"/>
<path d="M124.125 115.594C124.051 115.594 124.831 118.912 126.037 119.483C127.243 120.053 129.045 119.757 129.383 118.862C129.757 117.874 128.394 114.489 126.697 114.06C125 113.63 124.125 115.594 124.125 115.594Z" fill="#F7A491"/>
<path d="M125.522 112.546C124.837 112.944 124.293 113.547 123.966 114.269C123.514 114.485 122.966 114.949 122.703 116.202C122.38 117.744 123.529 118.932 124.747 119.289C125.965 119.646 126.154 120.454 126.154 120.454L126.296 119.588C126.296 119.588 126.025 118.832 125.618 118.452C125.211 118.073 125.809 117.523 125.864 117.073C125.904 116.726 125.65 116.053 125.705 115.484C125.705 115.484 126.382 114.457 127.049 114.203C128.181 113.766 126.759 111.832 125.522 112.546Z" fill="#13375B"/>
<path d="M126.035 117.645C126.193 118.028 126.131 118.411 125.891 118.496C125.651 118.58 125.334 118.34 125.176 117.957C125.018 117.574 125.08 117.191 125.319 117.107C125.558 117.023 125.878 117.262 126.035 117.645Z" fill="#F7A491"/>
<path d="M130.532 132.483L137.558 131.334C137.558 131.334 136.758 129.323 136.473 129.323C136.188 129.323 131.16 131.525 131.16 131.525L130.76 132.329L130.532 132.483Z" fill="#F8A492"/>
<path d="M126.932 137.308C126.932 137.308 126.231 140.701 126.517 143.275C126.803 145.848 126.825 154.987 126.825 154.987L125.735 169.612L128.316 169.668C128.316 169.668 131.383 155.051 131.326 155.426C131.269 155.801 132.355 145.134 132.355 145.134L128.699 136.986L126.932 137.308Z" fill="#184655"/>
<path d="M127.617 137.147C127.617 137.147 127.16 140.202 127.732 141.543C128.304 142.883 132.632 156.032 132.688 157.104C132.745 158.175 134.185 170.029 134.185 170.029L137.192 169.945L137.843 156.77L136.481 140.212L135.159 136.025L127.617 137.147Z" fill="#13375B"/>
<path d="M125.914 121.989C125.914 121.989 126.655 122.477 127.348 122.42C128.04 122.364 129.017 121.725 129.017 121.725L128.881 121.263C128.881 121.263 127.092 121.002 127.047 121.031C127.001 121.059 125.914 121.989 125.914 121.989Z" fill="#F7A491"/>
<path d="M133.815 129.221C133.815 129.221 136.473 131.733 137.673 131.304C138.872 130.875 139.368 129.409 136.441 127.265C133.822 125.345 133.815 129.221 133.815 129.221Z" fill="#F8A492"/>
<path d="M135.615 132.322C135.221 130.172 132.364 123.478 132.131 122.245C132.019 121.646 130.476 121.632 129.006 121.711C127.453 121.793 125.911 121.989 125.911 121.989C125.911 121.989 124.536 122.216 123.932 122.783C123.328 123.35 123.167 124.92 124.035 127.9C124.722 130.252 125.572 131.544 125.993 133.262C126.079 133.836 126.152 134.403 126.248 135.065C126.403 137.628 126.248 141.011 126.248 141.011C126.248 141.011 133.733 142.566 136.531 140.207C136.526 140.202 136.02 134.525 135.615 132.322Z" fill="#355389"/>
<path d="M137.523 127.698C137.523 127.698 134.587 130.125 134.416 130.125C134.305 130.125 130.226 127.119 129.284 124.65C128.763 123.285 129.857 121.757 131.1 121.762C131.961 121.762 132.35 121.989 134.064 123.436C135.778 124.883 137.523 127.698 137.523 127.698Z" fill="#466EB6"/>
<path d="M85.8686 19.3408C86.3466 18.1814 86.839 17.0199 88.0876 16.4321C89.0982 15.9533 90.1536 16.1362 91.0514 16.815C93.5945 18.73 91.3784 20.8364 94.2743 24.4748C95.1739 25.6037 96.2629 26.5152 96.8021 27.8374C97.5564 29.6892 96.6577 30.5777 95.217 31.4653C88.3247 35.7069 84.7117 27.0006 84.8418 25.0024C84.9383 23.5202 85.5588 20.0905 85.8686 19.3408Z" fill="#13375B"/>
<path d="M78.7155 41.9228C79.0024 41.8769 79.7118 41.3704 79.9584 41.3244C80.1496 41.289 80.5684 41.2287 80.7472 41.199C80.9642 40.3832 82.0713 35.9396 82.1956 34.6365C82.3304 33.2252 83.3266 27.1194 83.3266 27.1194L85.908 27.5895C85.908 27.5895 84.8382 32.2868 84.5418 34.5647C84.2875 36.5208 82.144 40.9194 81.8715 41.3838C81.8715 41.3953 81.8715 41.4058 81.8715 41.4173C81.8304 42.1076 81.4977 41.8778 81.4977 41.8778L80.9585 42.0157C80.9585 42.0157 79.0463 42.1995 78.924 42.2455C78.8016 42.2914 78.4249 41.9688 78.7155 41.9228Z" fill="#F7A491"/>
<path d="M85.5793 23.5537C83.7551 24.1732 82.7178 29.1396 82.7178 29.1396C82.7178 29.1396 85.5802 29.9391 86.3135 29.5226C86.3135 29.5226 87.1463 25.8277 87.4445 25.957L85.5793 23.5537Z" fill="#6A97CE"/>
<path d="M71.4685 50.5037C71.0943 51.4994 70.802 52.5241 70.5946 53.5676C70.5822 53.6509 70.6988 54.0463 70.6902 54.142C69.5697 55.674 67.9597 56.0072 66.5791 56.1049C67.2828 55.4174 68.3163 54.7644 68.366 54.5471C68.7046 53.2236 68.9427 51.8765 69.0783 50.5171C69.934 50.9125 70.5172 50.5965 71.4685 50.5037Z" fill="#F7A491"/>
<path d="M87.3449 34.0103L89.8097 40.9643C89.8097 40.9643 85.8487 41.7112 84.3668 41.9831C82.8849 42.255 74.6149 42.6169 74.4008 42.7644C74.2459 42.8735 72.5365 48.4135 71.7726 51.463C70.9064 51.6545 69.4235 51.4247 68.6348 51.1528C69.0612 46.7838 70.6004 39.8633 71.0928 39.1097C71.8959 37.8832 87.3449 34.0103 87.3449 34.0103Z" fill="#256653"/>
<path d="M77.7139 53.5522C77.5317 54.6013 77.4358 55.6635 77.4271 56.7282C77.4271 56.8115 77.6183 57.183 77.625 57.2691C76.8104 58.983 75.2912 59.614 73.9536 59.9692C74.5158 59.1611 75.4088 58.3272 75.4164 58.1041C75.5022 56.7403 75.4843 55.3719 75.3629 54.0109C76.2836 54.2407 76.797 53.8223 77.7139 53.5522Z" fill="#F7A491"/>
<path d="M90.2223 34.3733L91.1784 36.0086C91.5199 36.5944 91.7305 37.2473 91.7958 37.9224C91.861 38.5975 91.7793 39.2787 91.5563 39.9192C91.3333 40.5596 90.9743 41.144 90.504 41.6321C90.0337 42.1201 89.4633 42.5003 88.8322 42.7463L88.7892 42.7636C87.3857 43.3084 79.3242 45.2176 79.1463 45.4014C79.0134 45.5374 78.371 51.2975 78.1903 54.4399C77.3747 54.7894 75.8747 54.843 75.0496 54.7271C74.6509 50.3563 74.8679 43.2691 75.2112 42.4361C75.7714 41.0756 90.2223 34.3733 90.2223 34.3733Z" fill="#327F6B"/>
<path d="M77.3053 56.7779C77.5204 56.5405 78.3082 57.8474 78.5052 58.1261C78.727 58.4392 78.6639 58.6757 78.6371 58.7245C78.5673 58.8538 74.4123 61.302 73.3989 61.4763C73.2919 61.4822 73.1858 61.4541 73.0958 61.3958C72.699 61.0445 74.5222 58.4516 75.3406 58.1117C75.8703 57.8896 76.3397 57.8436 77.3053 56.7779Z" fill="#13375B"/>
<path d="M70.462 53.6182C70.7172 53.4267 71.2469 54.8571 71.3884 55.1673C71.5471 55.5168 71.441 55.7418 71.4056 55.7811C71.31 55.895 66.7735 57.5198 65.7457 57.5045C65.6379 57.4909 65.5373 57.4429 65.4589 57.3676C65.1358 56.9492 67.4112 54.7441 68.2793 54.5632C68.8434 54.4406 69.3147 54.4847 70.462 53.6182Z" fill="#13375B"/>
<path d="M87.3094 23.5366C87.2465 23.5323 87.1844 23.5194 87.1249 23.4983C86.7865 23.438 86.0455 23.349 85.47 23.5941C84.7682 23.8909 83.6821 26.658 83.749 29.4978C83.7749 29.9325 83.8007 30.3212 83.8236 30.5922C84.0005 32.7379 84.6152 36.764 84.6487 36.7861C85.4843 37.3251 90.5294 35.235 90.8765 34.7754C91.2235 34.3158 91.4272 28.7385 91.5964 28.4609L91.9272 23.6103C91.3402 23.4351 88.2062 23.5299 87.3094 23.5366Z" fill="#9BC1F9"/>
<path d="M89.3546 21.7498C89.3546 21.7498 89.0295 23.4331 89.0945 24.0966C89.1596 24.7601 88.8469 26.8991 87.4434 26.9049C86.0399 26.9106 87.1776 24.1856 87.3096 23.5355C87.4415 22.8854 87.4731 20.8728 87.4731 20.8728L89.3546 21.7498Z" fill="#F7A491"/>
<path d="M87.4443 21.8829C87.4654 21.3314 87.473 20.8728 87.473 20.8728L89.3545 21.7498C89.3545 21.7498 89.2876 22.0936 89.2207 22.5321C88.3975 22.6977 87.8009 22.3933 87.4443 21.8829Z" fill="#F47458"/>
<path d="M90.0421 17.1061C90.5132 17.4003 90.8641 17.8532 91.0316 18.3833C91.2964 19.2565 90.9953 21.5085 89.1195 22.0524C87.2437 22.5962 86.4358 20.8077 86.8249 19.4184C87.214 18.0291 88.0535 16.2558 90.0421 17.1061Z" fill="#F7A491"/>
<path d="M86.5907 18.8755C86.6271 19.2498 86.8336 19.5361 87.0515 19.5151C87.2695 19.494 87.4157 19.1723 87.3794 18.7979C87.3431 18.4235 87.1366 18.1373 86.9186 18.1583C86.7007 18.1794 86.5535 18.5011 86.5907 18.8755Z" fill="#F7A491"/>
<path d="M89.8223 16.9923C89.8223 16.9923 90.1617 19.5047 90.9696 19.9605C91.7774 20.4162 91.4409 21.5288 91.4409 21.5288C91.4409 21.5288 92.1761 18.9436 91.5365 18.1087C90.8969 17.2738 89.8223 16.9923 89.8223 16.9923Z" fill="#13375B"/>
<path d="M90.4922 20.3194C90.2723 20.6468 90.2733 21.0327 90.4922 21.1811C90.7112 21.3295 91.0707 21.1859 91.2906 20.8584C91.5105 20.531 91.5095 20.1451 91.2906 19.9967C91.0716 19.8483 90.7121 19.9919 90.4922 20.3194Z" fill="#F7A491"/>
<path d="M87.7667 20.4592L89.087 20.7915C89.087 20.7915 88.9283 21.2932 88.3432 21.1639C87.6281 21.0069 87.7667 20.4592 87.7667 20.4592Z" fill="white"/>
<path d="M94.3169 41.713L100.006 41.4258C100.006 41.4258 97.6717 43.1061 97.6239 43.1061C97.5761 43.1061 95.7644 42.39 95.685 42.39C95.6057 42.39 94.3169 41.713 94.3169 41.713Z" fill="#50BFA5"/>
<path d="M208.231 169.121C208.231 169.121 208.341 171.097 208.342 171.101C208.383 171.352 208.544 171.972 208.544 172.2C208.544 173.062 204.748 171.472 205.598 171.093C205.676 171.059 206.076 170.798 206.104 170.507C206.143 170.057 206.243 169.148 206.243 169.148L208.231 169.121Z" fill="#F7A491"/>
<path d="M205.558 171.1C205.558 171.1 206.45 171.361 206.906 171.427C207.362 171.493 207.965 170.941 208.288 171.09C208.644 171.254 208.629 172.73 208.629 172.73C208.629 172.73 203.849 173.151 202.506 172.716C201.973 172.545 203.737 171.712 205.558 171.1Z" fill="#F7CC7F"/>
<path d="M214.549 169.018C214.549 169.018 214.661 170.995 214.661 170.998C214.702 171.249 214.863 171.87 214.863 172.098C214.863 172.955 211.067 171.37 211.918 170.991C211.994 170.956 212.518 170.502 212.543 170.21C212.582 169.761 212.561 169.046 212.561 169.046L214.549 169.018Z" fill="#F7A491"/>
<path d="M211.926 170.982C212.37 171.114 212.82 171.224 213.274 171.31C213.731 171.376 214.332 170.824 214.655 170.972C215.011 171.137 215.025 172.614 215.025 172.614C215.025 172.614 210.279 172.805 208.873 172.599C208.32 172.517 210.104 171.593 211.926 170.982Z" fill="#F7CC7F"/>
<path d="M213.422 137.627C213.422 137.627 214.066 140.961 213.805 143.488C213.544 146.016 213.518 154.997 213.518 154.997L214.727 169.359L212.146 169.42C212.146 169.42 209.331 155.057 209.383 155.427C209.436 155.797 208.439 145.315 208.439 145.315L211.795 137.31L213.422 137.627Z" fill="#355389"/>
<path d="M212.522 135.473C212.522 135.473 215.437 138.549 214.353 141.906C213.917 143.255 209.855 156.142 209.803 157.195C209.752 158.248 208.43 169.89 208.43 169.89L205.668 169.807L205.076 156.863L205.864 139.423L207.539 136.481L212.522 135.473Z" fill="#466EB6"/>
<path d="M194.827 125.467C195.783 124.4 197.858 122.882 197.858 122.882C197.858 122.882 199.096 121.824 199.6 121.649C200.343 121.393 201.615 120.709 203.454 123.501C204.771 125.499 213.078 135.845 214.441 136.192L205.537 140.461C205.293 138.423 200.892 134.573 200.258 133.854C198.843 132.25 193.923 126.482 194.827 125.467Z" fill="#F47458"/>
<path d="M195.241 121.133L198.014 122.76C198.014 122.76 198.091 125.132 197.185 125.748C196.42 126.265 195.846 125.024 195.846 125.024C195.846 125.024 194.815 123.588 194.03 123.147C193.245 122.707 195.241 121.133 195.241 121.133Z" fill="#F7A491"/>
<path d="M195.706 122.173C195.568 122.809 195.325 123.417 194.986 123.972C194.68 123.641 194.337 123.316 194.03 123.142C193.669 122.936 193.898 122.492 194.251 122.073C194.749 121.554 195.239 121.129 195.239 121.129L195.773 121.442C195.809 121.647 195.741 122.011 195.706 122.173Z" fill="#F47458"/>
<path d="M193.794 117.056C193.841 116.999 196.121 119.842 195.84 121.173C195.559 122.505 194.18 123.723 193.222 123.389C192.162 123.018 190.192 119.672 190.899 118.047C191.606 116.422 193.794 117.056 193.794 117.056Z" fill="#F7A491"/>
<path d="M191.301 116.16C192.294 115.606 193.915 115.447 195.125 116.083C196.614 116.863 196.953 118.829 196.487 120.027C196.022 121.226 196.554 121.903 196.554 121.903L195.764 121.441C195.764 121.441 195.303 120.719 195.242 120.145C195.182 119.571 194.345 119.666 193.936 119.411C193.621 119.21 193.219 118.558 192.71 118.219C192.71 118.219 191.427 118.062 190.798 118.416C189.724 119.02 189.874 116.953 191.301 116.16Z" fill="#13375B"/>
<path d="M194.58 119.891C194.572 120.317 194.771 120.665 195.029 120.67C195.287 120.675 195.498 120.332 195.507 119.904C195.517 119.476 195.316 119.128 195.058 119.125C194.8 119.121 194.586 119.463 194.58 119.891Z" fill="#F7A491"/>
<path d="M192.244 122.153L193.452 121.249C193.452 121.249 193.77 121.738 193.251 122.151C192.618 122.652 192.244 122.153 192.244 122.153Z" fill="white"/>
<path d="M189.212 140.136C189.514 139.694 189.646 139.055 190.064 138.568C190.25 138.369 190.458 138.191 190.683 138.036C192.691 136.858 197.934 133.824 198.14 133.584C198.382 133.305 201.958 127.355 201.958 127.355L198.746 126.626L195.607 132.18C195.346 132.387 190.363 136.076 190.363 136.076C190.363 136.076 189.373 136.85 188.834 137.213C188.589 137.353 188.331 137.468 188.063 137.558C187.771 137.659 187.213 137.941 187.101 138.036C186.97 138.152 186.708 138.398 186.553 138.549C186.397 138.699 186.208 138.869 186.135 138.959C186.049 139.034 185.952 139.095 185.848 139.139C185.815 139.156 185.788 139.183 185.77 139.215C185.752 139.248 185.744 139.285 185.747 139.322C185.751 139.359 185.765 139.394 185.789 139.423C185.812 139.452 185.844 139.473 185.88 139.483C186.032 139.526 186.238 139.431 186.365 139.371C186.726 139.201 187.166 138.743 187.19 138.797C187.214 138.85 186.766 139.835 186.722 139.95C186.678 140.066 186.164 141.21 186.138 141.465C186.111 141.72 186.265 141.779 186.38 141.686C186.475 141.606 187.304 140.078 187.304 140.078C187.304 140.078 187.409 139.886 187.45 139.994C187.491 140.103 186.744 141.495 186.671 141.723C186.599 141.951 186.657 142.137 186.862 142.058C187.118 141.962 187.825 140.43 187.825 140.43C187.825 140.43 187.921 140.239 187.979 140.306C188.037 140.373 187.386 141.543 187.38 141.678C187.373 141.813 187.493 141.946 187.666 141.833C187.875 141.7 188.494 140.328 188.494 140.328C188.494 140.328 188.571 140.237 188.59 140.301C188.609 140.365 188.126 141.403 188.163 141.554C188.165 141.571 188.171 141.586 188.179 141.601C188.188 141.615 188.2 141.627 188.213 141.636C188.227 141.646 188.242 141.653 188.259 141.656C188.275 141.659 188.292 141.659 188.308 141.656C188.575 141.654 188.909 140.579 189.212 140.136Z" fill="#F8A492"/>
<path d="M201.075 130.503C201.075 130.503 200.03 130.17 199.355 129.862C198.906 129.656 196.946 128.679 196.946 128.679C196.946 128.679 197.79 125.11 198.362 123.826C200.458 119.116 202.84 122.365 203.163 123.122C203.89 124.81 201.075 130.503 201.075 130.503Z" fill="#355389"/>
<path d="M128.017 118.164L129.012 117.418C129.012 117.418 129.275 117.822 128.846 118.162C128.328 118.578 128.017 118.164 128.017 118.164Z" fill="white"/>
<path d="M244.866 172.632H13.624C13.3372 172.632 13.1001 172.932 13.1001 173.302C13.1001 173.672 13.3343 173.972 13.624 173.972H244.866C245.153 173.972 245.389 173.674 245.389 173.302C245.389 172.927 245.155 172.632 244.866 172.632Z" fill="#184655"/>
<path d="M100.135 41.421C100.111 41.3607 100.059 41.3598 100.005 41.3578C99.4826 41.3501 98.9609 41.3111 98.4429 41.241C98.3572 41.2295 98.2732 41.208 98.1924 41.1769C98.0543 41.1226 97.9019 41.1172 97.7603 41.1616C97.6818 41.1809 97.6011 41.1892 97.5203 41.1865C97.2584 41.1865 96.5088 40.9298 96.1245 40.8628C96.0814 40.8552 96.0415 40.8352 96.0096 40.8053C95.9777 40.7754 95.9552 40.7368 95.9447 40.6943C95.5623 39.1949 94.7544 35.8313 94.6483 34.7245C94.5144 33.3103 93.5383 26.9316 93.5383 26.9316L90.9282 27.6612C90.9282 27.6612 92.0028 32.3691 92.3002 34.6508C92.5287 36.4135 94.2888 40.1543 94.8395 41.2295C95.1091 42.0309 95.7134 42.053 95.8539 42.0702C95.9341 42.0797 96.0078 42.119 96.0604 42.1803C96.1551 42.2924 96.2663 42.3892 96.3903 42.4675C96.4798 42.5258 96.5563 42.6021 96.6149 42.6916C96.7258 42.8534 96.8253 43.0229 96.9228 43.1933C96.9878 43.3053 97.0566 43.3417 97.1532 43.3149C97.2026 43.302 97.2455 43.2711 97.2734 43.2283C97.3013 43.1854 97.3123 43.1337 97.3043 43.0832C97.2977 42.9007 97.2437 42.7232 97.1475 42.5681C97.1046 42.5143 97.083 42.4466 97.0869 42.3778C97.0908 42.3091 97.1198 42.2442 97.1685 42.1956C97.223 42.1153 97.2873 42.042 97.3597 41.9773C97.3947 41.9431 97.4366 41.9168 97.4826 41.9002C97.5287 41.8837 97.5777 41.8773 97.6264 41.8816C97.815 41.9301 98.0067 41.9656 98.2001 41.9879L98.3578 42.0204L98.4439 42.0386C98.4573 42.0386 98.7307 42.0721 98.8263 42.0721C98.9028 42.0721 99.0261 42.0779 99.1313 42.0826C99.2338 42.0768 99.3355 42.0617 99.4353 42.0376C99.5256 42.0366 99.6123 42.0026 99.6791 41.9419C99.7069 41.916 99.7346 41.8873 99.7202 41.8461C99.714 41.8282 99.7026 41.8125 99.6874 41.8011C99.6723 41.7897 99.6541 41.783 99.6352 41.782C99.5067 41.7671 99.379 41.7457 99.2527 41.7178C99.3483 41.7178 99.6505 41.7102 99.747 41.7083C99.8094 41.708 99.871 41.6948 99.9281 41.6696C99.9852 41.6444 100.036 41.6077 100.079 41.5618C100.118 41.5197 100.158 41.4814 100.135 41.421Z" fill="#F7A491"/>
<path d="M91.9584 23.5985C93.2462 23.3639 94.3084 29.1365 94.3084 29.1365C94.3084 29.1365 91.4469 29.936 90.7136 29.5195C90.7136 29.5195 89.8808 25.8246 89.5825 25.9539L91.9584 23.5985Z" fill="#9BC1F9"/>
<path d="M60.8102 127.343C60.8953 127.098 59.7079 126.901 59.6448 126.654C59.5817 126.407 61.1448 126.387 61.2003 126.169C61.3035 125.769 59.487 126.085 59.5224 125.898C59.5578 125.71 61.4154 125.292 61.2146 124.971C61.0139 124.649 59.334 125.606 59.2834 125.388C59.2327 125.171 60.9259 124.639 60.8953 124.161C60.879 123.905 58.117 125.435 57.7967 125.296C57.4764 125.157 58.1409 123.956 57.8856 123.778C57.6303 123.6 56.8989 126.219 56.723 126.306C56.5471 126.394 52.8156 128.527 51.4876 128.866C51.326 128.421 50.978 127.82 50.8356 127.399C50.0898 127.929 49.5372 128.196 48.7686 128.68C49.325 130.078 50.1185 131.609 50.5067 131.785C51.6884 132.319 56.2584 128.523 57.1705 127.874C58.0826 127.225 58.6046 127.434 59.2241 127.228C59.8436 127.023 60.7251 127.59 60.8102 127.343Z" fill="#F7A491"/>
<path d="M48.6089 129.354C48.6089 129.354 47.5859 124.83 47.7627 123.514C47.9396 122.197 49.498 120.978 50.5774 121.431C51.6568 121.884 52.1463 128.205 52.1463 128.205L48.6089 129.354Z" fill="#F7CC7F"/>
</g>
<defs>
<clipPath id="clip0">
<rect width="249" height="174" fill="white"/>
</clipPath>
</defs>
</svg>
