<svg width="157" height="157" viewBox="0 0 157 157" fill="none" xmlns="http://www.w3.org/2000/svg">
<path d="M145.992 62.5686L145.895 117.432L80.189 156L80.2854 101.233L145.992 62.5686Z" fill="#F5BC6F"/>
<path d="M80.2851 101.233L80.1887 156L14 117.432L14.1929 62.5686L80.2851 101.233Z" fill="#FFCF7A"/>
<path d="M145.987 62.5683L80.281 101.233L14.1887 62.5683L79.8951 24L145.987 62.5683Z" fill="#FCD495"/>
<path d="M111.355 81.6368L81.9999 65.1885L108.718 49.6003L138.074 66.0486L111.355 81.6368Z" fill="#F1F2F2"/>
<path d="M123.475 71.0923L122.238 70.6564L130.142 66.045L131.379 66.4809L123.475 71.0923Z" fill="#6D6E71"/>
<path d="M120.302 69.4706L118.495 68.2093L127.108 63.1842L129.004 64.3936L120.302 69.4706Z" fill="#6D6E71"/>
<path d="M117.934 67.3785L116.119 66.122L124.03 61.5066L125.765 62.8103L117.934 67.3785Z" fill="#6D6E71"/>
<path d="M112.99 66.7902L111.153 65.5465L120.771 59.9348L122.525 61.2269L112.99 66.7902Z" fill="#6D6E71"/>
<path d="M111.375 64.2588L109.641 62.9552L117.471 58.3869L119.286 59.6434L111.375 64.2588Z" fill="#6D6E71"/>
<path d="M104.135 61.5361L102.298 60.2924L111.917 54.6806L113.671 55.9727L104.135 61.5361Z" fill="#6D6E71"/>
<path d="M102.602 58.9577L100.787 57.7011L108.617 53.1328L110.432 54.3894L102.602 58.9577Z" fill="#6D6E71"/>
<path d="M111.656 77.9878L88.6942 64.7562L89.4149 64.3357L112.377 77.5673L111.656 77.9878Z" fill="#6D6E71"/>
<path d="M115.06 76.0021L91.2855 63.2443L92.0577 62.7938L115.832 75.5516L115.06 76.0021Z" fill="#6D6E71"/>
<path d="M118.515 73.9865L94.7406 61.2287L95.5129 60.7781L119.287 73.536L118.515 73.9865Z" fill="#6D6E71"/>
<path d="M36.9524 117.592C36.0843 117.001 35.3649 116.211 34.8521 115.285C34.3393 114.36 34.0474 113.325 34 112.263V108L40 111.585V115.46C39.8095 117.786 38.4762 118.561 36.9524 117.592Z" fill="#CF9975"/>
<path d="M44.3866 119.091C44.1708 118.975 43.9336 118.914 43.6932 118.914C43.4529 118.914 43.2157 118.975 43 119.091C43 115.434 45.5882 113.91 48.5462 115.84C50.095 116.971 51.3904 118.472 52.3351 120.232C53.2797 121.991 53.849 123.964 54 126C53.6273 125.253 53.0862 124.623 52.4286 124.171C51.5042 123.562 50.7647 124.171 50.395 124.171C50.1092 122.955 49.4159 121.903 48.4538 121.225C47.5294 120.615 46.7899 121.225 46.4202 121.225C45.9271 120.328 45.225 119.591 44.3866 119.091Z" fill="#CF9975"/>
<path d="M23 111.235L22.3459 107.618L19.4491 107L20.0098 107.706L19.0754 108.941C19.0258 109.037 19 109.143 19 109.25C19 109.357 19.0258 109.463 19.0754 109.559L20.477 113L22.4393 110.441L23 111.235Z" fill="#CF9975"/>
<path d="M22.6 111L21 113.5L25 116V112.458L22.6 111Z" fill="#CF9975"/>
<path d="M27.9166 114.818V114L26 115.091L27.9166 118.727V117.909L29.6667 119L31 117.091L27.9166 114.818Z" fill="#CF9975"/>
<path d="M32 116L30.2222 111L28 111.283L28.9778 114.113L32 116Z" fill="#CF9975"/>
<path d="M28.0384 106.938L26.9807 104.272C27.0555 104.082 27.0555 103.869 26.9807 103.679L24 102L25.9231 107.136H25.3461L28.3269 110L29 106.741L28.0384 106.938Z" fill="#CF9975"/>
<path d="M23.6216 102L22 104.9L24.027 108L25 106.4L23.6216 102Z" fill="#CF9975"/>
<path d="M107.922 41L117 46.3187L50.0775 85L41 79.6813L107.922 41Z" fill="#CF9975"/>
<path d="M41 100.58L50 106V84.4197L41 79V100.58Z" fill="#CF9975"/>
<path fill-rule="evenodd" clip-rule="evenodd" d="M157 78.5C157 121.854 121.854 157 78.5 157C35.1456 157 0 121.854 0 78.5C0 35.1456 35.1456 0 78.5 0C121.854 0 157 35.1456 157 78.5ZM149 79C149 117.66 117.66 149 79 149C59.4416 149 41.7566 140.979 29.0554 128.046L132.512 33.8704C142.799 46.0561 149 61.8039 149 79ZM127.716 28.7335C115.115 16.5187 97.9357 9 79 9C40.3401 9 9 40.3401 9 79C9 95.5739 14.7601 110.802 24.3876 122.793L127.716 28.7335Z" fill="#FF0000"/>
<path d="M43.7882 63.2471L36.1421 67.4368L44.6539 70.3803L40.6715 72.5624L19.8427 65.3595L32.427 58.464L35.9032 59.6661L27.3013 64.3795L32.6802 66.2396L40.3263 62.0499L43.7882 63.2471ZM60.5884 57.8133L53.606 61.6393L56.5702 63.8508L52.3356 66.1711L38.7016 55.0259L42.3919 53.0038L70.4553 56.2424L66.2207 58.5628L60.5884 57.8133ZM51.205 59.848L56.0369 57.2004L45.8111 55.8353L51.205 59.848ZM70.9109 48.526L71.2434 50.4918L77.1945 52.5497L73.2122 54.7318L52.3834 47.529L56.3657 45.3469L65.8073 48.6119L64.9703 46.7563L63.0428 41.6882L67.9411 39.0042L70.3338 45.9654L88.969 46.0979L84.23 48.6946L70.9109 48.526ZM94.0223 35.2612L86.3762 39.4509L91.9553 41.3802L100.929 36.4632L104.377 37.6554L91.4206 44.7546L70.5918 37.5517L83.5211 30.4671L86.9974 31.6692L78.0504 36.5717L83.0144 38.2884L90.6605 34.0987L94.0223 35.2612Z" fill="#7C0000"/>
</svg>
