<svg width="171" height="173" viewBox="0 0 171 173" fill="none" xmlns="http://www.w3.org/2000/svg">
<path d="M162.727 112.109C146.757 149.665 104.216 170.704 67.324 165.029C61.3208 164.105 44.8629 161.354 30.292 148.375C2.23946 123.394 -3.75936 73.9251 18.8678 39.0656C35.3368 13.6895 64.8573 -0.694224 92.9087 0.0257996C98.9509 0.180577 122.106 1.13586 142.458 17.8945C145.447 20.3561 152.04 26.2054 157.981 35.4853C171.934 57.2754 173.133 87.6341 162.727 112.109Z" fill="url(#paint0_linear)"/>
<path d="M40.3392 2.02987C35.0415 10.4008 6.20105 60.3778 48.2994 95.8273C48.2994 95.8273 75.7649 67.8077 41.7904 2.09054C41.722 1.96045 41.6206 1.85058 41.4964 1.77196C41.3721 1.69334 41.2293 1.64872 41.0823 1.64258C40.9353 1.63643 40.7893 1.66898 40.6589 1.73695C40.5285 1.80492 40.4182 1.90594 40.3392 2.02987Z" fill="#91B3FA"/>
<path d="M41.3968 12.0029C40.9009 15.122 40.4719 18.256 40.0689 21.3899C39.666 24.5238 39.304 27.6652 38.9729 30.809C38.3152 37.0955 37.7988 43.3992 37.4765 49.708C37.1541 56.0167 37.0258 62.3378 37.2384 68.6478C37.3343 71.8019 37.5476 74.9478 37.8782 78.0855C38.2136 81.2175 38.6723 84.3385 39.3759 87.3994C39.3963 87.503 39.3755 87.6105 39.3179 87.6991C39.2603 87.7877 39.1705 87.8505 39.0674 87.8741C38.9643 87.8978 38.8561 87.8805 38.7656 87.8258C38.675 87.7712 38.6094 87.6835 38.5824 87.5814C37.8881 84.4716 37.4455 81.3203 37.1275 78.1635C36.8095 75.0066 36.6222 71.838 36.5448 68.67C36.3706 62.3341 36.5448 55.9975 36.9006 49.6776C37.2564 43.3577 37.8193 37.0478 38.5161 30.7601C38.8645 27.615 39.2496 24.4745 39.6716 21.3385C40.0919 18.2015 40.5438 15.0713 41.0571 11.9485C41.0643 11.9034 41.0892 11.863 41.1262 11.8363C41.1632 11.8095 41.2094 11.7985 41.2545 11.8058C41.2997 11.813 41.3401 11.8378 41.3669 11.8748C41.3937 11.9118 41.4046 11.9579 41.3974 12.0029H41.3968Z" fill="#BDD0FB"/>
<path d="M3.57567 11.262C0.568509 23.4374 -14.0334 95.0039 50.7505 120.751C50.7505 120.751 72.5092 76.1081 5.3486 10.7538C5.21448 10.6232 5.04817 10.5304 4.86653 10.4847C4.6849 10.4391 4.4944 10.4422 4.31437 10.4938C4.13434 10.5454 3.97119 10.6437 3.84145 10.7786C3.71172 10.9135 3.62003 11.0803 3.57567 11.262Z" fill="#BDD0FB"/>
<path d="M8.80515 22.8358C9.27813 27.0185 9.92718 31.1876 10.6574 35.3375C11.3877 39.4874 12.2264 43.6193 13.1631 47.7283C15.0402 55.9433 17.3065 64.0728 20.098 72.0228C22.8894 79.9728 26.2121 87.7395 30.337 95.0735C31.3617 96.9104 32.4564 98.7065 33.5958 100.472C34.7352 102.238 35.9366 103.963 37.2049 105.637C39.7172 108.998 42.5369 112.12 45.6275 114.96H45.6306C45.7102 115.033 45.7576 115.134 45.7623 115.242C45.767 115.35 45.7287 115.455 45.6558 115.534C45.6197 115.574 45.5761 115.605 45.5277 115.628C45.4793 115.65 45.4269 115.663 45.3735 115.666C45.2656 115.67 45.1604 115.632 45.0808 115.559C41.965 112.671 39.125 109.5 36.5974 106.087C35.3253 104.392 34.12 102.65 32.9815 100.862C31.8421 99.0773 30.7498 97.2633 29.7251 95.4134C25.6096 88.0138 22.3191 80.1914 19.5475 72.2129C16.7759 64.2344 14.5517 56.0684 12.7106 47.8292C11.7914 43.7093 10.974 39.5683 10.2582 35.4062C9.54593 31.2451 8.91611 27.0723 8.46048 22.8704C8.45804 22.848 8.46005 22.8252 8.46641 22.8035C8.47277 22.7818 8.48334 22.7616 8.49753 22.744C8.51172 22.7263 8.52925 22.7117 8.54911 22.7008C8.56897 22.69 8.59078 22.6831 8.61329 22.6807C8.63579 22.6783 8.65856 22.6803 8.68029 22.6866C8.70202 22.693 8.72229 22.7035 8.73993 22.7177C8.75758 22.7319 8.77225 22.7494 8.78312 22.7692C8.79399 22.789 8.80084 22.8108 8.80329 22.8333L8.80515 22.8358Z" fill="url(#paint1_linear)"/>
<g opacity="0.94">
<path opacity="0.94" d="M0.00228067 79.2211C0.588091 85.4283 5.35826 121.361 37.3125 121.642C37.3125 121.642 39.7977 96.9394 0.688516 78.6645C0.348808 78.5029 -0.0330539 78.8156 0.00228067 79.2211Z" fill="#91B3FA"/>
<path opacity="0.94" d="M4.13382 83.6308C4.97255 85.4014 5.88195 87.1461 6.81553 88.8722C7.74911 90.5982 8.72608 92.3045 9.73343 93.9897C10.7408 95.6749 11.789 97.3329 12.8714 98.9729C13.9537 100.613 15.0714 102.224 16.2412 103.799C17.411 105.374 18.6092 106.927 19.8769 108.421C21.1447 109.916 22.444 111.384 23.8288 112.766C24.1667 113.12 24.52 113.458 24.874 113.796C25.228 114.133 25.5726 114.48 25.9421 114.8L27.0338 115.777L28.1607 116.712C29.673 117.941 31.2729 119.059 32.9477 120.055H32.9526C32.9986 120.081 33.039 120.116 33.0714 120.158C33.1037 120.199 33.1275 120.247 33.1412 120.298C33.1549 120.349 33.1582 120.402 33.1511 120.454C33.144 120.506 33.1265 120.556 33.0996 120.602C33.0728 120.647 33.0372 120.687 32.9948 120.718C32.9525 120.749 32.9043 120.772 32.8531 120.785C32.8018 120.797 32.7486 120.799 32.6965 120.791C32.6444 120.783 32.5945 120.764 32.5497 120.737H32.546C29.1309 118.676 26.094 116.078 23.3441 113.24C21.958 111.828 20.6599 110.337 19.3996 108.817C18.1393 107.298 16.9436 105.726 15.7849 104.131C14.6263 102.535 13.5173 100.904 12.4468 99.2497C11.3762 97.5954 10.3391 95.917 9.34723 94.2176C8.35538 92.5181 7.39204 90.7976 6.47024 89.0573C5.54844 87.317 4.65764 85.5618 3.82944 83.7695C3.81211 83.7294 3.8111 83.6841 3.82664 83.6433C3.84218 83.6025 3.87304 83.5693 3.91266 83.5509C3.95228 83.5324 3.99755 83.5301 4.03884 83.5445C4.08014 83.5588 4.11421 83.5887 4.13382 83.6277V83.6308Z" fill="#BDD0FB"/>
</g>
<path d="M80.5495 141.083L77.1772 164.323H116.3L111.204 141.083H80.5495Z" fill="url(#paint2_linear)"/>
<path d="M14.8303 66.6659V135.841C14.8301 138.577 15.9001 141.205 17.8124 143.165C19.7246 145.125 22.3278 146.261 25.0668 146.331C50.3652 146.983 138.848 148.56 162.934 148.209C164.926 148.178 166.829 147.381 168.247 145.984C169.665 144.586 170.489 142.696 170.545 140.707C171.009 124.637 171.764 85.9926 168.973 68.0521C168.689 66.2208 167.773 64.5462 166.383 63.3181C164.994 62.09 163.218 61.3856 161.364 61.3267C140.167 60.6494 46.3711 58.4986 22.2977 59.036C20.3013 59.0803 18.4018 59.9038 17.006 61.33C15.6102 62.7562 14.8292 64.6716 14.8303 66.6659Z" fill="url(#paint3_linear)"/>
<path d="M19.1765 66.3293V132.05C19.1765 133.647 19.8055 135.18 20.9276 136.317C22.0496 137.455 23.5748 138.106 25.1735 138.13L159.466 139.787C160.25 139.798 161.028 139.655 161.755 139.364C162.483 139.073 163.145 138.641 163.705 138.093C164.264 137.545 164.709 136.891 165.013 136.17C165.318 135.449 165.476 134.675 165.479 133.892L165.703 68.7581C165.707 67.6258 165.267 66.537 164.477 65.7251C163.687 64.9133 162.609 64.4432 161.476 64.4156L23.9857 61.642C23.3598 61.6267 22.7371 61.7367 22.1543 61.9654C21.5715 62.1941 21.0404 62.5369 20.5923 62.9737C20.1441 63.4104 19.788 63.9323 19.5449 64.5086C19.3017 65.0849 19.1765 65.7039 19.1765 66.3293Z" fill="url(#paint4_linear)"/>
<path d="M166.491 142.5H166.487L19.1732 139.993C19.1204 139.99 19.0711 139.966 19.0353 139.927C18.9996 139.888 18.9801 139.837 18.981 139.784C18.9819 139.731 19.003 139.681 19.04 139.643C19.0771 139.605 19.1272 139.583 19.18 139.582L166.494 142.088C166.547 142.092 166.596 142.115 166.632 142.154C166.668 142.192 166.688 142.243 166.688 142.296C166.687 142.349 166.667 142.399 166.63 142.437C166.593 142.475 166.543 142.498 166.491 142.5Z" fill="#91B3FA"/>
<path d="M94.2898 145.562C93.9458 145.562 93.6093 145.461 93.3229 145.271C93.0365 145.08 92.8132 144.809 92.6811 144.492C92.549 144.175 92.5141 143.825 92.5809 143.488C92.6476 143.151 92.813 142.842 93.0561 142.598C93.2991 142.355 93.6089 142.189 93.9463 142.122C94.2837 142.055 94.6335 142.089 94.9514 142.221C95.2693 142.352 95.5411 142.574 95.7323 142.86C95.9235 143.146 96.0255 143.482 96.0255 143.825C96.0251 144.285 95.8421 144.726 95.5168 145.052C95.1915 145.377 94.7503 145.561 94.2898 145.562ZM94.2898 142.5C94.0272 142.5 93.7706 142.578 93.5522 142.723C93.3338 142.869 93.1636 143.076 93.0631 143.318C92.9626 143.561 92.9362 143.827 92.9874 144.084C93.0386 144.341 93.165 144.578 93.3507 144.763C93.5363 144.949 93.7729 145.075 94.0304 145.126C94.2879 145.177 94.5548 145.151 94.7974 145.05C95.0399 144.95 95.2472 144.78 95.393 144.562C95.5388 144.344 95.6165 144.087 95.6164 143.825C95.6159 143.474 95.476 143.137 95.2273 142.889C94.9786 142.641 94.6415 142.501 94.2898 142.5Z" fill="#91B3FA"/>
<path d="M124.728 170.502H67.4686C65.9133 170.502 64.7448 169.397 65.0454 168.209L65.7806 165.306C66.0013 164.434 66.9628 163.793 68.1047 163.758L123.302 162.038C124.494 162.001 125.551 162.633 125.811 163.54L127.135 168.162C127.482 169.363 126.308 170.502 124.728 170.502Z" fill="url(#paint5_linear)"/>
<path d="M98.2916 164.564C98.2389 164.561 98.1893 164.538 98.153 164.5C98.1167 164.461 98.0964 164.411 98.0964 164.358C98.0964 164.305 98.1167 164.255 98.153 164.216C98.1893 164.178 98.2389 164.155 98.2916 164.152L100.657 164.117C100.712 164.117 100.764 164.138 100.803 164.176C100.842 164.214 100.865 164.266 100.866 164.321C100.867 164.347 100.862 164.374 100.852 164.399C100.842 164.425 100.827 164.447 100.808 164.467C100.789 164.486 100.767 164.502 100.742 164.512C100.717 164.523 100.69 164.529 100.663 164.529L98.2978 164.564H98.2916Z" fill="#91B3FA"/>
<path d="M67.1654 168.922C67.1544 168.923 67.1434 168.923 67.1325 168.922C67.0787 168.914 67.0305 168.884 66.9985 168.84C66.9666 168.796 66.9535 168.741 66.962 168.687L67.2993 166.576C67.387 166.023 67.6676 165.519 68.0915 165.152C68.5154 164.786 69.0553 164.581 69.6158 164.573L94.7041 164.207C94.7569 164.209 94.8069 164.231 94.8439 164.269C94.8809 164.306 94.9019 164.357 94.9027 164.41C94.9035 164.462 94.884 164.514 94.8482 164.552C94.8124 164.591 94.763 164.615 94.7103 164.618L69.6214 164.985C69.1578 164.991 68.7113 165.161 68.3608 165.464C68.0102 165.767 67.7783 166.184 67.7059 166.641L67.3687 168.752C67.3605 168.799 67.3356 168.843 67.2983 168.874C67.2611 168.905 67.214 168.923 67.1654 168.922Z" fill="#91B3FA"/>
<path d="M126.847 108.785C122.434 119.958 115.86 127.369 107.126 131.017C98.3677 134.653 88.036 134.127 76.1305 129.44C64.4738 124.849 56.6923 118.342 52.7861 109.921C48.8799 101.5 49.134 91.6994 53.5486 80.5191L67.6291 44.8652L90.8483 54.0689L77.5036 87.8624C75.1198 93.8983 74.5163 98.7236 75.6928 102.338C76.8773 105.955 79.6683 108.63 84.0659 110.363C88.783 112.22 92.7361 112.214 95.9253 110.344C99.1145 108.474 101.923 104.46 104.35 98.3006L117.627 64.6829L140.659 73.8117L126.847 108.785Z" fill="url(#paint6_linear)"/>
<path d="M126.995 108.419C122.776 119.107 116.36 126.181 107.709 129.549C99.0581 132.918 88.7944 132.284 76.8655 127.586C65.2088 122.995 57.3759 116.62 53.3668 108.463C49.3609 100.301 49.4868 90.8141 53.7077 80.1271L67.6339 44.8665L90.8543 54.0707L77.6317 87.5527C75.3517 93.3252 74.8031 97.9884 76.0355 101.483C77.2678 104.977 80.0648 107.608 84.4724 109.345C89.1894 111.203 93.1186 111.258 96.2599 109.511C99.4053 107.76 102.153 103.877 104.478 97.9952L117.632 64.6872L140.664 73.8165L126.995 108.419Z" fill="url(#paint7_linear)"/>
<path d="M96.6201 37.4998L74.7306 28.8774C74.3537 28.7295 73.944 28.8744 73.7952 29.2489L67.324 45.6416L90.563 54.7958L97.0361 38.4043C97.183 38.0279 96.9964 37.6483 96.6201 37.4998Z" fill="url(#paint8_linear)"/>
<path d="M146.504 57.1498L124.746 48.5788C124.369 48.4302 123.984 48.585 123.835 48.9608L117.362 65.3524L140.411 74.433L146.886 58.0413C147.035 57.6649 146.881 57.2978 146.504 57.1498Z" fill="url(#paint9_linear)"/>
<path d="M56.1659 83.2123C55.9867 83.1418 55.8485 82.9195 55.9179 82.7406L68.8808 49.916C68.9515 49.7371 69.2044 49.6684 69.3835 49.7396C69.5627 49.8108 69.7015 50.0324 69.6315 50.2114L56.6693 83.0359C56.5998 83.2148 56.3463 83.2829 56.1659 83.2123Z" fill="url(#paint10_linear)"/>
<path d="M101.233 129.309C101.157 129.279 101.095 129.224 101.055 129.154C101.016 129.083 101.002 129.001 101.017 128.921C101.032 128.842 101.074 128.77 101.136 128.718C101.197 128.665 101.276 128.636 101.357 128.636C110.027 128.48 116.402 121.356 120.223 115.407C124.389 108.922 126.505 102.395 126.526 102.33C126.554 102.242 126.616 102.169 126.699 102.127C126.781 102.084 126.877 102.076 126.965 102.104C127.053 102.133 127.126 102.195 127.169 102.277C127.211 102.359 127.219 102.455 127.191 102.543C127.169 102.609 125.025 109.222 120.811 115.784C118.331 119.647 115.624 122.742 112.77 124.98C109.179 127.797 105.344 129.262 101.369 129.333C101.322 129.334 101.276 129.326 101.233 129.309Z" fill="url(#paint11_linear)"/>
<path d="M95.9288 10.7024L87.6904 17.9812L91.2275 19.3828L87.3308 25.6878L98.1226 19.4714L93.4926 17.1943L95.9288 10.7024Z" fill="#91B3FA"/>
<path d="M106.828 21.188L98.3979 24.0736L100.618 26.2139L95.6982 29.7861L105.736 28.4693L102.978 25.3286L106.828 21.188Z" fill="#91B3FA"/>
<path d="M76.6839 10.1589L75.0579 18.9094L78.0154 18.0296L78.7134 24.0646L82.4973 14.6864L78.4029 15.542L76.6839 10.1589Z" fill="#91B3FA"/>
<path d="M145.776 30.4612L137.557 37.7469L141.103 39.1522L137.211 45.4585L147.987 39.2364L143.341 36.9525L145.776 30.4612Z" fill="#91B3FA"/>
<path d="M156.713 40.9612L148.282 43.8468L150.503 45.987L145.583 49.5593L155.621 48.2424L152.863 45.1017L156.713 40.9612Z" fill="#91B3FA"/>
<path d="M126.569 29.9312L124.943 38.6823L127.901 37.8025L128.599 43.837L132.383 34.4587L128.288 35.315L126.569 29.9312Z" fill="#91B3FA"/>
<path d="M149.338 119.589C149.578 125.755 149.511 161.689 115.739 167.682C115.739 167.682 109.686 144.015 148.536 119.169C148.613 119.12 148.702 119.092 148.794 119.088C148.886 119.085 148.977 119.105 149.058 119.148C149.14 119.19 149.208 119.254 149.257 119.331C149.306 119.409 149.334 119.498 149.338 119.589Z" fill="#91B3FA"/>
<path d="M145.88 124.715C145.245 126.696 144.528 128.647 143.775 130.584C143.022 132.521 142.218 134.437 141.367 136.334C140.517 138.231 139.618 140.106 138.671 141.956C138.43 142.418 138.199 142.885 137.95 143.34L137.21 144.713C136.7 145.619 136.197 146.53 135.66 147.421C135.138 148.321 134.577 149.197 134.025 150.083L133.167 151.387C132.884 151.825 132.576 152.244 132.281 152.674C131.084 154.377 129.826 156.043 128.456 157.618L127.948 158.213L127.419 158.789L126.889 159.366L126.624 159.654L126.348 159.931L125.24 161.04L124.082 162.099C122.517 163.494 120.832 164.748 119.046 165.847C119.01 165.869 118.97 165.884 118.928 165.891C118.886 165.897 118.844 165.896 118.803 165.886C118.762 165.876 118.723 165.858 118.689 165.833C118.655 165.808 118.626 165.777 118.604 165.741C118.582 165.705 118.567 165.665 118.561 165.623C118.554 165.582 118.556 165.539 118.566 165.498C118.576 165.457 118.594 165.419 118.619 165.385C118.645 165.351 118.676 165.322 118.712 165.3H118.716C120.478 164.234 122.141 163.015 123.688 161.658L124.836 160.622L125.937 159.536L126.212 159.263L126.476 158.981L127.004 158.415L127.532 157.848L128.04 157.263C129.407 155.715 130.668 154.072 131.869 152.388C132.165 151.964 132.475 151.549 132.758 151.117L133.621 149.826C134.179 148.953 134.741 148.086 135.267 147.194C135.809 146.311 136.316 145.408 136.831 144.51L137.575 143.148C137.826 142.695 138.059 142.232 138.302 141.776C139.26 139.938 140.169 138.077 141.03 136.191C141.891 134.305 142.705 132.4 143.474 130.474C144.239 128.55 144.971 126.606 145.615 124.641C145.626 124.606 145.65 124.578 145.682 124.561C145.714 124.545 145.752 124.542 145.786 124.553C145.82 124.564 145.849 124.589 145.865 124.621C145.882 124.653 145.884 124.69 145.873 124.724L145.88 124.715Z" fill="#BDD0FB"/>
<path d="M149.647 149.514C148.006 153.633 137.559 177.196 115.703 171.009C115.703 171.009 118.95 153.662 149.291 148.997C149.559 148.957 149.757 149.244 149.647 149.514Z" fill="#BDD0FB"/>
<path d="M146.144 151.867C145.221 152.926 144.261 153.945 143.285 154.95C142.31 155.956 141.309 156.937 140.291 157.9C139.273 158.862 138.231 159.8 137.169 160.716C136.108 161.632 135.026 162.526 133.916 163.383C132.806 164.241 131.678 165.078 130.512 165.863C129.347 166.648 128.164 167.41 126.935 168.096C124.491 169.486 121.897 170.656 119.15 171.383C119.068 171.404 118.98 171.393 118.907 171.35C118.833 171.307 118.78 171.237 118.758 171.155C118.736 171.073 118.748 170.986 118.791 170.912C118.833 170.839 118.904 170.785 118.986 170.764H118.992C121.67 170.087 124.235 168.968 126.665 167.62C127.886 166.954 129.068 166.215 130.23 165.449C131.393 164.682 132.524 163.865 133.636 163.024C134.748 162.183 135.835 161.307 136.902 160.406C137.968 159.506 139.015 158.583 140.041 157.636C141.067 156.689 142.072 155.72 143.057 154.73C144.041 153.739 145.01 152.731 145.937 151.692C145.961 151.666 145.994 151.65 146.03 151.648C146.065 151.646 146.1 151.658 146.126 151.682C146.153 151.705 146.17 151.738 146.172 151.773C146.175 151.809 146.164 151.844 146.141 151.871L146.144 151.867Z" fill="url(#paint12_linear)"/>
<defs>
<linearGradient id="paint0_linear" x1="183.725" y1="168.191" x2="60.2919" y2="60.0484" gradientUnits="userSpaceOnUse">
<stop stop-color="#DAE3FE"/>
<stop offset="1" stop-color="#E9EFFD"/>
</linearGradient>
<linearGradient id="paint1_linear" x1="5096.62" y1="103917" x2="27546" y2="103917" gradientUnits="userSpaceOnUse">
<stop stop-color="#DAE3FE"/>
<stop offset="1" stop-color="#E9EFFD"/>
</linearGradient>
<linearGradient id="paint2_linear" x1="96.3925" y1="128.682" x2="97.2216" y2="214.198" gradientUnits="userSpaceOnUse">
<stop stop-color="#09005D"/>
<stop offset="1" stop-color="#1A0F91"/>
</linearGradient>
<linearGradient id="paint3_linear" x1="228667" y1="-15278" x2="231065" y2="240470" gradientUnits="userSpaceOnUse">
<stop stop-color="#09005D"/>
<stop offset="1" stop-color="#1A0F91"/>
</linearGradient>
<linearGradient id="paint4_linear" x1="50.178" y1="140.804" x2="208.764" y2="-11.7508" gradientUnits="userSpaceOnUse">
<stop stop-color="#FEBBBA"/>
<stop offset="1" stop-color="#FF928E"/>
</linearGradient>
<linearGradient id="paint5_linear" x1="95375.7" y1="32358" x2="95398.9" y2="22023.7" gradientUnits="userSpaceOnUse">
<stop stop-color="#09005D"/>
<stop offset="1" stop-color="#1A0F91"/>
</linearGradient>
<linearGradient id="paint6_linear" x1="76.5124" y1="120.031" x2="118.822" y2="31.9818" gradientUnits="userSpaceOnUse">
<stop stop-color="#E1473D"/>
<stop offset="1" stop-color="#E9605A"/>
</linearGradient>
<linearGradient id="paint7_linear" x1="110.048" y1="52.9799" x2="72.7136" y2="123.591" gradientUnits="userSpaceOnUse">
<stop stop-color="#E1473D"/>
<stop offset="0.55" stop-color="#E5554D"/>
<stop offset="1" stop-color="#E9605A"/>
</linearGradient>
<linearGradient id="paint8_linear" x1="1.64465" y1="136.425" x2="139.289" y2="-25.3843" gradientUnits="userSpaceOnUse">
<stop stop-color="#4F52FF"/>
<stop offset="1" stop-color="#4042E2"/>
</linearGradient>
<linearGradient id="paint9_linear" x1="12035.6" y1="66954.4" x2="57840.7" y2="-12980.3" gradientUnits="userSpaceOnUse">
<stop stop-color="#4F52FF"/>
<stop offset="1" stop-color="#4042E2"/>
</linearGradient>
<linearGradient id="paint10_linear" x1="12455" y1="36049.9" x2="15505" y2="36049.9" gradientUnits="userSpaceOnUse">
<stop stop-color="#FEBBBA"/>
<stop offset="1" stop-color="#FF928E"/>
</linearGradient>
<linearGradient id="paint11_linear" x1="42786.3" y1="51022.8" x2="53855.7" y2="51022.8" gradientUnits="userSpaceOnUse">
<stop stop-color="#FEBBBA"/>
<stop offset="1" stop-color="#FF928E"/>
</linearGradient>
<linearGradient id="paint12_linear" x1="66964.4" y1="35406.4" x2="59005.7" y2="65621.4" gradientUnits="userSpaceOnUse">
<stop stop-color="#DAE3FE"/>
<stop offset="1" stop-color="#E9EFFD"/>
</linearGradient>
</defs>
</svg>
