<svg width="1156" height="890" viewBox="0 0 1156 890" fill="none" xmlns="http://www.w3.org/2000/svg">
<path d="M1156 881.081C1153.32 939.349 1027.1 617.297 1019.85 852.89C1019.69 858.294 1018.54 863.598 1016.47 868.457C1014.4 873.315 1011.46 877.617 1007.85 881.081C1004.23 884.546 1000.01 887.095 995.475 888.561C990.938 890.028 986.183 890.378 981.52 889.59H50.5864C-112.901 883.856 164.56 810.069 252.762 451.568L328.671 116.85C330.801 107.758 335.486 99.7264 342 94C348.514 88.2736 356.494 85.1724 364.701 85.1772L1156 -5V881.081Z" fill="#001449"/>
<path d="M786.928 559.679C877.489 469.163 877.489 322.409 786.928 231.893C696.366 141.377 549.537 141.377 458.976 231.893C368.414 322.409 368.414 469.163 458.976 559.679C549.537 650.194 696.366 650.194 786.928 559.679Z" fill="#C9EAF7"/>
<path d="M326.055 314.601H452.054C450.267 304.024 434.694 296.804 424.744 300.822C424.605 294.756 422.587 289.476 417.551 286.089C415.005 284.412 412.1 283.357 409.071 283.009C406.042 282.661 402.974 283.031 400.114 284.087C398.312 271.663 384.803 261.687 372.28 262.795C359.757 263.904 349.206 275.774 349.622 288.398C342.921 286.658 334.712 289.937 329.598 294.649C324.484 299.36 324.761 307.796 326.055 314.601Z" fill="#EEF8FD"/>
<path d="M885.343 607.878C969.878 607.878 1038.41 539.384 1038.41 454.893C1038.41 370.401 969.878 301.907 885.343 301.907C800.809 301.907 732.281 370.401 732.281 454.893C732.281 539.384 800.809 607.878 885.343 607.878Z" fill="#C9EAF7"/>
<path d="M713.929 769C878.467 769 1011.85 761.783 1011.85 752.88C1011.85 743.977 878.467 736.76 713.929 736.76C549.391 736.76 416.006 743.977 416.006 752.88C416.006 761.783 549.391 769 713.929 769Z" fill="#C9EAF7"/>
<path d="M809.405 235.368H632.267C634.777 220.496 656.681 210.335 670.667 216C670.867 207.471 673.748 200.035 680.787 195.278C684.366 192.917 688.451 191.431 692.711 190.942C696.972 190.453 701.287 190.973 705.309 192.46C707.835 174.986 726.874 160.961 744.434 162.531C761.993 164.102 776.842 180.883 776.257 198.511C785.699 196.078 797.221 200.651 804.337 207.302C811.453 213.953 811.238 225.792 809.405 235.368Z" fill="#EEF8FD"/>
<path d="M887.175 266.436H1013.17C1011.48 255.875 995.815 248.623 985.88 252.672C985.726 246.606 983.723 241.31 978.671 237.939C976.128 236.262 973.226 235.207 970.2 234.859C967.173 234.512 964.107 234.881 961.25 235.937C959.448 223.498 945.939 213.537 933.416 214.645C920.893 215.754 910.311 227.685 910.758 240.233C904.042 238.508 895.847 241.772 890.734 246.483C885.62 251.194 885.881 259.631 887.175 266.436Z" fill="#EEF8FD"/>
<path d="M814.125 629.782C827.021 602.296 836.088 572.2 856.084 549.342C859.078 545.862 863.046 542.383 867.727 543.775C869.135 544.247 870.401 545.065 871.41 546.153C872.42 547.241 873.14 548.565 873.505 550.003C874.985 555.1 873.14 560.093 871.312 564.842C862.82 586.877 853.845 608.715 844.389 630.356C841.988 635.871 850.132 639.715 852.795 634.305C852.987 633.905 853.178 633.505 853.352 633.105L898.027 537.025C902.656 527.057 907.79 516.48 918.441 512.044C920.134 511.29 921.988 510.969 923.835 511.112C925.683 511.255 927.466 511.856 929.022 512.862C935.479 517.28 933.251 526.135 930.554 532.885C920.854 557.158 910.029 580.933 898.079 604.21C896.165 607.932 894.163 611.934 894.598 616.109C895.033 620.284 899.158 624.285 903.143 623.067C915.43 606.593 923.471 587.422 932.938 569.139C942.405 550.855 953.822 532.902 970.843 521.282C973.819 519.246 977.352 517.315 980.989 519.298C982.117 519.968 983.07 520.896 983.769 522.006C984.468 523.116 984.893 524.376 985.009 525.683C985.601 530.519 983.164 534.833 980.797 538.904C972.189 553.749 963.562 568.588 954.919 583.421C954.031 584.969 953.091 586.692 954.101 588.483C954.555 589.176 955.21 589.714 955.978 590.025C956.746 590.335 957.591 590.405 958.399 590.223C961.393 589.701 963.203 587.213 964.891 584.9C975.696 570.093 988.235 556.632 1002.24 544.801C1003.67 543.538 1005.37 542.62 1007.21 542.119C1009.05 541.618 1010.98 541.548 1012.85 541.914C1020.93 543.653 1021.36 552.508 1019.35 559.084C1012.51 581.368 988.542 593.511 967.432 602.331C966.038 602.863 964.816 603.764 963.896 604.938C962.976 606.112 962.394 607.514 962.211 608.994C961.688 614.386 967.153 616.457 971.713 616.7C981.876 617.257 991.97 613.221 1002.17 616.109C1005.4 617.011 1008.28 618.873 1010.44 621.449C1017.15 629.713 1011.57 638.48 1004.27 641.751C999.263 644.012 993.554 644.151 988.055 643.96C974.113 643.449 960.304 641.062 947 636.862C943.519 635.732 939.76 634.462 936.071 635.906C935.132 636.242 934.297 636.817 933.647 637.573C932.997 638.33 932.555 639.242 932.364 640.22C931.685 644.534 936.314 647.022 940.195 648.448L981.111 663.496C983.506 664.338 985.72 665.624 987.637 667.288C997.366 675.987 989.847 685.642 981.546 687.416C975.785 688.651 969.833 687.051 964.142 685.363C940.056 678.141 916.514 669.218 893.693 658.66C892.109 657.897 890.337 657.613 888.594 657.842C882.973 658.73 883.042 664.209 885.479 667.288C887.359 669.315 889.69 670.87 892.284 671.829C912.904 681.261 934.296 688.908 956.224 694.688C959.719 695.547 962.767 697.681 964.769 700.672C969.99 708.709 963.255 715.424 956.398 717.825C944.668 721.913 931.807 717.825 920.181 713.528C895.513 704.282 871.48 693.427 848.236 681.032C847.406 680.592 846.463 680.414 845.53 680.521C844.597 680.628 843.719 681.015 843.011 681.631C842.302 682.247 841.797 683.063 841.562 683.971C841.326 684.88 841.372 685.838 841.692 686.72C842.46 688.814 843.644 690.731 845.173 692.357C848.792 696.305 853.874 698.654 858.66 700.898L894.372 717.39C899.315 719.669 904.449 722.087 907.355 726.975C908.184 728.271 908.71 729.737 908.894 731.264C909.077 732.791 908.914 734.34 908.417 735.795C905.858 742.493 897.261 742.754 890.595 741.362C869.311 736.874 850.794 724.226 830.832 715.546C810.87 706.865 792.075 704.83 771.782 712.066C768.441 713.267 762.21 716.189 760.087 711.301C758.556 707.735 766.892 701.298 769.589 698.167C787.488 677.503 802.456 654.474 814.073 629.73L814.125 629.782Z" fill="#6F30A5"/>
<path d="M999.42 629.399C977.48 629.198 955.702 625.619 934.853 618.788C946.455 611.168 957.692 603.096 968.563 594.572C984.975 581.741 1000.61 567.944 1015.38 553.256C1016.63 552.021 1014.54 550.281 1013.31 551.516C986.977 577.671 957.922 600.935 926.639 620.91L925.281 621.762C934.633 598.142 946.138 575.431 959.653 553.917C963.714 547.457 967.949 541.125 972.357 534.92C973.367 533.494 971.296 531.737 970.286 533.181C954.844 554.94 941.527 578.131 930.52 602.435C927.422 609.289 924.521 616.219 921.818 623.224C921.742 623.479 921.742 623.751 921.818 624.007C907.895 632.705 893.485 640.811 878.744 648.135C875.264 649.875 871.783 651.51 868.302 653.18C880.682 618.793 894.32 584.9 909.218 551.499C913.557 541.815 917.995 532.172 922.531 522.569C922.606 522.407 922.647 522.231 922.654 522.053C922.66 521.875 922.632 521.697 922.569 521.53C922.507 521.363 922.413 521.209 922.291 521.079C922.17 520.948 922.024 520.843 921.861 520.768C921.699 520.694 921.524 520.653 921.345 520.646C921.167 520.64 920.989 520.668 920.822 520.73C920.655 520.793 920.501 520.887 920.371 521.009C920.24 521.13 920.134 521.276 920.06 521.438C904.13 555.141 889.494 589.405 876.151 624.233C872.357 634.149 868.668 644.105 865.083 654.102C865.043 654.315 865.043 654.533 865.083 654.746C852.813 660.504 840.422 666.001 828.152 671.759C822.85 674.253 817.577 676.804 812.333 679.414C821.998 646.024 834.65 613.571 850.133 582.447C854.554 573.586 859.194 564.842 864.056 556.213C864.909 554.7 862.437 553.569 861.584 555.083C844.214 585.917 829.703 618.276 818.233 651.754C815.007 661.124 812.037 670.576 809.322 680.11C809.224 680.367 809.224 680.652 809.322 680.91C797.016 687.05 785.122 693.982 773.715 701.664C772.27 702.638 773.836 704.864 775.263 703.873C783.875 698.048 792.792 692.688 801.978 687.816L872.479 720.939L892.737 730.472C893.064 730.622 893.438 730.635 893.776 730.51C894.114 730.384 894.388 730.13 894.538 729.802C894.688 729.474 894.702 729.101 894.576 728.763C894.45 728.425 894.196 728.151 893.868 728.002L823.28 694.809L804.867 686.111C819.259 678.509 834.122 671.777 848.967 664.992C874.508 678.058 900.981 689.217 928.17 698.376C935.712 700.904 943.299 703.281 950.934 705.508C952.674 705.995 953.04 703.316 951.369 702.829C924.192 694.888 897.633 684.969 871.905 673.151C865.257 670.089 858.696 666.906 852.169 663.601C859.722 660.121 867.275 656.642 874.794 653.041C881.361 649.852 887.846 646.535 894.251 643.09C894.251 643.09 894.338 643.177 894.39 643.195C914.247 654.063 934.935 663.341 956.259 670.942C962.362 673.134 968.529 675.175 974.759 677.065C976.395 677.57 977.561 675.117 975.89 674.612C954.246 667.974 933.158 659.644 912.82 649.701C907.506 647.091 902.256 644.378 897.07 641.559C908.997 635.053 920.663 628.095 932.068 620.684C953.895 628.046 976.751 631.903 999.785 632.113C1001.42 632.113 1001.14 629.417 999.42 629.399Z" fill="#FFB612"/>
<path d="M698.187 735.664C668.097 698.975 634.003 662.217 588.807 647.761C552.12 636.018 512.562 640.385 474.066 641.707C435.569 643.029 394.34 640.298 363.467 617.352C376.728 647.796 398.047 674.551 428.399 688.051C449.562 697.462 473.265 699.584 496.429 699.306C519.593 699.028 542.74 696.523 565.904 697.218C611.727 698.541 659.813 710.613 698.187 735.664Z" fill="#F7B15E"/>
<path d="M637.352 658.738C604.742 629.86 574.14 598.794 545.757 565.755C517.448 532.791 491.405 497.948 467.807 461.465C454.499 440.902 441.998 419.847 430.303 398.299C429.241 396.333 426.405 398.299 427.449 400.264C448.306 438.67 471.763 475.607 497.654 510.818C523.48 545.94 551.657 579.272 581.991 610.585C599.047 628.19 616.752 645.117 635.107 661.365C636.777 662.844 639.022 660.217 637.352 658.738Z" fill="#FC7800"/>
<path d="M450.648 439.493C432.932 425.889 421.219 405.675 414.101 384.503C406.983 363.332 404.199 341.013 401.414 318.833C429.073 353.494 446.165 395.383 450.648 439.493V439.493Z" fill="#FC7800"/>
<path d="M481.469 487.924C470.4 471.38 466.275 450.975 466.345 431.073C466.415 411.172 470.33 391.514 474.316 372.082C487.76 409.213 490.242 449.423 481.469 487.924V487.924Z" fill="#FFB612"/>
<path d="M479.416 479.574C460.046 484.184 439.475 480.931 420.836 473.938C402.197 466.944 385.141 456.35 368.243 445.825C407.772 446.181 446.364 457.897 479.416 479.574V479.574Z" fill="#FFB612"/>
<path d="M506.635 520.334C489.371 531.467 468.226 535.381 447.672 534.964C427.119 534.546 406.913 530.075 386.847 525.639C425.441 512.425 467.023 510.583 506.635 520.334V520.334Z" fill="#FC7800"/>
<path d="M532.426 551.108C515.023 565.199 492.642 571.983 470.348 573.897C448.054 575.81 425.656 573.444 403.415 571.009C443.618 552.14 488.403 545.231 532.426 551.108V551.108Z" fill="#FFB612"/>
<path d="M562.97 585.048C545.427 602.305 521.584 612.012 497.393 616.517C473.203 621.023 448.385 620.71 423.777 620.379C465.827 595.507 514.143 583.243 562.97 585.048V585.048Z" fill="#FC7800"/>
<path d="M585.124 608.776C570.384 625.877 549.308 636.61 527.519 642.49C505.73 648.37 483.036 649.988 460.585 651.519C497.144 625.639 540.372 610.803 585.124 608.776V608.776Z" fill="#FFB612"/>
<path d="M605.903 632C595.461 647.135 579.485 657.66 562.395 664.427C545.304 671.194 527.135 674.499 509.088 677.787C536.293 653.55 569.903 637.655 605.903 632V632Z" fill="#FC7800"/>
<path d="M508.253 521.777C500.248 503.546 499.743 482.74 503.276 463.152C506.809 443.564 514.188 424.88 521.497 406.405C528.248 445.336 523.651 485.387 508.253 521.777V521.777Z" fill="#FFB612"/>
<path d="M530.825 551.264C526.665 530.963 530.825 509.687 538.656 490.534C546.488 471.38 558.166 454.002 569.669 436.779C567.984 477.877 554.499 517.621 530.825 551.264V551.264Z" fill="#FFB612"/>
<path d="M562.013 586.839C556.792 561.632 561.908 535.19 571.741 511.409C581.574 487.629 595.967 466.022 610.255 444.66C608.157 495.698 591.409 545.056 562.013 586.839V586.839Z" fill="#FC7800"/>
<path d="M581.382 610.411C580.599 588.005 588.778 565.999 600.682 546.985C612.586 527.97 628.075 511.514 643.477 495.196C634.261 538.759 612.706 578.753 581.382 610.411Z" fill="#FFB612"/>
<path d="M603.954 629.547C607.435 612.708 617.529 597.817 629.833 585.813C642.137 573.81 656.687 564.381 671.114 555.039C656.336 585.797 633.024 611.661 603.954 629.547V629.547Z" fill="#FFB612"/>
<path d="M956.343 414.064H1060.01C1058.47 405.366 1045.73 399.408 1037.55 402.733C1037.43 397.73 1035.78 393.388 1031.62 390.602C1029.53 389.222 1027.14 388.355 1024.65 388.068C1022.15 387.782 1019.63 388.086 1017.28 388.954C1015.74 378.732 1004.68 370.48 994.389 371.45C989.244 372.074 984.506 374.56 981.069 378.437C977.633 382.314 975.735 387.315 975.736 392.495C970.221 391.079 963.413 393.742 959.316 397.637C955.218 401.532 955.28 408.414 956.343 414.064Z" fill="#EEF8FD"/>
<path d="M826.764 258.765H630.433C617.264 258.765 606.589 269.435 606.589 282.597V723.818C606.589 736.98 617.264 747.65 630.433 747.65H826.764C839.933 747.65 850.608 736.98 850.608 723.818V282.597C850.608 269.435 839.933 258.765 826.764 258.765Z" fill="#264456"/>
<path d="M821.589 275.285H639.753C629.544 275.285 621.269 283.556 621.269 293.759V710.177C621.269 720.381 629.544 728.652 639.753 728.652H821.589C831.797 728.652 840.073 720.381 840.073 710.177V293.759C840.073 283.556 831.797 275.285 821.589 275.285Z" fill="#83B4E0"/>
<path d="M749.054 264.061H705.386C704.586 264.061 703.938 264.709 703.938 265.508V265.94C703.938 266.739 704.586 267.387 705.386 267.387H749.054C749.854 267.387 750.502 266.739 750.502 265.94V265.508C750.502 264.709 749.854 264.061 749.054 264.061Z" fill="#83B4E0"/>
<path d="M698.023 266.278C698.017 266.935 697.817 267.575 697.448 268.117C697.078 268.66 696.557 269.082 695.948 269.329C695.34 269.575 694.672 269.637 694.028 269.505C693.385 269.373 692.795 269.054 692.333 268.588C691.871 268.122 691.557 267.529 691.431 266.885C691.305 266.241 691.373 265.574 691.625 264.968C691.878 264.362 692.304 263.844 692.851 263.48C693.397 263.116 694.039 262.922 694.696 262.922C695.136 262.922 695.571 263.009 695.977 263.178C696.382 263.347 696.75 263.595 697.06 263.907C697.369 264.219 697.613 264.589 697.779 264.996C697.944 265.403 698.027 265.839 698.023 266.278V266.278Z" fill="#83B4E0"/>
<path d="M761.578 269.604C763.415 269.604 764.905 268.115 764.905 266.278C764.905 264.442 763.415 262.953 761.578 262.953C759.74 262.953 758.25 264.442 758.25 266.278C758.25 268.115 759.74 269.604 761.578 269.604Z" fill="#83B4E0"/>
<path d="M804.383 310.679H660.162C649.954 310.679 641.678 318.95 641.678 329.154V682.265C641.678 692.469 649.954 700.74 660.162 700.74H804.383C814.592 700.74 822.867 692.469 822.867 682.265V329.154C822.867 318.95 814.592 310.679 804.383 310.679Z" fill="#4186C6"/>
<path d="M794.529 420.329H667.957V546.902H794.529V420.329Z" fill="#EEF8FD"/>
<path d="M811.246 563.619H769.454V554.327H802.065V525.408H811.246V563.619Z" fill="#EEF8FD"/>
<path d="M811.246 447.793H802.17V413.842H764.677V404.806H811.246V447.793Z" fill="#EEF8FD"/>
<path d="M661.635 447.793H652.434V404.806H699.003V414.049H661.635V447.793Z" fill="#EEF8FD"/>
<path d="M701.391 563.619H652.434V525.408H661.54V554.441H701.391V563.619Z" fill="#EEF8FD"/>
<path d="M786.315 607.717H681.095C679.323 607.717 677.891 608.579 677.891 609.642V631.118C677.891 632.181 679.323 633.043 681.095 633.043H786.315C788.086 633.043 789.518 632.181 789.518 631.118V609.642C789.518 608.579 788.132 607.717 786.315 607.717Z" fill="#EEF8FD"/>
<path d="M701.735 622.281C701.745 622.732 701.65 623.18 701.458 623.589C701.283 623.961 701.024 624.287 700.703 624.544C700.368 624.803 699.986 624.996 699.579 625.113C699.133 625.24 698.671 625.303 698.208 625.298C697.903 625.305 697.599 625.279 697.299 625.221C697.044 625.169 696.792 625.103 696.544 625.021L696.005 624.79C695.893 624.727 695.789 624.65 695.697 624.559C695.63 624.485 695.582 624.395 695.559 624.298C695.54 624.124 695.54 623.948 695.559 623.774V623.389C695.546 623.308 695.546 623.224 695.559 623.143C695.571 623.09 695.598 623.043 695.636 623.004C695.681 622.989 695.729 622.989 695.774 623.004C695.879 623.025 695.979 623.067 696.067 623.127L696.544 623.405C696.773 623.511 697.01 623.599 697.253 623.666C697.559 623.751 697.875 623.793 698.193 623.789C698.402 623.755 698.605 623.687 698.793 623.589C698.967 623.547 699.13 623.469 699.271 623.358C699.398 623.255 699.498 623.123 699.564 622.974C699.639 622.815 699.676 622.641 699.671 622.465C699.676 622.265 699.611 622.069 699.486 621.911C699.365 621.746 699.213 621.605 699.04 621.496C698.831 621.37 698.615 621.257 698.393 621.157L697.638 620.834L696.899 620.418C696.663 620.27 696.446 620.094 696.252 619.894C696.062 619.675 695.911 619.425 695.805 619.155C695.675 618.827 695.612 618.477 695.62 618.124C695.617 617.711 695.701 617.301 695.867 616.923C696.036 616.591 696.272 616.298 696.56 616.061C696.861 615.825 697.207 615.653 697.577 615.553C697.978 615.441 698.392 615.384 698.809 615.383C699.034 615.368 699.261 615.368 699.486 615.383L700.118 615.522C700.299 615.571 700.474 615.639 700.642 615.722C700.752 615.77 700.855 615.833 700.95 615.907L701.042 616.03C701.056 616.075 701.056 616.123 701.042 616.169C701.052 616.24 701.052 616.313 701.042 616.384V617.062C701.046 617.144 701.046 617.226 701.042 617.308C701.053 617.353 701.053 617.401 701.042 617.447C700.998 617.464 700.948 617.464 700.904 617.447C700.813 617.433 700.728 617.396 700.657 617.339L700.21 617.123C700.021 617.032 699.826 616.955 699.625 616.892C699.379 616.828 699.125 616.797 698.87 616.8C698.683 616.801 698.496 616.827 698.316 616.877C698.174 616.921 698.042 616.994 697.931 617.092C697.827 617.179 697.748 617.29 697.7 617.416C697.644 617.541 697.617 617.678 697.623 617.816C697.612 618.015 697.672 618.211 697.792 618.37C697.916 618.539 698.074 618.68 698.254 618.786C698.454 618.894 698.67 619.017 698.917 619.125L699.656 619.448C699.918 619.571 700.164 619.71 700.411 619.848C700.651 620.002 700.873 620.183 701.073 620.387C701.261 620.61 701.417 620.859 701.535 621.126C701.683 621.492 701.752 621.886 701.735 622.281V622.281Z" fill="#4186C6"/>
<path d="M710.931 623.698V624.006C710.925 624.077 710.925 624.149 710.931 624.221C710.931 624.221 710.931 624.344 710.931 624.39C710.895 624.441 710.854 624.487 710.808 624.529C710.721 624.621 710.616 624.695 710.5 624.745C710.319 624.85 710.128 624.937 709.93 625.006C709.679 625.095 709.422 625.162 709.16 625.206C708.855 625.265 708.545 625.29 708.236 625.283C707.632 625.296 707.032 625.196 706.464 624.991C705.953 624.797 705.494 624.486 705.124 624.083C704.732 623.638 704.443 623.112 704.277 622.543C703.866 621.156 703.866 619.681 704.277 618.294C704.47 617.723 704.78 617.199 705.186 616.754C705.569 616.327 706.042 615.991 706.572 615.769C707.147 615.548 707.758 615.439 708.374 615.446C708.625 615.422 708.878 615.422 709.129 615.446L709.822 615.615C710.012 615.685 710.197 615.767 710.377 615.861C710.505 615.928 710.624 616.011 710.731 616.108L710.869 616.277C710.874 616.333 710.874 616.39 710.869 616.446C710.869 616.446 710.869 616.585 710.869 616.693V617.432C710.882 617.513 710.882 617.596 710.869 617.678C710.866 617.709 710.856 617.739 710.84 617.765C710.824 617.792 710.803 617.815 710.777 617.832C710.76 617.839 710.742 617.843 710.723 617.843C710.705 617.843 710.686 617.839 710.669 617.832C710.564 617.819 710.466 617.77 710.392 617.693L709.945 617.401C709.744 617.288 709.533 617.195 709.314 617.124C709.026 617.026 708.724 616.979 708.42 616.985C708.066 616.979 707.716 617.064 707.404 617.232C707.105 617.391 706.846 617.618 706.649 617.894C706.43 618.206 706.268 618.556 706.171 618.925C706.061 619.378 706.009 619.844 706.017 620.311C706.012 620.798 706.069 621.285 706.187 621.758C706.285 622.125 706.452 622.47 706.68 622.774C706.885 623.029 707.15 623.229 707.45 623.359C707.773 623.49 708.118 623.558 708.467 623.559C708.769 623.564 709.07 623.522 709.36 623.436C709.586 623.369 709.803 623.276 710.007 623.159C710.16 623.079 710.309 622.992 710.454 622.897C710.528 622.836 710.62 622.799 710.715 622.789H710.839C710.845 622.83 710.845 622.872 710.839 622.913C710.849 622.994 710.849 623.077 710.839 623.159C710.884 623.336 710.915 623.516 710.931 623.698Z" fill="#4186C6"/>
<path d="M721.267 624.406C721.267 624.591 721.359 624.729 721.374 624.837C721.393 624.872 721.403 624.912 721.403 624.952C721.403 624.993 721.393 625.032 721.374 625.068C721.287 625.124 721.186 625.156 721.082 625.16H719.942H719.618L719.464 625.068C719.456 625.017 719.456 624.965 719.464 624.914L718.817 622.989H715.244L714.643 624.852C714.654 624.908 714.654 624.966 714.643 625.022C714.606 625.078 714.552 625.121 714.489 625.145C714.387 625.157 714.283 625.157 714.181 625.145H713.149C713.072 625.183 712.987 625.201 712.901 625.199C712.815 625.196 712.731 625.172 712.656 625.129C712.639 625.091 712.63 625.049 712.63 625.006C712.63 624.964 712.639 624.922 712.656 624.883C712.681 624.742 712.717 624.603 712.764 624.467L715.737 615.892C715.757 615.818 715.794 615.749 715.845 615.692C715.865 615.66 715.892 615.632 715.924 615.611C715.956 615.59 715.992 615.576 716.029 615.569C716.147 615.548 716.266 615.548 716.384 615.569H717.678C717.81 615.549 717.945 615.549 718.078 615.569C718.161 615.587 718.236 615.63 718.294 615.692C718.339 615.757 718.371 615.83 718.386 615.908L721.267 624.406ZM716.892 617.432L715.552 621.481H718.248L716.892 617.432Z" fill="#4186C6"/>
<path d="M731.572 624.452C731.589 624.554 731.589 624.658 731.572 624.76C731.533 624.844 731.475 624.918 731.402 624.975C731.337 625.039 731.258 625.086 731.171 625.114H730.894H730.078C729.929 625.133 729.779 625.133 729.631 625.114C729.5 625.081 729.379 625.017 729.277 624.929C729.159 624.819 729.056 624.695 728.969 624.56C728.876 624.406 728.768 624.206 728.645 623.959L726.273 619.51C726.134 619.248 725.996 618.956 725.857 618.648C725.718 618.34 725.58 618.047 725.472 617.755V618.817C725.472 619.156 725.472 619.525 725.472 619.895V624.883C725.488 624.923 725.488 624.967 725.472 625.006C725.436 625.054 725.388 625.091 725.333 625.114H725.072H724.209H723.932C723.932 625.114 723.824 625.114 723.808 625.006C723.793 624.967 723.793 624.923 723.808 624.883V616.323C723.8 616.227 723.814 616.129 723.849 616.039C723.884 615.948 723.938 615.866 724.009 615.8C724.147 615.685 724.322 615.625 724.502 615.63H725.534C725.692 615.612 725.852 615.612 726.011 615.63C726.134 615.656 726.25 615.709 726.35 615.784C726.463 615.872 726.561 615.975 726.643 616.092C726.72 616.231 726.812 616.385 726.905 616.57L728.768 620.049L729.076 620.68C729.184 620.88 729.292 621.08 729.384 621.281L729.677 621.881L729.954 622.481C729.954 622.127 729.954 621.773 729.954 621.404C729.954 621.034 729.954 620.68 729.954 620.341V615.892C729.936 615.848 729.936 615.798 729.954 615.754C729.993 615.702 730.047 615.665 730.108 615.646C730.195 615.634 730.283 615.634 730.37 615.646H731.14C731.227 615.634 731.315 615.634 731.402 615.646C731.453 615.669 731.496 615.707 731.526 615.754C731.526 615.754 731.526 615.831 731.526 615.892L731.572 624.452Z" fill="#4186C6"/>
<path d="M742.631 624.452C742.648 624.554 742.648 624.658 742.631 624.76C742.592 624.844 742.534 624.918 742.461 624.976C742.396 625.039 742.317 625.086 742.23 625.114H741.953H741.137C740.988 625.133 740.838 625.133 740.69 625.114C740.558 625.084 740.436 625.02 740.336 624.929C740.218 624.819 740.115 624.695 740.028 624.56C739.935 624.406 739.827 624.206 739.704 623.959L737.301 619.495C737.163 619.233 737.024 618.94 736.885 618.633C736.74 618.342 736.612 618.044 736.5 617.74V618.802C736.5 619.141 736.5 619.51 736.5 619.88V624.868C736.516 624.907 736.516 624.951 736.5 624.991C736.464 625.038 736.417 625.076 736.362 625.099H736.1H735.237H734.96C734.91 625.075 734.867 625.038 734.837 624.991C734.821 624.951 734.821 624.907 734.837 624.868V616.308C734.829 616.211 734.843 616.114 734.877 616.023C734.912 615.933 734.967 615.851 735.037 615.784C735.175 615.67 735.351 615.61 735.53 615.615H736.562C736.721 615.597 736.881 615.597 737.039 615.615C737.162 615.641 737.278 615.693 737.378 615.769C737.491 615.856 737.59 615.96 737.671 616.077C737.671 616.215 737.84 616.369 737.933 616.554L739.797 620.034L740.105 620.665C740.213 620.865 740.32 621.065 740.413 621.265L740.705 621.866L740.983 622.466C740.983 622.112 740.983 621.758 740.983 621.388C740.983 621.019 740.983 620.665 740.983 620.326V615.892C740.965 615.848 740.965 615.798 740.983 615.754C741.022 615.703 741.075 615.665 741.137 615.646C741.224 615.634 741.312 615.634 741.399 615.646H742.261C742.348 615.634 742.436 615.634 742.523 615.646C742.574 615.669 742.616 615.707 742.646 615.754C742.646 615.754 742.646 615.831 742.646 615.892L742.631 624.452Z" fill="#4186C6"/>
<path d="M747.791 624.868C747.805 624.913 747.805 624.961 747.791 625.006L747.622 625.099H747.329H746.39H746.097L745.943 625.006C745.93 624.961 745.93 624.913 745.943 624.868V615.892C745.93 615.847 745.93 615.799 745.943 615.754L746.097 615.661C746.199 615.65 746.303 615.65 746.405 615.661H746.867H747.329C747.427 615.649 747.525 615.649 747.622 615.661L747.791 615.754C747.805 615.799 747.805 615.847 747.791 615.892V624.868Z" fill="#4186C6"/>
<path d="M758.867 624.452C758.884 624.554 758.884 624.658 758.867 624.76C758.828 624.84 758.776 624.913 758.713 624.976C758.64 625.036 758.556 625.083 758.466 625.114H758.189H757.326C757.178 625.132 757.028 625.132 756.88 625.114C756.749 625.081 756.628 625.017 756.525 624.929C756.413 624.819 756.315 624.694 756.233 624.56C756.106 624.368 755.993 624.167 755.894 623.959L753.522 619.51C753.383 619.248 753.244 618.956 753.106 618.648L752.721 617.755C752.721 618.109 752.721 618.463 752.721 618.817C752.721 619.171 752.721 619.526 752.721 619.895V624.883C752.729 624.924 752.729 624.966 752.721 625.006C752.682 625.057 752.628 625.095 752.567 625.114H752.305H751.442H751.18C751.125 625.091 751.078 625.054 751.042 625.006C751.033 624.966 751.033 624.924 751.042 624.883V616.323C751.034 616.227 751.047 616.129 751.082 616.039C751.117 615.948 751.171 615.866 751.242 615.8C751.382 615.688 751.556 615.628 751.735 615.63H752.705C752.859 615.612 753.014 615.612 753.167 615.63C753.291 615.653 753.408 615.706 753.506 615.784C753.619 615.872 753.718 615.975 753.799 616.092C753.891 616.231 753.968 616.385 754.076 616.57L755.925 620.049L756.248 620.68L756.556 621.281C756.649 621.496 756.741 621.696 756.833 621.881L757.111 622.481C757.111 622.127 757.111 621.773 757.111 621.404C757.111 621.034 757.111 620.68 757.111 620.342V615.892C757.093 615.848 757.093 615.798 757.111 615.754C757.15 615.703 757.203 615.665 757.265 615.646C757.357 615.632 757.45 615.632 757.542 615.646H758.389C758.476 615.634 758.564 615.634 758.651 615.646C758.651 615.646 758.759 615.646 758.774 615.754C758.792 615.798 758.792 615.848 758.774 615.892L758.867 624.452Z" fill="#4186C6"/>
<path d="M769.649 617.093C769.649 617.232 769.649 617.355 769.649 617.462C769.661 617.544 769.661 617.627 769.649 617.709C769.645 617.733 769.636 617.757 769.623 617.778C769.61 617.799 769.592 617.818 769.572 617.832C769.537 617.844 769.499 617.844 769.464 617.832C769.35 617.815 769.244 617.767 769.156 617.693L768.586 617.401C768.31 617.29 768.027 617.198 767.739 617.124C767.367 617.026 766.983 616.979 766.599 616.985C766.17 616.976 765.744 617.06 765.351 617.232C764.986 617.383 764.66 617.614 764.396 617.909C764.12 618.211 763.91 618.568 763.78 618.956C763.635 619.393 763.562 619.85 763.564 620.311C763.559 620.801 763.632 621.29 763.78 621.758C763.913 622.14 764.123 622.491 764.396 622.789C764.656 623.07 764.978 623.286 765.336 623.421C765.718 623.572 766.126 623.645 766.537 623.636C766.755 623.641 766.973 623.615 767.184 623.559C767.388 623.513 767.584 623.44 767.769 623.344V621.142H765.967C765.875 621.142 765.813 621.142 765.767 620.973C765.732 620.784 765.732 620.591 765.767 620.403C765.758 620.29 765.758 620.177 765.767 620.064C765.756 619.988 765.756 619.91 765.767 619.833C765.784 619.787 765.81 619.745 765.844 619.71C765.884 619.696 765.927 619.696 765.967 619.71H769.187C769.258 619.694 769.331 619.694 769.402 619.71C769.46 619.743 769.512 619.784 769.556 619.833C769.601 619.895 769.637 619.962 769.664 620.034C769.681 620.12 769.681 620.209 769.664 620.295V624.083C769.671 624.215 769.645 624.348 769.587 624.467C769.522 624.591 769.412 624.685 769.279 624.729L768.678 624.929L767.954 625.099C767.7 625.15 767.443 625.186 767.184 625.206C766.928 625.222 766.67 625.222 766.414 625.206C765.718 625.218 765.024 625.108 764.365 624.883C763.79 624.678 763.264 624.353 762.825 623.929C762.395 623.493 762.069 622.967 761.87 622.389C761.639 621.742 761.524 621.059 761.531 620.372C761.523 619.654 761.643 618.94 761.885 618.263C762.113 617.688 762.453 617.165 762.887 616.723C763.319 616.279 763.845 615.937 764.427 615.723C765.077 615.482 765.766 615.362 766.46 615.369C766.842 615.366 767.224 615.397 767.6 615.461C767.896 615.51 768.19 615.577 768.478 615.661C768.694 615.735 768.905 615.822 769.11 615.923C769.235 615.993 769.354 616.076 769.464 616.169C769.534 616.253 769.582 616.354 769.602 616.462C769.645 616.669 769.66 616.881 769.649 617.093Z" fill="#4186C6"/>
<path d="M665.184 272.021V276.639C665.184 279.155 666.183 281.567 667.963 283.345C669.742 285.124 672.156 286.123 674.672 286.123H782.495C785.009 286.119 787.418 285.118 789.195 283.34C790.971 281.562 791.968 279.152 791.968 276.639V272.021H665.184Z" fill="#264456"/>
<g opacity="0.33">
<path opacity="0.33" d="M634.701 524.114C633.792 524.113 632.9 523.867 632.12 523.399C631.341 522.932 630.703 522.262 630.274 521.461C629.846 520.66 629.643 519.757 629.687 518.85C629.732 517.942 630.022 517.064 630.526 516.308L776.118 298.015C776.858 296.907 778.007 296.137 779.315 295.876C780.622 295.614 781.979 295.883 783.088 296.622C784.197 297.361 784.967 298.51 785.229 299.817C785.49 301.123 785.222 302.48 784.482 303.588L638.89 521.912C638.425 522.593 637.8 523.15 637.069 523.534C636.339 523.918 635.526 524.117 634.701 524.114V524.114Z" fill="#EEF8FD"/>
</g>
<g opacity="0.33">
<path opacity="0.33" d="M629.34 660.01C628.345 660.012 627.372 659.711 626.552 659.148C626.003 658.781 625.532 658.309 625.166 657.759C624.8 657.209 624.546 656.593 624.418 655.945C624.291 655.297 624.293 654.631 624.424 653.984C624.555 653.336 624.812 652.721 625.181 652.174L754.569 460.145C755.314 459.041 756.468 458.278 757.777 458.024C759.085 457.77 760.441 458.045 761.546 458.791C762.651 459.536 763.415 460.689 763.669 461.997C763.924 463.305 763.647 464.66 762.902 465.765L633.514 657.793C633.053 658.476 632.431 659.035 631.703 659.422C630.975 659.808 630.164 660.01 629.34 660.01V660.01Z" fill="#EEF8FD"/>
</g>
<g opacity="0.33">
<path opacity="0.33" d="M720.358 658.932C719.364 658.937 718.393 658.642 717.57 658.086C716.463 657.346 715.696 656.198 715.436 654.893C715.176 653.588 715.445 652.234 716.184 651.127L823.098 491.198C823.837 490.09 824.987 489.32 826.294 489.059C827.601 488.797 828.959 489.066 830.068 489.805C831.177 490.544 831.947 491.693 832.209 493C832.47 494.306 832.201 495.663 831.462 496.771L724.578 656.654C724.122 657.356 723.496 657.933 722.759 658.331C722.022 658.729 721.196 658.936 720.358 658.932V658.932Z" fill="#EEF8FD"/>
</g>
<path d="M844.74 690.059C844.74 690.059 840.196 726.146 835.867 732.628C832.263 738.047 828.166 741.665 831.708 746.715C833.896 749.794 853.982 755.413 860.266 757.045C860.893 757.224 861.565 757.152 862.14 756.845C862.715 756.537 863.148 756.018 863.347 755.398C863.764 754.387 863.856 753.273 863.61 752.208C863.364 751.143 862.793 750.181 861.976 749.455C858.264 746.207 850.023 736.43 850.023 736.43L867.552 686.58L844.74 690.059Z" fill="#F49B91"/>
<path d="M849.962 736.43C848.252 738.203 846.101 739.488 843.729 740.154C841.357 740.82 838.851 740.842 836.468 740.218C834.862 739.782 833.447 738.823 832.448 737.493C830.369 740.572 829.259 743.343 831.693 746.73C833.88 749.809 853.966 755.429 860.251 757.06C860.878 757.239 861.55 757.168 862.125 756.86C862.7 756.553 863.133 756.034 863.332 755.413C863.748 754.403 863.84 753.288 863.595 752.223C863.349 751.158 862.778 750.196 861.961 749.47C858.202 746.207 849.962 736.43 849.962 736.43Z" fill="#666DB2"/>
<path d="M862.069 702.145L867.552 686.58L844.802 690.059C844.802 690.059 844.278 694.201 843.431 699.912C849.41 701.987 855.768 702.749 862.069 702.145V702.145Z" fill="#DE706B"/>
<path d="M890.904 692.384C890.904 692.384 897.358 728.178 895.155 735.676C893.322 741.911 890.442 746.607 895.402 750.348C898.405 752.627 919.246 752.011 925.731 751.687C926.368 751.66 926.971 751.389 927.415 750.931C927.859 750.473 928.111 749.862 928.118 749.224C928.218 748.133 927.975 747.038 927.423 746.091C926.871 745.145 926.037 744.394 925.038 743.944C920.601 741.957 909.819 735.122 909.819 735.122L911.652 682.331L890.904 692.384Z" fill="#F49B91"/>
<path d="M909.819 735.122C908.725 737.333 907.061 739.212 904.997 740.565C902.934 741.919 900.546 742.697 898.082 742.82C896.428 742.88 894.802 742.387 893.461 741.419C892.398 744.99 892.167 747.946 895.509 750.471C898.513 752.75 919.354 752.134 925.838 751.811C926.476 751.783 927.079 751.512 927.523 751.054C927.967 750.596 928.219 749.985 928.226 749.347C928.326 748.256 928.083 747.161 927.531 746.214C926.979 745.268 926.145 744.517 925.145 744.067C920.601 741.957 909.819 735.122 909.819 735.122Z" fill="#666DB2"/>
<path d="M910.913 701.483L911.575 682.284L890.904 692.384C890.904 692.384 891.643 696.495 892.537 702.206C898.663 702.898 904.859 702.654 910.913 701.483V701.483Z" fill="#DE706B"/>
<path d="M927.948 503.604L866.011 507.653C856.692 518.969 852.857 533.933 851.979 548.574C851.101 563.215 852.934 577.826 853.643 592.513C855.268 626.552 850.846 660.611 840.581 693.107C867.382 697.049 895.078 696.079 921.91 692.476C929.026 663.733 932.323 633.973 935.388 604.445C938.962 570.051 938.761 533.317 927.948 503.604Z" fill="#666DB2"/>
<path d="M867.598 516.89C853.735 543.971 865.842 575.963 866.658 604.645C867.505 634.635 862.515 662.886 854.212 691.537C854.212 691.737 854.459 691.86 854.551 691.676C866.597 668.505 868.414 638.161 868.414 612.527C868.348 599.967 867.37 587.427 865.488 575.008C862.684 555.548 860.328 535.996 868.414 517.398C868.645 516.89 867.921 516.428 867.644 516.952L867.598 516.89Z" fill="#747DBB"/>
<path d="M868.106 523.587C872.388 522.617 876.686 521.032 881.045 521.54C886.375 522.171 890.857 525.835 896.017 527.282C902.933 529.207 910.25 527.021 917.166 525.127C922.434 523.68 928.133 522.433 933.416 523.264C932.073 516.587 930.246 510.016 927.948 503.604L866.011 507.653C862.267 512.279 859.292 517.477 857.201 523.048C860.42 524.665 864.486 524.403 868.106 523.587Z" fill="#5964AA"/>
<path d="M936.774 449.889L938.084 480.234L930.675 480.526C930.675 480.526 920.247 458.464 923.697 452.06C926.007 447.764 936.774 449.889 936.774 449.889Z" fill="#F49089"/>
<path d="M936.774 449.889C936.774 449.889 925.992 447.764 923.697 452.06C922.665 453.969 922.881 457.279 923.697 460.989C927.825 458.582 932.363 456.958 937.082 456.201L936.774 449.889Z" fill="#DE706B"/>
<path d="M930.49 363.797C928.949 358.917 923.82 355.899 918.752 355.253C916.284 354.935 913.787 354.909 911.312 355.176C908.716 355.644 906.092 355.942 903.457 356.069C900.669 356.069 898.066 355.53 895.308 356.284C893.722 356.695 892.238 357.433 890.954 358.451C889.67 359.469 888.614 360.745 887.853 362.196C885.882 366.26 886.76 371.526 883.925 375.051C882.293 377.084 879.736 378.13 877.595 379.67C875.793 380.911 874.301 382.549 873.233 384.457C872.165 386.366 871.549 388.494 871.433 390.678C871.372 392.864 871.934 395.023 873.056 396.902C874.177 398.78 875.81 400.301 877.764 401.285C882.385 403.394 887.745 401.886 892.752 402.563C897.511 403.194 901.993 405.827 906.738 405.735C910.45 405.642 914.008 403.918 917.72 403.995C919.861 403.995 922.264 404.611 923.974 403.317C924.657 402.677 925.151 401.863 925.404 400.962C925.656 400.061 925.657 399.108 925.406 398.206C925.068 396.374 924.19 394.681 923.866 392.849C922.773 387.876 925.268 382.918 927.563 378.392C929.858 373.866 932.03 368.708 930.49 363.797Z" fill="#5683C2"/>
<path d="M852.041 447.01C852.041 447.01 854.582 453.584 864.625 456.247L868.291 448.55L852.041 447.01Z" fill="#E98E31"/>
<path d="M885.173 402.055C878.365 399.853 870.632 402.378 865.349 407.213C860.066 412.047 856.97 418.852 855.229 425.795C853.488 432.738 852.98 439.913 852.041 447.01C857.755 447.98 863.824 447.841 869.354 448.473C873.821 469.872 869.446 492.966 855.968 510.193C857.909 513.965 863.146 515.628 867.351 515.151C871.557 514.673 875.731 513.18 879.936 513.703C886.544 514.519 892.182 520.2 898.82 519.615C902.61 519.277 905.921 516.921 909.603 516.121C912.825 515.605 916.118 515.73 919.291 516.49C922.462 517.249 925.722 517.575 928.98 517.46C930.609 517.391 932.2 516.95 933.631 516.171C935.062 515.392 936.296 514.295 937.236 512.964C936.578 500.703 934.022 488.617 929.658 477.139C928.117 472.89 926.284 468.718 925.114 464.345C923.806 459.992 923.621 455.38 924.575 450.936C929.642 450.351 934.525 450.089 939.608 449.504C938.908 440.022 935.979 430.838 931.06 422.7C928.36 417.785 924.629 413.51 920.123 410.168C915.148 406.704 909.187 404.98 903.272 403.718C897.141 402.425 891.165 403.979 885.173 402.055Z" fill="#FAAD58"/>
<path d="M915.426 394.958C917.873 394.022 919.891 392.219 921.094 389.893C922.804 386.814 921.525 383.58 922.296 380.301C922.85 377.961 924.375 375.898 924.606 373.496C924.675 372.027 924.326 370.568 923.602 369.288C922.877 368.008 921.804 366.958 920.509 366.261C917.738 364.974 914.603 364.702 911.652 365.491C912.007 366.103 912.221 366.787 912.28 367.493C912.338 368.198 912.239 368.908 911.991 369.571C911.392 370.438 910.739 371.266 910.034 372.049C909.075 373.526 908.392 375.163 908.017 376.883C906.476 382.503 905.044 388.43 903.473 394.065C907.524 394.496 911.359 396.42 915.426 394.958Z" fill="#3D6EA2"/>
<path d="M918.599 372.157C920.224 375.023 920.948 378.311 920.678 381.594C920.401 384.519 919.576 387.366 918.244 389.985C917.096 392.547 915.256 394.739 912.93 396.313C910.62 397.744 906.861 397.991 904.92 396.097C904.443 398.822 903.904 401.778 903.38 404.503C904.505 404.734 905.875 405.319 907.015 405.565C908.828 415.106 908.203 424.95 905.198 434.186C899.622 423.286 892.875 411.092 884.634 402.117C888.993 402.117 894.554 401.424 897.327 397.498C900.099 393.572 901.301 386.89 897.696 383.734C897.169 383.381 896.716 382.927 896.365 382.399C896.013 381.871 895.769 381.278 895.648 380.655C895.65 380.146 895.795 379.648 896.068 379.218C896.34 378.787 896.728 378.443 897.188 378.223C897.707 378.039 898.258 377.961 898.809 377.993C899.359 378.024 899.897 378.165 900.392 378.408C903.46 377.862 906.251 376.289 908.306 373.947C910.361 371.605 911.557 368.633 911.698 365.521C915.826 368.339 916.658 369.216 918.599 372.157Z" fill="#F49B91"/>
<path d="M901.039 388.953C901.039 388.953 899.314 400.916 903.426 404.503C903.904 401.778 904.443 398.822 904.967 396.097C902.979 394.157 901.612 391.671 901.039 388.953V388.953Z" fill="#DE706B"/>
<path d="M918.922 423.47C921.581 432.015 922.794 440.944 922.511 449.889C922.511 451.598 924.899 451.429 925.083 449.889C925.892 440.642 924.066 431.354 919.815 423.101C919.752 423.006 919.658 422.936 919.549 422.903C919.44 422.87 919.322 422.876 919.217 422.919C919.112 422.963 919.025 423.041 918.971 423.142C918.917 423.242 918.9 423.358 918.922 423.47V423.47Z" fill="#E98E31"/>
<path d="M882.724 433.462C882.924 440.02 884.003 447.102 887.345 452.814C888.084 454.046 889.81 452.968 889.24 451.721C886.57 445.862 884.799 439.633 883.987 433.246C883.895 432.477 882.616 432.677 882.647 433.431L882.724 433.462Z" fill="#E98E31"/>
<path d="M861.222 448.95C865.164 449.632 869.146 450.054 873.144 450.212C875.62 450.355 878.088 450.622 880.537 451.013C881.569 451.198 889.148 452.398 886.021 454.277C884.896 454.954 885.62 456.894 886.93 456.447C890.935 455.108 890.164 451.952 886.806 450.443C879.336 447.118 869.277 447.749 861.329 448.134C860.883 448.134 860.744 448.842 861.222 448.95Z" fill="#E98E31"/>
<path d="M884.927 403.179C892.105 409.506 896.264 416.758 899.638 425.641C900.385 427.792 901.361 429.856 902.549 431.799C903.92 433.924 905.629 435.833 907.17 437.85C910.078 441.77 912.654 445.926 914.871 450.274C916.104 452.645 917.305 455.046 918.491 457.433C919.677 459.819 920.709 462.683 921.957 465.238C922.142 465.592 922.65 465.331 922.573 464.977C921.947 462.566 921.176 460.196 920.263 457.879C919.485 455.627 918.591 453.418 917.582 451.259C915.383 446.769 912.807 442.474 909.881 438.419C908.417 436.372 906.8 434.447 905.26 432.43C903.758 430.335 902.526 428.059 901.594 425.656C899.95 421.383 897.886 417.283 895.432 413.417C892.601 409.063 889.085 405.195 885.02 401.963C884.512 401.578 883.48 401.47 884.003 401.963L884.927 403.179Z" fill="#E98E31"/>
<path d="M907.061 405.981C907.547 410.469 907.547 414.995 907.061 419.483C906.414 423.84 905.197 428.151 904.242 432.461C904.011 433.508 905.613 434.001 905.783 432.908C906.738 428.52 907.831 424.117 908.371 419.668C908.956 414.833 908.001 410.677 907.462 405.812C907.462 405.334 906.907 404.903 906.938 405.411L907.061 405.981Z" fill="#E98E31"/>
<path d="M884.819 451.028C885.219 452.568 885.373 454.107 885.758 455.647C886.602 455.584 887.412 455.291 888.1 454.8C888.391 454.554 888.595 454.22 888.681 453.848C888.767 453.476 888.731 453.086 888.577 452.737C888.373 452.467 888.116 452.24 887.823 452.071C887.529 451.901 887.204 451.793 886.868 451.752C886.139 451.668 885.438 451.421 884.819 451.028Z" fill="#E98E31"/>
<path d="M907.646 375.929C907.646 376.16 911.42 375.929 912.991 376.883C913.3 377.114 913.65 377.282 914.024 377.376C914.112 377.401 914.204 377.409 914.295 377.399C914.386 377.388 914.474 377.36 914.554 377.316C914.634 377.272 914.704 377.212 914.761 377.14C914.818 377.069 914.861 376.987 914.886 376.899C914.911 376.811 914.919 376.719 914.909 376.628C914.898 376.537 914.87 376.449 914.826 376.369C914.782 376.289 914.722 376.218 914.65 376.161C914.579 376.104 914.497 376.062 914.409 376.037C913.919 375.779 913.403 375.578 912.868 375.436C911.051 374.959 907.893 374.867 907.646 375.929Z" fill="#675161"/>
<path d="M920.601 376.914C920.601 377.13 920.494 376.252 918.845 377.099C918.506 377.308 918.129 377.449 917.736 377.515C917.562 377.539 917.384 377.496 917.24 377.394C917.096 377.293 916.997 377.14 916.961 376.967C916.926 376.795 916.958 376.615 917.05 376.465C917.143 376.315 917.289 376.206 917.459 376.16C917.939 375.928 918.467 375.812 918.999 375.821C920.124 375.867 920.601 376.406 920.601 376.914Z" fill="#675161"/>
<path d="M913.085 380.147C912.961 381.056 912.299 381.687 911.544 381.61C911.181 381.486 910.877 381.231 910.692 380.895C910.506 380.559 910.453 380.166 910.543 379.793C910.666 378.9 911.329 378.254 912.006 378.331C912.384 378.439 912.706 378.687 912.906 379.025C913.107 379.363 913.17 379.764 913.085 380.147V380.147Z" fill="#675161"/>
<path d="M920.432 380.455C920.308 381.363 919.646 381.995 918.968 381.995C918.605 381.874 918.3 381.623 918.112 381.29C917.924 380.957 917.867 380.566 917.952 380.193C918.075 379.285 918.737 378.654 919.492 378.731C919.825 378.864 920.101 379.109 920.272 379.424C920.444 379.739 920.5 380.103 920.432 380.455Z" fill="#675161"/>
<path d="M917.089 385.105C917.335 385.715 917.409 386.38 917.305 387.029C917.223 387.333 917.058 387.608 916.828 387.824C916.598 388.039 916.313 388.186 916.004 388.249C915.696 388.311 915.376 388.286 915.08 388.177C914.785 388.067 914.526 387.878 914.332 387.629C914.626 387.692 914.932 387.663 915.208 387.544C915.484 387.425 915.716 387.224 915.872 386.967C916.164 386.454 916.278 385.859 916.196 385.274C916.196 384.689 915.98 384.135 915.888 383.55C915.718 382.626 915.503 380.732 916.196 380.009C916.519 381.702 916.612 383.426 917.089 385.105Z" fill="#DE706B"/>
<g style="mix-blend-mode:overlay" opacity="0.21">
<path d="M915.333 408.737C921.455 413.02 926.572 418.583 930.328 425.041C934.084 431.498 936.388 438.695 937.083 446.132C934.695 446.656 931.907 447.072 929.535 447.672C928.254 433.683 923.36 420.267 915.333 408.737Z" fill="#FFF9F4"/>
</g>
<path d="M916.488 391.632C914.44 392.194 912.26 392.02 910.327 391.14C909.985 392.069 909.985 393.089 910.327 394.019C910.57 394.465 910.939 394.83 911.388 395.069C911.838 395.307 912.347 395.408 912.853 395.358C913.845 395.224 914.752 394.724 915.395 393.957C915.943 393.282 916.318 392.484 916.488 391.632Z" fill="#EE8780"/>
<path opacity="0.58" d="M919.199 458.295C902.573 457.218 886.187 453.765 870.54 448.042C871.801 458.287 871.541 468.663 869.77 478.833C879.02 479.314 888.261 477.72 896.815 474.166C905.368 470.612 913.017 465.189 919.199 458.295V458.295Z" fill="#E98E31"/>
<path d="M910.142 393.449C910.181 393.648 910.248 393.839 910.342 394.019C910.585 394.465 910.954 394.831 911.403 395.069C911.853 395.307 912.362 395.408 912.869 395.358C913.703 395.24 914.478 394.863 915.087 394.28C914.465 393.725 913.712 393.338 912.899 393.156C911.972 392.97 911.01 393.072 910.142 393.449V393.449Z" fill="#DE706B"/>
<path d="M916.488 391.632C914.44 392.194 912.26 392.02 910.327 391.14C910.112 391.89 910.069 392.68 910.204 393.449C911.071 393.072 912.034 392.97 912.961 393.156C913.774 393.338 914.527 393.725 915.148 394.28L915.472 393.957C915.992 393.275 916.341 392.477 916.488 391.632Z" fill="#675161"/>
<path d="M991.78 435.078H937.545C936.813 435.067 936.101 435.317 935.537 435.782C934.972 436.248 934.592 436.899 934.464 437.619L927.425 475.646H903.272C902.893 475.664 902.533 475.822 902.263 476.089C901.993 476.356 901.831 476.714 901.809 477.093V479.926C901.828 480.308 901.988 480.669 902.258 480.939C902.529 481.209 902.89 481.37 903.272 481.388H957.569L981.506 481.619C982.212 481.639 982.903 481.416 983.464 480.987C984.024 480.558 984.421 479.95 984.586 479.264L994.86 438.958C994.986 438.493 995.001 438.005 994.903 437.533C994.806 437.061 994.599 436.619 994.299 436.242C994 435.864 993.616 435.562 993.178 435.36C992.74 435.158 992.262 435.062 991.78 435.078Z" fill="#A5DDEC"/>
<path d="M885.267 450.135C887.069 458.31 889.41 469.01 892.568 476.77C913.547 477.801 933.756 478.833 954.289 480.557C951.946 483.136 949.065 485.17 945.85 486.516C942.635 487.862 939.164 488.487 935.682 488.347C934.588 488.932 932.709 489.779 931.569 490.271C920.196 495.384 907.734 497.605 895.294 496.738C890.622 496.605 886.04 495.416 881.893 493.258C876.856 490.318 873.437 485.253 870.803 480.049C865.828 470.273 861.268 458.911 860.775 447.964C868.677 447.58 877.781 447.872 885.267 450.135Z" fill="#F49B91"/>
<path d="M940.24 479.433L945.6 479.895C945.6 479.895 941.426 482.974 939.901 482.758C938.376 482.543 941.087 481.404 941.257 480.788C941.426 480.172 941.426 479.556 940.24 479.433Z" fill="#E2756D"/>
<path d="M964.855 447.61C962.278 447.706 959.81 448.672 957.852 450.349C955.894 452.026 954.562 454.317 954.073 456.848C953.842 457.979 953.868 459.148 954.15 460.268C954.432 461.388 954.962 462.43 955.702 463.317C956.442 464.204 957.372 464.913 958.423 465.393C959.474 465.872 960.619 466.108 961.775 466.085C964.352 465.992 966.822 465.028 968.781 463.35C970.739 461.672 972.071 459.38 972.557 456.848C972.788 455.716 972.762 454.547 972.48 453.428C972.198 452.308 971.667 451.266 970.928 450.379C970.188 449.491 969.258 448.782 968.207 448.303C967.156 447.824 966.01 447.587 964.855 447.61V447.61Z" fill="#F5FBFD"/>
<path d="M955.197 458.218C955.686 455.687 957.018 453.397 958.975 451.719C960.933 450.042 963.402 449.076 965.979 448.981C967.943 448.942 969.849 449.639 971.324 450.936C970.595 449.896 969.62 449.052 968.486 448.48C967.352 447.908 966.094 447.625 964.824 447.657C962.247 447.752 959.778 448.718 957.82 450.395C955.862 452.073 954.53 454.363 954.041 456.894C953.772 458.215 953.847 459.583 954.26 460.866C954.672 462.15 955.409 463.306 956.398 464.222C955.228 462.454 954.797 460.299 955.197 458.218V458.218Z" fill="#7ACFE6"/>
<path d="M881.631 477.462C885.078 476.5 888.691 476.285 892.228 476.831C892.286 476.847 892.346 476.851 892.405 476.842C892.464 476.832 892.52 476.811 892.569 476.778C892.619 476.745 892.661 476.702 892.693 476.651C892.724 476.601 892.745 476.544 892.753 476.485C892.76 476.426 892.756 476.366 892.738 476.309C892.721 476.252 892.691 476.2 892.652 476.155C892.612 476.111 892.564 476.075 892.509 476.051C892.455 476.027 892.396 476.015 892.336 476.015C888.718 475.536 885.038 475.851 881.554 476.939C881.23 477.047 881.354 477.555 881.692 477.462H881.631Z" fill="#DE706B"/>
<path d="M887.377 459.45C886.607 456.186 885.837 452.999 885.267 450.135C877.781 447.872 868.677 447.58 860.775 447.964C860.881 450.123 861.123 452.272 861.499 454.4C870.388 454.209 879.213 455.931 887.377 459.45V459.45Z" fill="#DE706B"/>
<path d="M940.24 479.433L945.6 479.895C945.6 479.895 941.426 482.974 939.901 482.758C938.376 482.543 941.087 481.404 941.257 480.788C941.426 480.172 941.426 479.556 940.24 479.433Z" fill="#E2756D"/>
<path opacity="0.61" d="M893.984 359.009C892.525 359.587 891.281 360.604 890.426 361.919C889.252 363.781 888.525 365.888 888.3 368.077C888.273 368.323 888.323 368.572 888.444 368.788C888.565 369.004 888.75 369.177 888.975 369.283C889.199 369.388 889.451 369.42 889.695 369.375C889.938 369.33 890.162 369.21 890.334 369.032C891.551 367.723 892.521 365.26 893.199 365.675L893.722 366.907C893.69 367.096 893.705 367.289 893.765 367.471C893.825 367.652 893.929 367.816 894.068 367.949C894.206 368.081 894.375 368.177 894.559 368.229C894.743 368.281 894.937 368.287 895.124 368.247C896.134 368.024 897.191 368.177 898.097 368.678C898.66 369.106 899.258 369.487 899.884 369.817C901.547 370.464 903.303 369.293 904.797 368.277C906.291 367.261 908.417 366.522 909.711 367.754C909.784 367.262 909.665 366.76 909.378 366.353C909.091 365.946 908.659 365.665 908.171 365.568C907.173 365.425 906.157 365.483 905.182 365.737C904.697 365.866 904.191 365.897 903.694 365.829C903.197 365.76 902.718 365.593 902.287 365.337C901.147 364.505 901.131 362.843 900.592 361.534C900.337 360.924 899.961 360.372 899.486 359.911C899.011 359.451 898.448 359.092 897.83 358.856C897.212 358.619 896.552 358.511 895.891 358.538C895.23 358.564 894.581 358.725 893.984 359.009V359.009Z" fill="#6297D0"/>
<path opacity="0.61" d="M874.144 392.14C874.154 392.46 874.256 392.77 874.437 393.033C874.976 393.711 876.101 393.341 876.717 392.725C877.333 392.11 877.795 391.263 878.627 391.016C879.813 390.647 880.968 391.648 881.708 392.648C882.447 393.649 883.248 394.804 884.496 394.942C886.436 395.142 887.576 392.679 889.517 392.187C891.165 391.74 892.89 392.926 894.585 392.648C895.001 392.561 895.394 392.389 895.741 392.143C896.087 391.897 896.378 391.582 896.597 391.217C896.815 390.853 896.956 390.447 897.01 390.026C897.064 389.604 897.03 389.176 896.911 388.769C896.757 389.862 895.201 390.139 894.2 389.662C893.198 389.184 892.444 388.276 891.412 387.876C890.007 387.535 888.536 387.589 887.16 388.03C886.473 388.243 885.743 388.284 885.036 388.147C884.329 388.01 883.667 387.7 883.109 387.245C882.482 386.202 882.088 385.036 881.954 383.827C880.86 380.009 877.626 382.287 876.178 384.381C874.56 386.626 873.835 389.391 874.144 392.14V392.14Z" fill="#6297D0"/>
<g style="mix-blend-mode:overlay" opacity="0.21">
<path d="M892.628 446.625C892.5 447.748 892.67 448.884 893.121 449.92C893.683 450.619 894.454 451.12 895.322 451.35C896.189 451.58 897.108 451.527 897.943 451.198C899.668 450.69 901.177 449.658 902.902 449.088C907.693 447.549 913.407 450.628 917.643 447.903C918.547 447.276 919.316 446.475 919.905 445.547C920.495 444.619 920.894 443.583 921.078 442.499C921.428 440.329 921.391 438.114 920.97 435.956C920.956 435.389 920.823 434.831 920.579 434.319C920.335 433.807 919.985 433.353 919.553 432.985C918.895 432.689 918.158 432.616 917.455 432.777C916.751 432.938 916.12 433.325 915.656 433.878C914.758 435 913.802 436.074 912.791 437.095C910.404 438.958 906.984 438.404 904.027 437.757L894.6 435.694C892.212 435.171 889.64 435.002 890.611 438.096C891.73 440.815 892.411 443.693 892.628 446.625V446.625Z" fill="#FFF9F4"/>
</g>
<g style="mix-blend-mode:overlay" opacity="0.21">
<path d="M868.446 445.147C864.279 445.304 860.11 444.911 856.046 443.977C855.83 435.51 856.693 426.826 860.22 419.129C863.748 411.431 870.248 404.78 878.442 402.609C870.273 415.2 866.738 430.238 868.446 445.147V445.147Z" fill="#FFF9F4"/>
</g>
<g style="mix-blend-mode:overlay" opacity="0.21">
<path d="M849.545 686.888C855.183 663.794 860.867 640.332 860.79 616.515C860.682 586.309 851.363 555.471 859.481 526.359C858.71 551.761 873.128 573.992 877.965 598.948C884.095 630.679 872.404 664.041 849.545 686.888Z" fill="#E0E2F2"/>
</g>
<path d="M935.896 437.819L929.935 478.217L906.276 476.6H928.333L935.896 437.819Z" fill="#F5FBFD"/>
<path opacity="0.54" d="M844.694 741.957L859.728 749.655C859.816 749.723 859.927 749.752 860.037 749.738C860.146 749.723 860.246 749.666 860.313 749.578C860.381 749.49 860.41 749.379 860.396 749.27C860.382 749.16 860.324 749.061 860.236 748.993L850.07 737.893C850.07 737.893 847.806 741.834 844.694 741.957Z" fill="#8089C3"/>
<path opacity="0.54" d="M905.968 741.665L922.496 745.221C922.594 745.238 922.694 745.22 922.78 745.171C922.866 745.122 922.932 745.045 922.968 744.953C923.004 744.861 923.008 744.76 922.978 744.666C922.948 744.572 922.887 744.491 922.804 744.436L910.096 736.369C910.096 736.369 908.941 740.757 905.968 741.665Z" fill="#8089C3"/>
<path d="M499.32 584.692C492.142 630.309 498.843 678.081 485.103 722.174C487.999 724.545 487.521 729.302 490.125 731.981C492.219 734.121 495.315 734.891 498.242 735.553L498.55 735.122C497.318 734.691 498.011 734.337 498.304 733.059C500.691 722.544 504.203 712.321 507.053 701.929C510.688 688.627 513.214 675.049 515.863 661.516C521.368 633.609 527.447 605.799 534.101 578.088C528.099 577.991 522.099 578.367 516.156 579.211C510.272 580.243 504.08 581.167 499.32 584.692Z" fill="#F49B91"/>
<path d="M491.68 691.722C490.342 702.038 488.142 712.225 485.103 722.174C487.999 724.545 487.521 729.302 490.125 731.981C492.219 734.121 495.315 734.891 498.242 735.553L498.55 735.122C497.318 734.691 498.011 734.337 498.304 733.059C500.691 722.544 504.203 712.321 507.053 701.929C507.9 698.85 508.686 695.663 509.44 692.507C503.554 691.739 497.612 691.477 491.68 691.722V691.722Z" fill="#E4E7E9"/>
<path d="M480.852 720.512C480.852 720.512 491.804 720.896 492.574 722.621C493.344 724.345 490.264 732.412 492.189 733.182C494.114 733.952 496.132 733.428 498.581 735.122C501.031 736.815 498.15 748.978 498.15 748.978C498.15 748.978 461.644 749.178 451.832 734.953C451.832 734.953 449.922 730.734 456.068 729.78C462.214 728.825 472.596 732.459 476.093 729.01C478.313 726.582 479.942 723.673 480.852 720.512Z" fill="#6482AF"/>
<path d="M516.157 579.227C510.272 580.243 504.08 581.09 499.321 584.692C498.843 587.771 498.427 590.85 498.058 593.93C508.718 591.862 519.693 592.04 530.281 594.453C531.534 589.024 532.807 583.594 534.101 578.164C528.101 578.048 522.101 578.403 516.157 579.227V579.227Z" fill="#DE706B"/>
<path d="M560.995 596.562C576.075 640.224 604.417 679.252 613.012 724.638C616.678 725.376 618.48 729.795 622.038 730.934C624.903 731.843 628 731.057 630.895 730.288L630.988 729.749C629.678 729.934 630.141 729.302 629.786 728.025C626.968 717.633 625.273 706.963 622.901 696.448C619.82 682.993 615.723 669.829 611.703 656.635C603.426 629.406 595.724 602.002 588.598 574.423C583.247 577.152 578.122 580.303 573.272 583.845C568.574 587.433 563.49 591.097 560.995 596.562Z" fill="#F49B91"/>
<path d="M604.51 694.601C608.173 704.339 611.017 714.365 613.012 724.576C616.678 725.315 618.481 729.733 622.039 730.873C624.904 731.781 628 730.996 630.896 730.226L630.988 729.687C629.679 729.872 630.141 729.241 629.787 727.963C626.968 717.571 625.273 706.902 622.901 696.387C622.193 693.215 621.361 690.075 620.591 686.934C615.024 689.031 609.644 691.596 604.51 694.601V694.601Z" fill="#E4E7E9"/>
<path d="M608.469 725.099C608.469 725.099 618.327 720.296 619.806 721.466C621.284 722.636 622.378 731.196 624.427 730.965C626.475 730.734 628.031 729.333 630.988 729.687C633.946 730.041 637.15 742.004 637.15 742.004C637.15 742.004 605.003 759.308 589.677 751.349C589.677 751.349 585.995 748.516 590.971 744.79C595.946 741.064 606.821 739.417 608.253 734.737C609.059 731.583 609.133 728.286 608.469 725.099V725.099Z" fill="#6482AF"/>
<path d="M573.288 583.784C568.574 587.433 560.195 582.86 557.684 588.279C558.701 591.189 563.075 602.32 564.184 605.214C572.626 598.391 582.4 593.404 592.881 590.573C591.443 585.164 590.021 579.766 588.614 574.377C583.263 577.101 578.138 580.246 573.288 583.784V583.784Z" fill="#DE706B"/>
<path d="M513.554 496.907C513.554 496.907 510.473 504.297 510.473 509.993C510.473 515.689 508.209 521.648 507.639 528.191C507.069 534.734 496.533 588.464 496.533 588.464H540.91L547.749 557.473L556.853 589.034H604.064L593.281 495.491L513.554 496.907Z" fill="#CDD1E9"/>
<g style="mix-blend-mode:multiply" opacity="0.51">
<path d="M595.021 511.317L593.188 495.491L513.553 496.907C511.959 500.774 510.921 504.849 510.473 509.008C538.393 502.573 567.495 503.368 595.021 511.317V511.317Z" fill="#CDD1E9"/>
</g>
<path d="M574.566 503.989C578.001 510.594 581.313 518.938 588.845 521.786C589.6 522.079 590.077 520.893 589.384 520.524C587.827 519.758 586.355 518.829 584.994 517.753C583.596 516.557 582.377 515.168 581.374 513.627C580.342 512.087 579.464 510.44 578.54 508.839C577.616 507.237 576.461 505.282 575.459 503.496C575.387 503.398 575.282 503.331 575.163 503.306C575.043 503.281 574.919 503.301 574.814 503.362C574.709 503.424 574.631 503.521 574.593 503.637C574.556 503.753 574.563 503.878 574.612 503.989H574.566Z" fill="#ACB7DD"/>
<path d="M579.834 505.19C581.409 508.105 583.244 510.872 585.318 513.457C586.35 514.735 587.428 515.936 588.568 517.106C589.675 518.388 590.943 519.521 592.342 520.477C593.081 520.909 593.697 519.954 593.204 519.354C592.646 518.761 592.049 518.205 591.417 517.691C590.847 517.167 590.293 516.644 589.754 516.151C588.599 515.012 587.505 513.811 586.458 512.564C584.368 510.095 582.507 507.441 580.897 504.635C580.512 503.943 579.464 504.558 579.834 505.251V505.19Z" fill="#ACB7DD"/>
<path d="M521.516 501.941C520.745 505.147 519.341 508.167 517.388 510.825C516.436 512.123 515.357 513.325 514.169 514.412C513.553 514.962 512.905 515.477 512.228 515.951C511.505 516.386 510.806 516.859 510.133 517.368C509.378 518.03 510.349 518.907 511.119 518.645C511.905 518.234 512.631 517.716 513.275 517.106C513.907 516.598 514.508 516.059 515.093 515.566C516.339 514.367 517.469 513.053 518.466 511.64C520.441 508.818 521.834 505.631 522.564 502.265C522.702 501.603 521.686 501.31 521.516 501.988V501.941Z" fill="#ACB7DD"/>
<path d="M526.861 504.189C525.537 508.533 523.24 512.519 520.146 515.843C517.06 519.11 513.352 521.727 509.24 523.541C508.162 524.049 508.932 525.943 510.072 525.496C518.929 522.063 525.691 513.642 528.094 504.589C528.111 504.436 528.073 504.282 527.986 504.155C527.9 504.027 527.771 503.935 527.622 503.894C527.474 503.853 527.316 503.866 527.176 503.932C527.037 503.997 526.925 504.11 526.861 504.251V504.189Z" fill="#ACB7DD"/>
<path d="M546.408 504.02C546.485 520.231 547.302 536.427 547.379 552.639C547.379 553.409 548.611 553.409 548.58 552.639C547.933 536.427 548.026 520.231 547.379 504.02C547.358 503.906 547.298 503.803 547.21 503.729C547.121 503.654 547.009 503.614 546.893 503.614C546.778 503.614 546.666 503.654 546.577 503.729C546.488 503.803 546.429 503.906 546.408 504.02V504.02Z" fill="#ACB7DD"/>
<path d="M540.571 504.328C540.663 506.483 540.74 508.654 540.832 510.809C540.858 512.832 541.038 514.849 541.372 516.844C541.667 518.539 542.323 520.151 543.297 521.571C544.156 522.944 545.469 523.974 547.009 524.48C547.189 524.54 547.385 524.53 547.558 524.451C547.731 524.373 547.868 524.233 547.942 524.058C548.016 523.883 548.021 523.687 547.957 523.508C547.892 523.33 547.763 523.182 547.594 523.095C546.306 522.434 545.197 521.473 544.36 520.293C543.498 518.845 542.942 517.237 542.727 515.566C542.142 511.871 542.08 508.053 541.803 504.328C541.803 503.542 540.524 503.512 540.571 504.328V504.328Z" fill="#ACB7DD"/>
<path d="M543.02 529.946C545.208 529.589 547.414 529.363 549.628 529.268C550.707 529.268 551.785 529.268 552.863 529.268C553.957 529.268 555.112 529.422 556.205 529.268C557.022 529.191 557.33 527.929 556.421 527.729C555.246 527.531 554.053 527.464 552.863 527.529C551.739 527.529 550.614 527.529 549.505 527.636C547.2 527.792 544.907 528.08 542.635 528.499C541.696 528.668 542.096 530.038 543.02 529.915V529.946Z" fill="#ACB7DD"/>
<path d="M540.832 536.427C543.651 536.212 546.454 535.981 549.258 535.719C552.061 535.457 554.834 535.273 557.591 534.857C558.515 534.718 558.299 533.179 557.375 533.225C554.603 533.348 551.846 533.718 549.104 534.01C546.362 534.303 543.589 534.611 540.832 534.934C539.908 535.057 539.862 536.473 540.832 536.473V536.427Z" fill="#ACB7DD"/>
<path d="M504.188 453.03C502.892 452.145 501.79 451.007 500.948 449.683C500.106 448.36 499.542 446.88 499.29 445.332C498.335 440.02 504.727 438.219 504.727 438.219L507.238 439.358C507.238 439.358 508.07 450.166 504.188 453.03Z" fill="#3A6CA0"/>
<path d="M510.041 383.842H495.963C495.445 383.843 494.943 383.661 494.546 383.329C494.149 382.997 493.881 382.535 493.791 382.025L488.184 351.435C488.128 351.116 488.142 350.788 488.226 350.475C488.31 350.162 488.462 349.872 488.67 349.624C488.879 349.376 489.139 349.176 489.433 349.04C489.727 348.903 490.047 348.832 490.371 348.833H504.435C504.95 348.831 505.45 349.011 505.847 349.34C506.244 349.669 506.513 350.127 506.606 350.634L512.213 381.225C512.275 381.544 512.265 381.873 512.184 382.188C512.103 382.503 511.953 382.796 511.746 383.046C511.538 383.296 511.277 383.497 510.983 383.635C510.688 383.773 510.367 383.843 510.041 383.842V383.842Z" fill="#EEF7FC"/>
<path d="M495.963 414.171L490.757 418.19L493.837 381.41C493.837 381.41 499.598 375.852 499.829 370.725C500.691 370.28 501.615 369.969 502.571 369.801C503.125 369.909 506.807 371.064 507.469 370.294C508.132 369.524 504.604 367.215 504.281 367.046C502.494 367.036 500.708 367.144 498.936 367.369C500.389 366.103 501.934 364.945 503.557 363.905C504.865 363.759 506.146 363.427 507.361 362.92C507.854 362.427 503.125 361.534 502.294 361.657C500.483 362.356 498.718 363.168 497.01 364.09C498.284 361.582 499.72 359.16 501.308 356.838C502.232 355.945 503.834 354.021 503.002 353.759C502.447 353.632 501.871 353.626 501.313 353.74C500.755 353.854 500.228 354.087 499.768 354.421C498.905 354.991 500.553 352.343 501.015 351.619C501.059 351.565 501.083 351.497 501.083 351.427C501.083 351.357 501.059 351.289 501.015 351.234C500.723 350.788 499.829 350.003 497.719 351.943C495.023 354.421 488.477 360.641 487.815 362.72C486.53 367.747 485.94 372.927 486.059 378.115C481.136 385.688 477.309 393.919 474.691 402.563C470.701 416.204 467.852 439.913 469.762 447.102C471.672 454.292 473.551 454.877 478.865 454.508C484.179 454.138 509.579 442.561 509.579 442.561L505.405 426.58L495.963 414.171Z" fill="#F49B91"/>
<path d="M504.974 425.841L495.963 414.171L490.756 418.19L486.751 432.23L504.974 425.841Z" fill="#DE706B"/>
<path d="M549.951 397.128L548.334 396.805C548.334 396.805 529.85 394.234 526.769 394.927C523.688 395.62 517.527 393.695 494.607 414.679C494.607 414.679 511.551 436.618 504.249 452.968L516.957 441.776L518.574 479.787C518.574 479.787 509.009 488.486 509.517 499.262C509.517 499.262 508.824 501.171 533.87 501.341H594.574V454.061L622.054 451.105C621.542 448.445 620.407 445.945 618.742 443.808C616.308 441.206 617.002 433.37 613.521 430.598C610.039 427.827 609.346 407.998 600.828 403.656C592.31 399.315 576.568 397.005 576.568 397.005L549.951 397.128Z" fill="#5683C2"/>
<path d="M572.486 364.675C573.075 364.791 573.62 365.069 574.06 365.477C574.501 365.885 574.818 366.407 574.978 366.986C575.138 367.564 575.134 368.176 574.966 368.752C574.798 369.328 574.472 369.846 574.026 370.248C575.06 370.739 575.962 371.467 576.66 372.373C576.979 372.813 577.175 373.33 577.229 373.871C577.284 374.411 577.193 374.957 576.968 375.452C576.722 375.975 576.275 376.375 576.013 376.883C575.713 377.89 575.497 378.92 575.366 379.962C574.95 380.939 574.191 381.729 573.232 382.185C572.273 382.642 571.181 382.733 570.16 382.441C569.146 382.111 568.212 381.573 567.416 380.863C566.621 380.153 565.981 379.285 565.539 378.315C563.707 374.562 562.879 370.398 563.136 366.23C563.081 365.208 563.411 364.203 564.06 363.412C564.45 363.097 564.899 362.864 565.381 362.727C565.862 362.589 566.367 362.55 566.864 362.612C568.866 362.735 570.545 364.244 572.486 364.675Z" fill="#675161"/>
<path d="M564.785 364.413C564.785 366.414 564.892 368.447 564.954 370.463C565.585 369.802 566.345 369.278 567.188 368.924C567.608 368.741 568.064 368.655 568.523 368.671C568.981 368.687 569.43 368.805 569.837 369.016C570.425 369.443 570.872 370.037 571.119 370.72C571.366 371.404 571.402 372.145 571.223 372.85C570.996 374.059 570.464 375.19 569.677 376.136C568.89 377.081 567.874 377.81 566.725 378.254C567.804 384.412 568.959 390.57 570.037 396.821H576.199C576.322 396.821 576.537 397.021 576.661 397.021C571.904 400.875 566.683 404.118 561.119 406.674C559.334 407.572 557.414 408.17 555.435 408.444C554.445 408.573 553.44 408.495 552.482 408.214C551.525 407.933 550.637 407.456 549.874 406.812C548.658 405.567 547.927 403.93 547.81 402.194C547.788 400.392 547.974 398.595 548.365 396.836C549.705 396.836 551.122 396.697 552.462 396.759C552 394.28 551.646 391.817 551.168 389.354C548.606 388.987 546.286 387.64 544.699 385.597C543.193 383.388 542.247 380.847 541.942 378.192C541.017 372.742 542.096 368.477 544.499 362.796C551.985 363.412 557.237 363.705 564.785 364.413Z" fill="#F49B91"/>
<path d="M556.867 367.631C556.867 367.831 553.386 367.061 551.784 367.738C551.479 367.919 551.137 368.03 550.783 368.062C550.612 368.084 550.438 368.038 550.301 367.932C550.164 367.827 550.074 367.671 550.051 367.5C550.029 367.328 550.076 367.155 550.181 367.018C550.286 366.881 550.442 366.791 550.614 366.769C551.111 366.591 551.628 366.477 552.154 366.43C553.848 366.245 556.775 366.63 556.867 367.631Z" fill="#675161"/>
<path d="M542.311 366.276C542.311 366.522 542.758 365.645 545.299 366.999C545.844 367.336 546.436 367.59 547.055 367.754C548.596 368.077 549.273 366.999 548.072 366.445C547.262 366.061 546.401 365.796 545.515 365.66C543.636 365.383 542.588 365.829 542.311 366.276Z" fill="#675161"/>
<path d="M551.245 370.741C551.245 371.603 551.753 372.28 552.4 372.28C552.809 372.28 553.2 372.118 553.489 371.829C553.778 371.54 553.94 371.149 553.94 370.741C553.94 370.332 553.778 369.941 553.489 369.652C553.2 369.363 552.809 369.201 552.4 369.201C552.049 369.265 551.735 369.459 551.521 369.745C551.307 370.03 551.208 370.386 551.245 370.741Z" fill="#675161"/>
<path d="M544.422 370.002C544.422 370.848 544.914 371.541 545.561 371.541C546.208 371.541 546.748 370.864 546.763 370.002C546.778 369.139 546.255 368.462 545.608 368.462C545.249 368.516 544.925 368.706 544.704 368.993C544.483 369.28 544.382 369.641 544.422 370.002Z" fill="#675161"/>
<path d="M546.855 374.759C546.543 375.291 546.378 375.897 546.378 376.514C546.406 376.808 546.519 377.088 546.702 377.32C546.885 377.552 547.13 377.726 547.41 377.823C547.687 377.92 547.986 377.939 548.273 377.88C548.561 377.82 548.827 377.683 549.043 377.484C548.77 377.494 548.5 377.421 548.27 377.276C548.039 377.13 547.857 376.918 547.749 376.668C547.581 376.168 547.581 375.628 547.749 375.128C547.872 374.605 548.103 374.097 548.273 373.589C548.55 372.757 549.012 371.049 548.488 370.279C547.841 371.788 547.533 373.327 546.855 374.759Z" fill="#DE706B"/>
<path d="M545.777 379.747C548.136 380.824 550.805 381.016 553.294 380.286C553.49 381.462 553.272 382.67 552.678 383.704C552.31 384.198 551.802 384.571 551.22 384.775C550.638 384.978 550.008 385.001 549.412 384.843C548.259 384.498 547.272 383.742 546.639 382.718C546.11 381.815 545.813 380.794 545.777 379.747Z" fill="#EE8780"/>
<path d="M553.016 383.057C552.928 383.285 552.815 383.502 552.678 383.704C552.31 384.198 551.802 384.571 551.22 384.774C550.638 384.978 550.008 385.001 549.412 384.843C548.436 384.554 547.578 383.96 546.963 383.149C547.805 382.597 548.776 382.273 549.782 382.21C550.92 382.165 552.046 382.46 553.016 383.057V383.057Z" fill="#DE706B"/>
<path d="M545.777 379.747C548.136 380.824 550.805 381.016 553.294 380.286C553.41 381.219 553.315 382.166 553.016 383.057C552.046 382.46 550.92 382.165 549.782 382.21C548.776 382.273 547.805 382.597 546.963 383.149C546.847 383.012 546.739 382.868 546.639 382.718C546.11 381.815 545.813 380.794 545.777 379.747Z" fill="#675161"/>
<path d="M555.542 347.324C555.542 347.324 566.787 346.431 570.669 351.743C571.994 353.671 572.912 355.849 573.368 358.144C573.823 360.439 573.806 362.802 573.318 365.09L565.431 363.874L555.542 347.324Z" fill="#D8D6EB"/>
<path d="M545.5 358.255C545.5 358.255 534.81 358.255 533.177 359.702C531.544 361.149 548.858 366.861 565.416 363.874L545.5 358.255Z" fill="#6A6EB2"/>
<path d="M545.5 358.255C545.5 358.255 549.92 346.2 557.237 347.247C564.553 348.294 565.354 363.874 565.354 363.874C565.354 363.874 547.348 361.873 545.5 358.255Z" fill="#B5B2D8"/>
<path d="M555.728 396.62C556.974 396.104 558.044 395.237 558.808 394.126C561.909 390.337 564.342 386.047 566.002 381.44C562.748 384.087 559.146 386.273 555.296 387.937C553.605 388.574 551.831 388.963 550.028 389.092C550.398 389.191 550.774 389.268 551.153 389.323C551.615 391.74 551.969 394.142 552.431 396.543C553.499 396.889 554.645 396.915 555.728 396.62Z" fill="#DE706B"/>
<path d="M553.525 411.723C552.416 428.181 549.828 444.424 548.904 460.989C548.026 474.273 547.902 487.596 548.534 500.894C548.553 500.997 548.608 501.089 548.688 501.155C548.768 501.222 548.869 501.258 548.973 501.258C549.077 501.258 549.178 501.222 549.258 501.155C549.338 501.089 549.393 500.997 549.412 500.894C549.936 487.608 551.307 474.291 551.969 460.989C552.785 444.624 554.942 428.135 555.05 411.723C555.05 411.519 554.968 411.323 554.824 411.179C554.68 411.035 554.484 410.954 554.279 410.954C554.075 410.954 553.879 411.035 553.735 411.179C553.59 411.323 553.509 411.519 553.509 411.723H553.525Z" fill="#386BA0"/>
<path d="M533.701 482.127C538.791 480.516 543.637 478.216 548.103 475.292C548.935 474.722 548.457 473.136 547.364 473.536C542.358 475.369 538.122 478.833 533.27 481.096C532.684 481.373 533.1 482.343 533.701 482.127Z" fill="#4380B5"/>
<path d="M554.094 472.998C563.09 468.04 576.414 465.3 582.437 456.447C582.852 455.832 582.051 455.108 581.451 455.462C576.83 458.187 572.563 461.405 567.726 463.899C562.89 466.393 557.976 468.764 553.34 471.704C553.193 471.816 553.093 471.977 553.057 472.158C553.022 472.338 553.053 472.525 553.146 472.684C553.239 472.843 553.386 472.962 553.561 473.02C553.735 473.078 553.925 473.07 554.094 472.998V472.998Z" fill="#4380B5"/>
<path d="M586.195 464.746C583.756 466.642 581.479 468.738 579.387 471.012C576.455 473.765 573.313 476.287 569.991 478.555C564.429 482.688 559.721 487.859 556.128 493.782C555.774 494.413 556.652 495.167 557.16 494.582C562.474 488.686 567.311 482.835 573.872 478.248C578.925 474.707 582.421 469.795 587.243 466.023C587.951 465.454 586.996 464.207 586.257 464.746H586.195Z" fill="#4380B5"/>
<path d="M582.961 427.843C586.042 436.018 586.781 448.503 593.743 454.477C593.884 454.63 594.078 454.725 594.286 454.742C594.494 454.759 594.7 454.698 594.865 454.57C595.03 454.442 595.14 454.257 595.175 454.052C595.21 453.846 595.166 453.635 595.052 453.461C592.63 448.927 590.455 444.266 588.537 439.497C587.222 435.382 585.573 431.382 583.608 427.535C583.392 427.15 582.73 427.411 582.884 427.843H582.961Z" fill="#4380B5"/>
<path d="M564.184 416.188C564.181 416.87 563.976 417.535 563.595 418.1C563.214 418.665 562.674 419.105 562.043 419.363C561.413 419.622 560.719 419.688 560.051 419.553C559.383 419.418 558.769 419.089 558.288 418.606C557.807 418.123 557.48 417.508 557.348 416.84C557.216 416.171 557.286 415.479 557.547 414.849C557.809 414.22 558.251 413.683 558.818 413.304C559.385 412.926 560.052 412.724 560.734 412.724C561.188 412.724 561.638 412.814 562.057 412.988C562.477 413.162 562.858 413.418 563.179 413.74C563.499 414.062 563.753 414.444 563.926 414.864C564.098 415.284 564.186 415.734 564.184 416.188Z" fill="#C8DDED"/>
<path d="M563.244 431.507C563.248 432.192 563.047 432.864 562.668 433.435C562.289 434.007 561.749 434.453 561.116 434.718C560.483 434.982 559.785 435.053 559.112 434.921C558.439 434.789 557.82 434.461 557.334 433.977C556.847 433.493 556.516 432.876 556.381 432.204C556.246 431.531 556.313 430.834 556.575 430.2C556.837 429.566 557.281 429.024 557.852 428.643C558.422 428.262 559.093 428.058 559.779 428.058C560.695 428.058 561.574 428.421 562.224 429.067C562.873 429.714 563.24 430.591 563.244 431.507Z" fill="#C8DDED"/>
<path d="M524.073 424.009L542.788 424.686C542.788 424.686 543.789 441.037 533.685 440.698C525.09 440.405 523.395 432.938 524.073 424.009Z" fill="#C8DDED"/>
<path d="M514.077 416.819C513.842 425.185 514.712 433.545 516.665 441.683C516.819 442.361 517.774 442.068 517.682 441.406C516.32 433.26 515.527 425.029 515.31 416.773C515.31 416.61 515.245 416.453 515.129 416.338C515.014 416.222 514.857 416.157 514.693 416.157C514.53 416.157 514.373 416.222 514.258 416.338C514.142 416.453 514.077 416.61 514.077 416.773V416.819Z" fill="#386BA0"/>
<path d="M611.379 554.378H602.137C600.474 546.681 597.409 538.983 591.74 533.425C590.08 531.791 588.055 530.575 585.832 529.876C583.61 529.178 581.253 529.017 578.955 529.407C573.241 530.408 569.082 534.811 566.217 539.599C563.532 544.162 561.68 549.167 560.749 554.378H550.536L536.473 640.362H623.748L611.379 554.378ZM566.325 542.832C569.005 538.306 572.486 533.995 577.785 532.486C586.642 529.946 593.696 537.767 597.162 544.941C598.653 547.967 599.855 551.127 600.751 554.378H561.842C562.732 550.322 564.244 546.427 566.325 542.832Z" fill="#E95C80"/>
<path d="M552.123 556.688L539.2 637.838L545.546 633.203L552.616 637.838H555.296L552.123 556.688Z" fill="#D74876"/>
<path d="M507.639 424.24C508.444 428.267 510.341 431.995 513.122 435.017C513.507 435.433 514.262 434.878 513.923 434.401C511.567 431.203 509.621 427.722 508.132 424.04C508.104 423.987 508.058 423.945 508.003 423.922C507.948 423.898 507.887 423.894 507.829 423.91C507.771 423.926 507.721 423.962 507.686 424.011C507.652 424.059 507.635 424.119 507.639 424.178V424.24Z" fill="#386BA0"/>
<path d="M594.528 453.753L594.651 459.911L599.642 469.503L579.464 516.074C579.464 516.074 574.658 522.233 573.302 524.296C571.833 526.769 570.943 529.543 570.699 532.409C570.869 533.949 573.78 531.593 573.78 531.593C573.78 531.593 574.103 535.657 572.809 536.951C571.516 538.244 572.887 538.983 574.103 538.413C574.103 538.413 574.827 539.783 576.46 538.321C576.46 538.321 577.43 539.86 579.541 538.09C579.702 538.278 579.906 538.424 580.136 538.516C580.365 538.608 580.614 538.644 580.86 538.62C581.107 538.595 581.343 538.512 581.551 538.377C581.758 538.242 581.93 538.059 582.051 537.844C583.361 536.135 584.655 536.058 584.824 531.193C584.993 526.328 584.824 524.449 584.824 524.449C584.824 524.449 618.45 481.896 621.792 473.306C624.026 467.563 622.239 456.848 620.575 451.275C612.103 451.598 602.923 453.276 594.528 453.753Z" fill="#F49B91"/>
<path d="M622.085 458.002C621.702 455.742 621.188 453.506 620.545 451.305C612.088 451.582 602.908 453.261 594.513 453.738L594.636 459.896L594.806 460.219C598.954 457.99 603.519 456.643 608.214 456.261C612.908 455.88 617.631 456.473 622.085 458.002Z" fill="#DE706B"/>
<path d="M595.792 403.102C598.187 403.592 600.368 404.82 602.03 406.612C603.162 408.239 603.938 410.085 604.31 412.031L607.221 423.162C607.991 426.087 608.869 429.197 611.164 431.153C611.701 431.567 612.215 432.009 612.705 432.477C615.185 435.078 613.66 439.466 614.969 442.807C616.001 445.424 618.789 447.426 618.635 450.228L614.43 450.074C614.048 450.089 613.669 450.015 613.321 449.858C612.959 449.577 612.687 449.197 612.535 448.765C611.536 446.792 610.721 444.73 610.101 442.607C609.624 440.493 608.943 438.431 608.068 436.449C606.912 434.547 605.641 432.717 604.264 430.968C600.967 426.072 599.92 420.068 598.102 414.464C596.562 409.414 593.851 406.135 590.585 402.147C592.365 402.142 594.13 402.465 595.792 403.102V403.102Z" fill="#5B97CC"/>
<path d="M532.207 396.544C527.417 395.92 522.549 396.717 518.208 398.835C513.868 400.954 510.246 404.301 507.792 408.46C507.071 409.484 506.763 410.743 506.93 411.985C510.719 411.647 513.692 408.752 516.957 406.843C520.543 404.748 524.672 403.767 528.818 404.026C532.083 404.226 535.349 405.196 538.599 404.796C540.493 404.565 546.778 401.624 544.56 398.853C543.651 397.729 540.37 398.16 539.076 397.945C536.812 397.56 534.548 396.882 532.207 396.544Z" fill="#5B97CC"/>
<path d="M558.824 278.521C558.826 267.288 555.212 256.353 548.517 247.33C541.822 238.308 532.401 231.678 521.646 228.419C510.891 225.16 499.372 225.446 488.791 229.234C478.211 233.022 469.131 240.111 462.892 249.454C456.653 258.798 453.587 269.899 454.146 281.118C454.705 292.337 458.861 303.078 465.998 311.755C473.136 320.432 482.876 326.584 493.781 329.302C504.686 332.02 516.176 331.159 526.554 326.848L542.897 345.8L538.491 319.905C544.823 315.022 549.949 308.752 553.474 301.577C556.999 294.402 558.829 286.515 558.824 278.521V278.521Z" fill="white"/>
<path d="M922.034 323.061C922.037 313.346 925.166 303.889 930.96 296.088C936.753 288.288 944.903 282.556 954.205 279.74C963.508 276.924 973.47 277.174 982.62 280.452C991.77 283.73 999.622 289.862 1005.02 297.943C1010.41 306.024 1013.06 315.625 1012.58 325.328C1012.1 335.031 1008.5 344.321 1002.33 351.826C996.159 359.331 987.736 364.653 978.305 367.005C968.875 369.358 958.937 368.616 949.96 364.89L935.836 381.287L939.64 358.886C934.158 354.66 929.719 349.232 926.667 343.021C923.614 336.81 922.029 329.981 922.034 323.061V323.061Z" fill="#95DCFF"/>
<path d="M529.356 270.085V274.549H517.342V285.326H512.059V267.452H517.034V261.971H512.012V257.737H517.034V252.672H512.875V256.906H507.391V252.672H501.107V257.106H494.822V265.02H495.022V268.268H494.822V280.43H490.848V268.268H478.094V276.166H481.837V280.785H478.094V286.05H482.253V292.331H490.848V286.173H495.3V292.331H501.184V297.196H495.223V310.76H502.524V305.756H509.024V310.806H518.574V297.242H507.622V291.084H501.923V286.096H512.705V291.577H518.574V285.896H523.026V291.577H530.727V286.712H536.257V270.085H529.356ZM501.168 285.295H496.547V280.677H501.168V285.295ZM506.251 280.015H501.923V268.868H506.251V280.015ZM507.068 261.971H501.523V257.737H506.991L507.068 261.971ZM507.468 263.018H512.952V267.252H507.468V263.018ZM529.095 285.573H524.027V280.43H529.095V285.573Z" fill="#264456"/>
<path d="M491.834 297.196H478.603V310.421H491.834V297.196Z" fill="#264456"/>
<path d="M535.934 297.196H522.703V310.421H535.934V297.196Z" fill="#264456"/>
<path d="M491.834 251.995H478.603V265.22H491.834V251.995Z" fill="#264456"/>
<path d="M535.934 251.995H522.703V265.22H535.934V251.995Z" fill="#264456"/>
<path d="M773.751 460.331V469.047H750.426V490.051H740.15V455.113H749.861V444.393H740.074V436.112H749.861V426.3H741.658V434.581H731.005V426.3H718.748V434.978H706.492V450.443H706.888V456.776H706.492V480.56H698.591V456.682H673.928V472.147H681.244V481.26H673.928V491.564H681.979V503.815H698.591V491.923H707.284V503.815H718.748V513.268H707.284V539.737H721.577V529.868H734.229V539.737H752.802V513.268H731.457V501.376H720.427V491.469H741.375L741.489 502.17H752.802V491.072H761.495V502.17H776.58V492.717H787.365V460.331H773.751ZM718.805 490.051H709.716V480.939H718.805V490.051ZM728.685 479.748H720.389V457.873H728.685V479.748ZM730.269 444.468H719.691V436.188H730.364L730.269 444.468ZM731.061 446.491H741.734V454.659H731.005L731.061 446.491ZM773.355 490.448H763.475V480.542H773.355V490.448Z" fill="#264456"/>
<path d="M700.197 512.273H673.928V538.543H700.197V512.273Z" fill="#264456"/>
<path d="M786.171 512.273H759.901V538.543H786.171V512.273Z" fill="#264456"/>
<path d="M700.197 425.106H673.928V450.181H700.197V425.106Z" fill="#264456"/>
<path d="M786.171 425.106H759.901V450.181H786.171V425.106Z" fill="#264456"/>
<path fill-rule="evenodd" clip-rule="evenodd" d="M983.6 353L969.92 296H963.08L949.4 353H956.81L966.5 310.869L976.19 353H983.6Z" fill="#F29C1F"/>
<path fill-rule="evenodd" clip-rule="evenodd" d="M938 301.7H995V337.04H938V301.7Z" fill="white"/>
<path d="M943.7 330.77L951.124 323.346L954.53 326.21L964.213 317.083L969.35 322.22L977.9 313.67L980.75 316.52L989.3 307.97" stroke="#E64C3C" stroke-width="4" stroke-miterlimit="10" stroke-linecap="round" stroke-linejoin="round"/>
<path fill-rule="evenodd" clip-rule="evenodd" d="M979.769 337.04H972.519L972.781 338.18H980.043L979.769 337.04ZM952.957 338.18H960.218L960.481 337.04H953.23L952.957 338.18Z" fill="#E57E25"/>
</svg>
