<svg xmlns="http://www.w3.org/2000/svg" viewBox="0 0 638.73 499.98"><defs><style>.cls-1{fill:#ffd788;}.cls-2{fill:#fff;}.cls-3{fill:#ffb612;}.cls-4{fill:#fc7800;}.cls-5{fill:#d32f56;}.cls-6{fill:#8e0e33;}.cls-7{fill:#6f30a5;}.cls-8{fill:#80a525;}.cls-9{fill:#067f48;}.cls-10{fill:#002923;}.cls-11{fill:#fcf4be;}.cls-12{opacity:0.3;}.cls-13{fill:#3c495e;}.cls-14{fill:#1b1b28;}.cls-15{fill:#e7ac8d;}.cls-16{fill:#2c394c;}.cls-17{fill:#bc1e4b;}.cls-18{fill:#9e1b47;}.cls-19{fill:#cc8769;}.cls-20{fill:#5b3d31;}.cls-21{fill:#9e6c52;}.cls-22{fill:#ba5e20;}.cls-23{fill:#845039;}.cls-24{fill:#8e4136;}.cls-25{fill:#c16b5b;}</style></defs><title>main</title><g id="BACKGROUND"><path class="cls-1" d="M566.72,496.08c-1.85,35.12-89.07-182-94.08-40a23.14,23.14,0,0,1-26.5,22.12L137,432.42C28.39,415.34-118.68,430.27-57.7,214.19L-5.14,19.09A25.78,25.78,0,0,1,19.77,0h547Z" transform="translate(72.01)"/></g><g id="OBJECTS"><ellipse class="cls-2" cx="322.01" cy="232.82" rx="209.37" ry="202.45"/><ellipse class="cls-3" cx="322.01" cy="437.27" rx="254.94" ry="14.98"/><path class="cls-4" d="M323.54,247.81a451.66,451.66,0,0,1,39.17-116.15q7.71-15.5,16.59-30.38c.54-.9-.95-1.58-1.48-.68a452.9,452.9,0,0,0-48.08,113.2q-4.56,16.71-7.81,33.73A.82.82,0,0,0,323.54,247.81Z" transform="translate(72.01)"/><path class="cls-4" d="M367.49,119.43c1.26-10.45,6.63-20.06,13.51-28s15.26-14.48,23.57-20.94A108.94,108.94,0,0,1,367.49,119.43Z" transform="translate(72.01)"/><path class="cls-3" d="M355.26,143.53c4-8.47,11.32-15.05,19.4-19.8s17-7.87,25.87-11A97,97,0,0,1,355.26,143.53Z" transform="translate(72.01)"/><path class="cls-4" d="M358.17,140.72c-6.53-6.73-10.16-15.85-11.81-25.08S344.91,97,345.11,87.57A97,97,0,0,1,358.17,140.72Z" transform="translate(72.01)"/><path class="cls-3" d="M348.19,161.56c-8.66-4.32-15.33-11.95-20.1-20.37s-7.82-17.69-10.85-26.88A100.15,100.15,0,0,1,348.19,161.56Z" transform="translate(72.01)"/><path class="cls-3" d="M341.93,179.41c-9.89-3.65-18-11.11-24.17-19.66s-10.56-18.22-14.92-27.82A109.07,109.07,0,0,1,341.93,179.41Z" transform="translate(72.01)"/><path class="cls-3" d="M335.51,199.94C324.3,197,314.63,189.67,307,181s-13.48-18.84-19.27-28.89A119.94,119.94,0,0,1,335.51,199.94Z" transform="translate(72.01)"/><path class="cls-3" d="M331.22,214.63c-10.47-1.86-19.86-7.83-27.51-15.23s-13.74-16.21-19.78-25A110,110,0,0,1,331.22,214.63Z" transform="translate(72.01)"/><path class="cls-3" d="M326.81,228.63c-8.63-.56-16.75-4.53-23.6-9.81S290.65,207,285,200.43A89.53,89.53,0,0,1,326.81,228.63Z" transform="translate(72.01)"/><path class="cls-4" d="M348,162.56c5.46-7.63,13.77-12.84,22.56-16.12s18.12-4.78,27.39-6.27A97.08,97.08,0,0,1,348,162.56Z" transform="translate(72.01)"/><path class="cls-3" d="M341.49,178.79c7.23-6.57,16.84-10,26.5-11.45s19.49-.88,29.24-.35A101.13,101.13,0,0,1,341.49,178.79Z" transform="translate(72.01)"/><path class="cls-4" d="M334.56,200c9-8.15,20.91-12.47,32.91-14.21s24.2-1.09,36.31-.44A125.53,125.53,0,0,1,334.56,200Z" transform="translate(72.01)"/><path class="cls-3" d="M329.64,213.51c8.9-5.7,19.78-7.68,30.35-7.44s21,2.57,31.28,4.88A109.24,109.24,0,0,1,329.64,213.51Z" transform="translate(72.01)"/><path class="cls-4" d="M327.35,227.24c7.66-2.63,16.12-2.13,23.94,0s15.15,5.72,22.4,9.32A83.84,83.84,0,0,1,327.35,227.24Z" transform="translate(72.01)"/><path class="cls-5" d="M315.87,379.53c-1.67-37.85-1-77.86,18.19-110.53,15.55-26.52,41.39-45,65-64.69s46.64-43.3,52.75-73.42c8.33,25.16,9.9,52.43-.94,76.61-7.57,16.88-20.53,30.76-34.45,42.94s-29,23-42.41,35.75C347.49,311.4,325.33,344.2,315.87,379.53Z" transform="translate(72.01)"/><path class="cls-6" d="M453.35,149.43c.15-1.35-2-1.41-2.1-.07-1.72,15.71-9.13,30.13-18.63,42.54a51.37,51.37,0,0,1,.37-11.69,1.05,1.05,0,0,0-1-1.09,1.08,1.08,0,0,0-1.08,1,52.5,52.5,0,0,0-.16,14.11l0,0a210.09,210.09,0,0,1-21.52,22.43,51.5,51.5,0,0,1,.39-15.33c.23-1.32-1.78-1.95-2-.62a55.2,55.2,0,0,0-.27,17.68c-4.18,3.82-8.41,7.58-12.59,11.36l-1.67,1.53a73.07,73.07,0,0,1-.92-13.05,1.05,1.05,0,0,0-2.1-.06A75.83,75.83,0,0,0,391.23,233c-6.56,6-13,12.2-19.15,18.62a49.86,49.86,0,0,1-.2-14.33c.17-1.34-1.93-1.4-2.11-.06a51.61,51.61,0,0,0,.51,16.31c-3.82,4-7.54,8.15-11.12,12.41-1.31,1.55-2.6,3.13-3.87,4.72a34.82,34.82,0,0,1-2.46-14.06,1.06,1.06,0,0,0-2.11-.06,37.45,37.45,0,0,0,3.08,16c-4.28,5.45-8.32,11.08-12.06,16.91a46.14,46.14,0,0,1-2.24-15.3,1.05,1.05,0,0,0-2.1-.07,47.8,47.8,0,0,0,2.9,17.61,177.23,177.23,0,0,0-9.05,16.37c-7.28,15.07-12.36,31.26-14,47.95q-.31,3.15-.46,6.33a1.06,1.06,0,0,0,2.11.06c.79-17,5.3-33.67,12.26-49.19,2.14-4.77,4.54-9.42,7.12-14,0,0,.08,0,.13,0a39.57,39.57,0,0,0,17.83-2.88c1.25-.52.24-2.36-1-1.85a37.2,37.2,0,0,1-15.81,2.67c.87-1.5,1.77-3,2.69-4.44a.81.81,0,0,0,.46-.75q4.19-6.64,8.87-13a.66.66,0,0,0,.2.06,68,68,0,0,0,22.66-1.37,1.06,1.06,0,0,0-.5-2.05,66.22,66.22,0,0,1-20.91,1.42c1.74-2.29,3.51-4.57,5.32-6.8q4.44-5.43,9.16-10.61a94.24,94.24,0,0,0,30.39-4.16c1.29-.4.8-2.45-.5-2a92.45,92.45,0,0,1-28,4.11c6.19-6.7,12.67-13.13,19.32-19.36a1.09,1.09,0,0,0,.43.12,84.49,84.49,0,0,0,35.76-4.8c1.26-.46.78-2.51-.5-2.05a82.84,82.84,0,0,1-33.67,4.85l2.89-2.67c6.6-6,13.35-11.94,19.87-18.08a52.49,52.49,0,0,0,24.07-7.18c1.16-.68.16-2.54-1-1.85a50.27,50.27,0,0,1-20.67,6.74,198.46,198.46,0,0,0,15.05-15.91q3.21-3.85,6.14-8a1.52,1.52,0,0,0,.67.09,28.09,28.09,0,0,0,12.3-4.55,1.09,1.09,0,0,0,.42-1.43,1.06,1.06,0,0,0-1.43-.42,26.64,26.64,0,0,1-10.46,4.15c6.62-9.75,11.78-20.52,14-32.12Q453,152.35,453.35,149.43Z" transform="translate(72.01)"/><path class="cls-7" d="M326.47,356.85c7.41-15.8,12.62-33.1,24.11-46.24,1.72-2,4-4,6.69-3.2a5.1,5.1,0,0,1,3.32,3.58c.85,2.93-.21,5.8-1.26,8.53q-7.32,19-15.47,37.66c-1.38,3.17,3.3,5.38,4.83,2.27.11-.23.22-.46.32-.69l25.67-55.23c2.66-5.73,5.61-11.81,11.73-14.36a6.4,6.4,0,0,1,6.08.47c3.71,2.54,2.43,7.63.88,11.51q-8.36,20.93-18.66,41c-1.1,2.14-2.25,4.44-2,6.84s2.62,4.7,4.91,4c7.06-9.47,11.68-20.49,17.12-31s12-20.83,21.78-27.51c1.71-1.17,3.74-2.28,5.83-1.14a4.76,4.76,0,0,1,2.31,3.67c.34,2.78-1.06,5.26-2.42,7.6q-7.42,12.8-14.87,25.59c-.51.89-1.05,1.88-.47,2.91a2.34,2.34,0,0,0,2.47,1c1.72-.3,2.76-1.73,3.73-3.06A132.15,132.15,0,0,1,434.56,308a7.14,7.14,0,0,1,6.1-1.66c4.64,1,4.89,6.09,3.73,9.87-3.93,12.81-17.7,19.79-29.83,24.86a4.72,4.72,0,0,0-3,3.83c-.3,3.1,2.84,4.29,5.46,4.43,5.84.32,11.64-2,17.5-.34a9.52,9.52,0,0,1,4.75,3.07c3.86,4.75.65,9.79-3.54,11.67-2.88,1.3-6.16,1.38-9.32,1.27a89.18,89.18,0,0,1-23.59-4.08c-2-.65-4.16-1.38-6.28-.55a3.31,3.31,0,0,0-2.13,2.48c-.39,2.48,2.27,3.91,4.5,4.73l23.51,8.65a11.57,11.57,0,0,1,3.75,2.18c5.59,5,1.27,10.55-3.5,11.57-3.31.71-6.73-.21-10-1.18a305.06,305.06,0,0,1-40.48-15.35,5.19,5.19,0,0,0-2.93-.47c-3.23.51-3.19,3.66-1.79,5.43a10.12,10.12,0,0,0,3.91,2.61,228,228,0,0,0,36.74,13.14,8.29,8.29,0,0,1,4.91,3.44c3,4.62-.87,8.48-4.81,9.86-6.74,2.35-14.13,0-20.81-2.47a345.59,345.59,0,0,1-41.34-18.68,2.67,2.67,0,0,0-3.76,3.27,9.51,9.51,0,0,0,2,3.24c2.08,2.27,5,3.62,7.75,4.91l20.52,9.48c2.84,1.31,5.79,2.7,7.46,5.51a5.88,5.88,0,0,1,.61,5.07c-1.47,3.85-6.41,4-10.24,3.2-12.23-2.58-22.87-9.85-34.34-14.84s-22.27-6.16-33.93-2c-1.92.69-5.5,2.37-6.72-.44-.88-2.05,3.91-5.75,5.46-7.55a171.24,171.24,0,0,0,25.56-39.34Z" transform="translate(72.01)"/><path class="cls-3" d="M432.94,356.63a122.74,122.74,0,0,1-37.1-6.1q10-6.57,19.37-13.92a301.64,301.64,0,0,0,26.9-23.75c.72-.71-.48-1.71-1.19-1a299,299,0,0,1-49.8,39.89l-.78.49a238.09,238.09,0,0,1,19.75-39q3.5-5.57,7.3-10.92c.58-.82-.61-1.83-1.19-1a239.57,239.57,0,0,0-22.85,39.81q-2.67,5.91-5,11.95a.79.79,0,0,0,0,.45c-8,5-16.28,9.66-24.75,13.87-2,1-4,1.94-6,2.9q10.67-29.65,23.51-58.45,3.74-8.35,7.65-16.63a.78.78,0,0,0-1.42-.65q-13.73,29.06-25.23,59.09-3.27,8.55-6.36,17.17a1,1,0,0,0,0,.37c-7.05,3.31-14.17,6.47-21.22,9.78q-4.57,2.15-9.09,4.4a333.17,333.17,0,0,1,21.72-55.74q3.81-7.64,8-15.08c.49-.87-.93-1.52-1.42-.65a333.43,333.43,0,0,0-24.91,55.57q-2.78,8.08-5.12,16.3a.65.65,0,0,0,0,.46,182.48,182.48,0,0,0-20.46,11.93c-.83.56.07,1.84.89,1.27a167.3,167.3,0,0,1,15.35-9.23L360,409.25l11.64,5.48a.78.78,0,0,0,.65-1.42l-40.56-19.08-10.58-5c8.27-4.37,16.81-8.24,25.34-12.14h0A334.07,334.07,0,0,0,392,396.28q6.5,2.18,13.08,4.1c1,.28,1.21-1.26.25-1.54a333.28,333.28,0,0,1-45.66-17.06c-3.82-1.76-7.59-3.59-11.34-5.49,4.34-2,8.68-4,13-6.07q5.66-2.75,11.18-5.72s.05.05.08.06a246.15,246.15,0,0,0,35.55,15.95q5.26,1.89,10.63,3.52c.94.29,1.61-1.12.65-1.41a248.16,248.16,0,0,1-36.24-14.32q-4.58-2.25-9.05-4.68,10.28-5.61,20.11-12a125.28,125.28,0,0,0,38.91,6.57C434.09,358.19,433.93,356.64,432.94,356.63Z" transform="translate(72.01)"/><path class="cls-5" d="M220.15,416.55c-17.29-21.09-36.88-42.22-62.85-50.53-21.08-6.75-43.81-4.24-65.93-3.48s-45.81-.81-63.55-14c7.62,17.5,19.87,32.88,37.31,40.64,12.16,5.41,25.78,6.63,39.09,6.47s26.61-1.6,39.92-1.2C170.47,395.21,198.1,402.15,220.15,416.55Z" transform="translate(72.01)"/><path class="cls-6" d="M35.88,359.21c-.72-.66.38-1.7,1.1-1,8.47,7.6,19.36,11.77,30.43,13.86a37.28,37.28,0,0,0-5.82-6.09.76.76,0,0,1,0-1.07.77.77,0,0,1,1.07,0,37.54,37.54,0,0,1,6.87,7.48,0,0,0,0,0,0,0,151.34,151.34,0,0,0,22.32,1.7,37.57,37.57,0,0,0-7.58-8c-.76-.6,0-1.9.78-1.3a40.06,40.06,0,0,1,8.64,9.36c4.07,0,8.15,0,12.21,0l1.62,0a51.94,51.94,0,0,0-5.77-7.44.76.76,0,0,1,1.1-1,54.68,54.68,0,0,1,6.48,8.5c6.41.08,12.83.31,19.22.79a35.74,35.74,0,0,0-6.78-7.79c-.74-.63.37-1.67,1.1-1a37.11,37.11,0,0,1,7.57,9c4,.33,8,.75,11.92,1.31,1.45.21,2.9.43,4.34.67a25.31,25.31,0,0,0-5.43-8.72.76.76,0,0,1,1.1-1,26.85,26.85,0,0,1,6,10.06c4.91.87,9.79,1.95,14.59,3.28a33.12,33.12,0,0,0-6.15-9.28c-.67-.71.43-1.76,1.1-1.05a34.69,34.69,0,0,1,6.9,10.84,125.1,125.1,0,0,1,12.72,4.43,102.85,102.85,0,0,1,30.54,19q1.68,1.55,3.29,3.18c.68.69-.42,1.74-1.1,1a98.05,98.05,0,0,0-30.21-20.48c-3.44-1.54-7-2.87-10.53-4.07,0,0,0,.05-.05.08a28.61,28.61,0,0,1-10.95,7c-.92.33-1.26-1.15-.35-1.48a26.6,26.6,0,0,0,9.76-6.16c-1.18-.38-2.38-.74-3.57-1.09a.55.55,0,0,1-.61-.18q-5.44-1.55-11-2.68s0,.08-.08.13A49.4,49.4,0,0,1,140,390.09a.76.76,0,0,1-.72-1.34,47.89,47.89,0,0,0,11.9-9.29c-2-.39-4.08-.76-6.12-1.09-3.33-.52-6.66-.94-10-1.29a67.7,67.7,0,0,1-18.3,12.37c-.88.41-1.6-.93-.71-1.33a66.75,66.75,0,0,0,17-11.24c-6.54-.62-13.1-1-19.66-1.1a1,1,0,0,1-.17.27,60.79,60.79,0,0,1-21.49,14.6c-.89.36-1.62-1-.71-1.33a59.91,59.91,0,0,0,20.38-13.58l-2.83,0c-6.43-.07-12.89,0-19.34-.16a37.74,37.74,0,0,1-16.35,7.72c-1,.19-1.31-1.28-.35-1.48a36.25,36.25,0,0,0,14.32-6.31,140,140,0,0,1-15.71-1.31c-2.38-.35-4.77-.79-7.13-1.32a1,1,0,0,1-.31.37,20.24,20.24,0,0,1-8.79,3.47.76.76,0,1,1-.34-1.48,19.19,19.19,0,0,0,7.6-2.79,62.56,62.56,0,0,1-22.94-10.5C38,361.05,36.94,360.15,35.88,359.21Z" transform="translate(72.01)"/><path class="cls-4" d="M188.57,374.78a550.93,550.93,0,0,1-52.63-53.45,552.91,552.91,0,0,1-44.79-59.95Q79.68,243.65,69.6,225.07c-.61-1.13-2.24,0-1.64,1.13a551.9,551.9,0,0,0,40.34,63.55,554.66,554.66,0,0,0,48.46,57.35q14.7,15.18,30.52,29.19C188.24,377.14,189.53,375.63,188.57,374.78Z" transform="translate(72.01)"/><path class="cls-4" d="M81.29,248.75c-10.18-7.82-16.91-19.44-21-31.61s-5.69-25-7.29-37.75A132.75,132.75,0,0,1,81.29,248.75Z" transform="translate(72.01)"/><path class="cls-3" d="M99,276.59c-6.36-9.51-8.73-21.24-8.69-32.68S92.6,221.17,94.89,210A118.4,118.4,0,0,1,99,276.59Z" transform="translate(72.01)"/><path class="cls-3" d="M97.82,271.79c-11.13,2.65-22.95.78-33.66-3.24s-20.51-10.11-30.22-16.16A118.39,118.39,0,0,1,97.82,271.79Z" transform="translate(72.01)"/><path class="cls-4" d="M113.46,295.22c-9.92,6.4-22.07,8.65-33.88,8.41s-23.42-2.81-34.95-5.36A122.22,122.22,0,0,1,113.46,295.22Z" transform="translate(72.01)"/><path class="cls-3" d="M128.28,312.91c-10,8.1-22.86,12-35.67,13.1s-25.68-.26-38.46-1.66A133,133,0,0,1,128.28,312.91Z" transform="translate(72.01)"/><path class="cls-4" d="M145.83,332.42c-10.08,9.92-23.78,15.5-37.68,18.09s-28.16,2.41-42.3,2.22A146.43,146.43,0,0,1,145.83,332.42Z" transform="translate(72.01)"/><path class="cls-3" d="M158.56,346.06c-8.47,9.83-20.58,16-33.1,19.38S99.9,369.75,87,370.63A134.34,134.34,0,0,1,158.56,346.06Z" transform="translate(72.01)"/><path class="cls-4" d="M170.5,359.41c-6,8.7-15.18,14.75-25,18.64s-20.26,5.79-30.63,7.68A109.05,109.05,0,0,1,170.5,359.41Z" transform="translate(72.01)"/><path class="cls-3" d="M114.39,296.05c-4.6-10.48-4.89-22.44-2.86-33.7s6.27-22,10.47-32.62A118.36,118.36,0,0,1,114.39,296.05Z" transform="translate(72.01)"/><path class="cls-3" d="M127.36,313c-2.39-11.67,0-23.9,4.5-34.91s11.21-21,17.82-30.9A123.15,123.15,0,0,1,127.36,313Z" transform="translate(72.01)"/><path class="cls-4" d="M145.28,333.45c-3-14.49-.06-29.69,5.59-43.36S164.79,264,173,251.72A153,153,0,0,1,145.28,333.45Z" transform="translate(72.01)"/><path class="cls-3" d="M156.41,347c-.45-12.88,4.25-25.53,11.09-36.46s15.74-20.39,24.59-29.77A133.45,133.45,0,0,1,156.41,347Z" transform="translate(72.01)"/><path class="cls-3" d="M169.38,358c2-9.68,7.8-18.24,14.87-25.14s15.43-12.32,23.72-17.69A102.3,102.3,0,0,1,169.38,358Z" transform="translate(72.01)"/><path class="cls-8" d="M188,197.08c6.81-16,16.18-31.33,18.3-48.58.31-2.58.31-5.61-2.07-7.09a5.1,5.1,0,0,0-4.87-.09c-2.73,1.31-4.16,4-5.49,6.6q-9.22,18-17.66,36.48c-1.43,3.13-6.18,1.12-4.89-2.07.1-.24.2-.47.29-.7l23.94-55.71c2.49-5.78,5-12,2.86-18.24a6.33,6.33,0,0,0-4.39-4.19c-4.34-1.07-7.27,3.25-9.12,7q-10,20.1-18,41.06c-.86,2.24-1.8,4.62-3.75,6s-5.23,1.18-6.2-1c2.34-11.53,7.44-22.27,11.61-33.27s7.47-22.75,5.95-34.42c-.26-2-.8-4.29-3-5.08a4.74,4.74,0,0,0-4.25.73c-2.29,1.59-3.2,4.27-4,6.83l-9.12,28c-.31,1-.69,2-1.83,2.27a2.33,2.33,0,0,1-2.42-1.14c-.92-1.47-.55-3.19-.21-4.8a131.5,131.5,0,0,0,2.88-31.22,7.12,7.12,0,0,0-2.83-5.63c-3.83-2.76-7.76.42-9.79,3.79C133,94,137,108.9,141.27,121.26a4.74,4.74,0,0,1-.88,4.74c-2.1,2.28-5.07.74-6.91-1.11-4.12-4.12-6.22-10-11.37-13.21a9.46,9.46,0,0,0-5.44-1.49c-6.08.29-7.68,6-6.3,10.38.95,3,3.07,5.48,5.25,7.76a88.15,88.15,0,0,0,18.69,14.78c1.83,1.08,3.78,2.17,4.58,4.3a3.31,3.31,0,0,1-.43,3.22c-1.58,1.94-4.41.91-6.5-.19l-22-11.7a11.76,11.76,0,0,0-4.11-1.34c-7.39-.84-8.67,6.07-6.26,10.29,1.67,2.92,4.62,4.84,7.49,6.6a303.32,303.32,0,0,0,38.26,19.84,5.14,5.14,0,0,1,2.3,1.87c1.77,2.73-.6,4.79-2.84,4.92a10,10,0,0,1-4.53-1.16,226.14,226.14,0,0,1-34.14-18.53,8.22,8.22,0,0,0-5.81-1.36c-5.41.86-5.71,6.28-4.12,10.12,2.73,6.56,9.35,10.51,15.65,13.8a345.44,345.44,0,0,0,41.3,18.26,2.66,2.66,0,0,1,.07,5,9.63,9.63,0,0,1-3.71.7c-3.06,0-6-1.28-8.78-2.49l-20.65-8.93c-2.87-1.24-5.86-2.5-9-1.88a5.87,5.87,0,0,0-4.16,2.92c-1.88,3.64,1.28,7.42,4.41,9.72,10,7.35,22.51,10.42,33.82,15.62s19.35,12.43,24,23.86c.76,1.88,1.89,5.66,4.78,4.69,2.11-.71,1.68-6.72,2-9.06A171.17,171.17,0,0,1,188,197.08Z" transform="translate(72.01)"/><path class="cls-9" d="M117.52,118a122.25,122.25,0,0,0,29.15,23.46q-1.74-11.73-2.53-23.6a300,300,0,0,1-.25-35.73c.06-1,1.59-.77,1.54.22a298,298,0,0,0,3.47,63.43c0,.3.11.6.16.9a236.65,236.65,0,0,0,15.83-40.56c1.21-4.19,2.28-8.41,3.25-12.66.22-1,1.76-.76,1.54.21A238,238,0,0,1,155.32,137q-2.59,5.91-5.53,11.66a.76.76,0,0,1-.32.32c1.62,9.28,3.65,18.48,6.15,27.57.59,2.13,1.21,4.25,1.83,6.37q14.91-27.6,27.74-56.25,3.72-8.31,7.26-16.71a.78.78,0,0,1,1.43.62q-12.44,29.47-27.08,57.94-4.17,8.11-8.52,16.12a.72.72,0,0,1-.25.27c2.23,7.43,4.61,14.82,6.84,22.24q1.44,4.82,2.77,9.66a331.08,331.08,0,0,0,26.92-53.12q3.15-7.89,5.88-15.94c.32-.94,1.74-.32,1.42.62a332.06,332.06,0,0,1-24.68,55.38q-4.16,7.41-8.69,14.61a.63.63,0,0,1-.36.28,185.51,185.51,0,0,1,4.74,23.1.78.78,0,0,1-1.55.19A166.52,166.52,0,0,0,168,224.42L126.91,207l-11.79-5a.78.78,0,0,1,.62-1.42L156.82,218l10.72,4.54c-2.26-9-5.06-17.94-7.83-26.85h0a331.6,331.6,0,0,1-44.4-21q-5.92-3.36-11.73-7c-.84-.52.14-1.73,1-1.21a330.34,330.34,0,0,0,43,22.55q5.76,2.49,11.6,4.77c-1.41-4.55-2.8-9.09-4.1-13.65q-1.71-6-3.18-12.09s-.06,0-.1,0a245.47,245.47,0,0,1-35.43-15.78q-4.91-2.66-9.67-5.54c-.84-.51-.24-1.94.62-1.43a246.77,246.77,0,0,0,34.67,17.38c3.14,1.27,6.31,2.46,9.49,3.6q-2.67-11.34-4.45-22.88a124.52,124.52,0,0,1-30.7-24.5C115.59,118.14,116.85,117.23,117.52,118Z" transform="translate(72.01)"/><path class="cls-10" d="M161.06,195.49h2c.59,0,1.08-.71,1.08-1.59V171.33c0-.87-.49-1.58-1.08-1.58h-2c-.59,0-1.08.71-1.08,1.58V193.9C160,194.78,160.47,195.49,161.06,195.49Z" transform="translate(72.01)"/><path class="cls-10" d="M161.06,161.4h2c.59,0,1.08-.71,1.08-1.58V137.24c0-.87-.49-1.58-1.08-1.58h-2c-.59,0-1.08.71-1.08,1.58v22.58C160,160.69,160.47,161.4,161.06,161.4Z" transform="translate(72.01)"/><path class="cls-10" d="M337,161.4h2c.59,0,1.08-.71,1.08-1.58V137.24c0-.87-.49-1.58-1.08-1.58h-2c-.59,0-1.08.71-1.08,1.58v22.58C335.89,160.69,336.38,161.4,337,161.4Z" transform="translate(72.01)"/><rect class="cls-10" x="234.05" y="82.25" width="175.91" height="355.02" rx="24.57"/><path class="cls-11" d="M332,112.67V406.85a19.43,19.43,0,0,1-19.43,19.43H187.42A19.43,19.43,0,0,1,168,406.85V112.67a19.43,19.43,0,0,1,19.43-19.43H312.58A19.43,19.43,0,0,1,332,112.67Z" transform="translate(72.01)"/><path class="cls-10" d="M272.62,229.75h4.81c.08,1.65.16,3.17.26,5h14.94l-.07-.08v10.1h10.09l-.07-.07v10.1h5.08l-.07-.08c0,1.69,0,3.39,0,5.09l.09-.08h-4.86v5.09h4.86l-.09-.08v10.06h5.06v5H272.55v-5.11h10v-4.94h10.18v4.91h4.75V249.91h-5v9.92h-4.78c-.09,1.7-.18,3.22-.27,5h-4.83v5H257.52v10h-10l0-5h4.87V270h-4.79v4.86h-5.05v5h-5l0-10.06h5v-5h5v-5h5.09v4.86h9.94v-4.87h4.84V244.57H252.4v-4.93h-5v-5h4.87v-4.78h-4.79v4.86h-5.09v-5.17h-5V219.8l-4.75-.26V214.7h9.87l-.08-.08v9.89h5.15v-4.89h4.95v4.88h4.78v-4.8h-4.86v-5h10.11l-.08-.08v5.13h5.16v5h4.94l-.08-.08c.06,1.73.13,3.46.19,5.18h-5.13v4.93h-5.16v-4.92h-4.73v9.7h9.81v-4.86h5.13Zm14.85,10.17H272.68v14.67h14.79Z" transform="translate(72.01)"/><path class="cls-10" d="M222.44,154.52V189.6H187.36V154.52Zm-5.14,5.17H192.55v24.7H217.3Z" transform="translate(72.01)"/><path class="cls-10" d="M312.64,189.6H277.56V154.52h35.08Zm-29.91-29.93v24.74h24.69V159.67Z" transform="translate(72.01)"/><path class="cls-10" d="M187.36,244.72h35.08V279.8H187.36Zm29.88,29.94V250H192.51v24.71Z" transform="translate(72.01)"/><path class="cls-10" d="M267.54,154.52v9.88l4.87.28v9.78h-4.74c-.09,1.8-.16,3.33-.24,5h-4.79V164.73h-5v4.61h-5.15V159.5h10.07v-5Z" transform="translate(72.01)"/><path class="cls-10" d="M292.63,234.74v-4.86H307.5v4.82h5.14v10l-10.06,0,.07.07v-5.13h-5.16v-5h-4.93Z" transform="translate(72.01)"/><path class="cls-10" d="M242.48,154.52v4.94h-4.87c-.09,1.78-.17,3.3-.26,4.94h-4.73v-4.74h-5.17v-5.14Z" transform="translate(72.01)"/><path class="cls-10" d="M312.64,199.62h-4.83v-5h4.83Z" transform="translate(72.01)"/><path class="cls-10" d="M192.41,219.63l-5,0v-5l5,0-.08-.08v5.09Z" transform="translate(72.01)"/><path class="cls-10" d="M252.51,154.52l0,5h-5v-5Z" transform="translate(72.01)"/><path class="cls-10" d="M307.66,254.79v-5.06h5v5l-5.05,0Z" transform="translate(72.01)"/><path class="cls-10" d="M192.41,209.69l-5,0v-5h5Z" transform="translate(72.01)"/><path class="cls-10" d="M307.58,259.8l5.06,0v5l-5.06,0,.09.08v-5.09Z" transform="translate(72.01)"/><path class="cls-10" d="M187.36,194.61h4.83v5h-4.83Z" transform="translate(72.01)"/><path class="cls-10" d="M227.45,279.8V275h5v4.82Z" transform="translate(72.01)"/><path class="cls-10" d="M262.53,279.8V275h5v4.82Z" transform="translate(72.01)"/><path class="cls-10" d="M237.51,199.66h-9.94v19.81h-10.1v-4.85l-.08.08h4.86v-5.09h-4.86l.08.08V204.6l-.08.07h4.86v-5.08h-4.86l.08.07v-5h9.95v-25h4.92v4.92h5.17l-.08-.08v5.08l.08-.08h-4.86v10.1h4.86l-.08-.08C237.46,192.93,237.48,196.3,237.51,199.66Z" transform="translate(72.01)"/><path class="cls-10" d="M207.44,219.62h-5v14.92h-5V224.8h-5v-5.17l-.08.08h5.09v-5.09l-.07.08h5.09V204.6l-.08.08h5.08l-.07-.08v5.09h10.1l-.08-.08v5.09l.08-.08H207.36v5.08Z" transform="translate(72.01)"/><path class="cls-10" d="M287.62,219.63h-5v5H272.51l.08.08v-10.1h-10.1l.08.08v-5.16h5v-4.75h10v10h9.93v5Z" transform="translate(72.01)"/><path class="cls-10" d="M272.51,194.66h25.05v5l.08-.07h-5.18v5.14h-4.94v4.7h-5v-9.86h-9.89v-5Z" transform="translate(72.01)"/><path class="cls-10" d="M297.56,199.66h5v9.84l5,.26v4.75h-4.76v5.12H292.56l.07.08v-5.17h5V199.59Z" transform="translate(72.01)"/><path class="cls-10" d="M252.47,189.65h5.08l-.07-.09v5.09h5.09l-.08-.08v5.13H252.4v4.9h-4.94l.08.07v-9.95h5v-5.15Z" transform="translate(72.01)"/><path class="cls-10" d="M207.44,204.68v-9.86h4.89v4.84h5.14l-.08-.07v5.08l.08-.07h-10.1Z" transform="translate(72.01)"/><path class="cls-10" d="M262.49,189.65h4.95v-4.88h5.07v9.89l.08-.09h-10.1l.08.08v-5.09Z" transform="translate(72.01)"/><path class="cls-10" d="M237.43,179.62h4.87v9.94h-4.87l.08.08v-10.1Z" transform="translate(72.01)"/><path class="cls-10" d="M242.52,214.7l-.08-10.1,5.1.07-.08-.07v10h-5Z" transform="translate(72.01)"/><path class="cls-10" d="M202.44,204.6h-4.86v-4.79h4.78v4.87Z" transform="translate(72.01)"/><path class="cls-10" d="M292.56,219.63v4.86h-4.94v-4.86l-.08.08h5.09Z" transform="translate(72.01)"/><path class="cls-10" d="M192.41,214.7c0-1.7,0-3.39-.08-5.09h5v5.09l.07-.08h-5.09Z" transform="translate(72.01)"/><path class="cls-10" d="M237.51,174.62v-4.86h4.79v4.78h-4.87Z" transform="translate(72.01)"/><path class="cls-10" d="M247.63,174.68h4.69v4.74h-4.69Z" transform="translate(72.01)"/><path class="cls-10" d="M252.55,189.57h-4.86v-4.8h4.78v4.88Z" transform="translate(72.01)"/><path class="cls-10" d="M257.55,189.65v-4.87h4.94v4.87l.08-.09h-5.09Z" transform="translate(72.01)"/><path class="cls-10" d="M242.52,204.67h-5.09v-5.08h5.09Z" transform="translate(72.01)"/><path class="cls-10" d="M237.51,239.67v5.09h-5v4.81h-5V234.83h4.76v4.84Z" transform="translate(72.01)"/><path class="cls-10" d="M207.36,219.7h4.87v19.83h-4.79V219.62Z" transform="translate(72.01)"/><path class="cls-10" d="M242.52,264.81h-5v5h-5v-10.1l-.08.08,10.09-.08Z" transform="translate(72.01)"/><path class="cls-10" d="M237.43,244.69h5.09v10.09h-5.09Z" transform="translate(72.01)"/><path class="cls-10" d="M217.55,229.54v-4.66h4.71v4.66Z" transform="translate(72.01)"/><path class="cls-10" d="M217.55,239.52v-4.67h4.67v4.67Z" transform="translate(72.01)"/><path class="cls-10" d="M242.52,234.66v5.09h-5.09v-5.09Z" transform="translate(72.01)"/><path class="cls-10" d="M232.51,259.72h-4.86v-4.79h4.78v4.87Z" transform="translate(72.01)"/><circle class="cls-10" cx="316.99" cy="257.25" r="3.6"/><path class="cls-10" d="M252.47,259.8v-5.09h4.94v-4.8h5.16v9.89Z" transform="translate(72.01)"/><path class="cls-10" d="M252.54,254.78h-5.08v-4.85h5.08Z" transform="translate(72.01)"/><path class="cls-10" d="M282.36,249.63h-4.64v-4.77h4.64Z" transform="translate(72.01)"/><path class="cls-10" d="M212.29,164.74v14.7H197.6v-14.7Z" transform="translate(72.01)"/><path class="cls-10" d="M287.79,164.66h14.67v14.69H287.79Z" transform="translate(72.01)"/><path class="cls-10" d="M197.6,254.85h14.65v14.79H197.6Z" transform="translate(72.01)"/><polygon class="cls-5" points="391.38 286.45 252.63 286.45 252.63 277.39 254.63 277.39 254.63 284.45 389.38 284.45 389.38 277.39 391.38 277.39 391.38 286.45"/><polygon class="cls-5" points="391.38 155.96 389.38 155.96 389.38 148.9 254.63 148.9 254.63 155.96 252.63 155.96 252.63 146.9 391.38 146.9 391.38 155.96"/><g class="cls-12"><path class="cls-2" d="M328.76,101.91,197.59,426.28H187.42A19.43,19.43,0,0,1,168,406.85V381.8L302.26,93.24h10.32A19.4,19.4,0,0,1,328.76,101.91Z" transform="translate(72.01)"/><polygon class="cls-2" points="404.01 135.01 404.01 176.17 300.06 426.28 281.43 426.28 404.01 135.01"/></g><path class="cls-3" d="M279,318.81H221a8.8,8.8,0,0,1-8.81-8.81h0a8.8,8.8,0,0,1,8.81-8.81H279a8.8,8.8,0,0,1,8.81,8.81h0A8.8,8.8,0,0,1,279,318.81Z" transform="translate(72.01)"/><path class="cls-11" d="M242.31,311.19a1.78,1.78,0,0,1-.17.81,1.61,1.61,0,0,1-.46.6,2.06,2.06,0,0,1-.7.38,3,3,0,0,1-.87.12,3.64,3.64,0,0,1-.6-.05,3,3,0,0,1-.5-.14,2.53,2.53,0,0,1-.36-.16,1.16,1.16,0,0,1-.21-.15.28.28,0,0,1-.08-.15.81.81,0,0,1,0-.25,1,1,0,0,1,0-.18.21.21,0,0,1,0-.12.1.1,0,0,1,0-.06l.07,0a.41.41,0,0,1,.2.09l.32.18a3.35,3.35,0,0,0,.49.19,2.08,2.08,0,0,0,.65.09,1.6,1.6,0,0,0,.51-.08,1.17,1.17,0,0,0,.4-.21,1,1,0,0,0,.26-.34,1.06,1.06,0,0,0,.09-.45.92.92,0,0,0-.12-.48,1.52,1.52,0,0,0-.33-.34,3,3,0,0,0-.47-.27L240,310c-.18-.08-.36-.18-.54-.28a2.33,2.33,0,0,1-.46-.37,1.51,1.51,0,0,1-.33-.49,1.56,1.56,0,0,1-.13-.68,1.66,1.66,0,0,1,.15-.72,1.33,1.33,0,0,1,.41-.53,1.61,1.61,0,0,1,.62-.33,2.48,2.48,0,0,1,.79-.11l.43,0,.41.1.34.14a1.38,1.38,0,0,1,.2.13l.06.07,0,.07s0,.07,0,.11,0,.09,0,.15,0,.12,0,.16,0,.09,0,.12a.18.18,0,0,1,0,.07l-.06,0a.35.35,0,0,1-.17-.07l-.29-.15a2.53,2.53,0,0,0-.4-.17,2.13,2.13,0,0,0-.53-.07,1.72,1.72,0,0,0-.47.07,1.08,1.08,0,0,0-.33.2.77.77,0,0,0-.19.28,1,1,0,0,0-.07.35.89.89,0,0,0,.13.47,1.18,1.18,0,0,0,.33.34,2.75,2.75,0,0,0,.48.28l.54.25.54.28a2.35,2.35,0,0,1,.47.36,1.51,1.51,0,0,1,.33.49A1.54,1.54,0,0,1,242.31,311.19Z" transform="translate(72.01)"/><path class="cls-11" d="M247.87,312.09c0,.05,0,.1,0,.14a.36.36,0,0,1,0,.11s0,.05,0,.08l-.07.08a.7.7,0,0,1-.21.15,2.13,2.13,0,0,1-.4.2,3.44,3.44,0,0,1-.54.17,3.55,3.55,0,0,1-.68.07,2.88,2.88,0,0,1-1.13-.21,2.35,2.35,0,0,1-.87-.62,2.94,2.94,0,0,1-.55-1,5.07,5.07,0,0,1,0-2.82,3,3,0,0,1,.58-1.07,2.59,2.59,0,0,1,.9-.67,2.88,2.88,0,0,1,1.15-.23,3.31,3.31,0,0,1,.55.05,3.15,3.15,0,0,1,.49.14,2.1,2.1,0,0,1,.4.18,1.27,1.27,0,0,1,.24.17.35.35,0,0,1,.09.11.11.11,0,0,1,0,.08.36.36,0,0,1,0,.11.81.81,0,0,1,0,.16.91.91,0,0,1,0,.17l0,.11a.16.16,0,0,1-.05.08l-.06,0a.34.34,0,0,1-.2-.1,3.11,3.11,0,0,0-.33-.22,2.75,2.75,0,0,0-.48-.21,2,2,0,0,0-.68-.1,1.86,1.86,0,0,0-.79.17,1.72,1.72,0,0,0-.6.51,2.5,2.5,0,0,0-.39.82,3.72,3.72,0,0,0-.14,1.1,4,4,0,0,0,.13,1.09,2.33,2.33,0,0,0,.38.79,1.45,1.45,0,0,0,.62.48,1.94,1.94,0,0,0,.82.17,2,2,0,0,0,.67-.1,2.25,2.25,0,0,0,.49-.21l.34-.21a.38.38,0,0,1,.21-.1l.06,0,0,0s0,.07,0,.12S247.87,312,247.87,312.09Z" transform="translate(72.01)"/><path class="cls-11" d="M253.86,312.7a.86.86,0,0,1,0,.18.12.12,0,0,1,0,.1.22.22,0,0,1-.13,0h-.5a.42.42,0,0,1-.14,0l-.07,0,0-.08-.55-1.57h-2.7l-.53,1.55a.2.2,0,0,1,0,.08.13.13,0,0,1-.07.05.4.4,0,0,1-.13,0h-.23l-.24,0a.2.2,0,0,1-.13,0,.14.14,0,0,1,0-.11,1,1,0,0,1,.05-.17l2.17-6a.19.19,0,0,1,.05-.09.19.19,0,0,1,.1,0,.35.35,0,0,1,.16,0h.51a.4.4,0,0,1,.17,0l.1,0a.31.31,0,0,1,.05.1Zm-2.79-5.31h0L250,310.62h2.25Z" transform="translate(72.01)"/><path class="cls-11" d="M259.83,312.65a.4.4,0,0,1,0,.17.27.27,0,0,1-.09.12.34.34,0,0,1-.12.06l-.14,0h-.28a.88.88,0,0,1-.24,0,.44.44,0,0,1-.19-.1.83.83,0,0,1-.18-.19c-.06-.09-.12-.19-.19-.32l-2-3.69-.31-.59-.29-.61h0c0,.24,0,.48,0,.73s0,.5,0,.75v3.91a.14.14,0,0,1,0,.06.12.12,0,0,1-.07.05.29.29,0,0,1-.14,0l-.21,0-.2,0a.23.23,0,0,1-.13,0s-.06,0-.07-.05a.07.07,0,0,1,0-.06v-6a.33.33,0,0,1,.11-.28.4.4,0,0,1,.25-.09h.42a.85.85,0,0,1,.25,0,.37.37,0,0,1,.18.08.61.61,0,0,1,.16.16,2.47,2.47,0,0,1,.16.26L258,309.9c.1.17.19.34.28.51l.25.48c.08.17.16.32.24.48s.15.31.23.47h0c0-.27,0-.54,0-.83v-4.33a.14.14,0,0,1,0-.07.18.18,0,0,1,.07-.05.29.29,0,0,1,.14,0h.41a.23.23,0,0,1,.13,0,.13.13,0,0,1,.07.05.14.14,0,0,1,0,.07Z" transform="translate(72.01)"/><path class="cls-2" d="M318.06,353.9H181.94a2.86,2.86,0,0,1-2.86-2.86h0a2.87,2.87,0,0,1,2.86-2.87H318.06a2.87,2.87,0,0,1,2.86,2.87h0A2.86,2.86,0,0,1,318.06,353.9Z" transform="translate(72.01)"/><path class="cls-2" d="M318.06,367.66H181.94a2.86,2.86,0,0,1-2.86-2.86h0a2.86,2.86,0,0,1,2.86-2.87H318.06a2.86,2.86,0,0,1,2.86,2.87h0A2.86,2.86,0,0,1,318.06,367.66Z" transform="translate(72.01)"/><path class="cls-2" d="M318.06,381.42H181.94a2.86,2.86,0,0,1-2.86-2.87h0a2.86,2.86,0,0,1,2.86-2.86H318.06a2.86,2.86,0,0,1,2.86,2.86h0A2.86,2.86,0,0,1,318.06,381.42Z" transform="translate(72.01)"/><path class="cls-10" d="M261.35,407.34,250,399.09l-11.35,8.25h3.57v10.75h4.13V415a3.65,3.65,0,0,1,7.3,0v3.08h4.13V407.34Z" transform="translate(72.01)"/><path class="cls-10" d="M280.16,100.73H219.84a15,15,0,0,1-15-15h90.28A15,15,0,0,1,280.16,100.73Z" transform="translate(72.01)"/><path class="cls-2" d="M251.65,93.24A1.65,1.65,0,1,1,250,91.59,1.65,1.65,0,0,1,251.65,93.24Z" transform="translate(72.01)"/><path class="cls-2" d="M257.16,93.24a1.66,1.66,0,1,1-1.66-1.65A1.65,1.65,0,0,1,257.16,93.24Z" transform="translate(72.01)"/><path class="cls-2" d="M242.84,93.24a1.66,1.66,0,1,0,1.66-1.65A1.65,1.65,0,0,0,242.84,93.24Z" transform="translate(72.01)"/><path class="cls-10" d="M312.49,97.08H312v-.84h-6.89v3.83H312v-.84h.52Zm-3.18,2.15V97.08h2v2.15Z" transform="translate(72.01)"/><path class="cls-10" d="M185.84,100.55v.08s0,0,0,.06l0,0h-1.85l0,0a.11.11,0,0,1,0-.06.33.33,0,0,1,0-.16.11.11,0,0,1,0-.06s0,0,0,0a.05.05,0,0,1,0,0h.71V97.77l-.66.39-.08,0a0,0,0,0,1-.05,0,.16.16,0,0,1,0-.06V98s0,0,0-.06l0,0s0,0,0,0l.79-.51h.37s0,0,0,0a0,0,0,0,1,0,0v3h.62l0,0s0,0,0,0a.42.42,0,0,1,0,.06Z" transform="translate(72.01)"/><path class="cls-10" d="M188.58,100.55v.08l0,.06s0,0,0,0h-1.85l0,0a.11.11,0,0,1,0-.06.33.33,0,0,1,0-.16.11.11,0,0,1,0-.06s0,0,0,0l0,0h.72V97.77l-.66.39-.08,0a0,0,0,0,1-.05,0l0-.06V98s0,0,0-.06l0,0,0,0,.79-.51h.37s0,0,0,0a0,0,0,0,1,0,0v3h.62l0,0,0,0,0,.06Z" transform="translate(72.01)"/><path class="cls-10" d="M189.92,98.62a.61.61,0,0,1,0,.14.19.19,0,0,1,0,.09.16.16,0,0,1-.09.05l-.13,0-.14,0a.16.16,0,0,1-.09-.05.19.19,0,0,1,0-.09.61.61,0,0,1,0-.14.66.66,0,0,1,0-.15.3.3,0,0,1,0-.1.26.26,0,0,1,.09-.05h.27a.26.26,0,0,1,.09.05.3.3,0,0,1,0,.1A.66.66,0,0,1,189.92,98.62Zm0,1.83a.53.53,0,0,1,0,.14.3.3,0,0,1,0,.1.26.26,0,0,1-.09,0h-.27a.26.26,0,0,1-.09,0,.3.3,0,0,1,0-.1.53.53,0,0,1,0-.14.66.66,0,0,1,0-.15.19.19,0,0,1,0-.09.26.26,0,0,1,.09,0l.14,0,.13,0a.26.26,0,0,1,.09,0,.19.19,0,0,1,0,.09A.66.66,0,0,1,189.92,100.45Z" transform="translate(72.01)"/><path class="cls-10" d="M192.77,100.55a.19.19,0,0,1,0,.08.42.42,0,0,1,0,.06l0,0h-1.85l0,0s0,0,0-.06,0,0,0-.08,0-.06,0-.08l0-.06,0,0,0,0h.71V97.77l-.66.39-.08,0a0,0,0,0,1-.05,0,.08.08,0,0,1,0-.06.28.28,0,0,1,0-.1V98s0,0,0-.06,0,0,0,0l0,0,.78-.51H192l0,0s0,0,0,0v3h.61a.05.05,0,0,1,0,0s0,0,0,0a.11.11,0,0,1,0,.06A.19.19,0,0,1,192.77,100.55Z" transform="translate(72.01)"/><path class="cls-10" d="M195.51,100.55s0,.06,0,.08a.42.42,0,0,1,0,.06l0,0h-1.86l0,0,0-.06s0,0,0-.08,0-.06,0-.08l0-.06,0,0,0,0h.71V97.77l-.66.39-.08,0a0,0,0,0,1,0,0,.08.08,0,0,1,0-.06.28.28,0,0,1,0-.1V98s0,0,0-.06,0,0,0,0l0,0,.78-.51h.38l0,0v3h.62a.05.05,0,0,1,0,0s0,0,0,0a.11.11,0,0,1,0,.06S195.51,100.52,195.51,100.55Z" transform="translate(72.01)"/><path class="cls-13" d="M148.51,251.23c-3.21,115.52-7.86,176.52-7.86,176.52-4.59,2.22-8.85,3.1-12.77,0C121.61,367,119.05,277.09,118,277l2.17-25.78Z" transform="translate(72.01)"/><path class="cls-14" d="M127.88,427.79c-8.74,6.13-23.18,3.74-23.23,11.57,18.91,2.45,28.55-1.89,28.55-1.89V440l6.63-.69s2.71-6.31,1.05-11.52Z" transform="translate(72.01)"/><path class="cls-13" d="M93.31,251.65l26.61-3.45c1.45,8.56.53,17.44.12,26.78,0,0-4.26,41.36-3.3,62,2,17,47.11,66.11,47.11,66.11,0,5.54-4.63,11.3-9.16,9.21C134.29,397,97.38,358,94,340.5A354.51,354.51,0,0,1,93.31,251.65Z" transform="translate(72.01)"/><path class="cls-14" d="M154.69,412.26c-1.85,10.52-13.73,19.06-8.22,24.61,15.08-11.65,18.83-21.54,18.83-21.54l1.77,1.79,4.2-5.18s-2.56-6.38-7.42-8.89Z" transform="translate(72.01)"/><path class="cls-15" d="M141,152.81l2.17,36c5.17,6.86,13.53,17.34,17.37,25.76l-11.87,42.26L156.7,261s17.1-39.57,17.31-49.7C174.33,197.25,141,152.81,141,152.81Z" transform="translate(72.01)"/><path class="cls-15" d="M148.68,256.64s-2.46,13,4.72,13.95,11.43-2.55,10.82-5.72-2-.38-2.36.06-.13-6.64-1.86-8.6S150.09,255.21,148.68,256.64Z" transform="translate(72.01)"/><path class="cls-16" d="M122.57,350.81a.5.5,0,0,0-1,0q0,15.85,1.53,31.65c.06.63,1.06.64,1,0A315.59,315.59,0,0,1,122.57,350.81Z" transform="translate(72.01)"/><path class="cls-16" d="M119.07,259.66a.5.5,0,0,0-1,0l.42,23.39a.5.5,0,0,0,1,0Q119.29,271.35,119.07,259.66Z" transform="translate(72.01)"/><path class="cls-16" d="M118.89,281.57c-1.73-.63-2-2.9-2.24-4.46a47.1,47.1,0,0,1-.47-6c-.11-4-.13-8-.19-12a.5.5,0,0,0-1,0c.07,4.39.05,8.8.23,13.19a40.18,40.18,0,0,0,.7,6.38c.34,1.63,1,3.25,2.71,3.87C119.23,282.75,119.49,281.78,118.89,281.57Z" transform="translate(72.01)"/><path class="cls-5" d="M150.91,252.41s-17.65,8.84-59,.1c.21-2.82.43-5.69.67-8.59.13-1.65.27-3.31.41-5q.29-3.31.58-6.68c.14-1.66.29-3.32.44-5,.18-2,.37-4,.55-5.95.16-1.65.31-3.3.47-4.94.26-2.71.53-5.4.79-8.05.16-1.67.33-3.33.5-5q.36-3.63.73-7.12c.14-1.37.28-2.73.42-4.06l.09-.88q.42-3.84.79-7.43c.19-1.7.37-3.36.54-5,.23-2,.45-4,.65-5.85s.38-3.4.56-5c.25-2.25.48-4.29.69-6.1s.42-3.63.58-5l.5-4.22A56.91,56.91,0,0,1,115,148.53h12.91a43.76,43.76,0,0,1,13,4.28s.22,1.46.61,4.13c.19,1.35.43,3,.7,5q.35,2.47.75,5.53c.2,1.55.42,3.22.64,5s.49,3.87.75,6c.2,1.59.4,3.25.6,5,.3,2.55.6,5.23.92,8,.14,1.35.29,2.72.45,4.12l.09.89q.42,3.94.83,8.12c.17,1.63.33,3.28.49,5,.21,2.19.41,4.43.61,6.7.15,1.63.29,3.28.43,4.95q.24,2.81.46,5.67c.13,1.66.25,3.33.38,5q.3,4.14.57,8.34c.1,1.65.2,3.3.29,5C150.66,247.51,150.79,250,150.91,252.41Z" transform="translate(72.01)"/><path class="cls-5" d="M101.87,152.81l-.19,4.3-.23,5.1-.27,6.16-.22,5-.26,5.92-.23,5-.33,7.53-.07,1.61-2.6-1.26-3.65-1.77h0l-14.09-6.83s.79-1.81,2.16-4.56c.64-1.3,1.41-2.81,2.28-4.43s1.86-3.39,2.93-5.17c.85-1.43,1.76-2.89,2.7-4.31,1.27-1.9,2.61-3.74,4-5.42a35.87,35.87,0,0,1,3.69-3.92A16.59,16.59,0,0,1,101.87,152.81Z" transform="translate(72.01)"/><path class="cls-5" d="M162.05,182.62l-6.45,5.29h0l-9.21,7.56h0L143.1,192l-2.15-2.3v-36.9a43,43,0,0,1,3.37,3.27c1,1.07,2.18,2.4,3.51,4,1.12,1.37,2.34,2.93,3.63,4.71.94,1.29,1.91,2.7,2.89,4.21s2.16,3.38,3.25,5.26q1.22,2.07,2.43,4.36C160.7,179.92,161.38,181.24,162.05,182.62Z" transform="translate(72.01)"/><path class="cls-17" d="M147.83,160.1c-1.83.68-3.69,1.29-5.57,1.81-.44.13-.87.24-1.31.35l-.13,0a78.14,78.14,0,0,1-39.37-.09l-.66-.18a70.07,70.07,0,0,1-7-2.31,35.87,35.87,0,0,1,3.69-3.92q1.94.66,3.9,1.23l.31.08q2.75.78,5.55,1.34A72.71,72.71,0,0,0,141,157.12a6.13,6.13,0,0,0,.61-.18c.93-.26,1.85-.54,2.76-.86C145.31,157.15,146.5,158.48,147.83,160.1Z" transform="translate(72.01)"/><path class="cls-17" d="M154.35,169a89.29,89.29,0,0,1-10.7,3.41c-.77.19-1.54.38-2.31.55l-.39.08a97.09,97.09,0,0,1-40,.33c-.47-.09-.95-.19-1.42-.3a91.46,91.46,0,0,1-12.45-3.64c.85-1.43,1.76-2.89,2.7-4.31a90,90,0,0,0,10.31,3q.54.13,1.08.24l.3.07a91.24,91.24,0,0,0,39.47-.5c.69-.15,1.38-.32,2.06-.5,2.86-.74,5.68-1.61,8.45-2.63C152.4,166.1,153.37,167.51,154.35,169Z" transform="translate(72.01)"/><path class="cls-17" d="M160,178.64a102.78,102.78,0,0,1-11.85,3.93c-1.06.28-2.11.54-3.18.78-1.34.32-2.69.6-4.05.86a109.53,109.53,0,0,1-40.48.12l-2.12-.43a103,103,0,0,1-16.47-4.85c.64-1.3,1.41-2.81,2.28-4.43a100.64,100.64,0,0,0,14.73,4.32l1.07.23.74.14a103.46,103.46,0,0,0,40.25-.16c1.15-.23,2.3-.48,3.45-.76a98.37,98.37,0,0,0,13.2-4.11Q158.82,176.35,160,178.64Z" transform="translate(72.01)"/><path class="cls-17" d="M146.37,195.48l.09.89c-10.77,2.63-22.2,2.81-33.21,2.09a113,113,0,0,1-16.2-2.19c.14-1.37.28-2.73.42-4.06l-3.65-1.77c1.24.33,2.48.63,3.74.89l.84.19c.58.12,1.16.24,1.74.34a124.62,124.62,0,0,0,32.32,1.62A77.79,77.79,0,0,0,143.1,192c1-.19,1.89-.41,2.82-.65a53.4,53.4,0,0,0,9.66-3.44Z" transform="translate(72.01)"/><path class="cls-17" d="M147.78,209.45l-2.42.37a145.39,145.39,0,0,1-49.54-1.47c.16-1.67.33-3.33.5-5,3.62.76,7.27,1.4,10.94,1.86a140.19,140.19,0,0,0,40-.76C147.46,206.12,147.62,207.77,147.78,209.45Z" transform="translate(72.01)"/><path class="cls-17" d="M148.82,221.1c-2.35.41-4.72.76-7.09,1.07a162.81,162.81,0,0,1-47.17-.83c.16-1.65.31-3.3.47-4.94,3.49.59,7,1.06,10.54,1.4a159.18,159.18,0,0,0,42.82-1.65C148.54,217.78,148.68,219.43,148.82,221.1Z" transform="translate(72.01)"/><path class="cls-17" d="M149.66,231.78c-3.34.73-6.71,1.34-10.09,1.81a137.45,137.45,0,0,1-46-1.32c.14-1.66.29-3.32.44-5,3.38.71,6.8,1.29,10.23,1.71a131.91,131.91,0,0,0,45-2.23C149.41,228.43,149.53,230.1,149.66,231.78Z" transform="translate(72.01)"/><path class="cls-17" d="M150.52,245.08c-1,.14-1.89.27-2.84.39a178.07,178.07,0,0,1-55.1-1.55c.13-1.65.27-3.31.41-5,4.22.8,8.47,1.46,12.74,1.93a174.89,174.89,0,0,0,44.5-.76C150.33,241.77,150.43,243.42,150.52,245.08Z" transform="translate(72.01)"/><path class="cls-18" d="M99.85,174.67q-1.12,7.41-2.27,14.83c-.1.62.86.89,1,.26q1.14-7.41,2.27-14.82C100.91,174.31,100,174,99.85,174.67Z" transform="translate(72.01)"/><path class="cls-18" d="M143.42,172.85c-.09-.63-1-.36-1,.27l2.67,17.74c.09.63,1.05.36,1-.27Z" transform="translate(72.01)"/><rect class="cls-10" x="74.12" y="150.02" width="14.46" height="25.09" rx="2.18" transform="translate(46.11 15.79) rotate(-9.57)"/><path class="cls-15" d="M82.87,180.31s-3.75,2.91-8.36-2.39-5.93-6.91-5.16-9.07,3.6-7.81,5-7-.05,3-.05,3,1.38-1.3,2.39-.93,6.8,3.16,7.24,4-1.19,2.25-1.19,2.25S87.16,177.22,82.87,180.31Z" transform="translate(72.01)"/><path class="cls-15" d="M76,179s-15.83,37.11-6.16,43.65C76.78,227.33,95,191,95,191l-11.76-5.69,0-5.31Z" transform="translate(72.01)"/><path class="cls-19" d="M83.08,187.51l-.33,11.92a.5.5,0,0,0,1,0q.16-6,.32-11.92A.5.5,0,0,0,83.08,187.51Z" transform="translate(72.01)"/><path class="cls-20" d="M141.91,114.07c-5.13,8.16-15.62,10.71-20.64,18.91-1.1,1.79-2.47,3.8-4.83,3.75-2.17,0-3.56-2-4.67-3.59a60.08,60.08,0,0,1-7.43-14.83c-1.69-5-3.4-10.76-1.16-15.87,1.56-3.55,5.49-6.08,9.19-5.29a14.27,14.27,0,0,1,7.74-4,15.84,15.84,0,0,1,9.1,1.34,7.24,7.24,0,0,0-.38-2.62,12.55,12.55,0,0,1,6.71,4,8.5,8.5,0,0,0-.32-2.75,8.86,8.86,0,0,1,5.53,5.8c.46-.67,1-1.38,1.49-2C144.44,102.3,145,109.11,141.91,114.07Z" transform="translate(72.01)"/><path class="cls-15" d="M112.8,104.11c5.82-10.68,26.32-7,27.91,1.46,3.28,17.46.79,24.63-4.06,28.76-5.62,4.77-9.29,4.16-9.29,14.2a7,7,0,0,1-12.9,0,60.49,60.49,0,0,0-4.4-23.36S110.4,108.51,112.8,104.11Z" transform="translate(72.01)"/><path class="cls-20" d="M115,106.48c3.52,5.07,10.6,3.9,10.6,3.9l-4.08-3.52s10.11,6,20.55,3.91c0,0,1.53-3.83-3.16-10.22-3-4.09-11.73-5.1-19.17-3.72s-10.68,4.61-10.93,10-.78,12-.78,12l2.89,2.2C115.43,118,115,106.48,115,106.48Z" transform="translate(72.01)"/><path class="cls-10" d="M125.32,120.57a1.32,1.32,0,1,0,1.31-1.31A1.32,1.32,0,0,0,125.32,120.57Z" transform="translate(72.01)"/><path class="cls-2" d="M126.63,120.22a.49.49,0,0,0,.48.48.49.49,0,0,0,0-1A.49.49,0,0,0,126.63,120.22Z" transform="translate(72.01)"/><path class="cls-10" d="M135.48,120.57a1.32,1.32,0,1,0,1.32-1.31A1.32,1.32,0,0,0,135.48,120.57Z" transform="translate(72.01)"/><path class="cls-2" d="M136.8,120.22a.48.48,0,0,0,.48.48.49.49,0,1,0-.48-.48Z" transform="translate(72.01)"/><path class="cls-20" d="M134.6,115.43a4.3,4.3,0,0,1,5.35.26.87.87,0,0,1,.12,1.09.62.62,0,0,1-.94.14,3.16,3.16,0,0,0-2.25-.75,3.07,3.07,0,0,0-1.17.33c-.33.16-.64.44-1,.23a.73.73,0,0,1-.22-.21A.86.86,0,0,1,134.6,115.43Z" transform="translate(72.01)"/><path class="cls-20" d="M129.48,115.43a5.5,5.5,0,0,0-6.13.26.77.77,0,0,0,.94,1.23,3.89,3.89,0,0,1,2.58-.73,4.15,4.15,0,0,1,1.34.31c.37.16.74.44,1.16.23a.85.85,0,0,0,.25-.21A.79.79,0,0,0,129.48,115.43Z" transform="translate(72.01)"/><path class="cls-19" d="M132.23,128.05a4.65,4.65,0,0,0,2.18-.54.69.69,0,0,0-.64-1.22,3.59,3.59,0,0,1-4.23-.78.69.69,0,1,0-1.11.81A4.94,4.94,0,0,0,132.23,128.05Z" transform="translate(72.01)"/><path class="cls-19" d="M133.85,124.14A.17.17,0,0,0,134,124c.33-1.12,0-1.5-.43-1.62a1.67,1.67,0,0,0-1.36.3.17.17,0,0,0-.06.23.18.18,0,0,0,.24.06,1.35,1.35,0,0,1,1.07-.26q.51.16.21,1.2a.18.18,0,0,0,.12.21Z" transform="translate(72.01)"/><path class="cls-15" d="M105.56,125.55c1.76,2.1,4.53,2.66,6.2,1.27s1.58-4.22-.17-6.32-4.53-2.66-6.2-1.27S103.81,123.46,105.56,125.55Z" transform="translate(72.01)"/><path class="cls-19" d="M106.54,120.26a3,3,0,0,1,2.66,0,2.47,2.47,0,0,1,1,.79,1.51,1.51,0,0,1,.22,1.39,2.14,2.14,0,0,1-.73.86,1.92,1.92,0,0,0-.49.5.77.77,0,0,0,1,1.09.34.34,0,0,1,.45.16.34.34,0,0,1-.16.46,1.41,1.41,0,0,1-.6.13,1.45,1.45,0,0,1-1.28-2.19,2.65,2.65,0,0,1,.65-.68,1.51,1.51,0,0,0,.53-.58.82.82,0,0,0-.14-.74,1.28,1.28,0,0,0-.26-.26,1.37,1.37,0,0,0-1,.33,1.24,1.24,0,0,0-.3,1,.34.34,0,0,1-.28.39h-.06a.34.34,0,0,1-.34-.29,1.9,1.9,0,0,1,.47-1.58,1.64,1.64,0,0,1,.52-.35,2.2,2.2,0,0,0-1.57.11,1.31,1.31,0,0,0-.66,1.61.35.35,0,0,1-.63.29A2,2,0,0,1,106.54,120.26Z" transform="translate(72.01)"/><path class="cls-21" d="M411.78,260.32c-3.2,110-7.85,168-7.85,168-4.59,2.11-8.86,2.95-12.77,0-1.86-60.73-6.47-143.66-6.47-143.66l-1.27-24.41Z" transform="translate(72.01)"/><path class="cls-14" d="M403.93,428.35c8.3,5.83,22.08,3.6,22.13,11C408.11,441.72,399,440,399,440l-6.3-.66s-3.08-6-1.51-10.94Z" transform="translate(72.01)"/><path class="cls-21" d="M385.38,260.32C378.27,364.8,376,428.37,376,428.37c-4.59,2.11-7.31,2.93-11.23,0-4.73-43.68-9.23-151.21-8.28-161.91l.54-6.16Z" transform="translate(72.01)"/><path class="cls-14" d="M364.74,428.39c-8.19,5.83-23.18,3.56-23.23,11,17.71,2.32,26.74.59,26.74.59l6.21-.66s3.06-6,1.51-11Z" transform="translate(72.01)"/><path class="cls-13" d="M355.19,261.54s-2.83,53.54-3.29,60.34c0,0,18.16,3.5,29.49.79l2.85-45.28,1.14,44.49s13,4.09,30.26.88l-1.45-61.31Z" transform="translate(72.01)"/><path class="cls-16" d="M350.34,323l1-8.73s19.55,2.64,31.29,1.17L382.3,324A139.68,139.68,0,0,1,350.34,323Z" transform="translate(72.01)"/><path class="cls-16" d="M417.4,323l-1-8.73s-19.95,2.64-31.93,1.17l.31,8.55A145.48,145.48,0,0,0,417.4,323Z" transform="translate(72.01)"/><path class="cls-21" d="M385.38,169.22l-32,16.54c-4.18,7.5-10.38,19.39-16.53,26.31l-43.45,6.23-.58,9.09s43.1-.36,52.45-4.27C358.24,217.72,385.38,169.22,385.38,169.22Z" transform="translate(72.01)"/><path class="cls-21" d="M276.28,227.65a1.25,1.25,0,0,0,1.75,0c1.59-1.33,3.12-2.75,4.57-4.23a15.57,15.57,0,0,0,6.32,3.64,7.73,7.73,0,0,0,7-1.07,1,1,0,0,0,.47-.3,8.87,8.87,0,0,0,2-6.4,20.67,20.67,0,0,0-1.54-6c-.15-.41-.29-.82-.41-1.24-.06-.21-.12-.42-.16-.63s0-.17-.05-.26,0-.06,0-.09c0-.23,0-.46,0-.68a.35.35,0,0,0,0-.06v0c0-.1,0-.2.07-.3a2.41,2.41,0,0,1,.08-.25s0-.06,0-.05l.08-.19a1.91,1.91,0,0,0,.16-.78,1.69,1.69,0,0,0-1.25-1.63,2.26,2.26,0,0,0-1.7.3,4.62,4.62,0,0,0-1.82,2.64,7.6,7.6,0,0,0,.1,4.15l-1-.44a104.31,104.31,0,0,0-15.33-5.46,1.24,1.24,0,0,0-.92,2.27l5.67,2.75c.62.3,1.23.59,1.84.9l-9.43.79c-.63.06-1.09.22-1.17.86s.54,1.06,1.14,1.23a30.72,30.72,0,0,0,7.94.83c-2.08,1-4.65,2.51-6.79,3.45a1.23,1.23,0,0,0-.52,1.54c.25.62,1,.55,1.6.46,1.77-.26,4-1.53,5.66-2-1.21,1.2-3.08,3.51-4.38,4.61A1.24,1.24,0,0,0,276.28,227.65Z" transform="translate(72.01)"/><path class="cls-3" d="M370.34,164.58s-14,8.87-23.33,28.74l15.29,12.24,10.2-33.5Z" transform="translate(72.01)"/><path class="cls-3" d="M414.52,265C390.65,271.49,372,269,355,263a46.59,46.59,0,0,1,1.94-11.27c.77-2.3,1.67-4.52,2.6-7a.75.75,0,0,1,.06-.13c.54-1.47,2.32-5.27,2.44-5.66.24-.74.57-1.46.74-2.2.07-.3.13-.61.18-.92a38.6,38.6,0,0,0,.61-4.72c0-.35.05-.7.05-1a46,46,0,0,0-.8-9.84c-.7-3.91-1.72-7.74-2.62-11.33-2.65-10.57-2.65-15.15,0-25.72,1.55-6.18,10.15-18.53,10.15-18.53a19.7,19.7,0,0,1,2.77-1.58,29.21,29.21,0,0,1,19-1.69c1.19.31,2.35.56,3.44.88,2.33.66,5.17,1.74,6.85,3.79,2.86,3.49,4.25,10.75,4.61,15.23,1.25,15.61-.92,25.53-.38,39.28.09,2.62.29,5.39.63,8.36,0,.33.08.66.13,1,.19,1.34.43,2.64.72,3.91s.62,2.67,1,4c.15.57.32,1.14.5,1.72s.3,1,.46,1.57c.29.93.56,1.87.83,2.82.22.66.4,1.33.59,2,.53,1.83,1,3.74,1.43,5.76A62.36,62.36,0,0,1,414.52,265Z" transform="translate(72.01)"/><path class="cls-22" d="M360.89,182.49A31.47,31.47,0,0,0,358.06,200c.08.63,1.08.64,1,0a30.55,30.55,0,0,1,2.69-17C362,182.42,361.17,181.91,360.89,182.49Z" transform="translate(72.01)"/><path class="cls-3" d="M401.44,165s12.68,12.26,19.11,25L408.65,198l-4.58-2.69-2.34-12.38Z" transform="translate(72.01)"/><path class="cls-21" d="M399.52,201.12s24.26,32.26,34.75,27.14c7.53-3.68-14.82-37.62-14.82-37.62L408.65,198l-4.58-2.69Z" transform="translate(72.01)"/><path class="cls-23" d="M410.44,199.25l10.17,6.23c.55.34,1-.53.5-.86l-10.17-6.24C410.39,198.05,409.89,198.91,410.44,199.25Z" transform="translate(72.01)"/><path class="cls-21" d="M404.88,195.74s-2.13-10.37-4.63-10.83,1.18,11.36,1.18,11.36Z" transform="translate(72.01)"/><rect class="cls-10" x="385.46" y="176.18" width="14.46" height="25.09" rx="2.18" transform="translate(100.9 -51.01) rotate(7.72)"/><path class="cls-21" d="M388.2,180.2c-2,1,6.56,8.25,6.56,8.25s-10.78-3.38-11.4-1.65,9.74,4.58,9.74,4.58-8.77-1.23-8.85.22,8.9,3.48,8.9,3.48-8.12-.57-8.17.7c-.06,1.65,14.82,5.35,14.82,5.35l4.9-4.49c.59-2.7-.78-5.31-3.3-7.87,0,0-11.73-9.32-13.2-8.57" transform="translate(72.01)"/><path class="cls-14" d="M393,110.2a13.92,13.92,0,0,0-14.79-2.54,12.56,12.56,0,0,0-9.11,1.66,13.53,13.53,0,0,0-5.49,7.71,15.49,15.49,0,0,0-4.34,12.74,2.2,2.2,0,0,1-.13.55,15.36,15.36,0,0,0-3.4,15.19,12.34,12.34,0,0,0-2,6,6.57,6.57,0,0,0,2.31,5.55,6,6,0,0,0,4.15,1.06,13.85,13.85,0,0,0,4.18-1.19,9.06,9.06,0,0,0,6.56,3.36,8.79,8.79,0,0,0,6.74-2.69,9,9,0,0,0,6.06,2.86,8.38,8.38,0,0,0,6.1-2.11,8.69,8.69,0,0,0,12.3-.9c1.28,1.74,4.1,2,5.95.93a6.69,6.69,0,0,0,3.11-5.43,11,11,0,0,0-1.7-6.27,17.28,17.28,0,0,0-3.32-14.36,23.18,23.18,0,0,0-.53-6.95,8.48,8.48,0,0,0-3.53-5.4,9.81,9.81,0,0,0-2.44-6.93A9.23,9.23,0,0,0,393,110.2Z" transform="translate(72.01)"/><path class="cls-21" d="M392.84,117.43c-5.83-10.68-26.32-7-27.91,1.46-3.28,17.46-.79,24.63,4.06,28.76,5.62,4.77,9.29,4.17,9.29,14.2a7,7,0,0,0,12.9,0,60.49,60.49,0,0,1,4.4-23.36S395.24,121.83,392.84,117.43Z" transform="translate(72.01)"/><path class="cls-14" d="M390.66,119.8s-.45,11.49,4.08,14.51l2.89-2.2s-.54-6.67-.78-12-3.48-8.58-10.93-9.95-16.17-.37-19.17,3.72a17.84,17.84,0,0,0-3.09,6.15,5.27,5.27,0,0,0,3.5,1.7,5.73,5.73,0,0,0,3.9-1.12,8.71,8.71,0,0,0,9.67-.25,6.41,6.41,0,0,0,4.93,2A7.16,7.16,0,0,0,390.66,119.8Z" transform="translate(72.01)"/><path class="cls-10" d="M380.32,133.89a1.32,1.32,0,1,1-1.31-1.31A1.32,1.32,0,0,1,380.32,133.89Z" transform="translate(72.01)"/><path class="cls-2" d="M379,133.54a.49.49,0,0,1-.48.48.49.49,0,0,1,0-1A.49.49,0,0,1,379,133.54Z" transform="translate(72.01)"/><path class="cls-10" d="M370.16,133.89a1.32,1.32,0,1,1-1.32-1.31A1.32,1.32,0,0,1,370.16,133.89Z" transform="translate(72.01)"/><path class="cls-2" d="M368.84,133.54a.48.48,0,0,1-.48.48.49.49,0,1,1,.48-.48Z" transform="translate(72.01)"/><path class="cls-14" d="M371,128.75a4.3,4.3,0,0,0-5.35.26.87.87,0,0,0-.12,1.09.62.62,0,0,0,.94.14,3.16,3.16,0,0,1,2.25-.75,3.07,3.07,0,0,1,1.17.33c.32.16.64.44,1,.23a.63.63,0,0,0,.22-.21A.87.87,0,0,0,371,128.75Z" transform="translate(72.01)"/><path class="cls-14" d="M376.16,128.75a5.5,5.5,0,0,1,6.13.26.77.77,0,0,1-.94,1.23,3.9,3.9,0,0,0-2.58-.73,4.15,4.15,0,0,0-1.34.31c-.37.16-.74.44-1.16.23a.72.72,0,0,1-.25-.21A.78.78,0,0,1,376.16,128.75Z" transform="translate(72.01)"/><path class="cls-23" d="M371.79,137.46a.17.17,0,0,1-.16-.13c-.33-1.12.05-1.5.43-1.62a1.67,1.67,0,0,1,1.36.3.19.19,0,0,1,.06.24.18.18,0,0,1-.24.05,1.37,1.37,0,0,0-1.08-.26c-.33.11-.4.51-.2,1.2a.18.18,0,0,1-.12.21Z" transform="translate(72.01)"/><path class="cls-24" d="M376.67,138.44c-.49-.67-1.64.12-3.05.32s-2.74-.27-3,.51c-.37,1,1.16,3.09,3.48,2.77S377.29,139.28,376.67,138.44Z" transform="translate(72.01)"/><path class="cls-25" d="M376.68,140a10.33,10.33,0,0,0-1.43.1,6.9,6.9,0,0,0-3.59,1.33,3.18,3.18,0,0,0,2.41.63A3.26,3.26,0,0,0,376.68,140Z" transform="translate(72.01)"/><path class="cls-2" d="M373.72,139.55c1.27-.17,2.3-.62,2.59-1.35-.59-.15-1.55.4-2.69.56s-2.23-.12-2.75.18C371.35,139.57,372.46,139.72,373.72,139.55Z" transform="translate(72.01)"/><path class="cls-21" d="M400.08,138.87c-1.76,2.1-4.53,2.66-6.2,1.27s-1.58-4.22.17-6.32,4.53-2.66,6.2-1.27S401.83,136.78,400.08,138.87Z" transform="translate(72.01)"/><path class="cls-23" d="M399.1,133.58a3,3,0,0,0-2.66,0,2.4,2.4,0,0,0-1,.79,1.51,1.51,0,0,0-.22,1.39,2.14,2.14,0,0,0,.73.86,1.92,1.92,0,0,1,.49.5.77.77,0,0,1-1,1.09.33.33,0,0,0-.45.17.34.34,0,0,0,.16.45,1.41,1.41,0,0,0,.6.13,1.45,1.45,0,0,0,1.27-2.19,2.35,2.35,0,0,0-.65-.68,1.56,1.56,0,0,1-.52-.58.82.82,0,0,1,.14-.74,1.07,1.07,0,0,1,.26-.26,1.37,1.37,0,0,1,1,.33,1.24,1.24,0,0,1,.3,1,.34.34,0,0,0,.28.39h.06a.35.35,0,0,0,.34-.29,1.91,1.91,0,0,0-.47-1.58,1.64,1.64,0,0,0-.52-.35,2.2,2.2,0,0,1,1.57.11,1.32,1.32,0,0,1,.66,1.61.34.34,0,0,0,.17.45.35.35,0,0,0,.46-.16A2,2,0,0,0,399.1,133.58Z" transform="translate(72.01)"/></g></svg>