<?xml version="1.0" encoding="utf-8"?>
<!-- Generator: Adobe Illustrator 23.0.1, SVG Export Plug-In . SVG Version: 6.00 Build 0)  -->
<svg version="1.1" id="Layer_1" xmlns="http://www.w3.org/2000/svg" xmlns:xlink="http://www.w3.org/1999/xlink" x="0px" y="0px"
	 viewBox="0 0 600 380" style="enable-background:new 0 0 600 380;" xml:space="preserve">
<style type="text/css">
	.st0{fill:#FFD6BB;}
	.st1{fill:#FCE8DB;}
	.st2{fill:#FFC9B6;}
	.st3{fill:#F4EBEA;}
	.st4{fill:#2C1D1B;}
	.st5{fill:#3F2A28;}
	.st6{fill:#FFFFFF;}
	.st7{fill:#FCA188;}
	.st8{fill:#FFF3EB;}
	.st9{fill:#FFB69F;}
	.st10{fill:#EF4335;}
	.st11{fill:#FF5E4C;}
	.st12{fill:#AA8887;}
	.st13{fill:#C6A8A5;}
	.st14{fill:#DEC9C5;}
	.st15{fill:#8DA3FF;}
	.st16{fill:#778DFD;}
	.st17{opacity:0.5;fill:#AEC1FF;}
	.st18{opacity:0.5;fill:#5E79E6;}
	.st19{fill:#563C3B;}
</style>
<g>
	<path class="st0" d="M409.83,88.09c-32.34-16.18-73.19-3.68-103.75,14.28c-35.42,20.81-74.68,55.24-71.13,100.52
		c1.53,19.53,12.56,36.4,27.9,48.12c17.52,13.39,39.24,20.31,60.94,21.71c26.2,1.69,45.3-3.52,60.08-15.38
		c15.91-12.76,24.9-32.63,32.54-51.5c7.78-19.21,12.12-39.81,12.73-60.53C429.43,135.12,433.59,99.97,409.83,88.09z"/>
	<g>
		<g>
			<path class="st1" d="M368.4,167.27c-2.63-2.36-5.52,0.62-7.82,1.71c-3.5,1.65-5.62,3.1-9.32,5.6c-1.97-1.83-4.98-4.17-7.92-8.32
				c-1.17-1.64-3.24-3.14-6.29-1.82c-1.23,0.54-2.81,2.06-2.68,4.54c0.1,1.78,1.4,2.3,2.91,4.49c1.51,2.19,3,4.54,5.13,6.63
				c3.49,3.42,5.29,4.32,6.64,5.31c1.71,1.24,6.21-0.82,9.13-1.4c4.66-0.93,8.45,0.18,11.53-4.62
				C371.85,176.05,371.2,169.79,368.4,167.27z"/>
			<path class="st2" d="M338.72,164.67c-1.56-2.77-2.86-5.48-3.58-8.61c-0.1-0.44-0.73-0.5-0.95-0.12
				c-0.65,1.13-0.82,2.15-0.57,3.25c-2.52-0.79-4.1-2.19-6.54-3.18c-1-0.41-2.88-0.13-3.91,0.42c-1.98,1.07-1.96,3.03-0.54,4.83
				c1.01,1.28,3.61,1.94,5.05,2.27c3.21,0.73,4.44,1.99,7.16,3.88C336.77,168.22,338.74,166,338.72,164.67z"/>
			<path class="st3" d="M338.08,163.51c0,0,0.34,1.53-1.76,2.9c-1.27,0.83-2.6,0.21-2.6,0.21s0.62,1.53,1.2,2.14
				c0.58,0.62,2.56,1.19,4.22-0.52c1.66-1.71,0.85-2.59,0.47-3.32C339.24,164.19,338.08,163.51,338.08,163.51z"/>
			<path class="st4" d="M357.77,202.82c0,0-5.12,13.06-5.91,18.34c-0.79,5.28-2.39,13.28-3.34,19.94
				c-0.95,6.66-0.94,13.14-0.5,19.64c0.18,2.58,1.12,9.32,0.62,12.99c0.56,2.38,6.14,2.68,6.81-0.09c0.41-1.72,4.7-16.92,5.13-21.71
				c0.43-4.78-0.7-8.21-0.7-8.21s6.97-14.93,9.42-20.8c2.44-5.87,0.78-13.15,0.78-13.15L357.77,202.82z"/>
			<path class="st4" d="M355.35,273c0,0,0.19,1.57,0.68,3.22c0.49,1.65-0.11,3.94-0.11,3.94s-0.36,1.01-1.88,1.31
				c-1.42,0.28-2.57-0.06-2.57-0.06s-1.4,1.69-3.22,2.98c-1.83,1.29-5.85,2.29-6.95,2.13c-1.77-0.27-2.71-1.65-2.58-2.54
				c0.14-0.89,2.22-3.35,3.93-4.41c1.11-0.69,3.63-3.03,4.39-3.85c1.25-1.35,2.18-2.84,2.18-2.84L355.35,273z"/>
			<path class="st4" d="M381.63,286.4c0,0,0.94,3.51,0.83,5.54c-0.12,2.03-0.6,2.51-1.22,3.2c-0.61,0.68-1.33,0.39-1.33,0.39
				s-0.28,4.18-2.27,5.88c-1.98,1.69-5.58,1.85-7.23,1.24c-1.65-0.61-0.57-3.61,1.05-6.55c1.62-2.94,3.68-6.1,4.19-8.75
				C379.6,286.78,381.63,286.4,381.63,286.4z"/>
			<path class="st5" d="M376.11,208.23c0,0,2.51,3.54,4.5,9.78c1.4,4.38,1.18,14.9,1.18,14.9s0.36,10.35-0.31,13.93
				c-0.67,3.58-0.61,4.31-0.61,4.31s2.87,8.58,2.43,18.73c-0.44,10.15-1.27,17.43-1.27,17.43s-0.57,1.92-3.17,2.18
				c-2.37,0.24-4.11-1.4-4.11-1.4s-4.35-21.49-5.97-26.38c-1.61-4.9-2.21-10.54-2.21-10.54l-3.29-24.13c0,0-6.52-4.26-3.18-14.99
				C362.19,205.31,376.11,208.23,376.11,208.23z"/>
			<path class="st6" d="M383.55,180.8c-3.23-6.43-11.93-11.06-18.92-10.05c-3.35,2.66-4.89,4.45-6.1,7.64
				c-1.09,2.89-1.56,6.31-1.21,9.32c1.05,9.07-1.1,17.9-1.88,21.35c2.51,4.74,7.18,6.91,12.61,7.85c2.95,0.51,10.18-1.32,10.95-3.19
				c0.98-7.33,2.6-13.34,5.14-20.19C385.51,189.87,385.39,184.47,383.55,180.8z"/>
			<path class="st7" d="M366.65,166.76c0,0,0.67,4.42-0.95,5.95c-1.62,1.53-1.63,4.68,1.61,5.74c3.93,1.28,6.71-1.55,9.16-3.51
				c-1.06-2.24-1.58-2.23-1.58-8.53C374.9,161.29,366.65,166.76,366.65,166.76z"/>
			<path class="st8" d="M375.04,170.61c0,0-0.76,2.67-2.79,4.2c-2.45,1.85-7.07,2.15-7.07,3.41c1.34,0,1.6,0.08,1.6,1.04
				c0,1.81,0.53,2.23,0.53,2.23s3.33-0.95,5.73-1.95c3.01-1.25,4.37-5.41,4.37-5.41S376.83,170.44,375.04,170.61z"/>
			<path class="st8" d="M365.18,170.75c0,0-1.95,2.12-2.78,3.09c-0.84,0.97-0.35,2.77-0.77,3.58c-0.42,0.81-0.6,1.35-0.6,1.35
				s1.74-0.35,2.08-1.35c0.34-1,2.08,0.81,2.08,0.81l1.23-1.01c0,0-1.86-1.19-1.23-2.45c0.63-1.27,1.67-2.94,1.67-2.94
				L365.18,170.75z"/>
			<g>
				<path class="st9" d="M373.77,155.86c-2.44-2.7-8.86-3.8-11.16,0.15c-1.73,2.97-1.81,8.27-1.33,10.7
					c0.99,5.11,5.18,8.15,10.01,4.22C375.89,167.18,377.98,160.51,373.77,155.86z"/>
				<path class="st4" d="M379.18,160.74c0.42-2.59-0.97-4.49-3.32-4.54c0.24-1.96-0.93-3.9-2.77-4.85
					c-3.04-1.57-6.63-0.44-9.74,0.44c-0.9-0.42-3.1-1.75-3.45-0.61c-0.25,0.82,0.24,1.63,0.69,2.3c-0.9-0.17-2.67-0.93-3.45-0.34
					c-1.85,1.41,1.34,3.92,2.97,4.66c1.17,0.53,2.58,0.88,3.97,0.9c-0.13,0.18-0.24,0.36-0.34,0.55c-0.16,0.31-0.07,0.66,0.22,0.85
					c1.23,0.8,3.46,1.13,4.9,0.33c0.03,1.29,0.44,2.6,1.46,3.37c0.46,0.35,1.42,0.68,2.25,0.69c0.22,1.17,1.28,3.25,2.31,3.66
					C376.14,166.9,378.87,162.61,379.18,160.74z"/>
				<path class="st9" d="M371.25,164.97c0,0,1.41-2.13,2.66-0.51c1.25,1.62-1.32,3.2-1.32,3.2L371.25,164.97z"/>
			</g>
		</g>
		<g>
			<path class="st7" d="M312.7,281.68c-0.49-0.44-0.72-3.69-0.83-6.93c0.6-4.81-0.9-12.94-0.9-17.92c0-2.95,0.47-9.6,1.09-14.28
				c0.51-3.86,1.23-7.25,1.6-11.14c1.2-5.2,1.5-10.56,0.92-15.97c-4.27,1.48-9.13,2.09-13.76,2.01c-0.5,3.95-0.47,7.92,0.28,11.85
				c0.45,2.36,1.22,4.58,2.04,6.82c0.6,1.64,1.23,3.23,1.31,4.99c0.09,1.99-1.77,5.19-2.14,7.08c-1.12,5.72,1.25,9.21,2.92,16.68
				c0.67,2.99,0.8,5.18,0.87,6.29c-0.63,0.72-0.88,1.12-1.14,1.61c-1.02,1.92,0.59,3.58,1.41,5.12c0.83,1.53,0.35,6.01,1.35,6.72
				c1,0.71,4.32,2.85,6.56,1.83C315.91,285.71,314.06,282.92,312.7,281.68z"/>
			<path class="st7" d="M334.62,176.96c-1.48,1.91-3.18,2.75-3.87,2.66c-0.68-0.09,0.23-1.27,0.68-2.66c0.45-1.38-0.8-1-1.93,0.59
				c-1.14,1.59-0.57,3.3-1.36,3.87c-0.8,0.57-5.31,2.01-7.69,2.46c-0.97,0.18-2.99,0.7-4.2,1.06c-1.5-2.44-5.41-8.89-7.53-13.46
				c-2.44-5.25-8.53-2.07-8.53-2.07l4.42,11.98c0,0,6.81,6.66,9.35,9.69c1.37,1.64,3.04,1.1,6.22,0.42
				c3.18-0.68,7.95-5.23,10.82-7.24c1.71-1.2,6.71-2.84,7.01-6.25C338.29,174.59,336.1,175.04,334.62,176.96z"/>
			<g>
				<path class="st10" d="M304.6,275.6c0.97,2.98,2.2,7.87,2.34,9.26c0.14,1.39,2.44,3.24,6.39,3.07c3.94-0.17,2.5-2.06,1.59-3.51
					c-0.42-0.68-0.83-1.2-1.22-1.77c0,0-0.63,1.18-2.27,1.36c-1.64,0.19-2.33-0.05-3.18-1.61c-0.85-1.56-2.13-6.24-2.64-7.56
					c-0.51-1.32,0.49-3.69,0.49-3.69s0,0,0,0C305.03,272.45,303.84,273.29,304.6,275.6z"/>
				<path class="st10" d="M304.45,275.06v6.9c0,0.13,0.23,0.23,0.51,0.23c0.28,0,0.51-0.1,0.51-0.23v-5.31L304.45,275.06z"/>
			</g>
			<path class="st9" d="M299.72,286.72c-0.44-0.49-0.33-3.75-0.1-6.98c1.1-4.72,0.47-12.97,0.99-17.91
				c0.31-2.93,1.47-9.5,2.59-14.09c0.92-3.78,1.99-7.08,2.76-10.91c1.74-5.05,2.6-10.34,2.6-15.78c-4.4,1.02-9.3,1.12-13.9,0.55
				c-0.91,3.87-1.3,7.82-0.96,11.81c0.2,2.39,0.73,4.68,1.31,7c0.43,1.7,0.89,3.34,0.78,5.1c-0.12,1.99-1.86,5.48-2.39,7.33
				c-1.87,6.53-0.21,8.79,0.67,16.38c0.35,3.04,0.25,5.23,0.2,6.35c-0.7,0.65-0.99,1.02-1.3,1.48c-1.22,1.8,0.21,3.63,0.87,5.24
				c0.66,1.61-0.28,6.01,0.63,6.82c0.92,0.81,3.99,3.29,6.33,2.51C302.5,291.06,300.94,288.09,299.72,286.72z"/>
			<g>
				<path class="st10" d="M292.3,279.82c0.65,3.06,1.37,8.06,1.36,9.46c-0.01,1.4,2.09,3.48,6.03,3.72c3.94,0.25,2.7-1.79,1.95-3.32
					c-0.35-0.72-0.7-1.29-1.02-1.88c0,0-0.75,1.1-2.4,1.12c-1.65,0.01-2.32-0.29-3-1.93c-0.68-1.64-1.46-6.43-1.83-7.8
					c-0.37-1.37,0.87-3.62,0.87-3.62s0,0,0,0C293.06,276.73,291.79,277.44,292.3,279.82z"/>
				<path class="st10" d="M292.21,279.26l-0.73,6.86c-0.01,0.13,0.2,0.25,0.48,0.28c0.28,0.03,0.52-0.05,0.53-0.18l0.56-5.28
					L292.21,279.26z"/>
			</g>
			<path class="st11" d="M313.79,206.05c-1.53-2.96-3.5-4.95-3.47-7.1c0.04-3.11,0.14-6.9-0.66-9.82c0.86-1.17,3.69-2.58,2.28-6.47
				c-0.78-2.15-2.54-4.09-3.14-4.91c-0.95-1.29-2.63-3.47-4.32-4.63c-1.67-1.15-2.31-0.46-3.99,0.27
				c-0.16,0.07-6.05,1.96-10.13,4.76c-0.77,0.53-2.22,1.47-2.73,2.06c-1.3,1.52-0.96,2.83-0.96,4.32c0,0.11,4.62,8.44,6.88,13.65
				c0.81,1.86,1.84,2.93,0.57,5.24c-1.64,2.98-3.08,4.16-4.53,10.14c-3.37,13.78,4.42,32.67,4.42,32.67s3.28,2.98,8.7,2.64
				c7.23-0.45,10.18-3.72,10.18-3.72s2.71-12.83,2.82-22.4C315.78,216.39,315.71,209.77,313.79,206.05z"/>
			<path class="st4" d="M306.16,172.24c0.2-1.16-0.1-2.4-0.83-3.36c-0.96-1.24-3.03-2.3-4.52-1.41c-0.02,0.01-0.03,0.03-0.04,0.04
				c-1.16,0.22-2.09,1.49-2.06,2.68c-0.93,2.79,2,5.42,4.59,5c-0.2,0.81-0.16,1.68,0.2,2.4c0.63,1.28,2.02,1.69,3.16,0.76
				c1.18-0.97,1.91-2.82,1.46-4.31C307.82,173.13,307.05,172.46,306.16,172.24z"/>
			<path class="st7" d="M296.54,178.69c1.45,0.27,2.61,0,3.91-1.05c0.96-0.78,1.11-1.74,1.21-2.45c-0.63-0.43-1.25-1.33-1.33-2.59
				c-0.05-0.88,0.2-1.77,0.22-2.67c-1.32-0.59-2.52-1.44-4-1.67c-0.81-0.13-2.09-2.28-2.87-2.63c0.65,1.88,0.24,4.66,0.1,5.79
				c-0.16,1.3-0.47,4.03-1.27,5.41C292.99,177.39,295.21,178.43,296.54,178.69z"/>
			<path class="st9" d="M305.53,161.93c-0.24-2.03-0.89-4.56-2.57-5.89c-1.66-1.32-3.28-1.37-5.28-1.08
				c-3.1,0.46-5.48,5.2-4.62,9.15c0.8,3.64,3.11,8.13,7.27,8.58C304.97,173.19,305.9,165.02,305.53,161.93z"/>
			<path class="st2" d="M297.35,163.44c0,0-1.68-1.88-2.4-0.41c-0.72,1.48,0.65,3.99,1.83,3.72
				C297.95,166.49,297.35,163.44,297.35,163.44z"/>
			<path class="st5" d="M307.36,153.21c-2.21-2.14-6.51-2.49-8.99-0.75c-1.16-1.39-3.26-1.19-4.93-0.39
				c-1.76,0.84-2.73,2.75-2.56,4.62c-3.31,0.16-4.95,5.13-2.75,7.47c-0.99,0.79-1.62,2.02-1.52,3.42c0.15,2.1,1.79,3.55,3.66,4.18
				c-1.29,1.11-2.25,2.47-1.56,4.32c0.88,2.36,3.48,2.93,5.72,3.12c0,0.01,0,0.02-0.01,0.02c-0.62,1.64,0.31,3.02,1.18,3.82
				c1.3,1.2,2.97,1.15,4.25,0.2c1.24-0.92,1.85-2.57,0.82-3.88c-0.26-0.33-1.19-1.33-2.2-1.33c0.76-2.31-0.71-4.25-2.83-4.14
				c0.44-1.18,0.55-2.37-0.12-3.3c1.52-1.31,2.54-3.11,2.51-5.18c-0.01-0.78-0.18-1.54-0.61-2.06c2.37-1.08,4.04-2.94,4.87-5.53
				c1.02,0.45,1.97,1.19,2.56,2.03c0.69,0.98,0.78,3.17,0.73,3.87C310.18,161.92,310.25,156.01,307.36,153.21z"/>
			<path class="st10" d="M294.02,199.13l0.11,4.27c0,0,5.83,2.67,10.41,2.04c5.54-0.77,6.87-3.12,6.87-3.12l-1.07-5.18
				c0,0-0.46,1.92-5.26,2.37C300.29,199.98,294.02,199.13,294.02,199.13z"/>
			<path class="st10" d="M297.93,220.54c0,0,0.99,5.32,5.45,6.45c4.46,1.13,6.93,0,6.93,0s-5-0.8-7.1-2.12
				C301.18,223.59,297.93,220.54,297.93,220.54z"/>
			<path class="st10" d="M303.45,220.54c0,0,2.98-0.32,5.1-2.66c2.13-2.34,2.86-4.34,2.86-4.34s0.33,4.54-2.76,6.35
				C305.57,221.7,303.45,220.54,303.45,220.54z"/>
			<path class="st10" d="M299.29,229.68c0,0,2.68,5.42,6.18,7.66c2.19,1.39,4.36,1.17,4.36,1.17s-1.84-1.81-4.32-3.4
				C303.03,233.51,299.29,229.68,299.29,229.68z"/>
			<path class="st10" d="M297.09,191.69c0,0,3.9,0.77,5.63,0c1.85-0.83,4.46-2.45,4.46-2.45s-0.67,3.27-4.46,3.99
				C299.25,193.89,297.09,191.69,297.09,191.69z"/>
		</g>
		<g>
			<g>
				<path class="st12" d="M331.33,190.53c-12.07,0-21.85,5.2-21.85,11.62c0,6.42,9.78,11.62,21.85,11.62
					c12.07,0,21.85-5.2,21.85-11.62C353.18,195.74,343.39,190.53,331.33,190.53z"/>
				<path class="st13" d="M331.33,187.57c-12.07,0-21.85,5.2-21.85,11.62c0,6.42,9.78,11.62,21.85,11.62
					c12.07,0,21.85-5.2,21.85-11.62C353.18,192.77,343.39,187.57,331.33,187.57z"/>
				<path class="st12" d="M331.33,184.03c-12.07,0-21.85,5.2-21.85,11.62c0,6.42,9.78,11.62,21.85,11.62
					c12.07,0,21.85-5.2,21.85-11.62C353.18,189.23,343.39,184.03,331.33,184.03z"/>
				<path class="st13" d="M331.33,181.07c-12.07,0-21.85,5.2-21.85,11.62c0,6.42,9.78,11.62,21.85,11.62
					c12.07,0,21.85-5.2,21.85-11.62C353.18,186.27,343.39,181.07,331.33,181.07z"/>
				<path class="st12" d="M331.33,178.05c-12.07,0-21.85,5.2-21.85,11.62c0,6.42,9.78,11.62,21.85,11.62
					c12.07,0,21.85-5.2,21.85-11.62C353.18,183.26,343.39,178.05,331.33,178.05z"/>
				<path class="st13" d="M331.33,175.09c-12.07,0-21.85,5.2-21.85,11.62c0,6.42,9.78,11.62,21.85,11.62
					c12.07,0,21.85-5.2,21.85-11.62C353.18,180.29,343.39,175.09,331.33,175.09z"/>
				<path class="st12" d="M331.33,171.55c-12.07,0-21.85,5.2-21.85,11.62c0,6.42,9.78,11.62,21.85,11.62
					c12.07,0,21.85-5.2,21.85-11.62C353.18,176.75,343.39,171.55,331.33,171.55z"/>
				<path class="st13" d="M331.33,168.59c-12.07,0-21.85,5.2-21.85,11.62c0,6.42,9.78,11.62,21.85,11.62
					c12.07,0,21.85-5.2,21.85-11.62C353.18,173.79,343.39,168.59,331.33,168.59z"/>
				<g>
					<path class="st14" d="M331.33,164.95c-12.07,0-21.85,5.2-21.85,11.62c0,6.42,9.78,11.62,21.85,11.62
						c12.07,0,21.85-5.2,21.85-11.62C353.18,170.15,343.39,164.95,331.33,164.95z"/>
					<path class="st12" d="M331.33,163.5c-10.92,0-19.77,4.71-19.77,10.51c0,5.81,8.85,10.51,19.77,10.51
						c10.92,0,19.77-4.71,19.77-10.51C351.09,168.21,342.24,163.5,331.33,163.5z"/>
				</g>
			</g>
			<g>
				<path class="st15" d="M370.73,108.18c0-21.68-17.58-39.26-39.26-39.26c-21.68,0-39.26,17.58-39.26,39.26
					c0,5.84,1.62,11.24,3.57,16.36c3.64,9.52,13.78,22.11,15.21,40.77c1.43,18.66,20.48,16.98,20.48,16.98s18.98,1.68,20.4-16.98
					c1.43-18.66,11.65-31.26,15.28-40.77C369.12,119.42,370.73,114.02,370.73,108.18z"/>
				<path class="st16" d="M359.32,80.51c1.51,4.28,2.34,8.87,2.34,13.67c0,22.72-18.42,41.13-41.13,41.13
					c-8.57,0-16.53-2.62-23.11-7.11c4.39,9.05,12.34,20.74,13.59,37.11c1.43,18.66,20.48,16.98,20.48,16.98s18.98,1.68,20.4-16.98
					c1.43-18.66,11.65-31.26,15.28-40.77c1.96-5.12,3.57-10.52,3.57-16.36C370.73,97.39,366.37,87.61,359.32,80.51z"/>
				
					<ellipse transform="matrix(0.866 -0.5 0.5 0.866 -2.0115 172.1082)" class="st17" cx="320.15" cy="89.81" rx="21.57" ry="15.64"/>
				<path class="st6" d="M327.89,77.66c-4.26-1.22-10.16-0.17-11.71,5.68c-1.13,4.25,7.31,2.97,9.75,2.22
					c1.46-0.45,3.55-1.52,4.27-3.03C331.16,80.51,330.39,78.37,327.89,77.66z"/>
				<path class="st6" d="M312.93,89.23c-0.2-1.49-1.34-2.4-2.83-2.22c-2.44,0.28-4.54,2.83-4.93,5.35c-0.08,0.53-0.28,2.4,0.39,3.33
					c1.39,1.92,4.5-0.96,5.55-2.29C312.04,92.25,313.14,90.81,312.93,89.23z"/>
			</g>
			<path class="st18" d="M355.25,132.19c-2.18,2.97-6.61,8.75-10.21,10.51c-7.44,3.64-10.87,1.92-16.25,3.76
				c-0.88,0.3-0.91,1.53,0,1.82c3.59,1.13,8.36,2.23,11.23,4.81c1.33,1.19,3.91,3.76,5.04,3.76c3.45,0,5.82-6.15,7.24-9.53
				c2.68-6.36,8.59-14.87,9.43-17.69C362.93,125.63,359.96,125.77,355.25,132.19z"/>
			<g>
				<path class="st5" d="M340.56,169.91c-2.21-1.4-5.52-2.3-9.24-2.3c-3.71,0-7.03,0.89-9.24,2.3h-2.81v4.11
					c0,3.54,5.39,6.41,12.04,6.41c6.65,0,12.04-2.87,12.04-6.41v-4.11H340.56z"/>
				<path class="st19" d="M331.33,163.5c-6.65,0-12.04,2.87-12.04,6.41c0,3.54,5.39,6.41,12.04,6.41c6.65,0,12.04-2.87,12.04-6.41
					C343.37,166.37,337.98,163.5,331.33,163.5z"/>
				<path class="st5" d="M331.33,164.05c-4.71,0-8.54,2.03-8.54,4.54c0,2.51,3.82,4.54,8.54,4.54c4.71,0,8.54-2.03,8.54-4.54
					C339.86,166.08,336.04,164.05,331.33,164.05z"/>
				<path class="st5" d="M327.45,167.3c-4.97-0.44-6.04-8.53-6.92-12.26c-0.45-1.92-2.08-7.9-3.37-13.93
					c-1.29-6.03-2.37-12.16-3.03-15.02c1.39-2.9,0.74-5.59-2.09-6.26c-1.77-0.42-5.05,1.82-3.03,5.3c0.98,1.68,2.42,1.84,3.66,1.65
					c1.55,8.62,4.92,22.5,6.16,27.82c1.29,5.55,2.11,13.32,8.5,13.88C328.44,168.58,328.56,167.39,327.45,167.3z"/>
				<path class="st5" d="M335.91,167.3c4.97-0.44,6.04-8.53,6.92-12.26c0.45-1.92,2.08-7.9,3.37-13.93
					c1.29-6.03,2.37-12.16,3.03-15.02c-1.39-2.9-0.74-5.59,2.09-6.26c1.77-0.42,5.05,1.82,3.03,5.3c-0.98,1.68-2.42,1.84-3.66,1.65
					c-1.55,8.62-4.92,22.5-6.16,27.82c-1.29,5.55-2.11,13.32-8.5,13.88C334.92,168.58,334.8,167.39,335.91,167.3z"/>
			</g>
		</g>
		<g>
			<path class="st8" d="M382.98,179.79c-2.63-2.36-5.52,0.62-7.82,1.71c-3.5,1.65-5.62,3.1-9.32,5.6c-1.97-1.83-4.98-4.17-7.92-8.32
				c-1.17-1.64-3.24-3.14-6.29-1.82c-1.23,0.54-2.81,2.06-2.68,4.54c0.1,1.78,1.4,2.3,2.91,4.49c1.51,2.19,3,4.54,5.13,6.63
				c3.49,3.42,5.29,4.32,6.64,5.31c1.71,1.24,6.21-0.82,9.13-1.4c4.66-0.93,8.45,0.18,11.53-4.62
				C386.44,188.57,385.79,182.3,382.98,179.79z"/>
			<path class="st2" d="M353.56,177.61c-1.56-2.77-2.86-5.48-3.58-8.61c-0.1-0.44-0.73-0.5-0.95-0.12
				c-0.65,1.13-0.82,2.15-0.57,3.25c-2.52-0.79-4.1-2.19-6.54-3.18c-1-0.41-2.88-0.13-3.91,0.42c-1.98,1.07-1.96,3.03-0.54,4.83
				c1.01,1.28,3.61,1.94,5.05,2.27c3.21,0.73,4.44,1.99,7.16,3.88C351.6,181.16,353.57,178.94,353.56,177.61z"/>
			<path class="st6" d="M352.92,176.45c0,0,0.34,1.53-1.76,2.9c-1.27,0.83-2.6,0.21-2.6,0.21s0.62,1.53,1.2,2.14
				c0.58,0.62,2.56,1.19,4.22-0.52c1.66-1.71,0.85-2.59,0.47-3.32C354.07,177.13,352.92,176.45,352.92,176.45z"/>
		</g>
		<path class="st9" d="M318.89,180.3c-0.43-1.49-1.17-2.16-2.64-1.44c-1.71,0.84-3.46,2.76-4.83,4.21c0.06-0.47-0.25-1.38-0.01-2.45
			c0.12-0.51-0.56-0.93-0.91-0.32c-1.11,1.93-1.52,4.48-0.97,6.96c-1.09,1.79-4.22,4.03-6.08,4.89c-1.83,0.85-4.47,1.92-5.95,3.5
			c-0.39-1.06-2.07-4.82-3.16-5.98c-0.32-1.08-0.36-3.36-0.78-4.46c-0.9-2.38-3.38-5.63-6.18-4.98c-1.92,1.05-2.62,3.53-2.59,5.56
			c0.05,4,2.61,4.6,4.66,7.57c1.48,2.14,1.63,4.36,4.89,7.58c0.45,0.45,1.24,1.26,3.16,0.7c1.89-0.55,2.54,0.3,4.46-0.29
			c2.59-0.79,8.42-8.44,10-10.89c0.44-0.68,1.82-2.68,2.5-3.18c0.91-0.68,1.9-1.29,2.76-2.04
			C318.77,183.89,319.48,182.35,318.89,180.3z"/>
	</g>
</g>
</svg>
