<svg width="166" height="167" viewBox="0 0 166 167" fill="none" xmlns="http://www.w3.org/2000/svg">
<g clip-path="url(#clip0)">
<path d="M157.071 114.239C141.661 151.045 100.61 171.663 65.0136 166.102C59.2205 165.196 43.3398 162.501 29.2795 149.782C2.2105 125.299 -3.57964 76.82 18.2564 42.6524C34.1472 17.7861 62.6343 3.69013 89.7021 4.39511C95.5328 4.5472 117.878 5.483 137.515 21.9074C140.399 24.3194 146.762 30.0523 152.494 39.1442C165.957 60.5011 167.115 90.2534 157.071 114.239Z" fill="url(#paint0_linear)"/>
<path d="M0.914605 107.372C3.54567 96.1449 12.15 87.3321 23.1033 84.6363C30.6337 82.7832 37.8587 83.778 43.9651 86.7834C45.9935 87.7794 48.3979 86.6522 48.9587 84.4221C54.3569 62.9746 73.356 47.1299 95.9665 47.1299C122.778 47.1299 144.512 69.4083 144.512 96.8893C144.512 97.6187 144.497 98.6154 144.486 99.5732C144.58 101.629 145.456 102.501 146.762 102.72C157.267 103.838 165.522 112.713 165.978 123.661C166.504 136.231 156.522 146.646 144.247 146.646H30.7047C11.2676 146.646 -3.95138 128.134 0.914605 107.372Z" fill="url(#paint1_linear)"/>
<path opacity="0.21" d="M9.70867 111.579C12.0575 101.555 19.7401 93.6864 29.5198 91.2798C36.2437 89.6248 42.6948 90.5128 48.1473 93.1938C49.9556 94.0831 52.1046 93.0745 52.6058 91.0854C57.4258 71.9359 74.3894 57.7886 94.5776 57.7886C118.516 57.7886 137.922 77.6801 137.922 102.217C137.922 102.868 137.91 103.758 137.898 104.612C137.983 106.447 138.765 107.226 139.932 107.422C149.31 108.422 156.681 116.348 157.09 126.123C157.56 137.347 148.647 146.646 137.688 146.646H36.3069C18.9526 146.646 5.36413 130.117 9.70867 111.579Z" fill="#91B3FA"/>
<path d="M22.892 160.095C22.8942 160.538 23.0715 160.962 23.3852 161.274C23.6989 161.587 24.1236 161.763 24.5667 161.765H115.133C115.576 161.763 116.001 161.587 116.314 161.274C116.628 160.962 116.805 160.538 116.808 160.095L117.561 108.065C117.561 107.145 116.477 105.349 114.49 105.484L25.9789 103.195C25.4073 103.18 24.8386 103.281 24.3073 103.492C23.776 103.704 23.2932 104.021 22.8882 104.424C22.4832 104.828 22.1645 105.309 21.9513 105.84C21.7381 106.37 21.635 106.938 21.6481 107.51L22.892 160.095Z" fill="url(#paint2_linear)"/>
<path d="M24.5453 158.489C24.5465 158.91 24.7141 159.312 25.0114 159.609C25.3087 159.906 25.7115 160.073 26.1317 160.074H112.948C113.368 160.072 113.77 159.905 114.067 159.608C114.364 159.311 114.531 158.909 114.532 158.489L115.244 111.257C115.16 108.414 112.667 107.393 111.156 107.453L26.3268 105.178C25.925 105.168 25.5252 105.239 25.1518 105.388C24.7784 105.536 24.4391 105.759 24.1545 106.043C23.87 106.327 23.6461 106.665 23.4964 107.038C23.3468 107.411 23.2745 107.811 23.284 108.212L24.5453 158.489Z" fill="#7D97F4"/>
<path d="M113.595 136.051C113.564 136.05 113.534 136.044 113.505 136.032C113.477 136.019 113.451 136.002 113.43 135.979C113.409 135.957 113.392 135.931 113.381 135.902C113.37 135.873 113.364 135.843 113.365 135.812L113.421 131.982C113.422 131.921 113.447 131.863 113.491 131.82C113.534 131.777 113.593 131.753 113.654 131.753C113.684 131.753 113.715 131.759 113.743 131.772C113.771 131.784 113.797 131.802 113.818 131.824C113.84 131.846 113.857 131.872 113.868 131.901C113.879 131.93 113.884 131.96 113.883 131.991L113.827 135.822C113.826 135.883 113.801 135.941 113.758 135.984C113.714 136.027 113.656 136.051 113.595 136.051Z" fill="white"/>
<path d="M113.732 126.664C113.67 126.663 113.611 126.638 113.568 126.594C113.525 126.55 113.502 126.49 113.503 126.429L113.718 111.756C113.714 110.885 113.449 110.189 112.932 109.693C111.965 108.767 110.43 108.815 110.366 108.818L83.2525 108.091C83.222 108.09 83.192 108.083 83.1641 108.071C83.1363 108.058 83.1112 108.04 83.0903 108.018C83.0693 107.996 83.0529 107.97 83.0421 107.941C83.0312 107.913 83.0261 107.883 83.027 107.852C83.0264 107.821 83.0322 107.79 83.0442 107.762C83.0562 107.733 83.0739 107.708 83.0964 107.686C83.1188 107.665 83.1455 107.649 83.1746 107.638C83.2038 107.628 83.2347 107.624 83.2656 107.626L110.363 108.353C110.531 108.343 112.166 108.315 113.254 109.358C113.867 109.944 114.179 110.751 114.184 111.758L113.968 126.434C113.968 126.465 113.961 126.495 113.949 126.523C113.937 126.551 113.92 126.577 113.898 126.598C113.876 126.62 113.85 126.637 113.821 126.648C113.793 126.659 113.762 126.665 113.732 126.664Z" fill="white"/>
<path d="M15.8815 166.086H121.98C122.166 166.086 122.317 165.936 122.317 165.749V161.852C122.317 161.666 122.166 161.515 121.98 161.515H15.8815C15.6953 161.515 15.5444 161.666 15.5444 161.852V165.749C15.5444 165.936 15.6953 166.086 15.8815 166.086Z" fill="url(#paint3_linear)"/>
<path d="M62.2107 157.77H28.7836C28.4905 157.77 28.2003 157.712 27.9296 157.6C27.6588 157.488 27.4128 157.323 27.2056 157.116C26.9984 156.909 26.834 156.663 26.7219 156.392C26.6098 156.122 26.5522 155.831 26.5522 155.538V111.919C26.5522 111.619 26.6127 111.322 26.7302 111.046C26.8477 110.77 27.0198 110.52 27.2361 110.312C27.4524 110.104 27.7085 109.941 27.9891 109.834C28.2696 109.728 28.5689 109.678 28.8689 109.69L62.296 110.969C62.8729 110.991 63.419 111.235 63.8195 111.651C64.22 112.066 64.4438 112.621 64.4438 113.198V155.538C64.4438 155.832 64.3861 156.122 64.2738 156.393C64.1616 156.663 63.9971 156.909 63.7897 157.117C63.5823 157.324 63.3361 157.488 63.0652 157.6C62.7943 157.712 62.5039 157.77 62.2107 157.77Z" fill="#91B3FA"/>
<path opacity="0.51" d="M55.5627 126.802H33.4205C33.2449 126.802 33.1025 126.944 33.1025 127.119V129.425C33.1025 129.601 33.2449 129.743 33.4205 129.743H55.5627C55.7383 129.743 55.8806 129.601 55.8806 129.425V127.119C55.8806 126.944 55.7383 126.802 55.5627 126.802Z" fill="white"/>
<path opacity="0.51" d="M55.6076 131.499H33.4655C33.2898 131.499 33.1475 131.641 33.1475 131.817V134.122C33.1475 134.298 33.2898 134.44 33.4655 134.44H55.6076C55.7832 134.44 55.9256 134.298 55.9256 134.122V131.817C55.9256 131.641 55.7832 131.499 55.6076 131.499Z" fill="white"/>
<path opacity="0.51" d="M55.7404 136.295H33.5983C33.4226 136.295 33.2803 136.437 33.2803 136.613V138.919C33.2803 139.094 33.4226 139.237 33.5983 139.237H55.7404C55.916 139.237 56.0584 139.094 56.0584 138.919V136.613C56.0584 136.437 55.916 136.295 55.7404 136.295Z" fill="white"/>
<path opacity="0.51" d="M55.7858 140.992H33.6437C33.4681 140.992 33.3257 141.135 33.3257 141.31V143.616C33.3257 143.792 33.4681 143.934 33.6437 143.934H55.7858C55.9614 143.934 56.1038 143.792 56.1038 143.616V141.31C56.1038 141.135 55.9614 140.992 55.7858 140.992Z" fill="white"/>
<path opacity="0.51" d="M104.121 126.798H72.0089C71.8333 126.798 71.6909 126.94 71.6909 127.116V129.421C71.6909 129.597 71.8333 129.739 72.0089 129.739H104.121C104.297 129.739 104.439 129.597 104.439 129.421V127.116C104.439 126.94 104.297 126.798 104.121 126.798Z" fill="white"/>
<path opacity="0.51" d="M104.222 131.499H72.11C71.9344 131.499 71.792 131.641 71.792 131.817V134.122C71.792 134.298 71.9344 134.44 72.11 134.44H104.222C104.398 134.44 104.54 134.298 104.54 134.122V131.817C104.54 131.641 104.398 131.499 104.222 131.499Z" fill="white"/>
<path opacity="0.51" d="M90.879 136.295H72.11C71.9344 136.295 71.792 136.437 71.792 136.613V138.919C71.792 139.094 71.9344 139.237 72.11 139.237H90.879C91.0546 139.237 91.197 139.094 91.197 138.919V136.613C91.197 136.437 91.0546 136.295 90.879 136.295Z" fill="white"/>
<g opacity="0.51">
<path opacity="0.51" d="M89.0742 115.834H88.5754C88.4564 115.834 88.3423 115.787 88.2581 115.703C88.174 115.619 88.1267 115.505 88.1267 115.386V113.679C88.1267 113.386 88.0103 113.105 87.8031 112.898C87.5959 112.691 87.3148 112.575 87.0218 112.575H83.9307C83.6377 112.575 83.3566 112.691 83.1494 112.898C82.9422 113.105 82.8258 113.386 82.8258 113.679V115.384C82.8258 115.503 82.7785 115.617 82.6944 115.701C82.6102 115.785 82.4961 115.832 82.3771 115.832H81.8783C81.7594 115.832 81.6452 115.785 81.5611 115.701C81.477 115.617 81.4297 115.503 81.4297 115.384V113.679C81.4297 113.351 81.4944 113.026 81.6201 112.723C81.7458 112.419 81.93 112.144 82.1623 111.912C82.3945 111.679 82.6702 111.495 82.9737 111.37C83.2771 111.244 83.6023 111.18 83.9307 111.18H87.0218C87.3502 111.18 87.6754 111.244 87.9788 111.37C88.2823 111.495 88.558 111.679 88.7902 111.912C89.0225 112.144 89.2067 112.419 89.3324 112.723C89.4581 113.026 89.5228 113.351 89.5228 113.679V115.384C89.523 115.443 89.5116 115.501 89.4892 115.556C89.4667 115.611 89.4337 115.66 89.392 115.702C89.3504 115.744 89.3008 115.777 89.2463 115.8C89.1917 115.823 89.1332 115.834 89.0742 115.834Z" fill="white"/>
<path opacity="0.51" d="M89.6936 116.236H81.2617C81.0135 116.236 80.7756 116.335 80.6001 116.511C80.4247 116.686 80.3262 116.924 80.3262 117.172V123.64C80.3262 123.888 80.4247 124.126 80.6002 124.301C80.7756 124.476 81.0136 124.575 81.2617 124.575H89.6936C89.9417 124.575 90.1797 124.476 90.3551 124.301C90.5305 124.126 90.6291 123.888 90.6291 123.64V117.172C90.6291 116.924 90.5306 116.686 90.3551 116.511C90.1797 116.335 89.9418 116.236 89.6936 116.236ZM86.6843 122.489C86.6964 122.54 86.6969 122.593 86.6856 122.644C86.6744 122.695 86.6517 122.743 86.6193 122.785C86.5868 122.826 86.5455 122.859 86.4984 122.882C86.4513 122.905 86.3996 122.917 86.3472 122.917H84.6081C84.5557 122.917 84.504 122.905 84.4569 122.882C84.4098 122.859 84.3684 122.826 84.336 122.785C84.3036 122.743 84.2809 122.695 84.2696 122.644C84.2584 122.593 84.2588 122.54 84.271 122.489L84.6767 120.801C84.3828 120.625 84.1546 120.359 84.0271 120.041C83.8996 119.724 83.8798 119.373 83.9707 119.044C84.0617 118.714 84.2583 118.423 84.5305 118.216C84.8027 118.008 85.1355 117.896 85.4776 117.896C85.8198 117.896 86.1525 118.008 86.4247 118.216C86.697 118.423 86.8936 118.714 86.9845 119.044C87.0755 119.373 87.0557 119.724 86.9281 120.041C86.8006 120.359 86.5724 120.625 86.2786 120.801L86.6843 122.489Z" fill="white"/>
</g>
<path d="M113.621 40.3072C113.587 40.3074 113.554 40.2987 113.524 40.2822C113.477 40.2562 113.443 40.2129 113.429 40.1616C113.414 40.1104 113.42 40.0555 113.446 40.009C113.575 39.7764 113.7 39.5422 113.822 39.3065C113.834 39.283 113.851 39.2621 113.871 39.245C113.891 39.228 113.915 39.215 113.94 39.207C113.965 39.199 113.992 39.196 114.018 39.1982C114.044 39.2004 114.07 39.2078 114.094 39.22C114.117 39.2321 114.138 39.2488 114.155 39.269C114.172 39.2892 114.185 39.3126 114.193 39.3378C114.201 39.363 114.204 39.3895 114.202 39.4158C114.2 39.4422 114.192 39.4679 114.18 39.4913C114.057 39.7299 113.929 39.9685 113.798 40.207C113.78 40.2381 113.755 40.2638 113.723 40.2814C113.692 40.299 113.657 40.3079 113.621 40.3072Z" fill="#91B3FA"/>
<path d="M90.125 54.1327C90.0056 54.1327 89.8863 54.1327 89.767 54.1327C89.7156 54.1299 89.6673 54.1075 89.632 54.0702C89.5966 54.0328 89.5769 53.9834 89.5769 53.932C89.5769 53.8806 89.5966 53.8311 89.632 53.7938C89.6673 53.7564 89.7156 53.7341 89.767 53.7313C90.2867 53.7384 90.8117 53.7313 91.3301 53.7062C91.3831 53.7046 91.4346 53.7237 91.4737 53.7594C91.5128 53.7952 91.5365 53.8448 91.5395 53.8977C91.542 53.9509 91.5232 54.0029 91.4873 54.0423C91.4513 54.0816 91.4013 54.1052 91.348 54.1076C90.9471 54.1237 90.5331 54.1327 90.125 54.1327ZM87.2177 53.977H87.1962C86.6712 53.9174 86.1426 53.847 85.6241 53.7605C85.5736 53.7495 85.5293 53.7196 85.5004 53.6769C85.4714 53.6341 85.46 53.5819 85.4685 53.5309C85.477 53.48 85.5048 53.4343 85.5461 53.4033C85.5874 53.3723 85.639 53.3584 85.6903 53.3645C86.201 53.4498 86.7225 53.5219 87.2415 53.5774C87.2926 53.583 87.3396 53.6079 87.3729 53.6471C87.4062 53.6862 87.4232 53.7367 87.4204 53.788C87.4177 53.8393 87.3954 53.8876 87.3581 53.9229C87.3209 53.9583 87.2715 53.9781 87.2201 53.9782L87.2177 53.977ZM93.8938 53.8691C93.8434 53.8682 93.7952 53.8485 93.7587 53.8139C93.7221 53.7792 93.6999 53.7321 93.6965 53.6819C93.693 53.6316 93.7086 53.5819 93.74 53.5426C93.7715 53.5032 93.8166 53.4771 93.8663 53.4694C94.38 53.3973 94.8985 53.3084 95.4074 53.2064C95.4338 53.1997 95.4614 53.1984 95.4883 53.2026C95.5153 53.2069 95.5411 53.2165 95.5642 53.2311C95.5873 53.2456 95.6072 53.2647 95.6227 53.2871C95.6382 53.3096 95.6489 53.335 95.6543 53.3618C95.6596 53.3885 95.6595 53.4161 95.6538 53.4428C95.6482 53.4695 95.6372 53.4947 95.6214 53.517C95.6057 53.5393 95.5856 53.5582 95.5623 53.5725C95.5391 53.5867 95.5132 53.5961 95.4861 53.6001C94.9701 53.7038 94.4439 53.7939 93.9224 53.8673L93.8938 53.8691ZM83.1547 53.2201C83.1372 53.2201 83.1197 53.2177 83.1028 53.213C82.5939 53.0776 82.0826 52.9249 81.5826 52.7591C81.5344 52.7405 81.4952 52.7041 81.4731 52.6574C81.451 52.6107 81.4478 52.5573 81.4641 52.5082C81.4803 52.4592 81.5149 52.4183 81.5605 52.3941C81.6061 52.3698 81.6594 52.364 81.7091 52.378C82.2013 52.5408 82.7049 52.6917 83.2066 52.8253C83.2535 52.8381 83.2941 52.8675 83.321 52.9079C83.3478 52.9484 83.3591 52.9972 83.3528 53.0453C83.3465 53.0935 83.3229 53.1377 83.2865 53.1698C83.2501 53.202 83.2033 53.2198 83.1547 53.2201ZM97.9263 52.9816C97.8781 52.9816 97.8316 52.9645 97.795 52.9331C97.7585 52.9017 97.7344 52.8583 97.7272 52.8107C97.7199 52.7631 97.7301 52.7145 97.7556 52.6737C97.7812 52.633 97.8206 52.6027 97.8666 52.5885C98.3642 52.4382 98.863 52.2706 99.3486 52.0917C99.3736 52.0815 99.4004 52.0764 99.4274 52.0767C99.4544 52.0771 99.481 52.0829 99.5058 52.0937C99.5305 52.1046 99.5527 52.1204 99.5712 52.14C99.5897 52.1597 99.6041 52.1829 99.6134 52.2082C99.6228 52.2335 99.6269 52.2605 99.6256 52.2874C99.6243 52.3144 99.6176 52.3408 99.6058 52.3651C99.5941 52.3894 99.5776 52.4111 99.5573 52.4289C99.537 52.4467 99.5133 52.4602 99.4876 52.4686C98.9942 52.6505 98.4883 52.8199 97.983 52.9732C97.9653 52.9778 97.947 52.9798 97.9287 52.9792L97.9263 52.9816ZM79.26 51.8501C79.2323 51.8501 79.2049 51.8444 79.1795 51.8334C78.6962 51.6205 78.2148 51.3909 77.7476 51.1511C77.7239 51.1392 77.7028 51.1227 77.6855 51.1026C77.6681 51.0825 77.655 51.0592 77.6467 51.034C77.6385 51.0088 77.6353 50.9822 77.6374 50.9558C77.6394 50.9293 77.6467 50.9035 77.6588 50.8799C77.6709 50.8563 77.6875 50.8353 77.7078 50.8182C77.728 50.801 77.7515 50.788 77.7767 50.78C77.802 50.7719 77.8286 50.769 77.8551 50.7712C77.8815 50.7735 77.9072 50.781 77.9308 50.7933C78.3914 51.0318 78.8657 51.2555 79.3412 51.4648C79.3832 51.4835 79.4176 51.5161 79.4386 51.5571C79.4596 51.598 79.4658 51.645 79.4563 51.69C79.4468 51.7351 79.4221 51.7755 79.3864 51.8045C79.3507 51.8335 79.3061 51.8494 79.26 51.8495V51.8501ZM101.777 51.4798C101.732 51.4796 101.688 51.464 101.653 51.4356C101.617 51.4072 101.592 51.3677 101.582 51.3235C101.572 51.2792 101.577 51.2329 101.597 51.1919C101.617 51.151 101.65 51.1179 101.69 51.098C102.157 50.8732 102.625 50.631 103.079 50.3781C103.102 50.3644 103.127 50.3554 103.154 50.3517C103.181 50.348 103.208 50.3497 103.234 50.3567C103.26 50.3637 103.284 50.3759 103.305 50.3925C103.327 50.409 103.344 50.4297 103.357 50.4532C103.37 50.4768 103.379 50.5027 103.382 50.5295C103.384 50.5562 103.382 50.5833 103.374 50.609C103.366 50.6348 103.353 50.6587 103.336 50.6794C103.319 50.7001 103.298 50.7171 103.274 50.7294C102.813 50.9859 102.339 51.2316 101.865 51.4601C101.837 51.4732 101.808 51.4799 101.777 51.4798ZM75.6219 49.898C75.5835 49.8981 75.5459 49.8869 75.5139 49.8658C75.07 49.5819 74.6297 49.2807 74.2013 48.9712C74.1582 48.9395 74.1294 48.8921 74.1213 48.8392C74.1132 48.7864 74.1264 48.7325 74.1581 48.6894C74.1897 48.6462 74.2372 48.6175 74.2901 48.6094C74.3429 48.6013 74.3969 48.6145 74.44 48.6461C74.8576 48.9515 75.2931 49.2479 75.7299 49.5282C75.7663 49.5518 75.7941 49.5864 75.8092 49.627C75.8243 49.6677 75.8258 49.7121 75.8136 49.7536C75.8014 49.7952 75.7761 49.8317 75.7414 49.8578C75.7068 49.8838 75.6646 49.8979 75.6213 49.898H75.6219ZM105.349 49.4042C105.307 49.4041 105.265 49.3903 105.231 49.3649C105.196 49.3395 105.171 49.3037 105.158 49.2629C105.145 49.222 105.146 49.1782 105.16 49.1377C105.174 49.0973 105.2 49.0623 105.235 49.038C105.663 48.7433 106.087 48.432 106.496 48.1129C106.517 48.0953 106.541 48.082 106.567 48.0739C106.593 48.0658 106.62 48.063 106.647 48.0657C106.674 48.0684 106.7 48.0766 106.724 48.0898C106.748 48.1029 106.769 48.1207 106.785 48.1421C106.802 48.1635 106.814 48.1881 106.821 48.2144C106.828 48.2406 106.83 48.268 106.826 48.2949C106.822 48.3217 106.812 48.3475 106.798 48.3707C106.784 48.3939 106.765 48.4139 106.743 48.4296C106.325 48.7535 105.897 49.0696 105.463 49.369C105.43 49.392 105.39 49.4043 105.349 49.4042ZM72.3292 47.4079C72.2802 47.408 72.2329 47.3902 72.1961 47.3578C71.8029 47.0095 71.4134 46.6421 71.0393 46.2723C71.0206 46.2538 71.0057 46.2317 70.9956 46.2074C70.9854 46.1831 70.9802 46.157 70.9801 46.1307C70.98 46.1044 70.9851 46.0783 70.9951 46.0539C71.0051 46.0295 71.0198 46.0074 71.0384 45.9887C71.0569 45.97 71.079 45.9552 71.1033 45.945C71.1276 45.9349 71.1537 45.9296 71.18 45.9295C71.2064 45.9295 71.2325 45.9346 71.2569 45.9446C71.2812 45.9546 71.3034 45.9693 71.3221 45.9878C71.6914 46.354 72.075 46.7143 72.4622 47.0566C72.4927 47.0837 72.5142 47.1193 72.5239 47.1589C72.5337 47.1984 72.5312 47.24 72.5167 47.2781C72.5023 47.3162 72.4767 47.349 72.4432 47.3722C72.4097 47.3954 72.3699 47.4078 72.3292 47.4079ZM108.563 46.8055C108.523 46.8055 108.483 46.7934 108.45 46.7708C108.417 46.7481 108.391 46.7161 108.376 46.6787C108.361 46.6413 108.358 46.6003 108.367 46.561C108.375 46.5218 108.396 46.486 108.425 46.4584C108.803 46.1005 109.175 45.7302 109.53 45.3538C109.568 45.3175 109.617 45.297 109.669 45.2965C109.721 45.296 109.771 45.3156 109.809 45.3512C109.847 45.3868 109.869 45.4357 109.872 45.4875C109.874 45.5394 109.857 45.5902 109.823 45.6294C109.465 46.0117 109.084 46.3886 108.701 46.7507C108.663 46.7858 108.614 46.8055 108.563 46.8055ZM69.4529 44.4437C69.4234 44.4436 69.3942 44.4371 69.3675 44.4245C69.3408 44.4119 69.3172 44.3936 69.2984 44.3709C68.9619 43.9671 68.6319 43.5472 68.3187 43.1232C68.2892 43.0802 68.2775 43.0274 68.2861 42.976C68.2948 42.9246 68.3231 42.8785 68.365 42.8476C68.407 42.8166 68.4593 42.8032 68.511 42.8101C68.5627 42.817 68.6097 42.8437 68.6421 42.8846C68.9505 43.3021 69.2751 43.716 69.6068 44.1144C69.6314 44.1437 69.647 44.1793 69.652 44.2172C69.657 44.255 69.651 44.2935 69.6349 44.3281C69.6187 44.3627 69.593 44.392 69.5607 44.4124C69.5285 44.4329 69.4911 44.4437 69.4529 44.4437ZM111.343 43.7518C111.305 43.7518 111.268 43.7413 111.236 43.7213C111.205 43.7014 111.179 43.6729 111.162 43.6391C111.146 43.6053 111.139 43.5675 111.143 43.5301C111.147 43.4926 111.161 43.457 111.184 43.4273C111.505 43.0164 111.815 42.5923 112.108 42.1671C112.14 42.126 112.186 42.0986 112.237 42.0904C112.287 42.0822 112.34 42.0939 112.382 42.1231C112.425 42.1523 112.454 42.1968 112.465 42.2473C112.476 42.2977 112.467 42.3504 112.44 42.3943C112.141 42.8267 111.826 43.2574 111.502 43.6743C111.483 43.6984 111.459 43.7178 111.431 43.7313C111.404 43.7447 111.374 43.7517 111.343 43.7518ZM67.0593 41.0774C67.0245 41.0774 66.9903 41.0685 66.9601 41.0513C66.9299 41.0342 66.9046 41.0094 66.8868 40.9796C66.6142 40.5263 66.3529 40.0611 66.1112 39.5959C66.0991 39.5724 66.0916 39.5467 66.0894 39.5203C66.0871 39.494 66.0901 39.4674 66.0981 39.4422C66.1142 39.3912 66.15 39.3488 66.1975 39.3242C66.2449 39.2996 66.3002 39.2949 66.3512 39.311C66.4021 39.3272 66.4446 39.3629 66.4692 39.4104C66.7079 39.8679 66.9656 40.3265 67.2341 40.7732C67.2523 40.8037 67.2621 40.8384 67.2626 40.8739C67.263 40.9094 67.2541 40.9444 67.2366 40.9753C67.2191 41.0061 67.1938 41.0319 67.1632 41.0498C67.1326 41.0678 67.0977 41.0773 67.0622 41.0774H67.0593ZM65.2098 37.3831C65.1698 37.3829 65.1307 37.3708 65.0976 37.3484C65.0645 37.326 65.0387 37.2943 65.0236 37.2573C64.8249 36.7682 64.6388 36.2684 64.4706 35.771C64.461 35.7457 64.4566 35.7188 64.4577 35.6918C64.4587 35.6649 64.4652 35.6384 64.4768 35.614C64.4883 35.5895 64.5046 35.5677 64.5248 35.5497C64.5449 35.5318 64.5685 35.5181 64.5941 35.5094C64.6197 35.5007 64.6467 35.4973 64.6737 35.4993C64.7006 35.5014 64.7268 35.5088 64.7508 35.5212C64.7748 35.5336 64.7961 35.5507 64.8133 35.5715C64.8306 35.5922 64.8434 35.6163 64.8512 35.6421C65.0171 36.1318 65.2002 36.6245 65.3959 37.1064C65.4059 37.1308 65.411 37.157 65.4109 37.1834C65.4108 37.2098 65.4054 37.2359 65.3952 37.2602C65.3849 37.2846 65.3699 37.3066 65.3511 37.3252C65.3323 37.3437 65.31 37.3583 65.2855 37.3682C65.2624 37.3778 65.2377 37.3828 65.2127 37.3831H65.2098Z" fill="#91B3FA"/>
<path d="M63.9572 33.4369C63.912 33.437 63.8681 33.4218 63.8327 33.3937C63.7973 33.3657 63.7724 33.3264 63.7621 33.2824C63.7001 33.0192 63.6422 32.7558 63.5885 32.4922C63.5802 32.4409 63.5921 32.3884 63.6216 32.3457C63.6512 32.303 63.6961 32.2734 63.747 32.2631C63.7979 32.2527 63.8508 32.2625 63.8947 32.2903C63.9385 32.3181 63.9699 32.3618 63.9823 32.4122C64.0352 32.6723 64.092 32.9307 64.1529 33.1876C64.1642 33.239 64.1548 33.2929 64.1268 33.3375C64.0988 33.3821 64.0544 33.4139 64.0032 33.4262C63.9882 33.4313 63.9728 33.4349 63.9572 33.4369Z" fill="#91B3FA"/>
<path d="M67.3618 12.9608C67.3259 12.9606 67.2908 12.9509 67.26 12.9326C67.2292 12.9143 67.2038 12.8881 67.1865 12.8567C67.1693 12.8253 67.1607 12.7899 67.1617 12.7541C67.1627 12.7183 67.1733 12.6834 67.1923 12.6531C67.3355 12.4252 67.4825 12.1992 67.6332 11.9749C67.6637 11.9325 67.7095 11.9035 67.7609 11.8943C67.8124 11.885 67.8654 11.8962 67.9088 11.9253C67.9521 11.9545 67.9824 11.9994 67.9933 12.0505C68.0041 12.1016 67.9946 12.155 67.9667 12.1992C67.818 12.4199 67.673 12.6425 67.5318 12.8672C67.5137 12.8959 67.4886 12.9195 67.4588 12.9359C67.4291 12.9522 67.3957 12.9608 67.3618 12.9608Z" fill="#91B3FA"/>
<path d="M115.907 19.6875C115.863 19.6875 115.821 19.6734 115.786 19.6474C115.751 19.6214 115.726 19.5849 115.713 19.5432C115.56 19.0195 115.388 18.4947 115.203 17.9811C115.194 17.9563 115.19 17.93 115.191 17.9037C115.192 17.8774 115.199 17.8516 115.21 17.8277C115.221 17.8039 115.237 17.7825 115.256 17.7648C115.276 17.747 115.299 17.7333 115.323 17.7244C115.348 17.7154 115.375 17.7115 115.401 17.7127C115.427 17.714 115.453 17.7204 115.477 17.7316C115.501 17.7428 115.522 17.7586 115.54 17.7781C115.558 17.7976 115.571 17.8204 115.58 17.8451C115.769 18.3652 115.943 18.8984 116.099 19.4299C116.107 19.4552 116.109 19.4817 116.106 19.508C116.103 19.5342 116.095 19.5596 116.083 19.5828C116.07 19.6059 116.053 19.6264 116.032 19.6429C116.012 19.6594 115.988 19.6718 115.963 19.6792C115.945 19.6848 115.926 19.6877 115.907 19.6875ZM114.35 15.6318C114.313 15.6314 114.276 15.6206 114.244 15.6006C114.213 15.5806 114.187 15.5521 114.171 15.5185C113.932 15.0258 113.679 14.535 113.413 14.0602C113.389 14.0138 113.384 13.9597 113.398 13.9095C113.413 13.8592 113.447 13.8167 113.493 13.7911C113.539 13.7655 113.593 13.7588 113.643 13.7724C113.694 13.786 113.737 13.8189 113.764 13.864C114.034 14.3459 114.293 14.8439 114.533 15.3443C114.545 15.3681 114.551 15.3939 114.553 15.4202C114.554 15.4465 114.55 15.4729 114.542 15.4978C114.533 15.5227 114.519 15.5456 114.502 15.5652C114.484 15.5848 114.463 15.6008 114.439 15.6121C114.411 15.6264 114.381 15.634 114.35 15.6342V15.6318ZM112.156 11.885C112.124 11.8851 112.092 11.8773 112.063 11.8624C112.035 11.8474 112.01 11.8257 111.992 11.7991C111.679 11.353 111.348 10.9099 111.008 10.4828C110.978 10.441 110.966 10.3892 110.973 10.3381C110.98 10.2871 111.006 10.2407 111.046 10.2086C111.087 10.1764 111.138 10.161 111.189 10.1654C111.24 10.1698 111.288 10.1938 111.322 10.2323C111.668 10.6665 112.004 11.1162 112.321 11.5689C112.342 11.599 112.354 11.6343 112.357 11.671C112.359 11.7077 112.351 11.7443 112.334 11.7769C112.318 11.8095 112.292 11.8368 112.261 11.8558C112.229 11.8749 112.193 11.885 112.156 11.885ZM69.4119 10.1321C69.3737 10.1322 69.3364 10.1214 69.3041 10.101C69.2719 10.0806 69.2462 10.0515 69.23 10.017C69.2138 9.98248 69.2077 9.94407 69.2126 9.90625C69.2174 9.86844 69.2329 9.83279 69.2573 9.8035C69.6099 9.37884 69.9816 8.95836 70.3617 8.551C70.3794 8.53058 70.4011 8.51395 70.4254 8.50211C70.4498 8.49027 70.4762 8.48346 70.5033 8.48209C70.5303 8.48072 70.5573 8.48481 70.5827 8.49413C70.6081 8.50344 70.6313 8.51778 70.6511 8.5363C70.6708 8.55481 70.6866 8.57711 70.6975 8.60187C70.7084 8.62662 70.7142 8.65332 70.7145 8.68037C70.7148 8.70741 70.7097 8.73425 70.6994 8.75926C70.6891 8.78428 70.6739 8.80696 70.6546 8.82595C70.2799 9.22496 69.9136 9.63948 69.5664 10.0576C69.548 10.0811 69.5246 10.1002 69.4978 10.1135C69.4711 10.1268 69.4417 10.134 69.4119 10.1345V10.1321ZM109.389 8.53907C109.362 8.53929 109.335 8.53413 109.31 8.52388C109.286 8.51364 109.263 8.49852 109.244 8.47942C108.866 8.08936 108.469 7.70407 108.065 7.33667C108.025 7.30076 108.001 7.25061 107.999 7.19726C107.996 7.14391 108.015 7.09172 108.051 7.05217C108.087 7.01263 108.137 6.98896 108.19 6.98639C108.244 6.98382 108.296 7.00255 108.336 7.03845C108.746 7.41241 109.149 7.80248 109.532 8.19851C109.56 8.22673 109.579 8.26249 109.586 8.3013C109.593 8.3401 109.589 8.38021 109.574 8.41659C109.558 8.45298 109.533 8.48402 109.5 8.50581C109.467 8.5276 109.428 8.53917 109.389 8.53907ZM72.4445 7.02474C72.4036 7.02466 72.3638 7.01216 72.3303 6.9889C72.2967 6.96564 72.271 6.93272 72.2567 6.89452C72.2423 6.85632 72.2399 6.81465 72.2498 6.77505C72.2597 6.73546 72.2814 6.6998 72.312 6.67284C72.7296 6.30783 73.164 5.95176 73.6019 5.61359C73.6441 5.581 73.6976 5.56653 73.7505 5.57335C73.8035 5.58017 73.8515 5.60773 73.8841 5.64997C73.9167 5.6922 73.9312 5.74565 73.9243 5.79856C73.9175 5.85146 73.8899 5.89949 73.8477 5.93208C73.4158 6.26429 72.9886 6.61559 72.5763 6.97523C72.5402 7.00814 72.4933 7.02661 72.4445 7.02712V7.02474ZM106.125 5.678C106.082 5.67771 106.04 5.66394 106.005 5.63864C105.568 5.31299 105.114 4.99747 104.657 4.70045C104.635 4.68608 104.616 4.6675 104.601 4.64577C104.586 4.62404 104.576 4.59958 104.571 4.5738C104.565 4.54802 104.565 4.52142 104.57 4.49551C104.574 4.46961 104.584 4.4449 104.599 4.42282C104.613 4.40073 104.632 4.38169 104.653 4.36678C104.675 4.35188 104.7 4.3414 104.725 4.33594C104.751 4.33049 104.778 4.33016 104.804 4.33499C104.83 4.33981 104.854 4.3497 104.876 4.36407C105.34 4.66586 105.801 4.98614 106.245 5.31835C106.279 5.34357 106.304 5.37875 106.316 5.41894C106.329 5.45912 106.329 5.50227 106.316 5.54229C106.303 5.58231 106.277 5.61717 106.243 5.64195C106.209 5.66673 106.168 5.68018 106.126 5.68039L106.125 5.678ZM75.9359 4.43922C75.8922 4.43919 75.8497 4.42494 75.8149 4.39864C75.78 4.37234 75.7547 4.33541 75.7427 4.29344C75.7307 4.25147 75.7327 4.20673 75.7484 4.16599C75.7641 4.12525 75.7926 4.09073 75.8297 4.06764C76.2992 3.77539 76.7842 3.49328 77.2729 3.23264C77.3197 3.20733 77.3747 3.20166 77.4257 3.21687C77.4767 3.23208 77.5196 3.26694 77.5449 3.31376C77.5702 3.36058 77.5759 3.41554 77.5607 3.46654C77.5455 3.51755 77.5106 3.56042 77.4638 3.58573C76.9829 3.84517 76.5044 4.12251 76.0421 4.41119C76.0098 4.43111 75.9726 4.44164 75.9347 4.4416L75.9359 4.43922ZM102.439 3.38414C102.407 3.38421 102.375 3.37643 102.347 3.36147C101.862 3.11216 101.364 2.87419 100.864 2.6547C100.84 2.64413 100.818 2.62891 100.8 2.60991C100.782 2.59091 100.767 2.5685 100.758 2.54396C100.748 2.51943 100.744 2.49325 100.744 2.46691C100.745 2.44058 100.75 2.41461 100.761 2.39049C100.772 2.36636 100.787 2.34456 100.806 2.32632C100.825 2.30807 100.847 2.29375 100.872 2.28417C100.896 2.27459 100.922 2.26994 100.949 2.27047C100.975 2.27101 101.001 2.27673 101.025 2.2873C101.532 2.50977 102.04 2.75132 102.531 3.00302C102.57 3.02374 102.602 3.05723 102.621 3.09813C102.639 3.13903 102.644 3.18498 102.633 3.22865C102.623 3.27232 102.598 3.31119 102.562 3.33905C102.527 3.36691 102.484 3.38215 102.439 3.38235V3.38414ZM79.7965 2.45311C79.7499 2.45351 79.7047 2.43766 79.6685 2.40829C79.6323 2.37892 79.6075 2.33787 79.5983 2.29219C79.5891 2.24652 79.5962 2.19907 79.6182 2.15801C79.6402 2.11696 79.6758 2.08485 79.719 2.06722C80.2291 1.85489 80.7541 1.65569 81.2791 1.47497C81.3294 1.45757 81.3846 1.46086 81.4325 1.48413C81.4804 1.50739 81.5171 1.54872 81.5345 1.59902C81.5519 1.64933 81.5486 1.70448 81.5253 1.75235C81.502 1.80023 81.4607 1.8369 81.4104 1.8543C80.8931 2.03322 80.3759 2.22885 79.8735 2.4382C79.849 2.44807 79.8229 2.45313 79.7965 2.45311ZM98.4336 1.71414C98.4133 1.71394 98.3932 1.71072 98.3739 1.70459C97.8555 1.5364 97.3245 1.38252 96.7959 1.24654C96.7703 1.23996 96.7463 1.2284 96.7251 1.21254C96.704 1.19668 96.6862 1.17681 96.6728 1.15407C96.6594 1.13134 96.6506 1.10618 96.6468 1.08004C96.6431 1.05389 96.6446 1.02727 96.6512 1.0017C96.6578 0.976129 96.6693 0.952102 96.6852 0.930994C96.7011 0.909886 96.7209 0.892109 96.7437 0.878678C96.7664 0.865247 96.7916 0.856426 96.8177 0.852719C96.8439 0.849011 96.8705 0.850489 96.8961 0.857068C97.4331 0.995439 97.97 1.15528 98.498 1.32288C98.5434 1.33741 98.5822 1.36765 98.6073 1.40816C98.6324 1.44868 98.6423 1.49682 98.6351 1.54394C98.6279 1.59106 98.6041 1.63408 98.5681 1.66528C98.532 1.69647 98.486 1.71379 98.4384 1.71414H98.4336ZM83.9287 1.11771C83.8791 1.11833 83.831 1.10055 83.7938 1.0678C83.7565 1.03506 83.7327 0.989665 83.727 0.940408C83.7213 0.89115 83.7341 0.841524 83.7628 0.801123C83.7916 0.760723 83.8343 0.732417 83.8828 0.721679C84.4197 0.594639 84.9728 0.483107 85.5175 0.389468C85.5699 0.380451 85.6238 0.392635 85.6673 0.423338C85.7108 0.454042 85.7402 0.50075 85.7493 0.553187C85.7583 0.605625 85.7461 0.659497 85.7154 0.702951C85.6847 0.746406 85.6379 0.775884 85.5855 0.7849C85.0485 0.87675 84.5068 0.987089 83.9746 1.11234C83.9596 1.11585 83.9442 1.11765 83.9287 1.11771ZM94.209 0.715714C94.1988 0.716601 94.1887 0.716601 94.1785 0.715714C93.6416 0.632811 93.0903 0.566011 92.5468 0.516507C92.5205 0.514118 92.495 0.506585 92.4717 0.494337C92.4484 0.482088 92.4277 0.465366 92.4108 0.445123C92.3939 0.42488 92.3812 0.401514 92.3734 0.376359C92.3655 0.351203 92.3627 0.324751 92.3651 0.298512C92.3675 0.272274 92.375 0.246763 92.3873 0.223436C92.3995 0.200109 92.4163 0.179422 92.4365 0.162558C92.4568 0.145694 92.4801 0.132982 92.5053 0.125148C92.5305 0.117314 92.5569 0.114511 92.5832 0.1169C93.1345 0.167 93.6917 0.236186 94.2388 0.319089C94.2895 0.325855 94.3357 0.351741 94.3679 0.391445C94.4001 0.43115 94.416 0.481671 94.4122 0.532663C94.4084 0.583656 94.3852 0.631262 94.3474 0.665736C94.3096 0.70021 94.2601 0.718943 94.209 0.7181V0.715714ZM88.2225 0.466407C88.1694 0.468305 88.1176 0.449012 88.0787 0.412772C88.0397 0.376532 88.0168 0.326314 88.0149 0.273164C88.013 0.220015 88.0323 0.168288 88.0686 0.129364C88.1048 0.0904393 88.155 0.0675053 88.2082 0.0656071C88.7601 0.0268393 89.3209 0.00596429 89.8752 0C89.9265 0.0027996 89.9748 0.025165 90.0102 0.062496C90.0456 0.0998271 90.0653 0.149285 90.0653 0.200698C90.0653 0.252111 90.0456 0.301569 90.0102 0.3389C89.9748 0.376231 89.9265 0.398597 89.8752 0.401396C89.3287 0.406168 88.7762 0.427639 88.2333 0.465811L88.2225 0.466407Z" fill="#91B3FA"/>
<path d="M116.67 23.1061C116.622 23.1061 116.576 23.089 116.54 23.0578C116.503 23.0267 116.479 22.9835 116.472 22.9361C116.432 22.6737 116.387 22.4119 116.337 22.1506C116.328 22.0983 116.339 22.0442 116.369 22.0002C116.399 21.9563 116.446 21.9261 116.498 21.9162C116.55 21.9069 116.604 21.9185 116.648 21.9485C116.692 21.9785 116.722 22.0245 116.732 22.0767C116.782 22.3423 116.828 22.6081 116.869 22.8741C116.877 22.9268 116.864 22.9805 116.833 23.0235C116.801 23.0665 116.754 23.0954 116.701 23.1037C116.691 23.1051 116.681 23.1059 116.67 23.1061Z" fill="#91B3FA"/>
<path d="M110.754 26.4659C110.759 26.399 110.743 26.3322 110.709 26.2747C110.674 26.2172 110.622 26.1719 110.561 26.145L106.96 24.5812C106.679 22.7441 106.1 20.9651 105.246 19.3141L107.232 15.9324C107.267 15.8746 107.282 15.8076 107.276 15.7408C107.27 15.6739 107.243 15.6106 107.2 15.5596L104.139 11.981C104.095 11.93 104.037 11.8939 103.971 11.8778C103.906 11.8616 103.838 11.8663 103.775 11.891L100.126 13.3296C98.6265 12.2304 96.9582 11.3829 95.1863 10.8204L94.1983 7.02234C94.181 6.95776 94.1442 6.90012 94.0928 6.85738C94.0414 6.81465 93.9779 6.78893 93.9113 6.78377L89.2171 6.41816C89.1502 6.41275 89.0833 6.42842 89.0257 6.46297C88.9682 6.49752 88.9229 6.54922 88.8962 6.61081L87.3319 10.2103C85.4942 10.4919 83.7147 11.0709 82.0632 11.9244L78.6804 9.93768C78.6224 9.9039 78.5554 9.88897 78.4886 9.89495C78.4218 9.90094 78.3585 9.92754 78.3075 9.97108L74.7278 13.0308C74.6768 13.0745 74.6407 13.133 74.6245 13.1983C74.6084 13.2635 74.613 13.3321 74.6377 13.3946L76.0767 17.0429C74.9772 18.5416 74.1295 20.2094 73.5668 21.9808L69.767 22.9679C69.7023 22.9851 69.6446 23.0221 69.6018 23.0736C69.559 23.1251 69.5334 23.1886 69.5283 23.2553L69.1626 27.948C69.1574 28.0149 69.1731 28.0818 69.2077 28.1393C69.2422 28.1968 69.2938 28.2421 69.3553 28.2689L72.9559 29.8328C73.2371 31.67 73.8162 33.449 74.6705 35.0998L72.6832 38.4816C72.6492 38.5394 72.6342 38.6065 72.6402 38.6733C72.6462 38.7401 72.6729 38.8034 72.7166 38.8543L75.7772 42.4329C75.8209 42.4839 75.8794 42.52 75.9445 42.5361C76.0096 42.5522 76.0782 42.5477 76.1406 42.523L79.7907 41.0844C81.2896 42.1838 82.958 43.0313 84.73 43.5936L85.7174 47.3916C85.7346 47.4562 85.7714 47.5139 85.8228 47.5567C85.8742 47.5994 85.9377 47.6251 86.0044 47.6302L90.6991 47.9958C90.766 48.001 90.8329 47.9853 90.8904 47.9507C90.9479 47.9162 90.9933 47.8646 91.0201 47.8031L92.5844 44.2037C94.4222 43.9226 96.2018 43.3436 97.8531 42.4896L101.236 44.4763C101.294 44.51 101.361 44.525 101.428 44.519C101.494 44.513 101.558 44.4864 101.609 44.4429L105.188 41.3832C105.239 41.3396 105.276 41.2811 105.292 41.216C105.308 41.1509 105.303 41.0823 105.279 41.02L103.84 37.371C104.939 35.8724 105.787 34.2046 106.349 32.4332L110.149 31.4461C110.213 31.4288 110.271 31.3918 110.314 31.3403C110.357 31.2888 110.382 31.2253 110.387 31.1586L110.754 26.4659Z" fill="#91B3FA"/>
<path opacity="0.7" d="M89.9486 31.6888C88.7905 31.6878 87.6776 31.2397 86.842 30.4381C86.0065 29.6365 85.513 28.5433 85.4644 27.3866C85.4158 26.2299 85.816 25.0992 86.5814 24.2304C87.3468 23.3616 88.4183 22.8219 89.5722 22.7239C90.7261 22.6259 91.8733 22.9772 92.7743 23.7044C93.6753 24.4317 94.2606 25.4787 94.4079 26.627C94.5552 27.7753 94.2532 28.9361 93.565 29.8671C92.8767 30.7982 91.8553 31.4275 90.714 31.6238C90.4612 31.667 90.2051 31.6887 89.9486 31.6888ZM89.9665 23.3269C89.7443 23.3271 89.5226 23.346 89.3036 23.3835C88.4194 23.5353 87.6152 23.9888 87.0279 24.6669C86.4407 25.3449 86.1068 26.2055 86.0831 27.102C86.0594 27.9986 86.3474 28.8756 86.898 29.5837C87.4486 30.2918 88.2278 30.7871 89.1027 30.9853C89.9777 31.1835 90.8943 31.0724 91.6965 30.6707C92.4986 30.2691 93.1367 29.6019 93.5019 28.7827C93.8672 27.9635 93.937 27.0431 93.6995 26.1783C93.4621 25.3134 92.932 24.5576 92.1996 24.0396C91.5482 23.5765 90.7688 23.3275 89.9694 23.3269H89.9665Z" fill="white"/>
<path opacity="0.7" d="M89.8762 38.8682C89.5696 38.8682 89.2613 38.8563 88.9515 38.8324C86.0271 38.6043 83.2961 37.2833 81.3023 35.1325C79.3086 32.9816 78.1986 30.1589 78.1934 27.2265C78.1934 26.9192 78.2053 26.6108 78.2292 26.3015C78.4084 24.0023 79.2656 21.8079 80.6924 19.9957C82.1192 18.1836 84.0515 16.8351 86.2449 16.1208C88.4383 15.4065 90.7944 15.3584 93.0151 15.9827C95.2358 16.607 97.2215 17.8756 98.721 19.628C99.2607 20.2583 99.7319 20.944 100.127 21.6738L99.5969 21.9601C98.4632 19.8575 96.6791 18.1783 94.5113 17.1738C92.3435 16.1692 89.9087 15.8933 87.5711 16.3873C85.2334 16.8813 83.1186 18.1187 81.5429 19.9143C79.9672 21.7099 79.0155 23.9672 78.8299 26.3486C78.8073 26.642 78.7959 26.9343 78.7959 27.2253C78.8011 29.8471 79.7378 32.3817 81.4389 34.3771C83.14 36.3725 85.4948 37.6988 88.0834 38.1196C90.6719 38.5404 93.3258 38.0282 95.5717 36.6744C97.8175 35.3205 99.5092 33.2132 100.345 30.7282L100.917 30.9196C100.139 33.2316 98.6558 35.2418 96.676 36.6675C94.6962 38.0933 92.3192 38.8629 89.8792 38.8682H89.8762Z" fill="white"/>
<path d="M136.277 46.8984C136.242 46.8983 136.207 46.8888 136.176 46.8709C136.146 46.8531 136.12 46.8275 136.103 46.7968C136.085 46.7661 136.076 46.7313 136.077 46.6959C136.077 46.6605 136.087 46.6259 136.104 46.5954C136.239 46.3676 136.368 46.135 136.487 45.9035C136.5 45.8801 136.516 45.8592 136.536 45.8421C136.557 45.825 136.58 45.8121 136.605 45.804C136.63 45.796 136.657 45.7929 136.683 45.7951C136.709 45.7973 136.735 45.8047 136.759 45.8168C136.782 45.8289 136.803 45.8455 136.82 45.8656C136.837 45.8858 136.85 45.9092 136.858 45.9343C136.866 45.9595 136.869 45.986 136.867 46.0124C136.865 46.0387 136.858 46.0643 136.845 46.0878C136.723 46.3264 136.589 46.565 136.45 46.8C136.433 46.8302 136.407 46.8551 136.377 46.8724C136.346 46.8897 136.312 46.8986 136.277 46.8984Z" fill="#91B3FA"/>
<path d="M123.313 53.6189H123.297C122.751 53.5758 122.208 53.5012 121.67 53.3953C121.619 53.384 121.574 53.353 121.545 53.309C121.516 53.265 121.506 53.2115 121.516 53.1599C121.526 53.1083 121.556 53.0628 121.6 53.0331C121.643 53.0034 121.697 52.9919 121.748 53.001C122.271 53.104 122.798 53.1767 123.329 53.2187C123.38 53.2241 123.426 53.2485 123.46 53.2871C123.493 53.3256 123.511 53.3754 123.509 53.4264C123.507 53.4773 123.485 53.5256 123.449 53.5615C123.413 53.5973 123.364 53.6181 123.313 53.6195V53.6189ZM125.938 53.5766C125.887 53.5766 125.837 53.557 125.8 53.5216C125.763 53.4863 125.74 53.438 125.737 53.3866C125.735 53.3353 125.752 53.2848 125.785 53.2456C125.818 53.2064 125.865 53.1814 125.916 53.1758C126.445 53.1166 126.97 53.0268 127.488 52.9068C127.54 52.8947 127.595 52.9037 127.64 52.9317C127.685 52.9598 127.717 53.0047 127.729 53.0565C127.742 53.1083 127.733 53.1628 127.705 53.208C127.676 53.2532 127.632 53.2853 127.58 53.2974C127.046 53.4213 126.506 53.5141 125.961 53.5754L125.938 53.5766ZM119.19 52.6461C119.164 52.646 119.138 52.6412 119.114 52.6318C118.606 52.4254 118.112 52.1894 117.632 51.9251C117.609 51.9123 117.588 51.8952 117.572 51.8746C117.555 51.854 117.543 51.8304 117.536 51.8051C117.529 51.7798 117.526 51.7533 117.529 51.7271C117.532 51.7009 117.54 51.6756 117.553 51.6525C117.566 51.6294 117.583 51.6091 117.603 51.5927C117.624 51.5762 117.648 51.564 117.673 51.5567C117.698 51.5494 117.725 51.5471 117.751 51.55C117.777 51.553 117.803 51.561 117.826 51.5738C118.292 51.8303 118.772 52.0593 119.265 52.2597C119.309 52.277 119.345 52.3089 119.367 52.3499C119.389 52.3909 119.397 52.4385 119.388 52.4843C119.379 52.5301 119.354 52.5714 119.318 52.6009C119.282 52.6305 119.236 52.6465 119.19 52.6461ZM130.025 52.4672C129.979 52.4671 129.935 52.4512 129.899 52.4223C129.864 52.3934 129.839 52.3532 129.829 52.3083C129.82 52.2635 129.826 52.2167 129.846 52.1757C129.867 52.1347 129.901 52.102 129.943 52.0831C130.429 51.8661 130.902 51.6206 131.359 51.3477C131.404 51.3224 131.458 51.3158 131.508 51.3293C131.559 51.3428 131.602 51.3754 131.629 51.4202C131.656 51.465 131.664 51.5184 131.652 51.5692C131.64 51.62 131.609 51.6642 131.565 51.6925C131.094 51.9731 130.607 52.2261 130.107 52.4499C130.082 52.4607 130.055 52.4662 130.027 52.466L130.025 52.4672ZM115.564 50.4674C115.517 50.4673 115.471 50.4508 115.435 50.4209C115.015 50.0699 114.615 49.6947 114.238 49.2972C114.219 49.2783 114.203 49.2557 114.193 49.2307C114.182 49.2057 114.177 49.1788 114.177 49.1517C114.177 49.1246 114.183 49.0979 114.194 49.073C114.205 49.0481 114.22 49.0257 114.24 49.0071C114.26 48.9885 114.283 48.974 114.308 48.9646C114.334 48.9552 114.361 48.951 114.388 48.9523C114.415 48.9536 114.442 48.9604 114.466 48.9722C114.49 48.984 114.512 49.0006 114.53 49.021C114.896 49.4071 115.284 49.7715 115.693 50.1125C115.724 50.139 115.747 50.1746 115.758 50.2144C115.768 50.2542 115.766 50.2963 115.752 50.335C115.738 50.3737 115.713 50.4072 115.679 50.4309C115.645 50.4545 115.605 50.4673 115.564 50.4674ZM133.582 50.1644C133.541 50.1646 133.501 50.1524 133.468 50.1294C133.434 50.1064 133.408 50.0737 133.394 50.0357C133.379 49.9977 133.376 49.9562 133.386 49.9166C133.396 49.8771 133.417 49.8414 133.447 49.8143L133.567 49.7075C133.921 49.3847 134.258 49.0437 134.577 48.6859C134.613 48.6501 134.662 48.6294 134.713 48.6282C134.764 48.6269 134.813 48.6451 134.851 48.6791C134.889 48.7131 134.913 48.7603 134.917 48.8111C134.922 48.8618 134.907 48.9124 134.875 48.9525C134.547 49.321 134.2 49.6722 133.836 50.0046L133.717 50.1137C133.679 50.1467 133.631 50.1647 133.582 50.1644ZM112.76 47.292C112.726 47.2921 112.693 47.2837 112.663 47.2676C112.634 47.2514 112.608 47.228 112.59 47.1996C112.295 46.7385 112.027 46.2605 111.787 45.7681C111.767 45.7206 111.766 45.6673 111.784 45.6191C111.803 45.5709 111.839 45.5315 111.885 45.5091C111.931 45.4866 111.985 45.4829 112.034 45.4986C112.083 45.5142 112.124 45.5482 112.149 45.5934C112.381 46.0718 112.642 46.5362 112.929 46.9842C112.948 47.0145 112.959 47.0495 112.96 47.0855C112.962 47.1216 112.953 47.1572 112.936 47.1889C112.919 47.2205 112.893 47.2469 112.862 47.2652C112.831 47.2836 112.796 47.2933 112.76 47.2932V47.292Z" fill="#91B3FA"/>
<path d="M111.054 43.4097C111.01 43.4096 110.967 43.3949 110.932 43.3678C110.897 43.3408 110.871 43.3029 110.86 43.26C110.791 43.0023 110.732 42.7321 110.672 42.4655C110.664 42.4143 110.676 42.3618 110.705 42.3191C110.735 42.2764 110.78 42.2468 110.83 42.2364C110.881 42.2261 110.934 42.2359 110.978 42.2637C111.022 42.2915 111.053 42.3352 111.066 42.3856C111.118 42.6427 111.179 42.9015 111.245 43.1556C111.252 43.1811 111.253 43.2076 111.25 43.2338C111.246 43.2599 111.238 43.2851 111.225 43.3079C111.211 43.3306 111.194 43.3506 111.173 43.3665C111.152 43.3825 111.128 43.3941 111.102 43.4008C111.087 43.4057 111.071 43.4087 111.054 43.4097Z" fill="#91B3FA"/>
<path d="M112.709 32.5126C112.671 32.5126 112.634 32.5019 112.602 32.4815C112.58 32.4676 112.56 32.4493 112.545 32.4278C112.53 32.4063 112.519 32.382 112.513 32.3563C112.507 32.3306 112.506 32.304 112.511 32.278C112.515 32.252 112.525 32.2271 112.539 32.2048C112.683 31.9758 112.837 31.7486 112.993 31.5285C113.009 31.5071 113.028 31.4889 113.05 31.4749C113.073 31.461 113.098 31.4516 113.123 31.4473C113.149 31.443 113.176 31.4438 113.202 31.4498C113.227 31.4557 113.252 31.4667 113.273 31.482C113.294 31.4973 113.313 31.5167 113.327 31.539C113.34 31.5613 113.35 31.5862 113.354 31.6122C113.359 31.6382 113.358 31.6647 113.352 31.6904C113.346 31.716 113.335 31.7403 113.32 31.7617C113.167 31.9752 113.021 32.1965 112.879 32.4177C112.861 32.4467 112.836 32.4706 112.806 32.4872C112.776 32.5038 112.743 32.5125 112.709 32.5126Z" fill="#91B3FA"/>
<path d="M137.107 34.4653C137.068 34.4654 137.029 34.4538 136.996 34.4321C136.963 34.4103 136.938 34.3794 136.922 34.3431C136.718 33.8614 136.485 33.392 136.226 32.9373C136.203 32.8913 136.198 32.8381 136.213 32.7887C136.228 32.7394 136.261 32.6976 136.306 32.6721C136.351 32.6466 136.404 32.6393 136.454 32.6517C136.504 32.6641 136.547 32.6952 136.575 32.7387C136.842 33.2068 137.081 33.6902 137.291 34.1862C137.312 34.2352 137.312 34.2906 137.292 34.34C137.273 34.3894 137.234 34.4289 137.185 34.4498C137.16 34.46 137.134 34.4653 137.107 34.4653ZM134.916 30.9232C134.887 30.9232 134.858 30.917 134.832 30.9048C134.805 30.8926 134.782 30.8749 134.763 30.8528C134.66 30.7335 134.555 30.6142 134.448 30.4949C134.203 30.2259 133.945 29.9647 133.679 29.7166C133.659 29.6989 133.642 29.6772 133.63 29.6529C133.618 29.6287 133.611 29.6022 133.61 29.5753C133.609 29.5483 133.613 29.5213 133.622 29.4959C133.631 29.4705 133.646 29.4473 133.664 29.4275C133.682 29.4078 133.705 29.392 133.729 29.3811C133.754 29.3701 133.781 29.3643 133.808 29.3638C133.835 29.3634 133.862 29.3685 133.887 29.3787C133.912 29.3888 133.934 29.404 133.953 29.4231C134.226 29.6784 134.49 29.948 134.745 30.2241C134.855 30.3434 134.964 30.4675 135.069 30.5915C135.094 30.6207 135.11 30.6564 135.115 30.6944C135.12 30.7325 135.115 30.7712 135.099 30.8061C135.082 30.841 135.057 30.8705 135.024 30.8911C134.992 30.9118 134.954 30.9227 134.916 30.9226V30.9232ZM114.848 29.8931C114.808 29.8931 114.769 29.881 114.736 29.8586C114.703 29.8361 114.677 29.8042 114.662 29.7671C114.647 29.7299 114.644 29.6891 114.652 29.6499C114.66 29.6107 114.68 29.575 114.709 29.5472C114.791 29.4697 114.873 29.3929 114.956 29.317C115.27 29.0307 115.601 28.7551 115.938 28.4993C115.981 28.4704 116.033 28.459 116.084 28.4674C116.134 28.4757 116.18 28.5032 116.211 28.5441C116.242 28.5851 116.256 28.6364 116.251 28.6875C116.245 28.7387 116.22 28.7857 116.181 28.819C115.853 29.0677 115.532 29.3355 115.226 29.6134C115.145 29.6874 115.065 29.7625 114.988 29.8377C114.95 29.8735 114.9 29.8934 114.848 29.8931ZM131.769 28.1903C131.731 28.1902 131.694 28.1795 131.662 28.1593C131.219 27.8801 130.761 27.6265 130.29 27.4001C130.244 27.3755 130.21 27.3344 130.194 27.2853C130.178 27.2363 130.182 27.183 130.204 27.1365C130.227 27.09 130.266 27.0539 130.314 27.0355C130.362 27.0172 130.416 27.0181 130.463 27.038C130.949 27.271 131.421 27.5321 131.876 27.8199C131.913 27.843 131.942 27.8776 131.957 27.9183C131.973 27.9591 131.975 28.0038 131.962 28.0457C131.95 28.0876 131.925 28.1244 131.89 28.1505C131.855 28.1766 131.812 28.1906 131.769 28.1903ZM118.258 27.4955C118.213 27.4959 118.169 27.4808 118.133 27.4527C118.097 27.4246 118.072 27.3852 118.062 27.341C118.051 27.2967 118.056 27.2502 118.076 27.2092C118.095 27.1681 118.128 27.1349 118.169 27.115C118.652 26.8756 119.148 26.6641 119.655 26.4816C119.705 26.4634 119.761 26.466 119.809 26.4886C119.857 26.5113 119.894 26.5522 119.913 26.6023C119.931 26.6525 119.928 26.7078 119.905 26.756C119.883 26.8043 119.842 26.8416 119.792 26.8597C119.299 27.037 118.817 27.2425 118.348 27.4752C118.32 27.4888 118.289 27.4957 118.258 27.4955ZM127.955 26.5239C127.937 26.5239 127.92 26.5215 127.903 26.5167C127.397 26.3827 126.883 26.2778 126.365 26.2024C126.339 26.1986 126.314 26.1897 126.291 26.1762C126.269 26.1627 126.249 26.1448 126.233 26.1237C126.217 26.1025 126.206 26.0784 126.2 26.0529C126.193 26.0273 126.192 26.0007 126.196 25.9746C126.199 25.9484 126.208 25.9231 126.221 25.9003C126.235 25.8775 126.252 25.8576 126.274 25.8418C126.295 25.826 126.319 25.8146 126.345 25.8084C126.37 25.8021 126.397 25.801 126.423 25.8052C126.956 25.8827 127.485 25.9907 128.006 26.1285C128.053 26.1409 128.094 26.1701 128.122 26.2106C128.149 26.2512 128.161 26.3003 128.154 26.3488C128.148 26.3972 128.124 26.4418 128.088 26.474C128.051 26.5063 128.003 26.524 127.955 26.5239ZM122.227 26.2299C122.177 26.2292 122.129 26.2098 122.092 26.1756C122.056 26.1413 122.033 26.0947 122.029 26.0448C122.025 25.9948 122.04 25.9452 122.071 25.9057C122.102 25.8661 122.146 25.8394 122.195 25.8309C122.729 25.7468 123.267 25.6932 123.806 25.6704C123.858 25.6701 123.909 25.69 123.946 25.7259C123.984 25.7618 124.006 25.811 124.008 25.8631C124.011 25.9151 123.993 25.9659 123.958 26.0049C123.923 26.0438 123.875 26.0678 123.823 26.0718C123.3 26.094 122.778 26.146 122.261 26.2275C122.25 26.2297 122.239 26.2309 122.228 26.2311L122.227 26.2299Z" fill="#91B3FA"/>
<path d="M138.037 37.7242C137.989 37.724 137.943 37.7069 137.906 37.6757C137.87 37.6446 137.846 37.6015 137.838 37.5542C137.798 37.2947 137.749 37.0329 137.694 36.7788C137.683 36.7267 137.693 36.6722 137.722 36.6274C137.751 36.5826 137.796 36.5511 137.848 36.5399C137.9 36.5287 137.955 36.5386 138 36.5675C138.045 36.5964 138.076 36.642 138.087 36.6941C138.144 36.9583 138.194 37.2279 138.236 37.4945C138.244 37.5472 138.231 37.6009 138.199 37.6439C138.168 37.6869 138.121 37.7158 138.068 37.7242C138.058 37.7247 138.047 37.7247 138.037 37.7242Z" fill="#91B3FA"/>
<path d="M134.998 39.3523C135.001 39.3179 134.993 39.2835 134.975 39.2539C134.957 39.2243 134.931 39.2009 134.899 39.187L133.049 38.3843C132.905 37.4405 132.607 36.5265 132.169 35.6783L133.189 33.9415C133.207 33.9118 133.214 33.8774 133.211 33.8431C133.208 33.8087 133.195 33.7762 133.172 33.75L131.6 31.9124C131.578 31.8862 131.548 31.8676 131.514 31.8593C131.481 31.851 131.446 31.8533 131.414 31.8659L129.538 32.6049C128.768 32.04 127.911 31.6046 127.001 31.316L126.494 29.3651C126.485 29.3317 126.466 29.3019 126.44 29.2797C126.414 29.2576 126.381 29.2443 126.347 29.2416L123.935 29.0537C123.901 29.051 123.866 29.0591 123.837 29.0769C123.807 29.0946 123.784 29.1211 123.77 29.1527L122.967 31.0017C122.023 31.1464 121.109 31.4437 120.26 31.882L118.523 30.8615C118.493 30.8441 118.458 30.8365 118.424 30.8396C118.39 30.8427 118.357 30.8564 118.331 30.8788L116.493 32.4504C116.467 32.4729 116.448 32.5029 116.44 32.5363C116.432 32.5698 116.434 32.605 116.446 32.6371L117.186 34.5116C116.621 35.2814 116.185 36.1379 115.896 37.0477L113.945 37.5552C113.911 37.5638 113.881 37.5827 113.859 37.6091C113.837 37.6355 113.824 37.6682 113.821 37.7025L113.633 40.1133C113.631 40.1476 113.639 40.1819 113.657 40.2114C113.674 40.2409 113.701 40.2641 113.732 40.2779L115.582 41.0813C115.727 42.0249 116.024 42.9386 116.462 43.7867L115.445 45.5241C115.427 45.5538 115.419 45.5882 115.422 45.6225C115.425 45.6568 115.439 45.6894 115.461 45.7155L117.034 47.5531C117.056 47.5793 117.086 47.5978 117.12 47.6062C117.153 47.6145 117.188 47.6122 117.22 47.5997L119.095 46.8607C119.865 47.4253 120.722 47.8607 121.633 48.1496L122.14 50.1005C122.148 50.1339 122.167 50.1637 122.194 50.1858C122.22 50.208 122.253 50.2213 122.287 50.2239L124.699 50.4118C124.733 50.4143 124.767 50.4061 124.797 50.3884C124.827 50.3707 124.85 50.3443 124.864 50.3128L125.667 48.4639C126.611 48.3194 127.525 48.0218 128.373 47.583L130.111 48.6034C130.141 48.621 130.175 48.6288 130.21 48.6258C130.244 48.6228 130.276 48.6092 130.303 48.5867L132.141 47.0146C132.167 46.9921 132.186 46.9621 132.194 46.9287C132.202 46.8952 132.2 46.86 132.187 46.8279L131.448 44.9539C132.013 44.184 132.448 43.3272 132.737 42.4173L134.689 41.9103C134.722 41.9017 134.752 41.8829 134.774 41.8565C134.796 41.8301 134.81 41.7974 134.812 41.763L134.998 39.3523Z" fill="#91B3FA"/>
<path opacity="0.7" d="M124.311 42.1819C123.677 42.182 123.068 41.9375 122.611 41.4994C122.153 41.0613 121.883 40.4636 121.856 39.8309C121.829 39.1983 122.047 38.5796 122.465 38.1041C122.884 37.6285 123.469 37.3328 124.101 37.2788C124.732 37.2247 125.359 37.4164 125.852 37.8138C126.346 38.2113 126.666 38.7838 126.747 39.4118C126.828 40.0399 126.663 40.6749 126.287 41.1844C125.911 41.6939 125.352 42.0384 124.728 42.1461C124.59 42.1698 124.451 42.1818 124.311 42.1819ZM124.318 37.8877C123.878 37.8873 123.452 38.0445 123.117 38.3308C122.782 38.6171 122.561 39.0137 122.493 39.4489C122.425 39.8842 122.515 40.3293 122.747 40.7038C122.979 41.0784 123.337 41.3578 123.757 41.4914C124.177 41.625 124.63 41.6041 125.036 41.4325C125.442 41.2608 125.773 40.9497 125.969 40.5554C126.166 40.1611 126.214 39.7096 126.107 39.2825C125.999 38.8554 125.742 38.4808 125.383 38.2264C125.072 38.0057 124.7 37.8873 124.318 37.8877Z" fill="white"/>
<path opacity="0.7" d="M124.274 45.8697C124.113 45.8697 123.95 45.8637 123.788 45.8506C122.781 45.7723 121.81 45.4472 120.959 44.9039C120.108 44.3606 119.405 43.6159 118.911 42.7359C118.417 41.8558 118.147 40.8676 118.127 39.8586C118.106 38.8497 118.335 37.8513 118.792 36.9517C119.25 36.0522 119.922 35.2794 120.75 34.7017C121.578 34.124 122.535 33.7594 123.537 33.64C124.54 33.5206 125.556 33.6503 126.496 34.0174C127.437 34.3845 128.272 34.9778 128.928 35.7447C128.945 35.7644 128.962 35.7846 128.979 35.8043C129.217 36.0899 129.429 36.3963 129.612 36.7198V36.7234L129.619 36.7377L129.634 36.7628C129.636 36.7676 129.638 36.7721 129.641 36.7765L129.665 36.8206L129.135 37.1069C128.947 36.7604 128.724 36.4347 128.467 36.1353C127.673 35.2074 126.593 34.5684 125.398 34.318C124.202 34.0676 122.956 34.2198 121.856 34.7511C120.756 35.2823 119.863 36.1626 119.315 37.2546C118.768 38.3467 118.597 39.5891 118.83 40.7882C119.064 41.9872 119.687 43.0755 120.604 43.8832C121.52 44.6909 122.678 45.1727 123.897 45.2533C125.117 45.334 126.328 45.0091 127.343 44.3292C128.358 43.6493 129.12 42.6527 129.509 41.4949L130.081 41.6863C129.671 42.9025 128.891 43.9599 127.85 44.7102C126.808 45.4605 125.558 45.866 124.274 45.8697Z" fill="white"/>
<path d="M85.1619 67.4121C85.4068 67.1829 85.6973 67.0081 86.0145 66.8989C86.3317 66.7898 86.6683 66.7488 87.0024 66.7787C94.2322 67.4288 107.72 63.9474 116.535 54.9306C117.147 54.3043 118.265 54.6586 118.965 55.1823C128.768 62.5076 145.02 64.0244 150.661 64.3345C151.226 64.3663 151.762 64.5983 152.171 64.9889C152.581 65.3796 152.837 65.9033 152.896 66.4661C158.026 116.002 125.763 133.952 119.072 137.121C118.712 137.291 118.314 137.368 117.916 137.345C117.517 137.322 117.131 137.2 116.793 136.989C83.4418 116.223 84.8701 89.2151 84.4083 69.2067C84.4007 68.8714 84.4639 68.5383 84.5937 68.2291C84.7235 67.9199 84.9171 67.6415 85.1619 67.4121Z" fill="url(#paint4_linear)"/>
<path opacity="0.61" d="M118.17 133.522C118.018 133.522 117.87 133.479 117.742 133.398C104.957 125.227 96.622 115.46 92.2667 103.536C88.3756 92.8871 88.1853 82.0435 88.017 72.4762L87.9943 71.201C87.9919 71.0965 88.0106 70.9926 88.0492 70.8954C88.0879 70.7983 88.1457 70.7099 88.2193 70.6356C88.293 70.5598 88.3812 70.4996 88.4787 70.4586C88.5762 70.4177 88.6809 70.3967 88.7867 70.397C96.7043 70.397 108.589 66.9019 117.305 59.0941C117.435 58.9774 117.6 58.9073 117.775 58.8946C117.949 58.882 118.123 58.9276 118.268 59.0243C127.846 65.3769 141.507 67.227 148.798 67.7644C148.985 67.7777 149.161 67.857 149.295 67.9882C149.428 68.1193 149.51 68.2937 149.527 68.4801C151.221 87.8086 147.2 104.152 137.574 117.059C130.385 126.697 121.86 131.72 118.528 133.432C118.418 133.49 118.295 133.521 118.17 133.522ZM118.382 133.147L118.456 133.292L118.382 133.147C121.693 131.446 130.167 126.454 137.315 116.869C146.892 104.028 150.893 87.7591 149.205 68.5129C149.196 68.4027 149.148 68.2993 149.069 68.2216C148.991 68.1438 148.887 68.0967 148.776 68.0888C141.454 67.5521 127.73 65.6894 118.091 59.2957C118.005 59.2388 117.902 59.212 117.8 59.2194C117.697 59.2269 117.599 59.2682 117.523 59.3368C108.743 67.202 96.7676 70.7227 88.7944 70.7227C88.7307 70.7216 88.6675 70.7335 88.6085 70.7576C88.5495 70.7817 88.4961 70.8175 88.4514 70.8628C88.4083 70.9066 88.3744 70.9585 88.3518 71.0156C88.3291 71.0726 88.3182 71.1337 88.3195 71.195L88.3422 72.4702C88.5098 82.0131 88.7001 92.8269 92.5722 103.425C96.9036 115.279 105.194 124.993 117.918 133.127C117.987 133.17 118.066 133.195 118.147 133.199C118.228 133.202 118.309 133.184 118.382 133.147Z" fill="white"/>
<path opacity="0.61" d="M129.828 86.111H128.32C128.142 86.111 127.965 86.076 127.801 86.0079C127.636 85.9398 127.487 85.84 127.361 85.7141C127.235 85.5882 127.135 85.4387 127.067 85.2742C126.999 85.1096 126.964 84.9333 126.964 84.7553V79.6027C126.964 78.7169 126.612 77.8674 125.985 77.241C125.359 76.6146 124.509 76.2627 123.623 76.2627H114.279C113.393 76.2627 112.543 76.6146 111.916 77.241C111.29 77.8674 110.938 78.7169 110.938 79.6027V84.7553C110.938 85.1148 110.795 85.4596 110.54 85.7139C110.286 85.9681 109.941 86.111 109.582 86.111H108.074C107.896 86.111 107.719 86.076 107.555 86.0079C107.39 85.9398 107.241 85.84 107.115 85.7141C106.989 85.5882 106.889 85.4387 106.821 85.2742C106.753 85.1096 106.718 84.9333 106.718 84.7553V79.6027C106.718 77.5981 107.514 75.6755 108.932 74.258C110.35 72.8405 112.273 72.0442 114.279 72.0442H123.623C125.628 72.0442 127.551 72.8405 128.969 74.258C130.387 75.6755 131.184 77.5981 131.184 79.6027V84.7553C131.184 85.1148 131.041 85.4596 130.787 85.7139C130.532 85.9681 130.187 86.111 129.828 86.111Z" fill="white"/>
<path opacity="0.61" d="M131.696 87.3276H106.204C105.453 87.3276 104.734 87.6255 104.203 88.1558C103.673 88.6861 103.375 89.4054 103.375 90.1553V109.714C103.375 110.464 103.673 111.183 104.203 111.713C104.734 112.244 105.453 112.542 106.204 112.542H131.696C132.446 112.542 133.166 112.244 133.696 111.713C134.227 111.183 134.525 110.464 134.525 109.714V90.1553C134.525 89.4054 134.227 88.6861 133.696 88.1558C133.166 87.6255 132.446 87.3276 131.696 87.3276ZM122.597 106.231C122.634 106.385 122.636 106.546 122.602 106.7C122.568 106.855 122.5 107 122.402 107.124C122.304 107.249 122.179 107.349 122.036 107.418C121.894 107.488 121.737 107.523 121.579 107.523H116.322C116.163 107.523 116.007 107.487 115.864 107.418C115.722 107.349 115.597 107.248 115.499 107.124C115.4 107 115.332 106.855 115.298 106.7C115.264 106.545 115.266 106.385 115.303 106.231L116.529 101.127C115.789 100.686 115.184 100.051 114.779 99.2902C114.374 98.5299 114.185 97.6733 114.232 96.8132C114.357 94.443 116.279 92.5022 118.647 92.3555C119.705 92.2878 120.755 92.5778 121.628 93.1789C122.502 93.78 123.147 94.6573 123.462 95.6697C123.776 96.6821 123.74 97.7708 123.361 98.7605C122.981 99.7503 122.28 100.584 121.369 101.127L122.597 106.231Z" fill="white"/>
<path d="M21.232 80.9353C21.232 80.9353 23.2969 81.0444 23.5499 85.2892C23.5499 85.2892 18.7621 89.58 12.2954 90.601C11.8097 90.678 12.9737 87.2879 13.1491 86.8286C13.9814 84.6439 16.6047 83.2369 21.232 80.9353Z" fill="url(#paint5_linear)"/>
<path d="M44.4854 75.9408H40.1301C40.1301 75.9408 26.7571 61.1762 17.9863 59.6863C17.9863 59.6863 11.8811 67.4774 18.3114 82.0351C18.8287 83.2059 20.2755 83.726 21.3541 83.0371C21.6679 82.8416 21.9115 82.5515 22.0498 82.2086L21.5313 69.782C21.5313 69.782 32.9386 79.7555 34.9211 81.6802C36.9037 83.6049 46.9823 82.4263 44.4854 75.9408Z" fill="#7D97F4"/>
<path d="M2.36178 106.94C4.18741 105.34 7.0965 103.545 11.2967 103.031L12.7166 103.899C12.7166 103.899 11.8109 105.235 10.1565 106.643C8.63576 107.525 6.28749 108.721 4.34134 108.981C2.4459 109.235 2.16967 108.092 2.36178 106.94Z" fill="url(#paint6_linear)"/>
<path d="M13.1493 86.8284C14.2739 87.1923 14.7685 88.7853 17.6239 87.732C19.7082 86.9638 21.6821 85.9242 23.4945 84.6401C23.5178 84.8459 23.5375 85.0606 23.5542 85.2891C23.5542 85.2891 18.5063 90.0891 12.0395 91.1108C11.9283 91.1272 11.8147 91.1143 11.7101 91.0732C11.6055 91.0321 11.5134 90.9643 11.4431 90.8766C11.3728 90.7889 11.3267 90.6843 11.3094 90.5732C11.2921 90.4622 11.3042 90.3485 11.3445 90.2436C11.8077 89.0374 12.4136 87.8908 13.1493 86.8284Z" fill="#91B3FA"/>
<path d="M0.986319 108.306C1.41524 107.821 1.87478 107.365 2.36211 106.94C2.17 108.092 2.44862 109.235 4.34167 108.984C6.28783 108.724 8.63729 107.528 10.1569 106.646C8.2477 108.27 5.35114 109.995 1.69092 109.894C0.878332 109.871 0.449367 108.916 0.986319 108.306Z" fill="#91B3FA"/>
<path d="M44.3285 79.0923L23.9243 79.313C23.9243 79.313 12.2718 88.9501 10.1586 103.647C10.1586 103.647 9.80782 104.729 11.9139 104.914C11.9139 104.914 18.9587 100.314 23.552 92.1816C29.1846 82.2104 40.3425 86.6986 40.3425 86.6986C45.7031 87.8813 49.9701 87.4411 53.0921 82.6381L44.3285 79.0923Z" fill="#7D97F4"/>
<path d="M43.844 62.6606C43.844 62.6606 41.6473 73.6653 30.8856 78.0187L27.0571 77.5678L26.1538 79.0076L35.1334 79.2938C35.1334 79.2938 42.8095 76.2521 46.8766 67.973C47.0132 67.6993 49.2505 63.0764 43.844 62.6606Z" fill="url(#paint7_linear)"/>
<path d="M42.6665 78.9121C42.6665 78.9121 45.1633 72.1247 45.7003 65.5294C45.7003 65.5294 43.8729 63.9596 42.7303 63.2821C42.5513 63.1765 42.4188 63.0073 42.359 62.8084C42.2993 62.6094 42.3169 62.3952 42.4082 62.2085C43.2488 60.4723 48.3254 53.6444 48.7072 53.5496C50.7751 53.0337 59.2548 49.003 65.2269 57.1693C67.7923 60.6739 64.7185 71.4627 53.0899 82.6368C49.3486 83.2452 45.8506 82.1674 42.6665 78.9121Z" fill="url(#paint8_linear)"/>
<path d="M52.2916 67.0166C52.2916 67.0166 45.3524 75.2312 36.4814 76.4318C36.4814 76.4318 34.1886 74.3443 32.4841 75.0881C30.7795 75.8318 28.4414 79.1277 28.4414 79.1277H39.8307C39.8307 79.1277 50.6026 78.7484 55.9852 72.2187C55.5521 69.9337 54.2551 68.5685 52.2916 67.0166Z" fill="url(#paint9_linear)"/>
<path d="M56.3401 47.7883L57.8585 52.8508C57.893 52.9636 57.8907 53.0845 57.8518 53.196C57.813 53.3074 57.7397 53.4035 57.6425 53.4705C56.911 53.9715 55.0007 54.9669 52.3797 53.9995C52.2325 53.9443 52.104 53.8483 52.0095 53.7227C51.9149 53.5971 51.8581 53.4471 51.8458 53.2904L51.4878 48.8768L56.3401 47.7883Z" fill="url(#paint10_linear)"/>
<path d="M47.4487 43.6878C47.4487 43.6878 48.1957 48.9363 50.2122 50.5467C52.2288 52.1571 56.1575 50.9457 57.485 46.989L54.8408 40.2273L47.4487 43.6878Z" fill="url(#paint11_linear)"/>
<path d="M55.1385 44.6052C55.1027 44.617 55.0646 44.6208 55.0271 44.6164C54.9896 44.612 54.9535 44.5994 54.9213 44.5796C54.8892 44.5597 54.8617 44.5331 54.8409 44.5016C54.8201 44.4701 54.8064 44.4344 54.8009 44.3971C54.7275 43.9128 54.5461 42.9537 54.178 42.3006C54.178 42.3006 54.3707 41.6123 52.4377 42.6525C50.5046 43.6927 47.6009 45.2172 45.8916 44.3106C44.2253 43.4237 42.5369 38.9594 46.9417 39.7861C46.9807 39.7936 47.021 39.7921 47.0593 39.7817C47.0977 39.7713 47.1332 39.7522 47.163 39.726C47.1929 39.6997 47.2163 39.6669 47.2315 39.6302C47.2467 39.5935 47.2533 39.5538 47.2507 39.5141C47.1964 38.7805 47.2692 37.0926 48.9809 36.5504C50.581 36.0435 51.4568 36.7657 51.8184 37.2017C51.8431 37.2318 51.8742 37.2559 51.9095 37.2722C51.9448 37.2885 51.9833 37.2967 52.0222 37.2961C52.0611 37.2954 52.0994 37.286 52.1341 37.2686C52.1688 37.2511 52.1992 37.226 52.2229 37.1952C52.7002 36.5695 54.0038 35.2377 55.9219 36.0822C57.5005 36.7777 57.7458 37.7522 57.7201 38.3552C57.7177 38.3999 57.727 38.4444 57.747 38.4844C57.7671 38.5244 57.7971 38.5585 57.8343 38.5834C57.8715 38.6083 57.9145 38.6231 57.9591 38.6264C58.0037 38.6297 58.0484 38.6213 58.0888 38.6022C58.5727 38.3797 59.35 38.264 60.0946 39.1986C61.1244 40.4887 59.6531 41.607 59.2116 41.9004C59.1757 41.9237 59.146 41.9554 59.1251 41.9929C59.1043 42.0303 59.0931 42.0723 59.0923 42.1151C59.0887 42.7855 58.9837 45.7116 57.5172 47.3637C57.4875 47.3963 57.4501 47.4209 57.4084 47.4352C57.3667 47.4495 57.322 47.4531 57.2786 47.4456C57.2351 47.4381 57.1943 47.4198 57.1597 47.3924C57.1252 47.3649 57.0982 47.3292 57.0811 47.2886L55.9517 44.5981C55.9264 44.5378 55.8793 44.4893 55.8199 44.462C55.7605 44.4347 55.693 44.4307 55.6308 44.4507L55.1385 44.6052Z" fill="url(#paint12_linear)"/>
<path d="M55.1147 45.1496C55.1147 45.1496 55.8044 42.341 56.8521 43.253C57.8998 44.1649 56.5789 46.1713 55.379 46.5542L55.1147 45.1496Z" fill="url(#paint13_linear)"/>
<path d="M29.0122 79.7653L23.8974 62.7122C23.7955 62.3725 23.5924 62.072 23.3153 61.8507C23.0381 61.6294 22.7001 61.4978 22.3462 61.4734L15.4398 61.001C15.278 60.99 15.116 61.0193 14.9683 61.0863C14.8207 61.1533 14.6919 61.2559 14.5937 61.3849C14.4955 61.5139 14.4308 61.6653 14.4055 61.8254C14.3803 61.9856 14.3951 62.1495 14.4488 62.3025L20.1656 78.588C20.2556 78.8451 20.4172 79.0712 20.6313 79.2397C20.8454 79.4082 21.1032 79.5121 21.3743 79.5393L28.1757 80.2938L29.0122 79.7653Z" fill="url(#paint14_linear)"/>
<path d="M19.5785 68.492C19.9603 69.2626 20.6202 69.7141 21.0515 69.5C21.4829 69.2859 21.5234 68.4861 21.1416 67.7178C20.7598 66.9496 20.1005 66.4958 19.6686 66.7093C19.2366 66.9228 19.1966 67.7214 19.5785 68.492Z" fill="#91B3FA"/>
<path d="M28.1759 80.2937H28.2093L42.6998 79.5636C42.785 79.5593 42.8685 79.5383 42.9455 79.5017C43.0226 79.4651 43.0916 79.4138 43.1488 79.3505C43.206 79.2873 43.2501 79.2134 43.2787 79.1331C43.3073 79.0528 43.3199 78.9676 43.3155 78.8825C43.3112 78.7973 43.2902 78.7139 43.2536 78.6369C43.217 78.5599 43.1657 78.4908 43.1024 78.4336C43.0391 78.3765 42.9652 78.3323 42.8849 78.3037C42.8046 78.2751 42.7194 78.2626 42.6342 78.2669L28.1437 78.9994C27.9736 79.0066 27.8132 79.0802 27.697 79.2045C27.5807 79.3288 27.5179 79.4937 27.5222 79.6638C27.5264 79.8339 27.5973 79.9956 27.7196 80.1139C27.8418 80.2323 28.0057 80.2979 28.1759 80.2966V80.2937Z" fill="url(#paint15_linear)"/>
<path d="M45.7009 65.6297C45.6743 65.6297 45.6488 65.6192 45.63 65.6004C45.6112 65.5816 45.6007 65.5561 45.6007 65.5295C45.5905 62.4716 46.7676 58.4249 46.7796 58.3843C46.7832 58.3717 46.7894 58.3599 46.7976 58.3496C46.8059 58.3393 46.8161 58.3307 46.8276 58.3244C46.8392 58.3181 46.8518 58.3141 46.8649 58.3126C46.878 58.3112 46.8913 58.3123 46.9039 58.316C46.9166 58.3197 46.9284 58.3258 46.9387 58.3341C46.949 58.3423 46.9575 58.3525 46.9639 58.364C46.9702 58.3756 46.9742 58.3883 46.9757 58.4014C46.9771 58.4145 46.9759 58.4277 46.9723 58.4404C46.9603 58.4809 45.7916 62.5008 45.8017 65.5289C45.8017 65.5555 45.7912 65.5811 45.7724 65.6C45.7536 65.6189 45.7281 65.6296 45.7015 65.6297H45.7009Z" fill="url(#paint16_linear)"/>
<path d="M52.2917 67.1172C52.2727 67.1173 52.2542 67.112 52.2381 67.102C52.222 67.092 52.2092 67.0777 52.2009 67.0606C52.1927 67.0436 52.1894 67.0246 52.1916 67.0058C52.1937 66.987 52.2011 66.9691 52.2129 66.9544C52.2445 66.9144 55.394 62.9118 56.4721 60.1807C56.4769 60.1683 56.484 60.157 56.4932 60.1474C56.5024 60.1379 56.5134 60.1302 56.5255 60.1249C56.5377 60.1196 56.5508 60.1169 56.5641 60.1167C56.5773 60.1166 56.5905 60.1191 56.6028 60.1241C56.6276 60.1339 56.6475 60.1532 56.6581 60.1777C56.6688 60.2021 56.6692 60.2298 56.6595 60.2547C55.57 63.0126 52.4026 67.0385 52.3704 67.079C52.3611 67.091 52.3491 67.1006 52.3355 67.1072C52.3218 67.1138 52.3068 67.1172 52.2917 67.1172Z" fill="url(#paint17_linear)"/>
<path d="M56.7566 73.2717L56.1833 72.4618C56.168 72.4399 56.162 72.4129 56.1665 72.3866C56.1711 72.3604 56.1859 72.337 56.2077 72.3216C56.2184 72.3139 56.2306 72.3085 56.2434 72.3055C56.2562 72.3026 56.2695 72.3022 56.2825 72.3044C56.2955 72.3066 56.3079 72.3114 56.319 72.3185C56.3302 72.3255 56.3398 72.3347 56.3473 72.3455L56.8246 73.023C61.2938 71.0643 64.0609 65.7192 64.0884 65.6649C64.1005 65.6412 64.1215 65.6232 64.1469 65.615C64.1722 65.6068 64.1998 65.609 64.2235 65.6211C64.2472 65.6332 64.2652 65.6542 64.2734 65.6795C64.2817 65.7049 64.2795 65.7324 64.2674 65.7562C64.2393 65.8116 61.4102 71.2791 56.8294 73.2395L56.7566 73.2717Z" fill="url(#paint18_linear)"/>
</g>
<defs>
<linearGradient id="paint0_linear" x1="177.913" y1="168.516" x2="57.9552" y2="63.5204" gradientUnits="userSpaceOnUse">
<stop stop-color="#DAE3FE"/>
<stop offset="1" stop-color="#E9EFFD"/>
</linearGradient>
<linearGradient id="paint1_linear" x1="13.3564" y1="11.9126" x2="141.766" y2="211.232" gradientUnits="userSpaceOnUse">
<stop stop-color="#4F52FF"/>
<stop offset="1" stop-color="#4042E2"/>
</linearGradient>
<linearGradient id="paint2_linear" x1="78.1218" y1="157.767" x2="56.7439" y2="93.6143" gradientUnits="userSpaceOnUse">
<stop stop-color="#09005D"/>
<stop offset="1" stop-color="#1A0F91"/>
</linearGradient>
<linearGradient id="paint3_linear" x1="26382.7" y1="11960.5" x2="31808.2" y2="42782.9" gradientUnits="userSpaceOnUse">
<stop stop-color="#09005D"/>
<stop offset="1" stop-color="#1A0F91"/>
</linearGradient>
<linearGradient id="paint4_linear" x1="191.211" y1="17.1253" x2="163.503" y2="44.2398" gradientUnits="userSpaceOnUse">
<stop stop-color="#FF928E"/>
<stop offset="1" stop-color="#FE7062"/>
</linearGradient>
<linearGradient id="paint5_linear" x1="-13906.5" y1="13853.1" x2="-15095.1" y2="15313.5" gradientUnits="userSpaceOnUse">
<stop stop-color="#09005D"/>
<stop offset="1" stop-color="#1A0F91"/>
</linearGradient>
<linearGradient id="paint6_linear" x1="-14440.9" y1="10599.5" x2="-15886.7" y2="12444.4" gradientUnits="userSpaceOnUse">
<stop stop-color="#09005D"/>
<stop offset="1" stop-color="#1A0F91"/>
</linearGradient>
<linearGradient id="paint7_linear" x1="32.0913" y1="66.1939" x2="41.6993" y2="77.6238" gradientUnits="userSpaceOnUse">
<stop stop-color="#FEBBBA"/>
<stop offset="1" stop-color="#FF928E"/>
</linearGradient>
<linearGradient id="paint8_linear" x1="31784.6" y1="19645.3" x2="17231.2" y2="31372.5" gradientUnits="userSpaceOnUse">
<stop stop-color="#FF928E"/>
<stop offset="1" stop-color="#FE7062"/>
</linearGradient>
<linearGradient id="paint9_linear" x1="22754.6" y1="15619.6" x2="25139.4" y2="8199.66" gradientUnits="userSpaceOnUse">
<stop stop-color="#FEBBBA"/>
<stop offset="1" stop-color="#FF928E"/>
</linearGradient>
<linearGradient id="paint10_linear" x1="4068.1" y1="6130.55" x2="4149.27" y2="5424.59" gradientUnits="userSpaceOnUse">
<stop stop-color="#FEBBBA"/>
<stop offset="1" stop-color="#FF928E"/>
</linearGradient>
<linearGradient id="paint11_linear" x1="6986.1" y1="9134.33" x2="6365.12" y2="7267.68" gradientUnits="userSpaceOnUse">
<stop stop-color="#FEBBBA"/>
<stop offset="1" stop-color="#FF928E"/>
</linearGradient>
<linearGradient id="paint12_linear" x1="-10464.2" y1="5964.09" x2="-10873.8" y2="9239.16" gradientUnits="userSpaceOnUse">
<stop stop-color="#09005D"/>
<stop offset="1" stop-color="#1A0F91"/>
</linearGradient>
<linearGradient id="paint13_linear" x1="1404.74" y1="2977.42" x2="1142.81" y2="2452.12" gradientUnits="userSpaceOnUse">
<stop stop-color="#FEBBBA"/>
<stop offset="1" stop-color="#FF928E"/>
</linearGradient>
<linearGradient id="paint14_linear" x1="-15484.1" y1="22915.7" x2="-19066.4" y2="22915.7" gradientUnits="userSpaceOnUse">
<stop stop-color="#09005D"/>
<stop offset="1" stop-color="#1A0F91"/>
</linearGradient>
<linearGradient id="paint15_linear" x1="-17218.7" y1="2700.93" x2="-16618.6" y2="3980.2" gradientUnits="userSpaceOnUse">
<stop stop-color="#09005D"/>
<stop offset="1" stop-color="#1A0F91"/>
</linearGradient>
<linearGradient id="paint16_linear" x1="48.8778" y1="21.8787" x2="44.3619" y2="91.4505" gradientUnits="userSpaceOnUse">
<stop stop-color="#E1473D"/>
<stop offset="1" stop-color="#E9605A"/>
</linearGradient>
<linearGradient id="paint17_linear" x1="4335.95" y1="2690.83" x2="3511.61" y2="10807.3" gradientUnits="userSpaceOnUse">
<stop stop-color="#E1473D"/>
<stop offset="1" stop-color="#E9605A"/>
</linearGradient>
<linearGradient id="paint18_linear" x1="8654.23" y1="2995.79" x2="8105.99" y2="11936.9" gradientUnits="userSpaceOnUse">
<stop stop-color="#E1473D"/>
<stop offset="1" stop-color="#E9605A"/>
</linearGradient>
<clipPath id="clip0">
<rect width="166" height="167" fill="white"/>
</clipPath>
</defs>
</svg>
