<svg width="187" height="186" viewBox="0 0 187 186" fill="none" xmlns="http://www.w3.org/2000/svg">
<g clip-path="url(#clip0)">
<path opacity="0.3" d="M164.755 159.07C160.95 163.038 157.35 165.596 154.506 167.617C121.072 191.38 81.5099 184.453 73.102 182.763C60.6861 180.264 36.6868 175.438 19.3354 155.224C-6.91566 124.646 -2.82797 76.4707 17.5341 44.6693C21.2583 38.8522 40.9327 6.56724 80.9226 1.38913C105.122 -1.7443 133.332 4.5777 153.761 21.5289C196.64 57.1141 193.588 129.004 164.755 159.07Z" fill="url(#paint0_linear)"/>
<path opacity="0.63" d="M39.9553 33.6919C38.9759 28.0714 54.2922 18.6126 49.9307 7.31578L38.5075 2.99792C38.5075 2.99792 39.7128 18.2101 35.8019 23.7369C31.8909 29.2638 29.4172 25.6501 30.1102 21.5853C30.8032 17.5205 37.2417 7.50643 34.8504 3.01519C34.8504 3.01519 32.9301 -0.527443 28.9016 2.81591C24.873 6.15926 16.2631 2.98929 13.59 0C13.59 0 13.6604 2.35157 11.3136 7.74291C8.96675 13.1343 6.21793 18.3934 10.9069 20.8858C15.596 23.3782 22.766 24.1548 22.6365 27.4217C22.5069 30.6887 9.16011 32 5.19069 22.2084C5.19069 22.2084 0.805321 30.4994 1.64585 33.302C2.48638 36.1046 7.44251 39.0886 15.283 37.3554C23.1235 35.6223 27.2371 37.1761 27.1394 39.6266C27.0418 42.0772 3.55149 43.6974 0.820603 35.4808C0.820603 35.4808 -0.621916 52.8991 0.313628 54.9105C1.24917 56.922 11.5056 56.9293 17.6425 54.5511C23.7793 52.173 29.9381 54.5013 31.2677 56.6622C32.5972 58.8232 24.3096 57.3478 20.493 58.6691C16.6764 59.9903 0.137549 58.4359 0.137549 58.4359C0.137549 58.4359 2.09701 59.7292 2.48638 65.6799C2.87575 71.6306 6.99533 81.2016 10.6319 80.3646C14.2684 79.5276 30.6491 72.1793 36.2796 71.8219C41.9102 71.4645 46.5121 72.3739 43.9493 74.4445C41.3866 76.5151 34.1155 77.0844 29.0298 79.0281C23.9441 80.9718 11.4883 87.5974 8.46642 85.3488C8.46642 85.3488 13.5468 100.534 28.5328 101.779C28.5328 101.779 35.5142 97.7848 39.1487 91.1446C42.7832 84.5044 44.6065 81.8772 47.2078 82.3096C49.8091 82.7421 47.255 87.3018 44.8822 91.3798C42.5095 95.4579 37.1879 105.053 33.6617 105.654C33.6617 105.654 56.3287 106.208 59.342 91.0397C62.1686 76.8167 60.6848 75.0623 60.4895 74.8976C61.2589 75.4522 84.6754 92.0275 93.2688 61.0286C93.2688 61.0286 89.3299 67.5539 84.2535 67.0165C79.1771 66.4791 71.1366 70.6249 71.0449 66.9979C70.9532 63.3709 89.3884 65.3651 92.807 58.3668C96.2256 51.3686 92.3053 40.1401 84.211 37.2551C84.211 37.2551 84.3718 44.4002 77.9034 48.8635C71.435 53.3269 61.5068 57.5936 63.5931 51.7479C65.6795 45.9021 84.5233 37.4504 85.2941 32.2657C86.0648 27.0809 70.3831 17.3857 70.3831 17.3857C70.3831 17.3857 70.1772 20.1225 66.1852 28.4846C62.1931 36.8466 55.9307 45.5348 54.8496 43.1919C53.7686 40.8489 58.2569 35.4669 62.0868 30.504C65.9167 25.5411 67.8615 17.6428 65.332 15.4779C62.8024 13.313 53.4769 8.65631 53.4769 8.65631C53.4769 8.65631 50.4988 20.3743 49.6649 25.8095C48.8311 31.2447 40.9347 39.3131 39.9553 33.6919ZM59.9094 63.331C54.7772 68.8406 54.8224 62.4787 55.7799 58.1901C56.5068 54.9364 65.041 57.8221 59.9094 63.331ZM51.649 51.6542C48.338 55.3742 45.8098 54.8587 46.0796 52.1039C46.6995 45.7739 54.9606 47.9315 51.649 51.6542ZM41.4889 40.352C39.8238 42.4857 38.6318 42.865 37.5773 39.9787C36.5228 37.0924 43.1547 38.2177 41.4889 40.352Z" fill="url(#paint1_linear)"/>
<path d="M186.709 91.1619C188.488 46.6989 151.014 9.09821 103.009 7.17847C55.0037 5.25873 14.6456 39.7469 12.8666 84.2099C11.0876 128.673 48.5615 166.274 96.5668 168.193C144.572 170.113 184.93 135.625 186.709 91.1619Z" fill="url(#paint2_linear)"/>
<path opacity="0.11" d="M95.3846 146.731C133.054 146.731 163.591 117.891 163.591 82.3143C163.591 46.7377 133.054 17.8972 95.3846 17.8972C57.7153 17.8972 27.1782 46.7377 27.1782 82.3143C27.1782 117.891 57.7153 146.731 95.3846 146.731Z" fill="white"/>
<g opacity="0.68">
<g style="mix-blend-mode:soft-light" opacity="0.68">
<path d="M122.295 88.5114C122.273 102.711 121.298 116.939 118.797 130.937C118.163 134.434 117.428 137.912 116.553 141.361C115.678 144.809 114.661 148.222 113.421 151.561C112.169 154.892 110.716 158.175 108.747 161.176C107.754 162.664 106.629 164.091 105.239 165.266C104.545 165.861 103.773 166.359 102.944 166.744C102.102 167.134 101.19 167.348 100.263 167.376C99.3348 167.398 98.4124 167.228 97.553 166.878C96.6966 166.538 95.9152 166.043 95.2042 165.483C93.7816 164.346 92.6308 162.935 91.6208 161.457C89.6162 158.478 88.1437 155.202 86.8793 151.876C85.6148 148.551 84.5989 145.129 83.7138 141.686C82.8288 138.243 82.0873 134.763 81.4487 131.267C80.1736 124.275 79.3039 117.215 78.7172 110.136C78.1304 103.057 77.8421 95.9527 77.8062 88.8482C77.7889 85.2969 77.8859 81.7456 78.0122 78.197C78.1384 74.6484 78.3444 71.1018 78.6022 67.5605C79.1278 60.4779 79.9125 53.4112 81.0793 46.4023C81.6647 42.8989 82.3471 39.4107 83.1683 35.9524C83.9896 32.4942 84.9477 29.0671 86.1344 25.7118C86.7324 24.0358 87.3829 22.3784 88.1278 20.7589C88.8726 19.1394 89.7012 17.557 90.6779 16.0604C91.6547 14.5638 92.7816 13.1475 94.1829 12.0083C94.8833 11.4443 95.6554 10.9527 96.5005 10.6206C97.3461 10.2784 98.2539 10.1171 99.1656 10.1469C100.075 10.1813 100.969 10.3909 101.799 10.7641C102.621 11.1377 103.39 11.6176 104.087 12.1916C105.483 13.3275 106.641 14.7159 107.668 16.1733C109.708 19.1095 111.246 22.3512 112.579 25.6421C113.901 28.9456 114.994 32.3347 115.944 35.7591C116.895 39.1835 117.695 42.6491 118.39 46.1333C121.137 60.08 122.253 74.3096 122.295 88.5114ZM121.243 88.5114C121.256 81.4361 120.988 74.3621 120.399 67.3087C119.81 60.2553 118.941 53.2259 117.632 46.2761C116.979 42.8006 116.217 39.345 115.312 35.9272C114.406 32.5095 113.355 29.1302 112.077 25.836C110.8 22.5418 109.299 19.326 107.32 16.4098C106.323 14.963 105.202 13.5879 103.855 12.4699C103.189 11.9078 102.452 11.4357 101.663 11.0656C100.873 10.7103 100.021 10.4778 99.1564 10.4552C98.2893 10.4334 97.4274 10.5955 96.6274 10.9308C95.8248 11.2563 95.0879 11.7359 94.4162 12.2893C93.0713 13.4059 91.9823 14.8135 91.0354 16.2876C90.0886 17.7616 89.2866 19.3433 88.569 20.9549C87.8514 22.5664 87.2215 24.2172 86.6474 25.8865C85.5065 29.2299 84.5922 32.6496 83.8108 36.0979C83.0294 39.5462 82.3916 43.0271 81.8434 46.5226C80.7577 53.5142 80.0494 60.5636 79.6062 67.6256C79.163 74.6876 79.0002 81.7676 79.0128 88.8435C78.9942 95.9182 79.2421 102.987 79.7564 110.051C80.2879 117.106 81.0986 124.142 82.3138 131.109C82.9225 134.592 83.6341 138.057 84.4859 141.487C85.3378 144.917 86.3304 148.311 87.549 151.623C88.775 154.924 90.2069 158.173 92.1457 161.099C93.1205 162.55 94.2301 163.926 95.5743 165.019C96.2461 165.559 96.977 166.028 97.767 166.347C98.5514 166.677 99.3966 166.838 100.247 166.819C101.099 166.787 101.935 166.584 102.706 166.221C103.482 165.85 104.203 165.375 104.85 164.809C106.165 163.68 107.251 162.285 108.209 160.824C110.112 157.875 111.524 154.618 112.736 151.311C113.948 148.003 114.919 144.595 115.764 141.165C116.608 137.734 117.309 134.266 117.912 130.782C119.119 123.813 119.921 116.775 120.454 109.724C120.987 102.673 121.246 95.5907 121.243 88.5114Z" fill="white"/>
</g>
<g style="mix-blend-mode:soft-light" opacity="0.68">
<path d="M158.124 88.5114C158.074 97.6553 156.899 106.803 154.45 115.622C151.959 124.419 148.205 132.882 143.106 140.481C140.556 144.276 137.668 147.849 134.441 151.09C131.213 154.331 127.647 157.236 123.774 159.674C119.902 162.112 115.711 164.045 111.328 165.364C102.508 168.047 93.0888 168.051 84.2659 165.376C79.8805 164.061 75.6945 162.121 71.8108 159.696C67.9271 157.27 64.361 154.356 61.1291 151.118C57.8972 147.879 55.0022 144.306 52.4474 140.511C47.3384 132.912 43.575 124.444 41.0727 115.642C39.8432 111.231 38.9229 106.74 38.3185 102.2C37.0797 93.1165 37.0827 83.9063 38.3272 74.8232C38.9344 70.2853 39.8575 65.7953 41.0899 61.386C43.6002 52.5875 47.369 44.1258 52.4813 36.5357C55.0374 32.7446 57.9298 29.1767 61.1643 25.941C64.3989 22.7052 67.9656 19.805 71.842 17.3783C75.7213 14.9492 79.9064 13.0461 84.2872 11.7193C93.0939 9.0326 102.503 9.03653 111.307 11.7306C115.685 13.0605 119.867 14.9667 123.743 17.3989C127.615 19.8289 131.18 22.7338 134.406 25.9682C137.632 29.2026 140.519 32.7732 143.072 36.5649C148.174 44.1557 151.936 52.6134 154.435 61.4092C156.886 70.221 158.068 79.3675 158.124 88.5114ZM156.918 88.5114C156.905 79.4712 155.779 70.4216 153.393 61.6949C150.994 52.9821 147.381 44.5702 142.409 37.0053C139.924 33.2269 137.101 29.665 133.94 26.4279C130.778 23.1908 127.284 20.2713 123.463 17.84C119.638 15.4233 115.507 13.4776 111.176 12.1617C102.464 9.45906 93.1357 9.463 84.4254 12.173C80.0965 13.4923 75.9696 15.4413 72.1483 17.8613C68.3317 20.2945 64.844 23.2214 61.6866 26.4551C58.5374 29.7037 55.7069 33.2466 53.2341 37.0352C48.2713 44.5988 44.6667 53.01 42.28 61.7155C41.1001 66.0789 40.2199 70.5178 39.6454 75.0012C38.4651 83.9711 38.468 93.0572 39.6541 102.026C40.2315 106.508 41.1146 110.944 42.2972 115.305C44.6893 124.007 48.3012 132.413 53.2673 139.968C55.7477 143.744 58.565 147.302 61.7211 150.536C64.8773 153.771 68.3656 156.689 72.1796 159.115C75.9995 161.528 80.1251 163.464 84.4466 164.783C93.1415 167.505 102.46 167.509 111.158 164.795C115.481 163.479 119.611 161.547 123.435 159.136C127.255 156.713 130.744 153.792 133.908 150.567C137.072 147.343 139.892 143.777 142.378 140.002C147.354 132.445 150.973 124.039 153.378 115.329C155.767 106.6 156.899 97.5517 156.918 88.5114Z" fill="white"/>
</g>
<g style="mix-blend-mode:soft-light" opacity="0.68">
<path d="M27.4052 57.4607C27.3843 57.4607 27.3642 57.4523 27.3493 57.4375C27.3345 57.4227 27.3262 57.4026 27.3262 57.3816C27.3262 57.3607 27.3345 57.3405 27.3493 57.3257C27.3642 57.3109 27.3843 57.3026 27.4052 57.3026L45.5215 57.1564L63.6377 57.0734L99.8701 57.007L136.103 57.0807L154.219 57.171L172.335 57.3278C172.342 57.3279 172.349 57.3294 172.355 57.3321C172.362 57.3349 172.367 57.3388 172.372 57.3438C172.377 57.3488 172.381 57.3547 172.384 57.3612C172.386 57.3677 172.388 57.3746 172.387 57.3816C172.387 57.3955 172.382 57.4089 172.372 57.4187C172.362 57.4286 172.349 57.4341 172.335 57.4341L154.219 57.5935L136.103 57.6839L99.8701 57.7576L63.6377 57.6912L45.5215 57.6081L27.4052 57.4607Z" fill="white"/>
</g>
<g style="mix-blend-mode:soft-light" opacity="0.68">
<path d="M48.3447 27.0457C48.3451 27.0252 48.3533 27.0055 48.3678 26.9909C48.3823 26.9763 48.4019 26.9679 48.4225 26.9673C52.7095 26.9009 56.9939 26.8704 61.2842 26.8212L74.1466 26.7382C78.4337 26.703 82.718 26.707 87.0084 26.6957L99.8701 26.6718L125.594 26.7455L138.456 26.8372C142.744 26.891 147.031 26.9222 151.318 26.9952C151.325 26.9953 151.332 26.9968 151.339 26.9996C151.345 27.0023 151.351 27.0063 151.356 27.0113C151.36 27.0163 151.364 27.0222 151.367 27.0287C151.369 27.0352 151.37 27.0421 151.37 27.0491C151.37 27.0628 151.365 27.076 151.355 27.0857C151.345 27.0955 151.332 27.1012 151.318 27.1015C147.031 27.1739 142.747 27.2058 138.456 27.2596L125.594 27.3486L99.8701 27.4224L87.0084 27.3978C82.7207 27.3865 78.437 27.3905 74.1466 27.3553L61.2842 27.2722C56.9972 27.2231 52.7095 27.1939 48.4225 27.1261C48.4121 27.1259 48.4018 27.1237 48.3923 27.1196C48.3828 27.1154 48.3742 27.1095 48.367 27.102C48.3597 27.0946 48.3541 27.0857 48.3502 27.0761C48.3464 27.0664 48.3446 27.0561 48.3447 27.0457Z" fill="white"/>
</g>
<g style="mix-blend-mode:soft-light" opacity="0.68">
<path d="M21.1096 87.7974C21.0898 87.7956 21.0714 87.7864 21.0579 87.7717C21.0445 87.7571 21.0371 87.7379 21.0371 87.718C21.0371 87.6981 21.0445 87.679 21.0579 87.6643C21.0714 87.6496 21.0898 87.6404 21.1096 87.6386L40.7972 87.4931L60.4875 87.4094L99.8674 87.343L139.248 87.4161L158.938 87.5071L178.628 87.6652C178.635 87.6652 178.642 87.6666 178.648 87.6693C178.655 87.6719 178.66 87.6759 178.665 87.6808C178.67 87.6858 178.674 87.6916 178.677 87.6981C178.679 87.7045 178.681 87.7114 178.68 87.7183C178.68 87.7323 178.675 87.7457 178.665 87.7557C178.655 87.7656 178.642 87.7713 178.628 87.7715L158.938 87.9289L139.251 88.0179L99.8701 88.0917L60.4902 88.0252L40.7972 87.9429L21.1096 87.7974Z" fill="white"/>
</g>
<g style="mix-blend-mode:soft-light" opacity="0.68">
<path d="M27.4052 117.977L45.5215 117.831L63.6377 117.748L99.8701 117.682L136.103 117.755L154.219 117.844L172.335 118.002C172.342 118.003 172.349 118.004 172.355 118.007C172.362 118.009 172.367 118.013 172.372 118.018C172.377 118.023 172.381 118.029 172.384 118.036C172.386 118.042 172.388 118.049 172.387 118.056C172.387 118.07 172.382 118.084 172.372 118.093C172.362 118.103 172.349 118.109 172.335 118.109L154.219 118.265L136.103 118.355L99.8701 118.429L63.6377 118.363L45.5215 118.28L27.4052 118.133C27.3843 118.133 27.3642 118.125 27.3493 118.11C27.3345 118.095 27.3262 118.075 27.3262 118.054C27.3262 118.033 27.3345 118.013 27.3493 117.998C27.3642 117.984 27.3843 117.975 27.4052 117.975V117.977Z" fill="white"/>
</g>
<g style="mix-blend-mode:soft-light" opacity="0.68">
<path d="M154.188 148.389C154.188 148.463 154.159 148.534 154.107 148.586C154.055 148.638 153.984 148.667 153.911 148.667H51.0146C50.9409 148.667 50.8702 148.638 50.8182 148.586C50.7661 148.534 50.7368 148.463 50.7368 148.389C50.7368 148.316 50.7661 148.245 50.8182 148.193C50.8702 148.141 50.9409 148.112 51.0146 148.112H153.911C153.984 148.112 154.055 148.141 154.107 148.193C154.159 148.245 154.188 148.316 154.188 148.389Z" fill="white"/>
</g>
</g>
<path d="M134.827 84.6964C135.589 84.7582 136.315 85.0445 136.915 85.5192C137.514 85.9938 137.959 86.6355 138.194 87.3631C138.428 88.0907 138.442 88.8714 138.232 89.6066C138.023 90.3418 137.6 90.9985 137.018 91.4935C136.435 91.9886 135.719 92.2998 134.959 92.3877C134.2 92.4757 133.431 92.3366 132.751 91.9879C132.07 91.6391 131.509 91.0965 131.137 90.4287C130.765 89.7608 130.599 88.9977 130.661 88.2357C130.745 87.2146 131.231 86.2685 132.012 85.605C132.793 84.9414 133.805 84.6147 134.827 84.6964ZM134.702 86.2243C134.243 86.187 133.783 86.2869 133.38 86.5111C132.977 86.7353 132.65 87.0739 132.44 87.484C132.229 87.8941 132.146 88.3574 132.199 88.8152C132.252 89.273 132.439 89.7048 132.738 90.056C133.036 90.4072 133.432 90.662 133.876 90.7882C134.319 90.9144 134.79 90.9064 135.229 90.7651C135.667 90.6238 136.054 90.3556 136.341 89.9944C136.627 89.6332 136.8 89.1953 136.837 88.736C136.887 88.12 136.69 87.5096 136.289 87.0387C135.889 86.5678 135.318 86.2749 134.702 86.2243Z" fill="white"/>
<path d="M142.732 89.2136C142.907 87.035 142.21 84.8761 140.794 83.2106C139.378 81.5451 137.36 80.509 135.181 80.3295C134.903 80.3072 134.624 80.2995 134.346 80.3063C134.259 80.3094 134.174 80.2927 134.095 80.2575C134.016 80.2222 133.947 80.1694 133.892 80.103C133.837 80.0366 133.798 79.9585 133.778 79.8747C133.758 79.7908 133.757 79.7035 133.776 79.6194L134.051 78.4376C134.081 78.3127 134.153 78.2016 134.254 78.1228C134.356 78.0439 134.481 78.002 134.609 78.0038C134.86 78.0038 135.112 78.0158 135.367 78.0364C141.163 78.5074 145.496 83.6051 145.026 89.3996C144.99 89.8329 144.928 90.2635 144.839 90.689C144.823 90.7637 144.793 90.8344 144.749 90.8971C144.706 90.9597 144.65 91.0129 144.586 91.0534C144.521 91.0939 144.449 91.121 144.374 91.1329C144.298 91.1448 144.221 91.1414 144.148 91.1228L143.001 90.8305C142.862 90.7953 142.741 90.7076 142.665 90.5856C142.589 90.4637 142.563 90.317 142.592 90.1762C142.659 89.8585 142.705 89.5371 142.732 89.2136Z" fill="white"/>
<path d="M148.657 89.696C149.291 81.8986 143.461 75.0405 135.662 74.4075H135.655C135.575 74.4017 135.497 74.3787 135.427 74.34C135.356 74.3014 135.295 74.2479 135.247 74.1834C135.199 74.1188 135.166 74.0447 135.15 73.9661C135.133 73.8875 135.134 73.8062 135.152 73.7279L135.422 72.5687L136.02 72.1296C144.996 72.9527 151.68 80.8796 150.949 89.8827C150.885 90.6571 150.767 91.4261 150.594 92.1838C150.577 92.256 150.546 92.324 150.502 92.3839C150.458 92.4438 150.402 92.4943 150.339 92.5325C150.275 92.5707 150.204 92.5958 150.131 92.6063C150.057 92.6168 149.982 92.6125 149.91 92.5936L148.767 92.302C148.627 92.2671 148.505 92.179 148.429 92.0562C148.352 91.9335 148.326 91.7858 148.357 91.6444C148.503 91.0028 148.603 90.3517 148.657 89.696Z" fill="white"/>
<path d="M154.582 90.1768C155.458 79.4014 147.631 69.8929 136.999 68.5756C136.92 68.5667 136.844 68.5414 136.776 68.5012C136.708 68.461 136.649 68.4068 136.603 68.3423C136.557 68.2778 136.526 68.2043 136.51 68.1267C136.495 68.0491 136.496 67.9692 136.514 67.892L136.779 66.7422C136.81 66.6067 136.891 66.4876 137.004 66.4079C137.118 66.3281 137.257 66.2934 137.395 66.3104C149.184 67.8322 157.845 78.395 156.873 90.3628C156.782 91.47 156.609 92.569 156.354 93.6503C156.337 93.7225 156.305 93.7904 156.261 93.8502C156.216 93.91 156.161 93.9604 156.097 93.9985C156.033 94.0366 155.962 94.0617 155.889 94.0723C155.815 94.0829 155.74 94.0788 155.668 94.0602L154.526 93.7692C154.384 93.7322 154.261 93.6407 154.186 93.5143C154.11 93.3879 154.087 93.2368 154.122 93.0937C154.347 92.1341 154.501 91.1591 154.582 90.1768Z" fill="white"/>
<path d="M126.467 178.247C126.434 181.563 123.583 184.252 120.101 184.26L35.9053 184.444C32.397 184.451 29.4854 181.764 29.4016 178.434L25.4787 21.6557C25.385 17.9277 28.3299 14.9132 32.0568 14.9311L121.429 15.3582C125.126 15.3762 128.091 18.406 128.053 22.1174L126.467 178.247Z" fill="url(#paint3_linear)"/>
<path d="M118.878 31.1637C118.904 27.5812 115.964 24.6583 112.312 24.6417L41.3769 24.3301C37.7019 24.3142 34.7863 27.2218 34.8653 30.8169L37.7809 164.118C37.852 167.383 40.7404 170.02 44.2314 170.015L111.622 169.908C115.092 169.902 117.924 167.265 117.946 164.01L118.878 31.1637Z" fill="url(#paint4_linear)"/>
<path d="M87.5318 19.5691C87.5329 19.7336 87.5014 19.8967 87.4391 20.049C87.3768 20.2012 87.2849 20.3396 87.1687 20.4561C87.0525 20.5727 86.9144 20.665 86.7623 20.7278C86.6102 20.7906 86.4472 20.8226 86.2826 20.822L67.8222 20.7383C67.4871 20.735 67.1667 20.6007 66.9294 20.3642C66.6921 20.1277 66.5568 19.8078 66.5524 19.4728C66.5495 19.3084 66.5795 19.1451 66.6406 18.9924C66.7017 18.8398 66.7927 18.7009 66.9083 18.5839C67.0239 18.467 67.1617 18.3743 67.3136 18.3113C67.4655 18.2484 67.6285 18.2164 67.793 18.2173L86.2746 18.3037C86.6081 18.3066 86.9269 18.4407 87.1622 18.6769C87.3974 18.9131 87.5302 19.2325 87.5318 19.5658V19.5691Z" fill="url(#paint5_linear)"/>
<g opacity="0.27">
<path opacity="0.27" d="M103.722 125.715L114.355 115.16L113.961 137.429L103.744 125.741L103.722 125.715Z" fill="white"/>
<path opacity="0.27" d="M98.5851 130.815L113.615 148.02L113.767 148.196L113.334 161.829C113.299 163.137 112.599 164.395 111.491 165.326C110.513 166.143 109.245 166.645 107.917 166.752L86.6802 142.635L98.5851 130.815Z" fill="white"/>
<path opacity="0.27" d="M111.188 108.279L99.0492 120.377L93.9283 125.482L82.0227 137.347L62.4487 115.121L62.4514 115.119L74.3111 103.1L74.2766 103.099L74.2121 103.065V103.063L79.3809 97.8871L79.4294 97.8931L79.442 97.8971L79.4506 97.8931L79.4586 97.8871L91.6034 85.5912L115.807 61.1202L114.894 101.262L111.188 108.279Z" fill="white"/>
<path opacity="0.27" d="M98.5523 166.781L62.3291 166.808L81.636 147.641L98.5523 166.781Z" fill="white"/>
<path opacity="0.27" d="M76.9815 142.372L52.4567 166.818H50.2161C48.7231 166.818 47.2759 166.315 46.1896 165.412C45.1032 164.508 44.462 163.279 44.4135 161.993L43.3936 134.431L57.4135 120.224L76.9815 142.372Z" fill="white"/>
<path opacity="0.27" d="M52.6799 114.862L43.0493 124.673L42.2666 103.09L52.6713 114.863L52.6799 114.862Z" fill="white"/>
<path opacity="0.27" d="M92.0176 74.831L72.5532 52.2028L93.0602 30.9909L109.987 30.8826C113.591 30.8593 116.406 33.7104 116.318 37.2763L115.996 50.4345L92.0176 74.831Z" fill="white"/>
<path opacity="0.27" d="M54.5186 31.2387L82.6785 31.058L67.7251 46.5883L54.5186 31.2387Z" fill="white"/>
<path opacity="0.27" d="M67.3806 57.5536L86.8416 80.0955L74.7114 92.4392L69.6065 97.6346L57.8995 109.72L42.2152 91.6819V91.6786L41.6983 84.2884L41.6558 84.2479L67.3806 57.5536Z" fill="white"/>
<path opacity="0.27" d="M44.8327 31.4325L62.5509 51.959L41.1557 74.174L39.8115 37.8781C39.75 36.3834 40.2209 34.9153 41.1403 33.7351C42.0598 32.5549 43.3681 31.7389 44.8327 31.4325Z" fill="white"/>
</g>
<path d="M76.14 37.8822H45.2703C44.7246 37.8822 44.2822 38.3245 44.2822 38.87V38.876C44.2822 39.4215 44.7246 39.8638 45.2703 39.8638H76.14C76.6857 39.8638 77.128 39.4215 77.128 38.876V38.87C77.128 38.3245 76.6857 37.8822 76.14 37.8822Z" fill="white"/>
<path d="M76.14 43.261H45.2703C44.7246 43.261 44.2822 43.7032 44.2822 44.2488V44.2548C44.2822 44.8003 44.7246 45.2426 45.2703 45.2426H76.14C76.6857 45.2426 77.128 44.8003 77.128 44.2548V44.2488C77.128 43.7032 76.6857 43.261 76.14 43.261Z" fill="white"/>
<path d="M76.14 48.6398H45.2703C44.7246 48.6398 44.2822 49.082 44.2822 49.6276V49.6335C44.2822 50.1791 44.7246 50.6213 45.2703 50.6213H76.14C76.6857 50.6213 77.128 50.1791 77.128 49.6335V49.6276C77.128 49.082 76.6857 48.6398 76.14 48.6398Z" fill="white"/>
<path d="M98.4125 48.4449C97.8721 48.4492 97.3408 48.3059 96.8759 48.0306C96.4109 47.7553 96.0299 47.3583 95.774 46.8825C92.9833 41.7955 89.6577 35.0955 89.6577 32.069C89.6577 27.2423 93.5853 23.3164 98.4125 23.3164C100.734 23.3189 102.959 24.2418 104.6 25.8827C106.242 27.5236 107.165 29.7484 107.167 32.069C107.167 35.0948 103.845 41.7941 101.054 46.8825C100.798 47.3588 100.417 47.756 99.951 48.0314C99.4854 48.3067 98.9534 48.4497 98.4125 48.4449ZM98.4125 24.72C96.4633 24.7223 94.5946 25.4975 93.2163 26.8754C91.838 28.2534 91.0627 30.1216 91.0604 32.0703C91.0604 34.1681 93.2265 39.3217 97.0039 46.2083C97.1422 46.4609 97.346 46.6717 97.5938 46.8185C97.8417 46.9653 98.1244 47.0428 98.4125 47.0428C98.7006 47.0428 98.9833 46.9653 99.2312 46.8185C99.479 46.6717 99.6828 46.4609 99.8211 46.2083C103.599 39.3217 105.765 34.1681 105.765 32.0703C105.762 30.1216 104.987 28.2534 103.609 26.8754C102.23 25.4975 100.362 24.7223 98.4125 24.72Z" fill="white"/>
<path d="M98.4128 37.5707C97.3629 37.5707 96.3366 37.2595 95.4637 36.6763C94.5907 36.0932 93.9103 35.2644 93.5086 34.2946C93.1068 33.3249 93.0017 32.2579 93.2065 31.2284C93.4113 30.199 93.9169 29.2534 94.6593 28.5112C95.4016 27.769 96.3475 27.2635 97.3772 27.0588C98.4069 26.854 99.4742 26.9591 100.444 27.3608C101.414 27.7624 102.243 28.4426 102.826 29.3154C103.41 30.1881 103.721 31.2141 103.721 32.2638C103.719 33.6707 103.159 35.0194 102.164 36.0142C101.169 37.009 99.8201 37.5688 98.4128 37.5707ZM98.4128 28.3591C97.6403 28.3591 96.8852 28.5881 96.2429 29.0171C95.6007 29.4462 95.1001 30.056 94.8045 30.7695C94.5088 31.483 94.4315 32.2681 94.5822 33.0255C94.7329 33.7829 95.1049 34.4787 95.6511 35.0248C96.1973 35.5708 96.8932 35.9427 97.6508 36.0934C98.4085 36.244 99.1938 36.1667 99.9074 35.8712C100.621 35.5757 101.231 35.0752 101.66 34.4331C102.089 33.7909 102.318 33.036 102.318 32.2638C102.317 31.2285 101.905 30.2361 101.173 29.5041C100.441 28.7721 99.4483 28.3603 98.4128 28.3591Z" fill="white"/>
<path d="M101.601 55.4582C102.023 53.6679 100.914 51.874 99.1236 51.4515C97.3329 51.0289 95.5385 52.1377 95.1159 53.928C94.6932 55.7183 95.8023 57.5122 97.593 57.9348C99.3838 58.3573 101.178 57.2485 101.601 55.4582Z" fill="white"/>
<path d="M104.429 169.207C104.319 169.208 104.21 169.185 104.11 169.14C104.009 169.096 103.919 169.031 103.845 168.949L102.335 167.282C102.199 167.127 102.13 166.925 102.142 166.719C102.155 166.513 102.247 166.32 102.4 166.182C102.553 166.043 102.754 165.97 102.96 165.979C103.166 165.987 103.36 166.075 103.502 166.225L105.012 167.892C105.114 168.005 105.182 168.145 105.206 168.296C105.23 168.446 105.211 168.6 105.149 168.739C105.087 168.879 104.986 168.997 104.858 169.08C104.731 169.163 104.582 169.208 104.429 169.207ZM100.653 165.042C100.543 165.042 100.434 165.019 100.333 164.974C100.233 164.93 100.143 164.864 100.069 164.783L98.5587 163.116C98.4233 162.961 98.3542 162.758 98.3663 162.552C98.3784 162.347 98.4708 162.154 98.6236 162.015C98.7765 161.877 98.9775 161.804 99.1835 161.812C99.3895 161.82 99.5842 161.909 99.7255 162.059L101.236 163.726C101.338 163.839 101.406 163.979 101.43 164.129C101.454 164.28 101.434 164.434 101.373 164.573C101.311 164.713 101.21 164.831 101.082 164.914C100.955 164.997 100.805 165.042 100.653 165.042ZM96.877 160.875C96.7669 160.876 96.658 160.853 96.5574 160.808C96.4568 160.763 96.3667 160.698 96.293 160.616L94.7827 158.95C94.7132 158.874 94.6595 158.784 94.6247 158.687C94.5898 158.589 94.5745 158.486 94.5795 158.383C94.5846 158.28 94.61 158.178 94.6542 158.085C94.6984 157.991 94.7605 157.908 94.8372 157.838C94.9138 157.769 95.0033 157.715 95.1007 157.68C95.198 157.645 95.3013 157.63 95.4046 157.635C95.5079 157.64 95.6092 157.666 95.7026 157.71C95.7961 157.754 95.88 157.816 95.9494 157.893L97.4597 159.559C97.5621 159.672 97.6295 159.812 97.6538 159.963C97.6781 160.113 97.6581 160.267 97.5964 160.407C97.5347 160.546 97.4339 160.665 97.3062 160.748C97.1785 160.831 97.0294 160.875 96.877 160.875ZM93.101 156.709C92.9909 156.709 92.8821 156.686 92.7815 156.642C92.6809 156.597 92.5907 156.532 92.5169 156.451L91.0066 154.784C90.9348 154.708 90.879 154.618 90.8423 154.52C90.8057 154.422 90.7889 154.318 90.793 154.213C90.7972 154.108 90.8222 154.006 90.8665 153.911C90.9108 153.816 90.9736 153.731 91.0511 153.661C91.1287 153.591 91.2195 153.536 91.3182 153.502C91.417 153.467 91.5217 153.452 91.6261 153.458C91.7306 153.464 91.8329 153.491 91.9268 153.538C92.0208 153.584 92.1046 153.648 92.1734 153.727L93.6837 155.393C93.786 155.506 93.8535 155.646 93.8777 155.796C93.902 155.947 93.8821 156.101 93.8204 156.24C93.7587 156.38 93.6579 156.498 93.5302 156.581C93.4025 156.664 93.2534 156.709 93.101 156.709ZM89.3242 152.543C89.2143 152.543 89.1056 152.52 89.0051 152.475C88.9046 152.431 88.8146 152.366 88.7408 152.284L87.2305 150.617C87.1588 150.541 87.1029 150.452 87.0663 150.354C87.0296 150.255 87.0128 150.151 87.017 150.047C87.0211 149.942 87.0461 149.839 87.0904 149.744C87.1347 149.65 87.1975 149.565 87.2751 149.494C87.3526 149.424 87.4434 149.37 87.5422 149.335C87.6409 149.301 87.7456 149.286 87.8501 149.292C87.9546 149.298 88.0568 149.325 88.1507 149.371C88.2447 149.417 88.3285 149.482 88.3973 149.561L89.9076 151.227C90.0098 151.34 90.077 151.48 90.1012 151.631C90.1253 151.781 90.1052 151.935 90.0435 152.074C89.9817 152.214 89.8809 152.332 89.7533 152.415C89.6256 152.498 89.4765 152.542 89.3242 152.543ZM85.5481 148.376C85.4382 148.376 85.3295 148.353 85.229 148.309C85.1286 148.264 85.0385 148.199 84.9648 148.118L83.4551 146.451C83.3834 146.375 83.3275 146.285 83.2908 146.187C83.2542 146.089 83.2374 145.985 83.2416 145.88C83.2457 145.776 83.2707 145.673 83.315 145.578C83.3593 145.483 83.4221 145.398 83.4997 145.328C83.5772 145.258 83.668 145.204 83.7668 145.169C83.8655 145.134 83.9702 145.119 84.0747 145.126C84.1792 145.132 84.2814 145.159 84.3753 145.205C84.4693 145.251 84.5531 145.315 84.6219 145.394L86.1322 147.061C86.2344 147.174 86.3016 147.314 86.3257 147.464C86.3499 147.615 86.3298 147.769 86.2681 147.908C86.2063 148.047 86.1055 148.166 85.9778 148.249C85.8502 148.332 85.7011 148.376 85.5488 148.376H85.5481ZM81.7721 144.21C81.6622 144.21 81.5535 144.187 81.453 144.142C81.3525 144.098 81.2624 144.033 81.1887 143.951L79.6784 142.285C79.6066 142.208 79.5508 142.119 79.5141 142.021C79.4774 141.923 79.4607 141.818 79.4648 141.714C79.469 141.609 79.4939 141.506 79.5383 141.412C79.5826 141.317 79.6454 141.232 79.7229 141.162C79.8005 141.091 79.8913 141.037 79.99 141.002C80.0888 140.968 80.1934 140.953 80.2979 140.959C80.4024 140.965 80.5046 140.992 80.5986 141.038C80.6926 141.084 80.7764 141.149 80.8452 141.228L82.3555 142.894C82.458 143.007 82.5254 143.147 82.5497 143.298C82.574 143.448 82.554 143.603 82.4922 143.742C82.4304 143.881 82.3295 144 82.2016 144.083C82.0738 144.166 81.9245 144.21 81.7721 144.21ZM77.996 140.043C77.8861 140.043 77.7774 140.02 77.6769 139.976C77.5764 139.931 77.4864 139.866 77.4126 139.785L75.9023 138.118C75.7668 137.963 75.6977 137.76 75.7099 137.555C75.722 137.349 75.8144 137.156 75.9672 137.018C76.12 136.879 76.321 136.806 76.5271 136.814C76.7331 136.823 76.9277 136.911 77.0691 137.061L78.5794 138.728C78.6819 138.841 78.7494 138.981 78.7737 139.132C78.798 139.282 78.778 139.436 78.7162 139.576C78.6544 139.715 78.5534 139.833 78.4255 139.916C78.2977 139.999 78.1485 140.044 77.996 140.043ZM74.2193 135.877C74.1094 135.877 74.0006 135.854 73.9002 135.81C73.7997 135.765 73.7096 135.7 73.6359 135.618L72.1256 133.952C71.9853 133.798 71.9122 133.594 71.9225 133.385C71.9327 133.177 72.0253 132.981 72.1801 132.84C72.3348 132.7 72.5389 132.627 72.7475 132.637C72.9561 132.648 73.1521 132.74 73.2924 132.895L74.8027 134.562C74.9051 134.674 74.9726 134.815 74.9969 134.965C75.0212 135.116 75.0012 135.27 74.9394 135.409C74.8776 135.549 74.7767 135.667 74.6488 135.75C74.521 135.833 74.3717 135.877 74.2193 135.877ZM70.4432 131.711C70.3332 131.711 70.2244 131.688 70.1239 131.644C70.0234 131.599 69.9334 131.534 69.8598 131.452L68.3495 129.786C68.2092 129.631 68.1362 129.427 68.1464 129.219C68.1566 129.01 68.2493 128.814 68.404 128.674C68.5587 128.534 68.7628 128.461 68.9714 128.471C69.18 128.481 69.376 128.574 69.5163 128.729L71.0266 130.395C71.129 130.508 71.1964 130.648 71.2207 130.799C71.2449 130.949 71.2249 131.104 71.1631 131.243C71.1014 131.382 71.0004 131.501 70.8726 131.584C70.7448 131.667 70.5957 131.711 70.4432 131.711ZM66.6678 127.543C66.5578 127.543 66.449 127.52 66.3485 127.475C66.248 127.431 66.158 127.365 66.0844 127.284L64.5741 125.618C64.5023 125.541 64.4465 125.452 64.4098 125.354C64.3732 125.256 64.3564 125.151 64.3606 125.047C64.3647 124.942 64.3897 124.84 64.434 124.745C64.4783 124.65 64.5411 124.565 64.6186 124.495C64.6962 124.424 64.787 124.37 64.8857 124.336C64.9845 124.301 65.0892 124.286 65.1936 124.292C65.2981 124.298 65.4004 124.325 65.4943 124.371C65.5883 124.418 65.6721 124.482 65.7409 124.561L67.2512 126.227C67.3536 126.34 67.421 126.48 67.4452 126.63C67.4695 126.781 67.4495 126.935 67.3877 127.075C67.3259 127.214 67.225 127.332 67.0972 127.415C66.9694 127.499 66.8202 127.543 66.6678 127.543ZM62.8917 123.376C62.7818 123.377 62.6731 123.354 62.5726 123.309C62.4721 123.265 62.382 123.199 62.3083 123.118L60.7974 121.453C60.7256 121.377 60.6698 121.287 60.6331 121.189C60.5964 121.091 60.5797 120.987 60.5838 120.882C60.588 120.778 60.6129 120.675 60.6572 120.58C60.7016 120.486 60.7643 120.401 60.8419 120.33C60.9195 120.26 61.0103 120.206 61.109 120.171C61.2077 120.136 61.3124 120.122 61.4169 120.128C61.5214 120.134 61.6236 120.161 61.7176 120.207C61.8115 120.253 61.8954 120.318 61.9641 120.396L63.4744 122.062C63.5768 122.175 63.6443 122.316 63.6685 122.466C63.6927 122.617 63.6728 122.771 63.611 122.91C63.5492 123.05 63.4483 123.168 63.3205 123.251C63.1927 123.334 63.0435 123.378 62.891 123.378L62.8917 123.376ZM59.22 119.131C59.0766 119.131 58.9359 119.092 58.8131 119.018C58.6902 118.944 58.5899 118.838 58.523 118.711C58.147 117.996 57.9504 117.201 57.9502 116.393C57.9502 116.306 57.9502 116.219 57.9568 116.132C57.9728 115.928 58.0681 115.737 58.2224 115.602C58.3768 115.466 58.5779 115.396 58.7831 115.407C58.9882 115.418 59.1809 115.508 59.3203 115.659C59.4596 115.81 59.5345 116.009 59.5289 116.215C59.5289 116.274 59.5243 116.334 59.5243 116.393C59.5244 116.945 59.6587 117.488 59.9156 117.976C59.9789 118.096 60.0102 118.231 60.0063 118.366C60.0025 118.502 59.9637 118.634 59.8937 118.75C59.8237 118.866 59.7249 118.962 59.6069 119.029C59.4889 119.096 59.3556 119.131 59.22 119.131ZM60.1761 114.001C60.0217 114.001 59.8707 113.955 59.7418 113.87C59.613 113.785 59.512 113.664 59.4515 113.522C59.3909 113.38 59.3735 113.223 59.4013 113.072C59.4291 112.92 59.501 112.779 59.608 112.668L61.1668 111.047C61.2383 110.972 61.324 110.912 61.4188 110.87C61.5136 110.828 61.6157 110.805 61.7193 110.803C61.8229 110.801 61.9259 110.819 62.0224 110.857C62.1189 110.894 62.2071 110.951 62.2818 111.023C62.3565 111.094 62.4163 111.18 62.4578 111.275C62.4993 111.37 62.5216 111.472 62.5235 111.576C62.5254 111.679 62.5069 111.782 62.4689 111.879C62.431 111.975 62.3744 112.063 62.3023 112.137L60.7435 113.759C60.6704 113.836 60.5824 113.897 60.4848 113.939C60.3873 113.981 60.2823 114.003 60.1761 114.003V114.001ZM64.0718 109.948C63.9174 109.948 63.7665 109.903 63.6377 109.818C63.509 109.733 63.4081 109.612 63.3477 109.47C63.2872 109.328 63.2698 109.171 63.2977 109.019C63.3255 108.867 63.3974 108.727 63.5043 108.616L65.0625 106.994C65.2073 106.844 65.4057 106.758 65.614 106.754C65.8224 106.75 66.0238 106.829 66.1741 106.973C66.3243 107.118 66.4112 107.316 66.4157 107.524C66.4202 107.732 66.3419 107.934 66.198 108.085L64.6399 109.707C64.5664 109.783 64.4782 109.844 64.3805 109.886C64.2829 109.927 64.1779 109.949 64.0718 109.948ZM67.9681 105.896C67.8137 105.896 67.6627 105.851 67.5338 105.766C67.405 105.681 67.304 105.56 67.2435 105.418C67.1829 105.276 67.1655 105.119 67.1933 104.967C67.2211 104.815 67.293 104.675 67.4 104.564L68.9588 102.942C69.0297 102.865 69.1154 102.802 69.2108 102.758C69.3063 102.714 69.4095 102.69 69.5145 102.687C69.6195 102.683 69.7241 102.701 69.8222 102.739C69.9202 102.776 70.0098 102.833 70.0855 102.906C70.1612 102.979 70.2216 103.066 70.2631 103.163C70.3046 103.259 70.3264 103.363 70.3272 103.468C70.3279 103.573 70.3077 103.677 70.2676 103.774C70.2275 103.871 70.1684 103.959 70.0937 104.033L68.5356 105.655C68.462 105.731 68.3738 105.791 68.2763 105.832C68.1788 105.873 68.0739 105.894 67.9681 105.894V105.896ZM71.8638 101.844C71.7101 101.844 71.5599 101.798 71.4318 101.713C71.3037 101.628 71.2032 101.508 71.1429 101.367C71.0825 101.225 71.0649 101.069 71.0922 100.918C71.1194 100.767 71.1904 100.627 71.2963 100.516L72.8545 98.8934C72.9993 98.7437 73.1977 98.6574 73.406 98.6536C73.6144 98.6497 73.8158 98.7286 73.9661 98.873C74.1163 99.0173 74.2032 99.2153 74.2077 99.4236C74.2122 99.6319 74.1339 99.8335 73.99 99.9842L72.4319 101.606C72.3578 101.681 72.2692 101.74 72.1716 101.78C72.074 101.82 71.9693 101.84 71.8638 101.839V101.844ZM75.7595 97.7921C75.6052 97.7917 75.4545 97.7461 75.326 97.6609C75.1974 97.5757 75.0967 97.4547 75.0363 97.3128C74.9759 97.171 74.9584 97.0145 74.9861 96.8628C75.0138 96.7111 75.0854 96.5709 75.192 96.4595L76.7502 94.838C76.821 94.7605 76.9067 94.698 77.0021 94.6541C77.0975 94.6102 77.2007 94.5858 77.3056 94.5824C77.4106 94.579 77.5152 94.5966 77.6132 94.6342C77.7113 94.6718 77.8008 94.7287 77.8766 94.8014C77.9523 94.8741 78.0127 94.9612 78.0543 95.0576C78.0959 95.1541 78.1177 95.2578 78.1186 95.3628C78.1194 95.4678 78.0993 95.5719 78.0593 95.669C78.0193 95.766 77.9603 95.8541 77.8857 95.9281L76.3276 97.5503C76.2533 97.6252 76.1648 97.6844 76.0672 97.7243C75.9696 97.7642 75.8649 97.7841 75.7595 97.7828V97.7921ZM79.6558 93.7399C79.5014 93.74 79.3503 93.6946 79.2215 93.6096C79.0927 93.5245 78.9917 93.4034 78.9311 93.2614C78.8706 93.1194 78.8532 92.9627 78.881 92.8108C78.9088 92.659 78.9807 92.5187 79.0877 92.4074L80.6465 90.7858C80.7913 90.6361 80.9897 90.5498 81.198 90.5459C81.4064 90.5421 81.6078 90.621 81.7581 90.7654C81.9083 90.9097 81.9953 91.1077 81.9997 91.316C82.0042 91.5243 81.9259 91.7259 81.782 91.8766L80.2232 93.4981C80.1491 93.573 80.0607 93.6322 79.9632 93.6721C79.8657 93.7121 79.7611 93.732 79.6558 93.7306V93.7399ZM83.5515 89.6878C83.3971 89.6877 83.2462 89.6423 83.1174 89.5571C82.9887 89.472 82.8878 89.3509 82.8273 89.2089C82.7669 89.0669 82.7495 88.9103 82.7774 88.7585C82.8052 88.6067 82.8771 88.4665 82.984 88.3552L84.5422 86.733C84.687 86.5832 84.8854 86.497 85.0937 86.4931C85.3021 86.4893 85.5035 86.5682 85.6537 86.7125C85.804 86.8569 85.8909 87.0549 85.8954 87.2632C85.8999 87.4715 85.8216 87.6731 85.6777 87.8238L84.1196 89.434C84.0463 89.511 83.9582 89.5724 83.8606 89.6144C83.7629 89.6564 83.6578 89.6782 83.5515 89.6785V89.6878ZM87.4478 85.6356C87.2934 85.6357 87.1424 85.5904 87.0135 85.5053C86.8847 85.4202 86.7837 85.2991 86.7232 85.1571C86.6626 85.0151 86.6452 84.8584 86.673 84.7066C86.7008 84.5547 86.7727 84.4144 86.8797 84.3031L88.4385 82.6816C88.51 82.6066 88.5957 82.5466 88.6905 82.5048C88.7853 82.463 88.8874 82.4404 88.991 82.4382C89.0946 82.4359 89.1976 82.4542 89.2941 82.4918C89.3906 82.5294 89.4788 82.5858 89.5535 82.6575C89.6282 82.7293 89.688 82.8151 89.7295 82.91C89.771 83.0049 89.7933 83.1071 89.7952 83.2106C89.7971 83.3142 89.7786 83.4171 89.7406 83.5135C89.7027 83.6099 89.6461 83.6978 89.574 83.7723L88.0152 85.3938C87.9407 85.4678 87.8521 85.526 87.7546 85.565C87.6571 85.604 87.5528 85.6231 87.4478 85.621V85.6356ZM91.3435 81.5835C91.1891 81.5834 91.0382 81.538 90.9094 81.4529C90.7807 81.3677 90.6798 81.2466 90.6194 81.1046C90.5589 80.9627 90.5415 80.806 90.5694 80.6542C90.5972 80.5025 90.6691 80.3622 90.776 80.2509L92.3342 78.6287C92.479 78.479 92.6774 78.3927 92.8857 78.3888C93.0941 78.385 93.2955 78.4639 93.4458 78.6083C93.596 78.7526 93.6829 78.9506 93.6874 79.1589C93.6919 79.3672 93.6136 79.5688 93.4697 79.7195L91.9116 81.3417C91.8367 81.4152 91.7479 81.473 91.6503 81.5117C91.5527 81.5504 91.4484 81.5691 91.3435 81.5669V81.5835ZM95.2391 77.5313C95.0848 77.5313 94.9339 77.4858 94.8051 77.4007C94.6764 77.3156 94.5755 77.1945 94.515 77.0525C94.4546 76.9105 94.4372 76.7539 94.465 76.6021C94.4929 76.4503 94.5648 76.3101 94.6717 76.1988L96.2298 74.5773C96.3014 74.5023 96.387 74.4423 96.4818 74.4005C96.5766 74.3587 96.6788 74.3361 96.7824 74.3339C96.8859 74.3316 96.9889 74.3499 97.0855 74.3875C97.182 74.4251 97.2701 74.4815 97.3448 74.5532C97.4196 74.625 97.4794 74.7108 97.5208 74.8057C97.5623 74.9006 97.5847 75.0028 97.5866 75.1064C97.5885 75.2099 97.5699 75.3128 97.532 75.4092C97.494 75.5056 97.4374 75.5935 97.3654 75.668L95.8073 77.2895C95.7322 77.3626 95.6433 77.42 95.5457 77.4582C95.4481 77.4964 95.3439 77.5147 95.2391 77.5121V77.5313ZM99.1355 73.4792C98.9817 73.4788 98.8315 73.4334 98.7032 73.3486C98.575 73.2637 98.4745 73.1432 98.414 73.0019C98.3536 72.8605 98.3359 72.7046 98.3632 72.5533C98.3904 72.402 98.4614 72.262 98.5674 72.1506L100.126 70.5284C100.271 70.3786 100.469 70.2924 100.678 70.2885C100.886 70.2847 101.087 70.3636 101.238 70.508C101.388 70.6523 101.475 70.8503 101.479 71.0586C101.484 71.2669 101.406 71.4685 101.262 71.6192L99.7029 73.2407C99.6277 73.3128 99.5388 73.369 99.4414 73.4062C99.3441 73.4434 99.2403 73.4608 99.1362 73.4573L99.1355 73.4792ZM103.031 69.427C102.877 69.427 102.726 69.3816 102.597 69.2964C102.468 69.2113 102.368 69.0902 102.307 68.9482C102.247 68.8062 102.229 68.6496 102.257 68.4978C102.285 68.346 102.357 68.2058 102.464 68.0945L103.938 66.56L104.005 66.4889C104.146 66.3379 104.34 66.2483 104.547 66.2395C104.753 66.2307 104.955 66.3034 105.108 66.442C105.262 66.5805 105.354 66.7738 105.366 66.98C105.378 67.1863 105.309 67.389 105.173 67.5445C105.14 67.5803 105.106 67.6149 105.074 67.6501L103.599 69.1852C103.524 69.2575 103.435 69.3139 103.337 69.3513C103.24 69.3887 103.136 69.4063 103.031 69.4031V69.427ZM105.667 64.7033C105.467 64.7031 105.275 64.6271 105.13 64.4907C104.984 64.3543 104.896 64.1677 104.882 63.9686C104.842 63.3575 104.637 62.7686 104.29 62.2641C104.228 62.1791 104.184 62.0826 104.16 61.9802C104.136 61.8778 104.132 61.7716 104.15 61.6679C104.168 61.5643 104.206 61.4652 104.263 61.3765C104.319 61.2878 104.393 61.2114 104.48 61.1518C104.566 61.0921 104.664 61.0504 104.767 61.0291C104.87 61.0078 104.976 61.0074 105.079 61.0279C105.183 61.0483 105.281 61.0893 105.368 61.1482C105.455 61.2072 105.529 61.283 105.587 61.3712C106.09 62.1016 106.389 62.9531 106.454 63.8377C106.467 64.0456 106.398 64.2504 106.261 64.4074C106.124 64.5644 105.931 64.6608 105.723 64.6754C105.702 64.6794 105.684 64.6794 105.667 64.6794V64.7033ZM102.743 60.044C102.631 60.0442 102.52 60.0201 102.417 59.9734C102.315 59.9268 102.223 59.8586 102.149 59.7736L101.1 58.568C101.029 58.4904 100.975 58.3996 100.94 58.3008C100.905 58.202 100.89 58.0973 100.897 57.9927C100.903 57.8882 100.93 57.7859 100.976 57.6919C101.022 57.5979 101.087 57.514 101.166 57.4452C101.245 57.3764 101.337 57.3241 101.436 57.2913C101.536 57.2585 101.641 57.2459 101.745 57.2542C101.849 57.2625 101.951 57.2915 102.044 57.3396C102.137 57.3877 102.22 57.4539 102.287 57.5343L103.337 58.7393C103.436 58.8533 103.5 58.9934 103.522 59.1428C103.544 59.2923 103.522 59.4448 103.459 59.5823C103.397 59.7197 103.296 59.8363 103.169 59.9182C103.042 60.0001 102.895 60.0437 102.743 60.044Z" fill="white"/>
<path d="M50.9779 71.0878C50.9779 71.0878 48.4297 72.3273 47.9606 73.7515C47.5845 74.8935 44.7666 75.0409 44.4882 77.2875C44.3447 78.448 43.4856 79.3767 42.3301 79.5541C39.4517 79.9952 35.0158 81.4891 34.3062 86.4852C33.7647 90.2989 35.7088 91.745 37.75 92.2459C39.249 92.6133 40.245 94.0707 39.9427 95.5839C39.6524 97.0347 40.0856 98.7127 42.6005 100.039C48.235 103.011 53.8629 92.9979 53.8629 92.9979L55.0164 75.5099L50.9779 71.0878Z" fill="url(#paint6_linear)"/>
<path d="M81.6396 66.9427C81.6396 66.9427 70.3885 84.7343 57.0098 88.1707C57.0098 88.1707 59.6171 95.5934 61.629 96.443C61.629 96.443 78.0888 82.7129 82.3186 69.473L81.6396 66.9427Z" fill="url(#paint7_linear)"/>
<path d="M27.817 180.737L27.4522 183.733C27.4193 184.01 27.2942 184.267 27.0971 184.464C26.9 184.66 26.6424 184.785 26.3658 184.817C25.405 184.926 23.8628 185.039 22.3539 184.879C22.1985 184.861 22.049 184.809 21.9162 184.726C21.7834 184.644 21.6704 184.533 21.5854 184.401C21.5003 184.27 21.4453 184.122 21.4242 183.967C21.4032 183.812 21.4166 183.654 21.4635 183.505C21.8316 182.348 22.504 180.611 23.4741 179.586H26.7997C26.945 179.586 27.0886 179.617 27.2211 179.676C27.3535 179.736 27.4717 179.823 27.5679 179.932C27.6641 180.041 27.736 180.169 27.779 180.308C27.8219 180.446 27.8349 180.593 27.817 180.737Z" fill="url(#paint8_linear)"/>
<path d="M53.8617 145.63L54.4225 148.931C54.4225 148.931 52.5434 167.965 52.2085 175.578C52.1575 176.77 52.4654 177.95 53.0922 178.966L56.36 184.273L48.0543 179.373L47.8889 178.361L49.2484 176.492L47.4676 155.168C47.3628 153.916 47.6211 152.66 48.2118 151.55L49.9301 148.324L53.8617 145.63Z" fill="url(#paint9_linear)"/>
<path d="M56.9065 185.044H54.256C54.0114 185.044 53.77 184.988 53.5504 184.881C53.3308 184.773 53.1389 184.616 52.9896 184.422C52.163 183.349 50.4514 181.254 49.6328 181.2C48.5305 181.126 48.6713 185.044 48.6713 185.044H48.0534L47.2713 180.176C47.1754 179.579 47.2698 178.967 47.5413 178.427C47.8127 177.886 48.2473 177.445 48.7836 177.165C48.7836 177.165 49.0354 179.025 50.4016 179.851C51.7677 180.678 55.9597 183.626 55.9597 183.626C56.3184 183.584 56.6813 183.594 57.0374 183.654C57.8733 183.808 57.757 185.044 56.9065 185.044Z" fill="url(#paint10_linear)"/>
<path d="M42.4846 147.198C42.4846 147.198 31.4734 168.08 29.7232 172.847C27.9731 177.615 27.3598 181.592 27.3359 181.968C27.2993 182.557 26.5671 183.122 24.5492 183.122C23.5073 183.122 22.997 182.704 22.7479 182.3C22.6443 182.129 22.5858 181.935 22.578 181.736C22.5703 181.537 22.6134 181.339 22.7033 181.161C23.3399 179.872 25.3611 175.753 26.11 173.885C27.0036 171.655 28.9259 161.549 29.9804 158.035C31.0349 154.521 32.2255 150.709 36.8189 147.198C36.8189 147.198 39.9704 144.111 42.4846 147.198Z" fill="url(#paint11_linear)"/>
<path d="M49.4403 112.982C52.2808 100.949 45.0854 94.1432 45.0854 94.1432C49.6256 89.7862 57.8981 87.804 57.8981 87.804C57.8981 87.804 65.7911 93.5733 64.8549 98.0891C64.306 100.736 59.3067 113.942 59.3067 113.942C59.3067 113.942 54.6841 116.13 49.4403 112.982Z" fill="url(#paint12_linear)"/>
<path d="M43.1436 118.939C44.2991 115.457 49.4406 112.982 49.4406 112.982C54.6837 116.13 59.307 113.942 59.307 113.942C59.307 113.942 60.3435 117.905 59.6279 121.586C58.9123 125.268 54.4226 148.933 54.4226 148.933C47.3489 150.366 36.4692 147.491 36.4692 147.491C40.9755 139.491 41.9875 122.421 43.1436 118.939Z" fill="url(#paint13_linear)"/>
<path d="M52.7377 79.8524L50.432 90.2227C50.2108 91.136 51.0433 90.9866 51.9676 90.8125C53.4799 90.5269 55.43 89.9397 56.0818 88.7632C56.1448 88.6411 56.1848 88.5085 56.2001 88.3719L57.1921 81.181C57.2303 80.9034 57.1771 80.6208 57.0406 80.376C56.9041 80.1312 56.6916 79.9374 56.4353 79.8239L54.5211 78.9749C54.3478 78.8976 54.1597 78.8593 53.97 78.8629C53.7803 78.8664 53.5937 78.9117 53.4235 78.9955C53.2533 79.0792 53.1036 79.1994 52.985 79.3475C52.8665 79.4956 52.7821 79.668 52.7377 79.8524Z" fill="url(#paint14_linear)"/>
<path d="M45.0855 94.1432C45.0855 94.1432 28.968 105.672 43.0257 117.786C43.0257 117.786 43.5613 118.392 44.6157 118.707C45.1473 118.866 46.7227 120.057 47.5214 120.678C47.5818 120.725 47.6514 120.758 47.7255 120.776C47.7996 120.794 47.8767 120.796 47.9518 120.783C48.0269 120.769 48.0984 120.74 48.1616 120.698C48.2247 120.655 48.2783 120.599 48.3187 120.535C48.3851 120.428 48.4238 120.307 48.4311 120.182C48.4384 120.057 48.4142 119.932 48.3606 119.818L46.3672 115.6C46.0989 115.349 45.75 115.203 45.3835 115.188C45.017 115.172 44.6568 115.287 44.3679 115.513C44.2791 115.583 44.1758 115.633 44.0655 115.658C43.9551 115.683 43.8406 115.683 43.7303 115.658C43.62 115.633 43.5167 115.583 43.4279 115.513C43.3391 115.443 43.267 115.354 43.2171 115.253C42.13 113.04 40.0782 106.533 48.4762 99.1771C48.6283 99.0417 48.7306 98.8593 48.7668 98.6589C48.8029 98.4585 48.7708 98.2517 48.6755 98.0718C48.0875 96.9412 46.738 94.6906 45.0855 94.1432Z" fill="url(#paint15_linear)"/>
<path d="M57.1606 70.3983C57.1606 70.3983 59.619 72.059 60.6755 76.2991C61.732 80.5392 60.015 82.0565 58.2556 81.9628C56.4961 81.8691 53.944 81.3257 51.7333 78.286C49.5227 75.2462 53.9386 68.3656 57.1606 70.3983Z" fill="url(#paint16_linear)"/>
<path d="M53.9626 76.5776C53.9626 76.5776 53.0616 70.506 58.1041 71.4347L59.1234 72.4976C59.1234 72.4976 61.5912 69.7189 58.8576 67.6184C56.1241 65.5179 52.3367 66.056 50.2397 69.877C48.1427 73.6979 47.3826 76.387 49.1394 78.7638C50.8962 81.1406 52.2191 79.1019 52.2191 79.1019C52.2191 79.1019 51.4131 77.0426 52.0816 76.1631C52.75 75.2836 53.6098 76.6759 53.6098 76.6759L53.9626 76.5776Z" fill="url(#paint17_linear)"/>
<path d="M53.2737 77.0969C53.2737 77.0969 52.8291 73.9748 51.2331 74.8663C49.6371 75.7577 51.8086 77.7844 52.679 78.4733L53.2737 77.0969Z" fill="url(#paint18_linear)"/>
<path d="M81.5623 70.6049C81.5962 70.9722 80.2334 71.226 79.7969 69.6616C79.9158 68.982 80.1291 66.008 80.6494 65.5431C83.4234 63.0839 88.3716 60.3171 88.3716 60.3171C88.9244 61.1621 88.1988 61.7181 88.1988 61.7181L85.7291 63.3848C85.9869 64.2377 86.363 64.9917 86.4055 65.9655C86.4301 66.7075 86.1684 67.4305 85.6746 67.985C85.1829 68.5463 84.5218 69.271 83.9251 69.8217C82.7969 70.8613 81.5623 70.6049 81.5623 70.6049Z" fill="url(#paint19_linear)"/>
<path d="M82.9043 69.3927L82.5269 69.2372C82.5767 69.1157 83.7621 66.236 84.3355 65.6368C84.5528 65.4097 84.6584 65.215 84.6485 65.0583C84.6378 64.9612 84.5928 64.8712 84.5216 64.8045L82.5249 65.8727L81.6419 67.2544L81.2983 67.0345L82.2365 65.5651L84.5774 64.3136L84.683 64.3993C84.9196 64.5933 85.0418 64.8012 85.0565 65.0357C85.0737 65.3147 84.9342 65.6043 84.6305 65.9218C84.1986 66.3709 83.2379 68.5796 82.9043 69.3927Z" fill="url(#paint20_linear)"/>
<path d="M174.665 186C175.666 186.019 176.66 185.838 177.59 185.469C178.52 185.099 179.367 184.548 180.081 183.847C180.795 183.146 181.363 182.31 181.75 181.388C182.137 180.465 182.337 179.475 182.337 178.474V144.982C182.338 142.869 181.505 140.84 180.019 139.337C178.532 137.833 176.513 136.977 174.399 136.954C161.19 136.81 133.948 136.803 111.659 138.681C110.19 138.807 108.817 139.466 107.801 140.534C106.785 141.602 106.196 143.006 106.144 144.479L104.061 176.858C104.024 177.875 104.19 178.89 104.549 179.842C104.909 180.794 105.454 181.665 106.154 182.405C106.854 183.144 107.694 183.737 108.625 184.148C109.556 184.559 110.56 184.781 111.578 184.8L174.665 186Z" fill="url(#paint21_linear)"/>
<path d="M174.684 148.606C174.74 151.455 174.655 155.98 174.586 158.899C174.578 159.258 174.494 159.611 174.341 159.936C174.189 160.261 173.97 160.55 173.698 160.786C173.427 161.021 173.11 161.197 172.767 161.303C172.423 161.409 172.062 161.442 171.705 161.4L160.835 160.126C160.491 160.085 160.159 159.976 159.858 159.805C159.558 159.634 159.295 159.405 159.085 159.13C158.874 158.855 158.722 158.541 158.636 158.206C158.549 157.871 158.531 157.522 158.583 157.18L159.917 148.279C160.009 147.667 160.317 147.109 160.785 146.706C161.254 146.302 161.852 146.08 162.47 146.08H172.104C172.78 146.08 173.428 146.344 173.91 146.816C174.393 147.289 174.67 147.931 174.684 148.606Z" fill="white"/>
<path opacity="0.37" d="M146.279 165.474L137.209 166.448C136.911 166.481 136.609 166.447 136.326 166.35C136.042 166.253 135.783 166.095 135.568 165.887C135.352 165.678 135.185 165.425 135.078 165.145C134.971 164.865 134.927 164.565 134.949 164.267L136.931 137.297C140.733 137.176 144.482 137.089 148.1 137.027V163.436C148.101 163.94 147.916 164.427 147.58 164.804C147.244 165.18 146.781 165.418 146.279 165.474Z" fill="white"/>
<path d="M142.562 160.796C142.549 161.028 142.447 161.247 142.278 161.406C142.109 161.566 141.885 161.655 141.653 161.655C141.635 161.655 141.618 161.655 141.6 161.655C141.48 161.648 141.363 161.618 141.255 161.566C141.147 161.514 141.051 161.441 140.971 161.352C140.891 161.262 140.83 161.158 140.791 161.045C140.751 160.932 140.735 160.812 140.742 160.693L142.109 137.157C142.723 137.142 143.331 137.128 143.939 137.115L142.562 160.796Z" fill="white"/>
<path d="M169.66 157.104C169.737 157.104 169.811 157.074 169.868 157.021C169.924 156.968 169.958 156.896 169.963 156.819L170.434 149.405C170.436 149.365 170.431 149.325 170.418 149.288C170.405 149.25 170.385 149.215 170.358 149.185C170.332 149.155 170.3 149.131 170.264 149.113C170.228 149.096 170.189 149.085 170.149 149.083C170.109 149.079 170.069 149.084 170.03 149.097C169.992 149.109 169.957 149.129 169.927 149.156C169.897 149.182 169.872 149.215 169.855 149.251C169.838 149.288 169.828 149.327 169.826 149.367L169.357 156.781C169.354 156.821 169.359 156.86 169.372 156.898C169.385 156.936 169.406 156.971 169.432 157.001C169.458 157.031 169.49 157.055 169.526 157.073C169.562 157.09 169.601 157.1 169.641 157.103L169.66 157.104Z" fill="url(#paint22_linear)"/>
<path d="M168.692 157.104C168.771 157.104 168.847 157.073 168.903 157.018C168.96 156.963 168.993 156.888 168.996 156.809L169.242 149.254C169.245 149.174 169.216 149.095 169.161 149.036C169.105 148.978 169.029 148.943 168.949 148.94C168.908 148.936 168.867 148.941 168.829 148.955C168.79 148.968 168.755 148.989 168.726 149.017C168.696 149.045 168.672 149.078 168.657 149.116C168.641 149.153 168.633 149.194 168.634 149.234L168.388 156.789C168.385 156.87 168.415 156.948 168.47 157.007C168.525 157.066 168.601 157.101 168.682 157.104H168.692Z" fill="url(#paint23_linear)"/>
<path d="M167.379 157.104C167.339 157.102 167.3 157.092 167.264 157.075C167.228 157.058 167.195 157.034 167.168 157.005C167.142 156.975 167.121 156.941 167.107 156.903C167.094 156.866 167.088 156.826 167.09 156.786C167.211 154.248 167.441 149.407 167.444 149.242C167.447 149.164 167.481 149.091 167.538 149.037C167.594 148.983 167.67 148.952 167.748 148.952C167.826 148.952 167.901 148.983 167.958 149.037C168.014 149.091 168.048 149.164 168.052 149.242C168.052 149.367 167.756 155.57 167.697 156.812C167.693 156.89 167.66 156.964 167.603 157.017C167.547 157.071 167.471 157.102 167.393 157.102L167.379 157.104Z" fill="url(#paint24_linear)"/>
<path d="M165.367 157.404C165.525 157.404 165.676 157.343 165.789 157.234C165.902 157.124 165.968 156.975 165.974 156.818C166.231 149.498 166.186 149.333 166.156 149.224C166.116 149.075 166.02 148.946 165.889 148.865C165.757 148.784 165.6 148.756 165.448 148.786C165.297 148.817 165.163 148.904 165.073 149.03C164.984 149.156 164.946 149.311 164.967 149.464C164.986 149.904 164.85 154.163 164.759 156.775C164.756 156.855 164.769 156.935 164.797 157.009C164.825 157.084 164.867 157.153 164.922 157.211C164.976 157.269 165.042 157.316 165.114 157.35C165.187 157.383 165.265 157.401 165.345 157.404L165.367 157.404Z" fill="url(#paint25_linear)"/>
<path d="M164.053 157.104C164.093 157.104 164.132 157.096 164.169 157.08C164.206 157.065 164.239 157.043 164.268 157.014C164.296 156.986 164.318 156.953 164.333 156.916C164.349 156.879 164.356 156.839 164.356 156.799V149.384C164.358 149.343 164.352 149.302 164.337 149.263C164.323 149.225 164.301 149.189 164.273 149.16C164.244 149.13 164.21 149.106 164.172 149.09C164.134 149.074 164.094 149.065 164.052 149.065C164.011 149.065 163.97 149.074 163.933 149.09C163.895 149.106 163.861 149.13 163.832 149.16C163.804 149.189 163.782 149.225 163.767 149.263C163.753 149.302 163.746 149.343 163.748 149.384V156.797C163.748 156.837 163.756 156.877 163.771 156.914C163.786 156.951 163.808 156.985 163.837 157.014C163.865 157.042 163.899 157.065 163.936 157.08C163.973 157.096 164.013 157.104 164.053 157.104Z" fill="url(#paint26_linear)"/>
<path d="M162.985 157.103C163.064 157.103 163.141 157.072 163.197 157.017C163.254 156.961 163.287 156.886 163.289 156.807C163.347 154.23 163.483 150.023 163.605 149.517C163.638 149.458 163.65 149.389 163.639 149.322C163.628 149.255 163.596 149.194 163.546 149.147C163.496 149.101 163.433 149.073 163.365 149.067C163.297 149.061 163.23 149.078 163.173 149.115C163.007 149.224 162.849 149.326 162.681 156.792C162.679 156.872 162.71 156.95 162.765 157.009C162.821 157.067 162.897 157.101 162.978 157.103H162.985Z" fill="url(#paint27_linear)"/>
<path d="M171.295 157.776C171.451 157.776 171.601 157.716 171.714 157.609C171.827 157.501 171.894 157.355 171.903 157.199L172.308 149.415C172.317 149.254 172.261 149.096 172.154 148.976C172.046 148.856 171.895 148.784 171.734 148.775C171.573 148.766 171.415 148.821 171.295 148.929C171.175 149.037 171.102 149.188 171.093 149.349L170.687 157.133C170.679 157.294 170.735 157.452 170.843 157.572C170.951 157.691 171.102 157.763 171.263 157.772L171.295 157.776Z" fill="url(#paint28_linear)"/>
<path d="M176.503 132.06V108.544C176.504 107.06 175.919 105.635 174.875 104.579C173.831 103.524 172.413 102.922 170.928 102.906C161.652 102.805 142.52 102.8 126.867 104.119C125.835 104.207 124.871 104.669 124.157 105.42C123.443 106.17 123.029 107.156 122.992 108.191L121.53 130.929C121.504 131.644 121.621 132.357 121.873 133.026C122.125 133.695 122.508 134.307 123 134.826C123.491 135.346 124.081 135.762 124.736 136.051C125.39 136.34 126.095 136.496 126.81 136.509L171.117 137.351C171.82 137.364 172.518 137.237 173.172 136.977C173.825 136.717 174.42 136.329 174.921 135.836C175.423 135.344 175.821 134.756 176.093 134.108C176.364 133.459 176.504 132.763 176.503 132.06Z" fill="url(#paint29_linear)"/>
<path d="M171.13 111.086C171.169 113.087 171.11 116.262 171.064 118.314C171.058 118.566 170.999 118.814 170.892 119.042C170.784 119.27 170.631 119.473 170.44 119.639C170.25 119.804 170.027 119.928 169.786 120.002C169.545 120.076 169.291 120.1 169.041 120.07L161.405 119.173C161.163 119.145 160.93 119.068 160.719 118.948C160.508 118.828 160.323 118.667 160.175 118.474C160.028 118.281 159.921 118.06 159.86 117.825C159.799 117.589 159.787 117.344 159.823 117.104L160.76 110.855C160.824 110.425 161.041 110.033 161.37 109.75C161.699 109.467 162.119 109.311 162.554 109.312H169.319C169.793 109.311 170.249 109.497 170.587 109.829C170.926 110.16 171.121 110.612 171.13 111.086Z" fill="white"/>
<path opacity="0.37" d="M151.18 122.929L144.812 123.616C144.603 123.638 144.392 123.614 144.193 123.546C143.994 123.478 143.812 123.367 143.661 123.221C143.51 123.075 143.392 122.897 143.317 122.7C143.242 122.504 143.212 122.293 143.227 122.084L144.619 103.146C147.289 103.061 149.921 102.999 152.459 102.956V121.502C152.46 121.855 152.329 122.197 152.093 122.46C151.857 122.724 151.532 122.891 151.18 122.929Z" fill="white"/>
<path d="M148.571 119.646C148.562 119.81 148.491 119.963 148.372 120.075C148.253 120.188 148.096 120.25 147.932 120.25H147.895C147.725 120.24 147.566 120.164 147.454 120.037C147.341 119.91 147.283 119.744 147.293 119.574L148.253 103.045L149.537 103.015L148.571 119.646Z" fill="white"/>
<path d="M167.6 117.051C167.655 117.051 167.707 117.031 167.746 116.994C167.786 116.957 167.81 116.906 167.813 116.852L168.145 111.646C168.147 111.618 168.143 111.59 168.134 111.563C168.125 111.537 168.111 111.512 168.093 111.491C168.074 111.47 168.052 111.453 168.026 111.441C168.001 111.429 167.974 111.421 167.946 111.419C167.918 111.417 167.89 111.42 167.863 111.429C167.836 111.438 167.811 111.452 167.79 111.471C167.769 111.489 167.752 111.512 167.739 111.537C167.727 111.563 167.72 111.591 167.719 111.619L167.387 116.825C167.384 116.881 167.403 116.937 167.44 116.979C167.477 117.022 167.53 117.047 167.586 117.051H167.6Z" fill="url(#paint30_linear)"/>
<path d="M166.92 117.051C166.975 117.051 167.029 117.03 167.068 116.991C167.108 116.953 167.132 116.901 167.133 116.845L167.306 111.54C167.307 111.512 167.303 111.484 167.293 111.457C167.283 111.431 167.268 111.407 167.249 111.386C167.23 111.366 167.207 111.349 167.181 111.338C167.156 111.326 167.128 111.32 167.1 111.319C167.072 111.316 167.043 111.319 167.016 111.328C166.989 111.337 166.964 111.352 166.943 111.371C166.922 111.391 166.905 111.415 166.894 111.441C166.884 111.468 166.878 111.496 166.88 111.525L166.706 116.831C166.704 116.887 166.725 116.942 166.764 116.984C166.803 117.025 166.856 117.049 166.913 117.051H166.92Z" fill="url(#paint31_linear)"/>
<path d="M165.999 117.051C165.971 117.05 165.943 117.043 165.918 117.031C165.893 117.019 165.87 117.003 165.851 116.982C165.832 116.961 165.817 116.937 165.808 116.91C165.798 116.884 165.794 116.856 165.796 116.828C165.88 115.046 166.042 111.647 166.044 111.53C166.047 111.476 166.071 111.424 166.111 111.387C166.151 111.349 166.203 111.328 166.258 111.328C166.312 111.328 166.365 111.349 166.405 111.387C166.445 111.424 166.468 111.476 166.471 111.53C166.471 111.618 166.263 115.974 166.222 116.845C166.219 116.899 166.196 116.951 166.156 116.989C166.116 117.027 166.064 117.048 166.009 117.048L165.999 117.051Z" fill="url(#paint32_linear)"/>
<path d="M164.584 117.265C164.695 117.265 164.801 117.222 164.88 117.145C164.96 117.068 165.006 116.964 165.01 116.853C165.191 111.712 165.159 111.597 165.139 111.52C165.109 111.416 165.042 111.327 164.95 111.271C164.858 111.214 164.748 111.195 164.643 111.216C164.537 111.238 164.443 111.298 164.38 111.386C164.317 111.473 164.29 111.581 164.303 111.688C164.317 111.997 164.221 114.988 164.157 116.823C164.155 116.879 164.164 116.934 164.184 116.987C164.203 117.04 164.233 117.088 164.271 117.129C164.309 117.17 164.355 117.203 164.406 117.226C164.457 117.249 164.512 117.262 164.568 117.264L164.584 117.265Z" fill="url(#paint33_linear)"/>
<path d="M163.66 117.051C163.717 117.051 163.771 117.029 163.811 116.989C163.851 116.949 163.873 116.895 163.873 116.838V111.632C163.873 111.575 163.851 111.521 163.811 111.481C163.771 111.441 163.717 111.419 163.66 111.419C163.604 111.419 163.549 111.441 163.509 111.481C163.469 111.521 163.447 111.575 163.447 111.632V116.838C163.447 116.866 163.452 116.894 163.463 116.92C163.474 116.946 163.489 116.969 163.509 116.989C163.529 117.009 163.552 117.024 163.578 117.035C163.604 117.046 163.632 117.051 163.66 117.051Z" fill="url(#paint34_linear)"/>
<path d="M162.913 117.051C162.968 117.051 163.022 117.03 163.062 116.991C163.102 116.952 163.125 116.899 163.126 116.843C163.167 115.034 163.263 112.079 163.348 111.724C163.371 111.683 163.38 111.634 163.373 111.587C163.366 111.54 163.343 111.496 163.308 111.464C163.273 111.431 163.228 111.411 163.18 111.407C163.132 111.403 163.085 111.415 163.045 111.441C162.928 111.518 162.818 111.59 162.699 116.833C162.699 116.861 162.704 116.889 162.714 116.915C162.724 116.941 162.739 116.965 162.758 116.985C162.778 117.006 162.801 117.022 162.827 117.033C162.852 117.044 162.88 117.051 162.908 117.051H162.913Z" fill="url(#paint35_linear)"/>
<path d="M168.749 117.526C168.858 117.525 168.963 117.483 169.043 117.408C169.122 117.333 169.169 117.23 169.175 117.121L169.46 111.654C169.466 111.541 169.426 111.43 169.35 111.346C169.275 111.262 169.168 111.211 169.055 111.205C168.943 111.201 168.832 111.241 168.749 111.316C168.665 111.392 168.614 111.497 168.607 111.61L168.322 117.076C168.319 117.132 168.327 117.189 168.346 117.241C168.365 117.294 168.394 117.343 168.431 117.385C168.469 117.426 168.514 117.46 168.565 117.484C168.616 117.508 168.67 117.522 168.727 117.525L168.749 117.526Z" fill="url(#paint36_linear)"/>
<path d="M143.332 180.619V157.103C143.332 154.013 141.185 151.499 138.514 151.466C130.498 151.365 113.964 151.359 100.436 152.678C98.5898 152.858 97.1539 154.608 97.0868 156.75L95.8244 179.489C95.7307 182.496 97.7865 185.009 100.387 185.069L138.678 185.911C141.233 185.963 143.332 183.58 143.332 180.619Z" fill="url(#paint37_linear)"/>
<path d="M138.69 159.646C138.724 161.648 138.672 164.823 138.63 166.874C138.609 167.942 137.799 168.755 136.882 168.631L130.284 167.736C129.405 167.617 128.786 166.681 128.918 165.667L129.727 159.419C129.842 158.531 130.501 157.875 131.276 157.875H137.124C137.975 157.875 138.671 158.661 138.69 159.646Z" fill="white"/>
<path opacity="0.37" d="M121.448 171.49L115.946 172.177C115.176 172.273 114.519 171.538 114.576 170.644L115.779 151.706C118.086 151.622 120.364 151.56 122.556 151.516V170.063C122.556 170.796 122.078 171.411 121.448 171.49Z" fill="white"/>
<path d="M119.193 168.208C119.176 168.548 118.932 168.811 118.641 168.811H118.608C118.303 168.79 118.07 168.487 118.088 168.135L118.918 151.606L120.028 151.576L119.193 168.208Z" fill="white"/>
<path d="M135.638 165.612C135.688 165.608 135.735 165.586 135.769 165.549C135.804 165.512 135.822 165.463 135.822 165.413L136.108 160.207C136.114 160.154 136.1 160.101 136.067 160.059C136.035 160.017 135.988 159.989 135.935 159.981C135.909 159.981 135.883 159.985 135.859 159.995C135.834 160.005 135.812 160.02 135.794 160.038C135.776 160.057 135.761 160.079 135.752 160.104C135.742 160.128 135.738 160.154 135.739 160.181L135.454 165.386C135.448 165.439 135.462 165.492 135.495 165.535C135.527 165.577 135.574 165.605 135.627 165.613L135.638 165.612Z" fill="url(#paint38_linear)"/>
<path d="M135.051 165.612C135.102 165.609 135.15 165.585 135.185 165.546C135.219 165.508 135.237 165.457 135.235 165.406L135.385 160.1C135.39 160.047 135.374 159.995 135.34 159.954C135.307 159.912 135.259 159.886 135.206 159.88C135.089 159.873 135.02 159.969 135.016 160.086L134.866 165.392C134.861 165.445 134.877 165.497 134.911 165.538C134.944 165.579 134.992 165.606 135.045 165.612H135.051Z" fill="url(#paint39_linear)"/>
<path d="M134.254 165.612C134.202 165.605 134.154 165.577 134.121 165.536C134.088 165.494 134.073 165.441 134.079 165.388C134.152 163.606 134.291 160.207 134.293 160.091C134.29 160.064 134.291 160.037 134.299 160.011C134.306 159.986 134.319 159.962 134.337 159.942C134.354 159.921 134.376 159.905 134.4 159.894C134.425 159.883 134.451 159.877 134.478 159.877C134.505 159.877 134.531 159.883 134.556 159.894C134.58 159.905 134.602 159.921 134.619 159.942C134.637 159.962 134.65 159.986 134.657 160.011C134.665 160.037 134.667 160.064 134.663 160.091C134.663 160.179 134.483 164.534 134.447 165.405C134.448 165.456 134.43 165.506 134.396 165.544C134.361 165.582 134.314 165.605 134.263 165.609L134.254 165.612Z" fill="url(#paint40_linear)"/>
<path d="M133.033 165.826C133.232 165.826 133.394 165.644 133.401 165.414C133.557 160.273 133.53 160.157 133.512 160.08C133.458 159.852 133.253 159.719 133.059 159.781C132.878 159.838 132.765 160.04 132.793 160.25C132.805 160.559 132.722 163.549 132.667 165.384C132.66 165.619 132.819 165.817 133.023 165.825L133.033 165.826Z" fill="url(#paint41_linear)"/>
<path d="M132.233 165.612C132.259 165.611 132.285 165.604 132.308 165.592C132.332 165.58 132.353 165.564 132.37 165.544C132.387 165.524 132.4 165.501 132.408 165.476C132.417 165.451 132.42 165.425 132.418 165.398V160.192C132.421 160.166 132.419 160.139 132.411 160.114C132.404 160.089 132.391 160.065 132.373 160.045C132.356 160.025 132.334 160.009 132.31 159.998C132.286 159.987 132.26 159.982 132.233 159.982C132.207 159.982 132.181 159.987 132.156 159.998C132.132 160.009 132.111 160.025 132.093 160.045C132.076 160.065 132.063 160.089 132.055 160.114C132.048 160.139 132.045 160.166 132.049 160.192V165.398C132.047 165.425 132.05 165.451 132.058 165.476C132.067 165.501 132.08 165.524 132.097 165.544C132.114 165.563 132.135 165.58 132.158 165.592C132.181 165.603 132.207 165.61 132.233 165.612Z" fill="url(#paint42_linear)"/>
<path d="M131.587 165.613C131.639 165.609 131.687 165.585 131.722 165.546C131.756 165.507 131.774 165.456 131.772 165.404C131.807 163.595 131.889 160.64 131.964 160.285C131.98 160.25 131.988 160.212 131.987 160.173C131.985 160.135 131.975 160.097 131.956 160.064C131.946 160.041 131.93 160.021 131.91 160.005C131.891 159.989 131.868 159.978 131.844 159.972C131.819 159.966 131.794 159.966 131.769 159.971C131.745 159.976 131.721 159.987 131.701 160.002C131.6 160.078 131.505 160.151 131.403 165.394C131.399 165.447 131.415 165.499 131.449 165.54C131.482 165.581 131.53 165.607 131.583 165.613H131.587Z" fill="url(#paint43_linear)"/>
<path d="M136.631 166.086C136.826 166.086 136.989 165.909 137 165.682L137.246 160.214C137.256 159.979 137.099 159.779 136.896 159.766C136.703 159.75 136.519 159.935 136.508 160.171L136.262 165.637C136.252 165.873 136.408 166.074 136.612 166.086H136.631Z" fill="url(#paint44_linear)"/>
</g>
<defs>
<linearGradient id="paint0_linear" x1="209.684" y1="239.994" x2="45.0138" y2="35.434" gradientUnits="userSpaceOnUse">
<stop stop-color="#B37CFF"/>
<stop offset="1" stop-color="#F895E7"/>
</linearGradient>
<linearGradient id="paint1_linear" x1="-31778.7" y1="87181.7" x2="101328" y2="110442" gradientUnits="userSpaceOnUse">
<stop stop-color="#B37CFF"/>
<stop offset="1" stop-color="#F895E7"/>
</linearGradient>
<linearGradient id="paint2_linear" x1="119.998" y1="164.787" x2="58.306" y2="-70.598" gradientUnits="userSpaceOnUse">
<stop stop-color="#A737D5"/>
<stop offset="1" stop-color="#EF497A"/>
</linearGradient>
<linearGradient id="paint3_linear" x1="97.0845" y1="112.559" x2="366.307" y2="297.323" gradientUnits="userSpaceOnUse">
<stop stop-color="#2B3582"/>
<stop offset="1" stop-color="#150E42"/>
</linearGradient>
<linearGradient id="paint4_linear" x1="106.543" y1="182.441" x2="-7.39895" y2="-160.785" gradientUnits="userSpaceOnUse">
<stop stop-color="#53D8FF"/>
<stop offset="1" stop-color="#3840F7"/>
</linearGradient>
<linearGradient id="paint5_linear" x1="77.4468" y1="-5.19206" x2="77.0171" y2="21.0465" gradientUnits="userSpaceOnUse">
<stop stop-color="#8D55D1"/>
<stop offset="1" stop-color="#1C2873"/>
</linearGradient>
<linearGradient id="paint6_linear" x1="60066.8" y1="27113.6" x2="55885.8" y2="34508.7" gradientUnits="userSpaceOnUse">
<stop stop-color="#2B3582"/>
<stop offset="1" stop-color="#150E42"/>
</linearGradient>
<linearGradient id="paint7_linear" x1="73.7787" y1="75.3205" x2="53.4238" y2="103.528" gradientUnits="userSpaceOnUse">
<stop stop-color="#F9B776"/>
<stop offset="1" stop-color="#F47960"/>
</linearGradient>
<linearGradient id="paint8_linear" x1="15738" y1="14922.6" x2="15119.4" y2="14922.6" gradientUnits="userSpaceOnUse">
<stop stop-color="#A737D5"/>
<stop offset="1" stop-color="#EF497A"/>
</linearGradient>
<linearGradient id="paint9_linear" x1="25558.4" y1="120881" x2="4963.93" y2="65351.4" gradientUnits="userSpaceOnUse">
<stop stop-color="#F9B776"/>
<stop offset="1" stop-color="#F47960"/>
</linearGradient>
<linearGradient id="paint10_linear" x1="30188.3" y1="21656.2" x2="28568.9" y2="21656.2" gradientUnits="userSpaceOnUse">
<stop stop-color="#A737D5"/>
<stop offset="1" stop-color="#EF497A"/>
</linearGradient>
<linearGradient id="paint11_linear" x1="51763.6" y1="117573" x2="42233.5" y2="58119.1" gradientUnits="userSpaceOnUse">
<stop stop-color="#F9B776"/>
<stop offset="1" stop-color="#F47960"/>
</linearGradient>
<linearGradient id="paint12_linear" x1="54.6848" y1="98.8404" x2="50.0738" y2="141.629" gradientUnits="userSpaceOnUse">
<stop stop-color="#FDF53F"/>
<stop offset="1" stop-color="#D93C65"/>
</linearGradient>
<linearGradient id="paint13_linear" x1="-58528.8" y1="55350.6" x2="-72560.7" y2="69809.4" gradientUnits="userSpaceOnUse">
<stop stop-color="#FDF53F"/>
<stop offset="1" stop-color="#D93C65"/>
</linearGradient>
<linearGradient id="paint14_linear" x1="19575.1" y1="18499.8" x2="19037" y2="16282.1" gradientUnits="userSpaceOnUse">
<stop stop-color="#F9B776"/>
<stop offset="1" stop-color="#F47960"/>
</linearGradient>
<linearGradient id="paint15_linear" x1="32001.1" y1="43205.8" x2="30006.7" y2="43205.8" gradientUnits="userSpaceOnUse">
<stop stop-color="#F9B776"/>
<stop offset="1" stop-color="#F47960"/>
</linearGradient>
<linearGradient id="paint16_linear" x1="27073.1" y1="16468.6" x2="25000.2" y2="11644.4" gradientUnits="userSpaceOnUse">
<stop stop-color="#F9B776"/>
<stop offset="1" stop-color="#F47960"/>
</linearGradient>
<linearGradient id="paint17_linear" x1="33444.3" y1="14323.4" x2="31099.6" y2="17650.3" gradientUnits="userSpaceOnUse">
<stop stop-color="#2B3582"/>
<stop offset="1" stop-color="#150E42"/>
</linearGradient>
<linearGradient id="paint18_linear" x1="6776.54" y1="5020.15" x2="6044.27" y2="3646.74" gradientUnits="userSpaceOnUse">
<stop stop-color="#F9B776"/>
<stop offset="1" stop-color="#F47960"/>
</linearGradient>
<linearGradient id="paint19_linear" x1="-28530.2" y1="7546.33" x2="-26039" y2="12258" gradientUnits="userSpaceOnUse">
<stop stop-color="#F9B776"/>
<stop offset="1" stop-color="#F47960"/>
</linearGradient>
<linearGradient id="paint20_linear" x1="4681.17" y1="5175.73" x2="4893.96" y2="5175.73" gradientUnits="userSpaceOnUse">
<stop stop-color="#F9B776"/>
<stop offset="1" stop-color="#F47960"/>
</linearGradient>
<linearGradient id="paint21_linear" x1="191466" y1="87534.1" x2="68899.1" y2="223856" gradientUnits="userSpaceOnUse">
<stop stop-color="#FDF53F"/>
<stop offset="1" stop-color="#D93C65"/>
</linearGradient>
<linearGradient id="paint22_linear" x1="1852.17" y1="17991" x2="2798.58" y2="18175.9" gradientUnits="userSpaceOnUse">
<stop stop-color="#2B3582"/>
<stop offset="1" stop-color="#150E42"/>
</linearGradient>
<linearGradient id="paint23_linear" x1="1434.42" y1="18368" x2="2195.69" y2="18483.8" gradientUnits="userSpaceOnUse">
<stop stop-color="#2B3582"/>
<stop offset="1" stop-color="#150E42"/>
</linearGradient>
<linearGradient id="paint24_linear" x1="1619.67" y1="18409.1" x2="2471.56" y2="18555.3" gradientUnits="userSpaceOnUse">
<stop stop-color="#2B3582"/>
<stop offset="1" stop-color="#150E42"/>
</linearGradient>
<linearGradient id="paint25_linear" x1="2420.24" y1="19612.2" x2="3644.61" y2="19905" gradientUnits="userSpaceOnUse">
<stop stop-color="#2B3582"/>
<stop offset="1" stop-color="#150E42"/>
</linearGradient>
<linearGradient id="paint26_linear" x1="960.34" y1="18357.7" x2="1508.29" y2="18418" gradientUnits="userSpaceOnUse">
<stop stop-color="#2B3582"/>
<stop offset="1" stop-color="#150E42"/>
</linearGradient>
<linearGradient id="paint27_linear" x1="1579.01" y1="18406.3" x2="2429.55" y2="18554.2" gradientUnits="userSpaceOnUse">
<stop stop-color="#2B3582"/>
<stop offset="1" stop-color="#150E42"/>
</linearGradient>
<linearGradient id="paint28_linear" x1="2872.98" y1="20077.6" x2="4256.38" y2="20439.9" gradientUnits="userSpaceOnUse">
<stop stop-color="#2B3582"/>
<stop offset="1" stop-color="#150E42"/>
</linearGradient>
<linearGradient id="paint29_linear" x1="123541" y1="46698.3" x2="63090.2" y2="113933" gradientUnits="userSpaceOnUse">
<stop stop-color="#FDF53F"/>
<stop offset="1" stop-color="#D93C65"/>
</linearGradient>
<linearGradient id="paint30_linear" x1="1256.9" y1="9479.46" x2="1724.65" y2="9571.05" gradientUnits="userSpaceOnUse">
<stop stop-color="#2B3582"/>
<stop offset="1" stop-color="#150E42"/>
</linearGradient>
<linearGradient id="paint31_linear" x1="964.622" y1="9676.19" x2="1340.08" y2="9733.32" gradientUnits="userSpaceOnUse">
<stop stop-color="#2B3582"/>
<stop offset="1" stop-color="#150E42"/>
</linearGradient>
<linearGradient id="paint32_linear" x1="1096.62" y1="9693.71" x2="1516.84" y2="9765.84" gradientUnits="userSpaceOnUse">
<stop stop-color="#2B3582"/>
<stop offset="1" stop-color="#150E42"/>
</linearGradient>
<linearGradient id="paint33_linear" x1="1662.94" y1="10317.6" x2="2266.94" y2="10462.2" gradientUnits="userSpaceOnUse">
<stop stop-color="#2B3582"/>
<stop offset="1" stop-color="#150E42"/>
</linearGradient>
<linearGradient id="paint34_linear" x1="638.629" y1="9641.93" x2="908.348" y2="9671.62" gradientUnits="userSpaceOnUse">
<stop stop-color="#2B3582"/>
<stop offset="1" stop-color="#150E42"/>
</linearGradient>
<linearGradient id="paint35_linear" x1="1078.35" y1="9687.73" x2="1498.3" y2="9760.82" gradientUnits="userSpaceOnUse">
<stop stop-color="#2B3582"/>
<stop offset="1" stop-color="#150E42"/>
</linearGradient>
<linearGradient id="paint36_linear" x1="1959.47" y1="10577.4" x2="2641.72" y2="10756.1" gradientUnits="userSpaceOnUse">
<stop stop-color="#2B3582"/>
<stop offset="1" stop-color="#150E42"/>
</linearGradient>
<linearGradient id="paint37_linear" x1="82620.1" y1="73507.5" x2="27825" y2="126176" gradientUnits="userSpaceOnUse">
<stop stop-color="#FDF53F"/>
<stop offset="1" stop-color="#D93C65"/>
</linearGradient>
<linearGradient id="paint38_linear" x1="786.739" y1="13643.3" x2="1195.96" y2="13712.7" gradientUnits="userSpaceOnUse">
<stop stop-color="#2B3582"/>
<stop offset="1" stop-color="#150E42"/>
</linearGradient>
<linearGradient id="paint39_linear" x1="602.391" y1="13915.9" x2="929.49" y2="13959" gradientUnits="userSpaceOnUse">
<stop stop-color="#2B3582"/>
<stop offset="1" stop-color="#150E42"/>
</linearGradient>
<linearGradient id="paint40_linear" x1="687.634" y1="13954.5" x2="1055.38" y2="14009.2" gradientUnits="userSpaceOnUse">
<stop stop-color="#2B3582"/>
<stop offset="1" stop-color="#150E42"/>
</linearGradient>
<linearGradient id="paint41_linear" x1="1037.99" y1="14802.5" x2="1562.63" y2="14910.5" gradientUnits="userSpaceOnUse">
<stop stop-color="#2B3582"/>
<stop offset="1" stop-color="#150E42"/>
</linearGradient>
<linearGradient id="paint42_linear" x1="397.227" y1="13804.2" x2="632.23" y2="13826.8" gradientUnits="userSpaceOnUse">
<stop stop-color="#2B3582"/>
<stop offset="1" stop-color="#150E42"/>
</linearGradient>
<linearGradient id="paint43_linear" x1="671.797" y1="13863.2" x2="1037.65" y2="13918.2" gradientUnits="userSpaceOnUse">
<stop stop-color="#2B3582"/>
<stop offset="1" stop-color="#150E42"/>
</linearGradient>
<linearGradient id="paint44_linear" x1="1232.27" y1="15248.7" x2="1830.02" y2="15384" gradientUnits="userSpaceOnUse">
<stop stop-color="#2B3582"/>
<stop offset="1" stop-color="#150E42"/>
</linearGradient>
<clipPath id="clip0">
<rect width="187" height="186" fill="white"/>
</clipPath>
</defs>
</svg>
