<?xml version="1.0" encoding="utf-8"?>
<!-- Generator: Adobe Illustrator 23.0.1, SVG Export Plug-In . SVG Version: 6.00 Build 0)  -->
<svg version="1.1" id="Capa_1" xmlns="http://www.w3.org/2000/svg" xmlns:xlink="http://www.w3.org/1999/xlink" x="0px" y="0px"
	 viewBox="0 0 425.2 398.22" style="enable-background:new 0 0 425.2 398.22;" xml:space="preserve">
<style type="text/css">
	.st0{fill:#00788A;}
	.st1{fill:#2C2C2C;}
	.st2{fill:#3D3D3B;}
	.st3{fill:#FFFFFF;}
	.st4{fill:url(#SVGID_1_);}
	.st5{fill:#727070;}
	.st6{fill:none;}
	.st7{fill:#1E1F1D;}
	.st8{fill-rule:evenodd;clip-rule:evenodd;fill:#FFFFFF;}
	.st9{fill-rule:evenodd;clip-rule:evenodd;fill:#12110E;}
	.st10{fill:#9AA1A5;}
	.st11{fill:#454F56;}
	.st12{fill:#32393D;}
	.st13{fill:#979696;}
	.st14{fill:#646363;}
	.st15{fill:#B1C5D0;}
	.st16{fill:#C5CDD2;}
	.st17{fill:#04616D;}
	.st18{fill:#C6C6C6;}
	.st19{fill:#E7E7E7;}
	.st20{fill:#262C2F;}
	.st21{fill:#D7803D;}
	.st22{fill:#EBDED2;}
	.st23{fill:#F6A654;}
	.st24{opacity:0.5;fill:#FCDCC9;}
	.st25{fill:#EDEDED;}
	.st26{fill:#70441C;}
	.st27{fill:none;stroke:#70441C;stroke-width:0.4398;stroke-linecap:round;stroke-linejoin:round;stroke-miterlimit:10;}
	.st28{fill:#CC7335;}
	.st29{fill:#E89848;}
	.st30{fill:#B2B2B2;}
	.st31{fill:#E18B3E;}
	.st32{fill:#413942;}
	.st33{fill:#140E11;}
	.st34{fill:#E9E9E9;}
	.st35{fill:#352E35;}
	.st36{fill:#2C252B;}
	.st37{fill:#181316;}
	.st38{fill:#DADADA;}
	.st39{fill:#ACACAC;}
	.st40{fill:#838382;}
	.st41{fill:#383B4E;}
	.st42{fill:none;stroke:#C6C6C6;stroke-width:0.8366;stroke-miterlimit:10;}
	.st43{fill:#F59D16;}
	.st44{fill:#FCC005;}
	.st45{fill:#686867;}
	.st46{fill:#AEBCC5;}
	.st47{fill:#901C0A;}
	.st48{fill:#F9BB8D;}
	.st49{fill:#E84E0F;}
	.st50{fill:#050000;}
	.st51{fill:#7F1F19;}
	.st52{fill:#300F00;}
	.st53{fill:#B41F1C;}
	.st54{fill:#E09D74;}
	.st55{fill:#EA5B0C;}
	.st56{fill:#D7CAC8;}
	.st57{fill:#21141A;}
	.st58{fill:#F5A58F;}
	.st59{fill:#E73926;}
	.st60{fill:#E5251D;}
	.st61{fill:#1F191E;}
	.st62{fill:#A8A8A7;}
	.st63{fill:#706F6F;}
	.st64{fill:#D24C0A;}
	.st65{fill:#EC6608;}
	.st66{fill:#3A4247;}
	.st67{fill:#292F32;}
	.st68{fill:none;stroke:#70441C;stroke-width:0.2471;stroke-linecap:round;stroke-linejoin:round;stroke-miterlimit:10;}
	.st69{fill:#004878;}
	.st70{fill:#AE2811;}
	.st71{fill:#E94E1B;}
</style>
<g>
	<rect x="4.36" y="299.03" class="st0" width="12.42" height="44.2"/>
	<rect x="0" y="309.23" class="st0" width="6.54" height="34"/>
	<rect x="14.38" y="311.84" class="st0" width="8.93" height="31.39"/>
	<rect x="20.7" y="290.4" class="st0" width="19.61" height="52.83"/>
	<rect x="58.29" y="305.69" class="st0" width="132.26" height="37.53"/>
	<rect x="69.41" y="269.4" class="st0" width="19.61" height="73.82"/>
	<rect x="94.56" y="239.13" class="st0" width="19.61" height="104.1"/>
	<rect x="104.37" y="168.34" class="st0" width="19.61" height="174.89"/>
	<rect x="169.05" y="239.13" class="st0" width="19.61" height="104.1"/>
	<rect x="223.61" y="269.4" class="st0" width="23.23" height="73.82"/>
	<polygon class="st0" points="261.76,343.23 231.93,343.23 231.93,209.94 246.42,209.94 261.76,227.33 	"/>
	<polygon class="st0" points="227.23,343.23 207.62,343.23 207.62,239.13 215.38,239.13 227.23,255.79 	"/>
	<rect x="178.86" y="168.34" class="st0" width="33.41" height="174.89"/>
	<rect x="183.52" y="162.75" class="st0" width="24.1" height="27.8"/>
	<rect x="187.14" y="154.06" class="st0" width="16.86" height="22.59"/>
	<rect x="130.9" y="121.03" class="st0" width="16.86" height="22.59"/>
	<rect x="111.61" y="142.89" class="st0" width="19.61" height="200.34"/>
	<rect x="121.42" y="126.12" class="st0" width="29.81" height="217.11"/>
	<rect x="140.04" y="162.75" class="st0" width="16.36" height="180.47"/>
	<rect x="148.22" y="224.84" class="st0" width="16.36" height="118.38"/>
	<rect x="261.76" y="234.11" class="st0" width="17.13" height="109.12"/>
	<rect x="284.92" y="204.59" class="st0" width="14.72" height="14.1"/>
	<rect x="268.08" y="218.23" class="st0" width="17.13" height="125"/>
	<rect x="276.64" y="207.77" class="st0" width="26.03" height="135.46"/>
	<rect x="292.9" y="230.63" class="st0" width="14.29" height="112.6"/>
	<rect x="300.05" y="269.36" class="st0" width="14.29" height="73.86"/>
	<rect x="314.33" y="243.06" class="st0" width="54" height="100.17"/>
	<rect x="71.68" y="262.39" class="st0" width="15.07" height="25.1"/>
	<polygon class="st0" points="61.98,343.23 38.79,343.23 38.79,231.76 55.18,245.66 61.98,245.66 	"/>
	<rect x="373.57" y="308.67" class="st0" width="13.94" height="34.56"/>
	<rect x="364.42" y="316.64" class="st0" width="18.06" height="26.58"/>
	<rect x="385.64" y="289.63" class="st0" width="7.42" height="53.6"/>
	<rect x="390.9" y="284.24" class="st0" width="16.3" height="58.99"/>
	<rect x="405.92" y="275.34" class="st0" width="19.27" height="67.88"/>
	<rect x="327.85" y="225.25" class="st0" width="33.41" height="117.98"/>
	<rect x="332.51" y="221.48" class="st0" width="24.1" height="18.75"/>
	<rect x="336.13" y="215.62" class="st0" width="16.86" height="15.24"/>
	<rect x="408.34" y="271.2" class="st0" width="13.45" height="11.76"/>
	<rect x="234.19" y="204.71" class="st0" width="11.59" height="16.26"/>
</g>
<g>
	<g>
		<g>
			<path class="st1" d="M320.97,278.22h-85.56c-8.12,0-14.7-6.58-14.7-14.7V75.22c0-8.12,6.58-14.7,14.7-14.7h85.56
				c8.12,0,14.7,6.58,14.7,14.7v188.3C335.67,271.64,329.09,278.22,320.97,278.22z"/>
			<path class="st2" d="M235.41,275.85c-6.8,0-12.34-5.53-12.34-12.34V75.22c0-6.8,5.53-12.34,12.34-12.34h85.56
				c6.8,0,12.34,5.53,12.34,12.34v188.3c0,6.8-5.53,12.34-12.34,12.34H235.41z"/>
			<path class="st3" d="M320.01,65.72h-12.39v5.05c0,3.09-2.5,5.59-5.59,5.59h-47.68c-3.09,0-5.59-2.5-5.59-5.59v-5.05h-12.39
				c-4.95,0-8.96,4.01-8.96,8.96v189.37c0,4.95,4.01,8.96,8.96,8.96h83.64c4.95,0,8.96-4.01,8.96-8.96V74.68
				C328.97,69.73,324.96,65.72,320.01,65.72z"/>
			<linearGradient id="SVGID_1_" gradientUnits="userSpaceOnUse" x1="278.1893" y1="47.9546" x2="278.1893" y2="272.6026">
				<stop  offset="0.0161" style="stop-color:#B5B8BA"/>
				<stop  offset="1" style="stop-color:#CDCFD0"/>
			</linearGradient>
			<path class="st4" d="M320.01,65.72h-12.39v5.05c0,3.09-2.5,5.59-5.59,5.59h-47.68c-3.09,0-5.59-2.5-5.59-5.59v-5.05h-12.39
				c-4.95,0-8.96,4.01-8.96,8.96v189.37c0,4.95,4.01,8.96,8.96,8.96h83.64c4.95,0,8.96-4.01,8.96-8.96V74.68
				C328.97,69.73,324.96,65.72,320.01,65.72z"/>
			<path class="st5" d="M335.67,95.32h0.7c0.94,0,1.7,0.76,1.7,1.7v23c0,0.94-0.76,1.7-1.7,1.7h-0.7V95.32z"/>
			<path class="st5" d="M220.71,107.87h-0.7c-0.94,0-1.7-0.76-1.7-1.7V98.8c0-0.94,0.76-1.7,1.7-1.7h0.7V107.87z"/>
			<path class="st5" d="M220.71,123.8h-0.7c-0.94,0-1.7-0.76-1.7-1.7v-7.36c0-0.94,0.76-1.7,1.7-1.7h0.7V123.8z"/>
			<g>
				
					<rect x="265.06" y="134.62" transform="matrix(0.2828 -0.9592 0.9592 0.2828 48.8653 364.7845)" class="st6" width="6.62" height="30.19"/>
				<path class="st3" d="M327.11,149.13v-3.63l-12.68-3.74l12.68-42.99v-12.3l-16.01,54.31l-15.74-4.64l20.77-70.43h-7.25
					l-10.18,34.51l-21.1-6.22l5.21-17.66h-3.63l-5.9,20.01l24.44,7.21l-9.02,30.61l-63.14-18.62v3.63l62.16,18.33l-2.94,9.96
					l-32.29-9.52l-2.86,9.68l-24.08-7.1v3.63l55.38,16.33l-14.67,49.75l-40.71-12v3.63l39.73,11.71l-9.75,33.08l-29.97-8.84v3.63
					l28.99,8.55l-3.93,13.33l-25.06-7.39v3.63l24.07,7.1l-1.87,6.34H255l1.29-4.37l14.83,4.37h12.3l-26.15-7.71l14.67-49.75
					l30.92,9.12l-14.26,48.35h3.63l13.97-47.36l20.91,6.17v-3.63l-54.18-15.98l14.67-49.75l39.51,11.65v-3.63l-38.53-11.36
					l5.79-19.65L327.11,149.13z M281.91,157.16l-28.95-8.54l1.87-6.35l28.95,8.54L281.91,157.16z"/>
			</g>
			<g>
				<path class="st7" d="M283.54,68.75h-11.88c-0.77,0-1.4-0.63-1.4-1.4V67c0-0.77,0.63-1.4,1.4-1.4h11.88c0.77,0,1.4,0.63,1.4,1.4
					v0.35C284.94,68.13,284.31,68.75,283.54,68.75z"/>
				<path class="st7" d="M283.94,71.91h-12.69c-0.55,0-1-0.45-1-1l0,0c0-0.55,0.45-1,1-1h12.69c0.55,0,1,0.45,1,1l0,0
					C284.94,71.46,284.49,71.91,283.94,71.91z"/>
				<path class="st7" d="M267.79,70.82c0-1.52-1.24-2.76-2.76-2.76c-1.52,0-2.76,1.24-2.76,2.76c0,1.52,1.24,2.76,2.76,2.76
					C266.56,73.58,267.79,72.35,267.79,70.82z"/>
				<circle class="st7" cx="254.88" cy="70.82" r="2.07"/>
				<path class="st7" d="M303.56,70.82c0-1.52-1.24-2.76-2.76-2.76c-1.52,0-2.76,1.24-2.76,2.76c0,1.52,1.24,2.76,2.76,2.76
					C302.33,73.58,303.56,72.35,303.56,70.82z"/>
				<circle class="st7" cx="290.65" cy="70.82" r="2.07"/>
			</g>
		</g>
		<g>
			
				<rect x="238.75" y="115.46" transform="matrix(-1.836970e-16 1 -1 -1.836970e-16 430.8018 -126.062)" class="st8" width="79.36" height="73.83"/>
			<g>
				<g>
					
						<rect x="305.62" y="118.6" transform="matrix(-1.836970e-16 1 -1 -1.836970e-16 428.5941 -187.1781)" class="st9" width="4.52" height="4.21"/>
					
						<rect x="305.62" y="123.13" transform="matrix(-1.836970e-16 1 -1 -1.836970e-16 433.1173 -182.6549)" class="st9" width="4.52" height="4.21"/>
					
						<rect x="305.62" y="127.65" transform="matrix(-1.836970e-16 1 -1 -1.836970e-16 437.6403 -178.1319)" class="st9" width="4.52" height="4.21"/>
					
						<rect x="305.62" y="132.17" transform="matrix(-1.836970e-16 1 -1 -1.836970e-16 442.1633 -173.6089)" class="st9" width="4.52" height="4.21"/>
					
						<rect x="305.62" y="145.74" transform="matrix(-1.836970e-16 1 -1 -1.836970e-16 455.7327 -160.0394)" class="st9" width="4.52" height="4.21"/>
					
						<rect x="305.62" y="154.79" transform="matrix(-1.836970e-16 1 -1 -1.836970e-16 464.779 -150.9932)" class="st9" width="4.52" height="4.21"/>
					
						<rect x="305.62" y="163.84" transform="matrix(-1.836970e-16 1 -1 -1.836970e-16 473.8255 -141.9466)" class="st9" width="4.52" height="4.21"/>
					
						<rect x="305.62" y="168.36" transform="matrix(-1.836970e-16 1 -1 -1.836970e-16 478.3486 -137.4236)" class="st9" width="4.52" height="4.21"/>
					
						<rect x="305.62" y="177.4" transform="matrix(-1.836970e-16 1 -1 -1.836970e-16 487.3948 -128.3774)" class="st9" width="4.52" height="4.21"/>
					
						<rect x="305.62" y="181.93" transform="matrix(-1.836970e-16 1 -1 -1.836970e-16 491.9179 -123.8542)" class="st9" width="4.52" height="4.21"/>
				</g>
				<g>
					
						<rect x="301.42" y="118.6" transform="matrix(-1.836970e-16 1 -1 -1.836970e-16 424.3863 -182.9704)" class="st9" width="4.52" height="4.21"/>
					
						<rect x="301.42" y="136.7" transform="matrix(-1.836970e-16 1 -1 -1.836970e-16 442.4789 -164.8778)" class="st9" width="4.52" height="4.21"/>
					
						<rect x="301.42" y="150.27" transform="matrix(-1.836970e-16 1 -1 -1.836970e-16 456.0481 -151.3086)" class="st9" width="4.52" height="4.21"/>
					
						<rect x="301.42" y="154.79" transform="matrix(-1.836970e-16 1 -1 -1.836970e-16 460.5713 -146.7854)" class="st9" width="4.52" height="4.21"/>
					
						<rect x="301.42" y="181.93" transform="matrix(-1.836970e-16 1 -1 -1.836970e-16 487.7102 -119.6465)" class="st9" width="4.52" height="4.21"/>
				</g>
				<g>
					
						<rect x="297.21" y="118.6" transform="matrix(-1.836970e-16 1 -1 -1.836970e-16 420.1786 -178.7626)" class="st9" width="4.52" height="4.21"/>
					
						<rect x="297.21" y="127.65" transform="matrix(-1.836970e-16 1 -1 -1.836970e-16 429.2248 -169.7164)" class="st9" width="4.52" height="4.21"/>
					
						<rect x="301.42" y="127.65" transform="matrix(-1.836970e-16 1 -1 -1.836970e-16 433.4325 -173.9242)" class="st9" width="4.52" height="4.21"/>
					
						<rect x="297.21" y="136.7" transform="matrix(-1.836970e-16 1 -1 -1.836970e-16 438.2711 -160.6701)" class="st9" width="4.52" height="4.21"/>
					
						<rect x="297.21" y="145.74" transform="matrix(-1.836970e-16 1 -1 -1.836970e-16 447.3173 -151.624)" class="st9" width="4.52" height="4.21"/>
					
						<rect x="297.21" y="163.84" transform="matrix(-1.836970e-16 1 -1 -1.836970e-16 465.4101 -133.5311)" class="st9" width="4.52" height="4.21"/>
					
						<rect x="297.21" y="172.88" transform="matrix(-1.836970e-16 1 -1 -1.836970e-16 474.4561 -124.4851)" class="st9" width="4.52" height="4.21"/>
					
						<rect x="297.21" y="177.4" transform="matrix(-1.836970e-16 1 -1 -1.836970e-16 478.9793 -119.9619)" class="st9" width="4.52" height="4.21"/>
					
						<rect x="297.21" y="181.93" transform="matrix(-1.836970e-16 1 -1 -1.836970e-16 483.5024 -115.4388)" class="st9" width="4.52" height="4.21"/>
				</g>
				<g>
					
						<rect x="293" y="123.13" transform="matrix(-1.836970e-16 1 -1 -1.836970e-16 420.4941 -170.0317)" class="st9" width="4.52" height="4.21"/>
					
						<rect x="293" y="136.7" transform="matrix(-1.836970e-16 1 -1 -1.836970e-16 434.0635 -156.4624)" class="st9" width="4.52" height="4.21"/>
					
						<rect x="293" y="150.27" transform="matrix(-1.836970e-16 1 -1 -1.836970e-16 447.6327 -142.8932)" class="st9" width="4.52" height="4.21"/>
					
						<rect x="293" y="154.79" transform="matrix(-1.836970e-16 1 -1 -1.836970e-16 452.1559 -138.37)" class="st9" width="4.52" height="4.21"/>
					
						<rect x="293" y="163.84" transform="matrix(-1.836970e-16 1 -1 -1.836970e-16 461.2024 -129.3235)" class="st9" width="4.52" height="4.21"/>
					
						<rect x="293" y="177.4" transform="matrix(-1.836970e-16 1 -1 -1.836970e-16 474.7716 -115.7542)" class="st9" width="4.52" height="4.21"/>
				</g>
				<g>
					
						<rect x="288.79" y="118.6" transform="matrix(-1.836970e-16 1 -1 -1.836970e-16 411.7631 -170.3471)" class="st9" width="4.52" height="4.21"/>
					
						<rect x="288.79" y="123.13" transform="matrix(-1.836970e-16 1 -1 -1.836970e-16 416.2863 -165.8239)" class="st9" width="4.52" height="4.21"/>
					
						<rect x="288.79" y="127.65" transform="matrix(-1.836970e-16 1 -1 -1.836970e-16 420.8093 -161.3009)" class="st9" width="4.52" height="4.21"/>
					
						<rect x="288.79" y="132.17" transform="matrix(-1.836970e-16 1 -1 -1.836970e-16 425.3323 -156.7779)" class="st9" width="4.52" height="4.21"/>
					
						<rect x="288.79" y="136.7" transform="matrix(-1.836970e-16 1 -1 -1.836970e-16 429.8557 -152.2546)" class="st9" width="4.52" height="4.21"/>
					
						<rect x="288.79" y="145.74" transform="matrix(-1.836970e-16 1 -1 -1.836970e-16 438.9018 -143.2085)" class="st9" width="4.52" height="4.21"/>
					
						<rect x="288.79" y="150.27" transform="matrix(-1.836970e-16 1 -1 -1.836970e-16 443.4249 -138.6853)" class="st9" width="4.52" height="4.21"/>
					
						<rect x="288.79" y="163.84" transform="matrix(-1.836970e-16 1 -1 -1.836970e-16 456.9946 -125.1157)" class="st9" width="4.52" height="4.21"/>
					
						<rect x="288.79" y="168.36" transform="matrix(-1.836970e-16 1 -1 -1.836970e-16 461.5176 -120.5926)" class="st9" width="4.52" height="4.21"/>
					
						<rect x="288.79" y="172.88" transform="matrix(-1.836970e-16 1 -1 -1.836970e-16 466.0406 -116.0696)" class="st9" width="4.52" height="4.21"/>
					
						<rect x="288.79" y="177.4" transform="matrix(-1.836970e-16 1 -1 -1.836970e-16 470.5638 -111.5464)" class="st9" width="4.52" height="4.21"/>
					
						<rect x="288.79" y="181.93" transform="matrix(-1.836970e-16 1 -1 -1.836970e-16 475.0869 -107.0233)" class="st9" width="4.52" height="4.21"/>
				</g>
				<g>
					
						<rect x="284.59" y="150.27" transform="matrix(-1.836970e-16 1 -1 -1.836970e-16 439.2172 -134.4776)" class="st9" width="4.52" height="4.21"/>
					<polyline class="st9" points="284.74,163.68 284.74,159.15 288.95,159.15 288.95,163.68 					"/>
					<line class="st9" x1="288.95" y1="163.68" x2="288.95" y2="168.2"/>
					<line class="st9" x1="284.74" y1="168.2" x2="284.74" y2="163.68"/>
					<line class="st9" x1="288.95" y1="168.2" x2="288.95" y2="172.72"/>
					<line class="st9" x1="284.74" y1="172.72" x2="284.74" y2="168.2"/>
					<line class="st9" x1="288.95" y1="172.72" x2="288.95" y2="177.25"/>
					<line class="st9" x1="288.95" y1="177.25" x2="288.95" y2="181.77"/>
					<line class="st9" x1="284.74" y1="181.77" x2="284.74" y2="177.25"/>
					<line class="st9" x1="288.95" y1="181.77" x2="288.95" y2="186.29"/>
					<line class="st9" x1="284.74" y1="186.29" x2="284.74" y2="181.77"/>
				</g>
				<g>
					
						<rect x="280.38" y="123.13" transform="matrix(-1.836970e-16 1 -1 -1.836970e-16 407.8708 -157.4084)" class="st9" width="4.52" height="4.21"/>
					
						<rect x="280.38" y="127.65" transform="matrix(-1.836970e-16 1 -1 -1.836970e-16 412.3938 -152.8855)" class="st9" width="4.52" height="4.21"/>
					
						<rect x="280.38" y="132.17" transform="matrix(-1.836970e-16 1 -1 -1.836970e-16 416.9169 -148.3624)" class="st9" width="4.52" height="4.21"/>
					
						<rect x="280.38" y="141.22" transform="matrix(-1.836970e-16 1 -1 -1.836970e-16 425.9632 -139.316)" class="st9" width="4.52" height="4.21"/>
					
						<rect x="280.38" y="145.74" transform="matrix(-1.836970e-16 1 -1 -1.836970e-16 430.4863 -134.793)" class="st9" width="4.52" height="4.21"/>
					
						<rect x="280.38" y="154.79" transform="matrix(-1.836970e-16 1 -1 -1.836970e-16 439.5326 -125.7467)" class="st9" width="4.52" height="4.21"/>
					
						<rect x="280.38" y="159.31" transform="matrix(-1.836970e-16 1 -1 -1.836970e-16 444.0558 -121.2235)" class="st9" width="4.52" height="4.21"/>
					
						<rect x="280.38" y="163.84" transform="matrix(-1.836970e-16 1 -1 -1.836970e-16 448.5791 -116.7002)" class="st9" width="4.52" height="4.21"/>
					
						<rect x="280.38" y="168.36" transform="matrix(-1.836970e-16 1 -1 -1.836970e-16 453.1021 -112.1771)" class="st9" width="4.52" height="4.21"/>
					
						<rect x="280.38" y="177.4" transform="matrix(-1.836970e-16 1 -1 -1.836970e-16 462.1483 -103.1309)" class="st9" width="4.52" height="4.21"/>
					
						<rect x="280.38" y="181.93" transform="matrix(-1.836970e-16 1 -1 -1.836970e-16 466.6715 -98.6078)" class="st9" width="4.52" height="4.21"/>
				</g>
				<g>
					
						<rect x="276.17" y="118.6" transform="matrix(-1.836970e-16 1 -1 -1.836970e-16 399.1398 -157.7238)" class="st9" width="4.52" height="4.21"/>
					
						<rect x="276.17" y="132.17" transform="matrix(-1.836970e-16 1 -1 -1.836970e-16 412.709 -144.1546)" class="st9" width="4.52" height="4.21"/>
					
						<rect x="276.17" y="136.7" transform="matrix(-1.836970e-16 1 -1 -1.836970e-16 417.2324 -139.6313)" class="st9" width="4.52" height="4.21"/>
					
						<rect x="276.17" y="145.74" transform="matrix(-1.836970e-16 1 -1 -1.836970e-16 426.2784 -130.5852)" class="st9" width="4.52" height="4.21"/>
					
						<rect x="276.17" y="150.27" transform="matrix(-1.836970e-16 1 -1 -1.836970e-16 430.8016 -126.062)" class="st9" width="4.52" height="4.21"/>
					
						<rect x="276.17" y="168.36" transform="matrix(-1.836970e-16 1 -1 -1.836970e-16 448.8943 -107.9693)" class="st9" width="4.52" height="4.21"/>
					<polyline class="st9" points="280.54,172.72 280.54,177.25 276.33,177.25 276.33,172.72 					"/>
				</g>
				<g>
					
						<rect x="271.96" y="118.6" transform="matrix(-1.836970e-16 1 -1 -1.836970e-16 394.9321 -153.5162)" class="st9" width="4.52" height="4.21"/>
					
						<rect x="271.96" y="127.65" transform="matrix(-1.836970e-16 1 -1 -1.836970e-16 403.9783 -144.47)" class="st9" width="4.52" height="4.21"/>
					
						<rect x="271.96" y="136.7" transform="matrix(-1.836970e-16 1 -1 -1.836970e-16 413.0247 -135.4236)" class="st9" width="4.52" height="4.21"/>
					
						<rect x="271.96" y="141.22" transform="matrix(-1.836970e-16 1 -1 -1.836970e-16 417.5477 -130.9006)" class="st9" width="4.52" height="4.21"/>
					
						<rect x="271.96" y="145.74" transform="matrix(-1.836970e-16 1 -1 -1.836970e-16 422.0708 -126.3775)" class="st9" width="4.52" height="4.21"/>
					
						<rect x="271.96" y="154.79" transform="matrix(-1.836970e-16 1 -1 -1.836970e-16 431.1171 -117.3312)" class="st9" width="4.52" height="4.21"/>
					
						<rect x="271.96" y="159.31" transform="matrix(-1.836970e-16 1 -1 -1.836970e-16 435.6403 -112.808)" class="st9" width="4.52" height="4.21"/>
					
						<rect x="271.96" y="163.84" transform="matrix(-1.836970e-16 1 -1 -1.836970e-16 440.1636 -108.2847)" class="st9" width="4.52" height="4.21"/>
					
						<rect x="267.76" y="168.36" transform="matrix(-1.836970e-16 1 -1 -1.836970e-16 440.479 -99.554)" class="st9" width="4.52" height="4.21"/>
					
						<rect x="271.96" y="172.88" transform="matrix(-1.836970e-16 1 -1 -1.836970e-16 449.2096 -99.2387)" class="st9" width="4.52" height="4.21"/>
					
						<rect x="271.96" y="177.4" transform="matrix(-1.836970e-16 1 -1 -1.836970e-16 453.7328 -94.7154)" class="st9" width="4.52" height="4.21"/>
					
						<rect x="271.96" y="181.93" transform="matrix(-1.836970e-16 1 -1 -1.836970e-16 458.256 -90.1923)" class="st9" width="4.52" height="4.21"/>
				</g>
				<g>
					
						<rect x="267.75" y="145.74" transform="matrix(-1.836970e-16 1 -1 -1.836970e-16 417.8631 -122.1698)" class="st9" width="4.52" height="4.21"/>
					
						<rect x="267.75" y="154.79" transform="matrix(-1.836970e-16 1 -1 -1.836970e-16 426.9094 -113.1236)" class="st9" width="4.52" height="4.21"/>
				</g>
				<g>
					
						<rect x="263.55" y="118.6" transform="matrix(-1.836970e-16 1 -1 -1.836970e-16 386.5166 -145.1007)" class="st9" width="4.52" height="4.21"/>
					
						<rect x="263.55" y="123.13" transform="matrix(-1.836970e-16 1 -1 -1.836970e-16 391.0399 -140.5775)" class="st9" width="4.52" height="4.21"/>
					
						<rect x="263.55" y="127.65" transform="matrix(-1.836970e-16 1 -1 -1.836970e-16 395.5628 -136.0545)" class="st9" width="4.52" height="4.21"/>
					
						<rect x="263.55" y="132.17" transform="matrix(-1.836970e-16 1 -1 -1.836970e-16 400.0859 -131.5314)" class="st9" width="4.52" height="4.21"/>
					
						<rect x="263.55" y="136.7" transform="matrix(-1.836970e-16 1 -1 -1.836970e-16 404.6092 -127.0081)" class="st9" width="4.52" height="4.21"/>
					
						<rect x="263.55" y="150.27" transform="matrix(-1.836970e-16 1 -1 -1.836970e-16 418.1784 -113.4389)" class="st9" width="4.52" height="4.21"/>
					
						<rect x="263.55" y="154.79" transform="matrix(-1.836970e-16 1 -1 -1.836970e-16 422.7016 -108.9157)" class="st9" width="4.52" height="4.21"/>
					
						<rect x="263.55" y="159.31" transform="matrix(-1.836970e-16 1 -1 -1.836970e-16 427.2248 -104.3925)" class="st9" width="4.52" height="4.21"/>
					
						<rect x="263.55" y="163.84" transform="matrix(-1.836970e-16 1 -1 -1.836970e-16 431.7481 -99.8692)" class="st9" width="4.52" height="4.21"/>
					
						<rect x="263.55" y="168.36" transform="matrix(-1.836970e-16 1 -1 -1.836970e-16 436.2712 -95.3462)" class="st9" width="4.52" height="4.21"/>
					
						<rect x="263.55" y="172.88" transform="matrix(-1.836970e-16 1 -1 -1.836970e-16 440.7941 -90.8232)" class="st9" width="4.52" height="4.21"/>
					
						<rect x="263.55" y="181.93" transform="matrix(-1.836970e-16 1 -1 -1.836970e-16 449.8405 -81.7768)" class="st9" width="4.52" height="4.21"/>
					
						<rect x="267.75" y="177.4" transform="matrix(-1.836970e-16 1 -1 -1.836970e-16 449.5252 -90.5078)" class="st9" width="4.52" height="4.21"/>
				</g>
				<g>
					
						<rect x="259.34" y="118.6" transform="matrix(-1.836970e-16 1 -1 -1.836970e-16 382.3089 -140.8929)" class="st9" width="4.52" height="4.21"/>
					
						<rect x="259.34" y="145.74" transform="matrix(-1.836970e-16 1 -1 -1.836970e-16 409.4476 -113.7543)" class="st9" width="4.52" height="4.21"/>
					
						<rect x="259.34" y="154.79" transform="matrix(-1.836970e-16 1 -1 -1.836970e-16 418.4938 -104.708)" class="st9" width="4.52" height="4.21"/>
					
						<rect x="259.34" y="163.84" transform="matrix(-1.836970e-16 1 -1 -1.836970e-16 427.5404 -95.6615)" class="st9" width="4.52" height="4.21"/>
					
						<rect x="259.34" y="181.93" transform="matrix(-1.836970e-16 1 -1 -1.836970e-16 445.6328 -77.5691)" class="st9" width="4.52" height="4.21"/>
				</g>
				<g>
					
						<rect x="255.13" y="118.6" transform="matrix(-1.836970e-16 1 -1 -1.836970e-16 378.1012 -136.6853)" class="st9" width="4.52" height="4.21"/>
					
						<rect x="255.13" y="127.65" transform="matrix(-1.836970e-16 1 -1 -1.836970e-16 387.1474 -127.6391)" class="st9" width="4.52" height="4.21"/>
					
						<rect x="255.13" y="136.7" transform="matrix(-1.836970e-16 1 -1 -1.836970e-16 396.1938 -118.5927)" class="st9" width="4.52" height="4.21"/>
					
						<rect x="255.13" y="145.74" transform="matrix(-1.836970e-16 1 -1 -1.836970e-16 405.2399 -109.5466)" class="st9" width="4.52" height="4.21"/>
					
						<rect x="255.13" y="154.79" transform="matrix(-1.836970e-16 1 -1 -1.836970e-16 414.2862 -100.5003)" class="st9" width="4.52" height="4.21"/>
					
						<rect x="255.13" y="159.31" transform="matrix(-1.836970e-16 1 -1 -1.836970e-16 418.8094 -95.9771)" class="st9" width="4.52" height="4.21"/>
					
						<rect x="255.13" y="172.88" transform="matrix(-1.836970e-16 1 -1 -1.836970e-16 432.3787 -82.4078)" class="st9" width="4.52" height="4.21"/>
					
						<rect x="255.13" y="181.93" transform="matrix(-1.836970e-16 1 -1 -1.836970e-16 441.4251 -73.3614)" class="st9" width="4.52" height="4.21"/>
				</g>
				<g>
					
						<rect x="250.92" y="136.7" transform="matrix(-1.836970e-16 1 -1 -1.836970e-16 391.986 -114.3849)" class="st9" width="4.52" height="4.21"/>
					
						<rect x="250.92" y="154.79" transform="matrix(-1.836970e-16 1 -1 -1.836970e-16 410.0784 -96.2925)" class="st9" width="4.52" height="4.21"/>
					
						<rect x="250.92" y="163.84" transform="matrix(-1.836970e-16 1 -1 -1.836970e-16 419.1249 -87.246)" class="st9" width="4.52" height="4.21"/>
					
						<rect x="250.92" y="168.36" transform="matrix(-1.836970e-16 1 -1 -1.836970e-16 423.6479 -82.7229)" class="st9" width="4.52" height="4.21"/>
					
						<rect x="250.92" y="181.93" transform="matrix(-1.836970e-16 1 -1 -1.836970e-16 437.2173 -69.1536)" class="st9" width="4.52" height="4.21"/>
				</g>
				<g>
					
						<rect x="246.72" y="118.6" transform="matrix(-1.836970e-16 1 -1 -1.836970e-16 369.6856 -128.2696)" class="st9" width="4.52" height="4.21"/>
					
						<rect x="246.72" y="123.13" transform="matrix(-1.836970e-16 1 -1 -1.836970e-16 374.2088 -123.7464)" class="st9" width="4.52" height="4.21"/>
					
						<rect x="246.72" y="127.65" transform="matrix(-1.836970e-16 1 -1 -1.836970e-16 378.7318 -119.2234)" class="st9" width="4.52" height="4.21"/>
					
						<rect x="246.72" y="132.17" transform="matrix(-1.836970e-16 1 -1 -1.836970e-16 383.2549 -114.7004)" class="st9" width="4.52" height="4.21"/>
					
						<rect x="246.72" y="136.7" transform="matrix(-1.836970e-16 1 -1 -1.836970e-16 387.7781 -110.1771)" class="st9" width="4.52" height="4.21"/>
					
						<rect x="246.72" y="145.74" transform="matrix(-1.836970e-16 1 -1 -1.836970e-16 396.8242 -101.131)" class="st9" width="4.52" height="4.21"/>
					
						<rect x="246.72" y="150.27" transform="matrix(-1.836970e-16 1 -1 -1.836970e-16 401.3474 -96.6078)" class="st9" width="4.52" height="4.21"/>
					
						<rect x="246.72" y="159.31" transform="matrix(-1.836970e-16 1 -1 -1.836970e-16 410.3938 -87.5615)" class="st9" width="4.52" height="4.21"/>
					
						<rect x="246.72" y="163.84" transform="matrix(-1.836970e-16 1 -1 -1.836970e-16 414.9171 -83.0382)" class="st9" width="4.52" height="4.21"/>
					
						<rect x="246.72" y="172.88" transform="matrix(-1.836970e-16 1 -1 -1.836970e-16 423.9631 -73.9921)" class="st9" width="4.52" height="4.21"/>
					
						<rect x="246.72" y="177.4" transform="matrix(-1.836970e-16 1 -1 -1.836970e-16 428.4863 -69.4689)" class="st9" width="4.52" height="4.21"/>
					
						<rect x="246.72" y="181.93" transform="matrix(-1.836970e-16 1 -1 -1.836970e-16 433.0095 -64.9458)" class="st9" width="4.52" height="4.21"/>
				</g>
			</g>
		</g>
	</g>
</g>
<g>
	<rect x="99.41" y="265.68" class="st10" width="183.19" height="77.54"/>
	<polygon class="st11" points="286.24,259.96 95.76,259.96 110.33,238.1 271.67,238.1 	"/>
	<rect x="95.76" y="259.96" class="st12" width="190.48" height="5.73"/>
	<rect x="191" y="278.17" class="st3" width="80.15" height="65.05"/>
	<rect x="193.61" y="280.39" class="st13" width="74.94" height="62.84"/>
	<rect x="199.85" y="280.39" class="st14" width="62.45" height="62.84"/>
	<rect x="248.71" y="300.49" class="st15" width="13.6" height="42.74"/>
	<g>
		<rect x="107.37" y="276.54" class="st16" width="33.31" height="13.7"/>
		<rect x="106.4" y="275.64" class="st3" width="33.31" height="13.7"/>
		<rect x="108.78" y="277.21" class="st17" width="28.55" height="10.55"/>
		<g>
			<polygon class="st3" points="127.23,277.21 114.14,287.77 110.82,287.77 123.91,277.21 			"/>
			<polygon class="st3" points="134.53,277.21 121.45,287.77 118.12,287.77 131.2,277.21 			"/>
		</g>
	</g>
	<g>
		<rect x="107.37" y="305.36" class="st16" width="33.31" height="23.08"/>
		<rect x="106.4" y="304.46" class="st3" width="33.31" height="23.08"/>
		<rect x="108.78" y="306.03" class="st17" width="28.55" height="19.93"/>
		<g>
			<polygon class="st3" points="127.23,306.03 114.14,325.96 110.82,325.96 123.91,306.03 			"/>
			<polygon class="st3" points="134.53,306.03 121.45,325.96 118.12,325.96 131.2,306.03 			"/>
		</g>
	</g>
	<g>
		<rect x="149.63" y="305.36" class="st16" width="33.31" height="23.08"/>
		<rect x="148.65" y="304.46" class="st3" width="33.31" height="23.08"/>
		<rect x="151.03" y="306.03" class="st17" width="28.55" height="19.93"/>
		<g>
			<polygon class="st3" points="169.49,306.03 156.39,325.96 153.07,325.96 166.17,306.03 			"/>
			<polygon class="st3" points="176.78,306.03 163.7,325.96 160.38,325.96 173.46,306.03 			"/>
		</g>
	</g>
	<g>
		<rect x="149.63" y="276.54" class="st16" width="33.31" height="13.7"/>
		<rect x="148.65" y="275.64" class="st3" width="33.31" height="13.7"/>
		<rect x="151.03" y="277.21" class="st17" width="28.55" height="10.55"/>
		<g>
			<polygon class="st3" points="169.49,277.21 156.39,287.77 153.07,287.77 166.17,277.21 			"/>
			<polygon class="st3" points="176.78,277.21 163.7,287.77 160.38,287.77 173.46,277.21 			"/>
		</g>
	</g>
	<polygon class="st15" points="233.91,327.5 233.91,316.9 213.81,316.9 213.81,327.5 203.75,327.5 203.75,343.23 243.96,343.23 
		243.96,327.5 	"/>
	<rect x="193.61" y="280.39" class="st18" width="74.94" height="17.04"/>
	<path class="st19" d="M266.73,283.39c0,0.5-0.4,0.9-0.9,0.9h-69.11c-0.5,0-0.9-0.4-0.9-0.9l0,0c0-0.5,0.4-0.9,0.9-0.9h69.11
		C266.32,282.49,266.73,282.89,266.73,283.39L266.73,283.39z"/>
	<path class="st19" d="M266.73,286.87c0,0.5-0.4,0.9-0.9,0.9h-69.11c-0.5,0-0.9-0.4-0.9-0.9l0,0c0-0.5,0.4-0.9,0.9-0.9h69.11
		C266.32,285.96,266.73,286.37,266.73,286.87L266.73,286.87z"/>
	<path class="st19" d="M266.73,290.34c0,0.5-0.4,0.9-0.9,0.9h-69.11c-0.5,0-0.9-0.4-0.9-0.9l0,0c0-0.5,0.4-0.9,0.9-0.9h69.11
		C266.32,289.44,266.73,289.84,266.73,290.34L266.73,290.34z"/>
	<path class="st19" d="M266.73,293.82c0,0.5-0.4,0.9-0.9,0.9h-69.11c-0.5,0-0.9-0.4-0.9-0.9l0,0c0-0.5,0.4-0.9,0.9-0.9h69.11
		C266.32,292.92,266.73,293.32,266.73,293.82L266.73,293.82z"/>
	<rect x="110.82" y="212.6" class="st12" width="160.85" height="25.5"/>
	<rect x="109" y="206.09" class="st20" width="164.5" height="6.51"/>
	<g>
		<rect x="121.52" y="218.95" class="st16" width="33.31" height="13.7"/>
		<rect x="120.55" y="218.05" class="st3" width="33.31" height="13.7"/>
		<rect x="122.93" y="219.62" class="st17" width="28.55" height="10.55"/>
		<g>
			<polygon class="st3" points="141.38,219.62 128.29,230.18 124.96,230.18 138.06,219.62 			"/>
			<polygon class="st3" points="148.67,219.62 135.59,230.18 132.27,230.18 145.35,219.62 			"/>
		</g>
	</g>
	<g>
		<rect x="175.43" y="218.95" class="st16" width="33.31" height="13.7"/>
		<rect x="174.46" y="218.05" class="st3" width="33.31" height="13.7"/>
		<rect x="176.84" y="219.62" class="st17" width="28.55" height="10.55"/>
		<g>
			<polygon class="st3" points="195.3,219.62 182.2,230.18 178.88,230.18 191.97,219.62 			"/>
			<polygon class="st3" points="202.59,219.62 189.51,230.18 186.19,230.18 199.27,219.62 			"/>
		</g>
	</g>
	<g>
		<rect x="229.35" y="218.95" class="st16" width="33.31" height="13.7"/>
		<rect x="228.38" y="218.05" class="st3" width="33.31" height="13.7"/>
		<rect x="230.75" y="219.62" class="st17" width="28.55" height="10.55"/>
		<g>
			<polygon class="st3" points="249.21,219.62 236.12,230.18 232.79,230.18 245.89,219.62 			"/>
			<polygon class="st3" points="256.5,219.62 243.42,230.18 240.1,230.18 253.18,219.62 			"/>
		</g>
	</g>
</g>
<g>
	<g>
		<g>
			<rect x="318.93" y="261.09" class="st21" width="9.9" height="19.79"/>
			<rect x="322.63" y="261.09" class="st22" width="3.11" height="5.94"/>
			<rect x="328.83" y="261.09" class="st23" width="18.25" height="19.79"/>
			<polygon class="st24" points="346.36,280.11 346.36,261.87 329.54,261.87 			"/>
			<rect x="322.38" y="261.09" class="st25" width="3.01" height="5.72"/>
			<rect x="330.14" y="274.71" class="st26" width="6.74" height="0.94"/>
			<rect x="330.14" y="276.5" class="st26" width="4.56" height="0.94"/>
			<rect x="330.37" y="278" class="st27" width="1.61" height="1.45"/>
			<rect x="332.85" y="278" class="st27" width="1.61" height="1.45"/>
		</g>
		<g>
			<rect x="347.08" y="300.67" class="st21" width="9.9" height="19.79"/>
			<rect x="350.78" y="300.67" class="st22" width="3.12" height="5.94"/>
			<rect x="356.98" y="300.67" class="st23" width="18.25" height="19.79"/>
			<polygon class="st24" points="374.51,319.69 374.51,301.45 357.69,301.45 			"/>
			<rect x="350.53" y="300.67" class="st25" width="3" height="5.72"/>
			<rect x="358.29" y="314.3" class="st26" width="6.73" height="0.94"/>
			<rect x="358.29" y="316.08" class="st26" width="4.56" height="0.94"/>
			<rect x="358.51" y="317.58" class="st27" width="1.61" height="1.45"/>
			<rect x="360.99" y="317.58" class="st27" width="1.61" height="1.45"/>
		</g>
		<g>
			<rect x="318.93" y="300.67" class="st21" width="9.9" height="19.79"/>
			<rect x="322.63" y="300.67" class="st22" width="3.11" height="5.94"/>
			<rect x="328.83" y="300.67" class="st23" width="18.25" height="19.79"/>
			<polygon class="st24" points="346.36,319.69 346.36,301.45 329.54,301.45 			"/>
			<rect x="322.38" y="300.67" class="st25" width="3.01" height="5.72"/>
			<rect x="330.14" y="314.3" class="st26" width="6.74" height="0.94"/>
			<rect x="330.14" y="316.08" class="st26" width="4.56" height="0.94"/>
			<rect x="330.37" y="317.58" class="st27" width="1.61" height="1.45"/>
			<rect x="332.85" y="317.58" class="st27" width="1.61" height="1.45"/>
		</g>
		<g>
			<rect x="347.08" y="280.88" class="st28" width="9.9" height="19.79"/>
			<rect x="350.78" y="280.88" class="st22" width="3.12" height="5.94"/>
			<rect x="356.98" y="280.88" class="st29" width="18.25" height="19.79"/>
			<polygon class="st24" points="374.51,299.89 374.51,281.66 357.69,281.66 			"/>
			<rect x="350.53" y="280.88" class="st25" width="3" height="5.72"/>
			<rect x="358.29" y="294.51" class="st26" width="6.73" height="0.94"/>
			<rect x="358.29" y="296.29" class="st26" width="4.56" height="0.94"/>
			<rect x="358.51" y="297.79" class="st27" width="1.61" height="1.45"/>
			<rect x="360.99" y="297.79" class="st27" width="1.61" height="1.45"/>
		</g>
		<g>
			<rect x="318.93" y="280.88" class="st28" width="9.9" height="19.79"/>
			<rect x="322.63" y="280.88" class="st22" width="3.11" height="5.94"/>
			<rect x="328.83" y="280.88" class="st29" width="18.25" height="19.79"/>
			<polygon class="st24" points="346.36,299.89 346.36,281.66 329.54,281.66 			"/>
			<rect x="322.38" y="280.88" class="st25" width="3.01" height="5.72"/>
			<rect x="330.14" y="294.51" class="st26" width="6.74" height="0.94"/>
			<rect x="330.14" y="296.29" class="st26" width="4.56" height="0.94"/>
			<rect x="330.37" y="297.79" class="st27" width="1.61" height="1.45"/>
			<rect x="332.85" y="297.79" class="st27" width="1.61" height="1.45"/>
		</g>
		<g>
			<rect x="347.08" y="320.46" class="st28" width="9.9" height="19.79"/>
			<rect x="350.78" y="320.46" class="st22" width="3.12" height="5.94"/>
			<rect x="356.98" y="320.46" class="st29" width="18.25" height="19.79"/>
			<polygon class="st24" points="374.51,339.48 374.51,321.24 357.69,321.24 			"/>
			<rect x="350.53" y="320.46" class="st25" width="3" height="5.72"/>
			<rect x="358.29" y="334.09" class="st26" width="6.73" height="0.94"/>
			<rect x="358.29" y="335.87" class="st26" width="4.56" height="0.94"/>
			<rect x="358.51" y="337.37" class="st27" width="1.61" height="1.45"/>
			<rect x="360.99" y="337.37" class="st27" width="1.61" height="1.45"/>
		</g>
		<g>
			<rect x="318.93" y="320.46" class="st28" width="9.9" height="19.79"/>
			<rect x="322.63" y="320.46" class="st22" width="3.11" height="5.94"/>
			<rect x="328.83" y="320.46" class="st29" width="18.25" height="19.79"/>
			<polygon class="st24" points="346.36,339.48 346.36,321.24 329.54,321.24 			"/>
			<rect x="322.38" y="320.46" class="st25" width="3.01" height="5.72"/>
			<rect x="330.14" y="334.09" class="st26" width="6.74" height="0.94"/>
			<rect x="330.14" y="335.87" class="st26" width="4.56" height="0.94"/>
			<rect x="330.37" y="337.37" class="st27" width="1.61" height="1.45"/>
			<rect x="332.85" y="337.37" class="st27" width="1.61" height="1.45"/>
		</g>
	</g>
	<g>
		<g>
			<rect x="376.69" y="300.67" class="st21" width="9.9" height="19.79"/>
			<rect x="380.39" y="300.67" class="st22" width="3.12" height="5.94"/>
			<rect x="386.58" y="300.67" class="st23" width="18.25" height="19.79"/>
			<polygon class="st24" points="404.12,319.69 404.12,301.45 387.3,301.45 			"/>
			<rect x="380.13" y="300.67" class="st25" width="3.01" height="5.72"/>
			<rect x="387.9" y="314.3" class="st26" width="6.74" height="0.94"/>
			<rect x="387.9" y="316.08" class="st26" width="4.56" height="0.94"/>
			<rect x="388.12" y="317.58" class="st27" width="1.61" height="1.45"/>
			<rect x="390.6" y="317.58" class="st27" width="1.61" height="1.45"/>
		</g>
		<g>
			<rect x="376.69" y="320.46" class="st28" width="9.9" height="19.79"/>
			<rect x="380.39" y="320.46" class="st22" width="3.12" height="5.94"/>
			<rect x="386.58" y="320.46" class="st29" width="18.25" height="19.79"/>
			<polygon class="st24" points="404.12,339.48 404.12,321.24 387.3,321.24 			"/>
			<rect x="380.13" y="320.46" class="st25" width="3.01" height="5.72"/>
			<rect x="387.9" y="334.09" class="st26" width="6.74" height="0.94"/>
			<rect x="387.9" y="335.87" class="st26" width="4.56" height="0.94"/>
			<rect x="388.12" y="337.37" class="st27" width="1.61" height="1.45"/>
			<rect x="390.6" y="337.37" class="st27" width="1.61" height="1.45"/>
		</g>
	</g>
	<g>
		<rect x="317.55" y="340.25" class="st30" width="94.68" height="8.36"/>
		<rect x="317.55" y="327.04" class="st31" width="94.68" height="8.36"/>
		<rect x="317.55" y="314.3" class="st31" width="94.68" height="8.36"/>
		<rect x="317.55" y="301.56" class="st31" width="94.68" height="8.36"/>
		<rect x="317.55" y="288.81" class="st31" width="94.68" height="8.36"/>
		<rect x="314" y="284.97" class="st30" width="3.55" height="63.64"/>
		<rect x="401.29" y="284.97" class="st30" width="3.55" height="63.64"/>
		<rect x="395.92" y="348.72" class="st32" width="17.84" height="4.22"/>
		<rect x="309.68" y="305.67" class="st33" width="4.32" height="43.74"/>
		<rect x="306.37" y="348.72" class="st32" width="102.31" height="7.04"/>
		<path class="st34" d="M312.55,291.8v10.88c0,0.61-1.67,1.24-1.67,1.88v46.28c0,2.6-1.05,3.57-3.29,3.57
			c-2.22,0-56.6,0.35-56.6,0.35s0-29.47,0-30.04c0-0.57,0.12-2.45,1.79-2.65c1.67-0.2,9.53-1.46,9.53-1.46s2.14-20.64,2.6-26.08
			c0-0.05,0.01-0.1,0.01-0.14c0.37-4.38,1.82-4.67,6.83-4.67h37.24C311.17,289.71,312.55,289.3,312.55,291.8z"/>
		<path class="st35" d="M278.03,348.62v7.18h29.56c2.23,0,6.41-2.36,6.41-4.96v-2.22H278.03z"/>
		<path class="st35" d="M292.22,354.45c0,0.74-0.83,1.35-1.85,1.35h-39c-1.02,0-1.24-0.6-1.24-1.35v-4.46
			c0-0.74,0.22-1.35,1.24-1.35h39c1.02,0,1.85,0.6,1.85,1.35V354.45z"/>
		<path class="st36" d="M279.66,355.72c0-6.97,5.66-12.63,12.63-12.63c6.97,0,12.63,5.65,12.63,12.63H279.66z"/>
		<g>
			<path class="st37" d="M303.1,355.72c0,5.89-4.77,10.65-10.65,10.65c-5.88,0-10.65-4.77-10.65-10.65
				c0-5.88,4.77-10.65,10.65-10.65C298.33,345.07,303.1,349.84,303.1,355.72z"/>
			<path class="st38" d="M299.04,355.72c0,3.64-2.95,6.6-6.6,6.6c-3.64,0-6.59-2.95-6.59-6.6c0-3.64,2.95-6.59,6.59-6.59
				C296.09,349.13,299.04,352.08,299.04,355.72z"/>
			<path class="st39" d="M293.77,355.72c0,0.73-0.59,1.32-1.32,1.32c-0.73,0-1.32-0.59-1.32-1.32c0-0.73,0.59-1.32,1.32-1.32
				C293.18,354.41,293.77,355,293.77,355.72z"/>
			<path class="st38" d="M296.86,350.84c0.79,1.09,1.26,2.42,1.26,3.87c0,3.64-2.95,6.59-6.59,6.59c-1.7,0-3.25-0.65-4.42-1.71
				c1.2,1.65,3.14,2.72,5.33,2.72c3.64,0,6.6-2.95,6.6-6.6C299.04,353.78,298.2,352.04,296.86,350.84z"/>
		</g>
		<path class="st36" d="M369.03,355.72c0-6.97,5.65-12.63,12.63-12.63c6.97,0,12.63,5.65,12.63,12.63H369.03z"/>
		<path class="st40" d="M381.66,340.82c-8.32,0-15.07,6.75-15.07,15.07h2.6c0-6.89,5.58-12.47,12.47-12.47
			c6.89,0,12.47,5.58,12.47,12.47h2.6C396.73,347.57,389.98,340.82,381.66,340.82z"/>
		<g>
			<path class="st37" d="M392.48,355.72c0,5.89-4.77,10.65-10.65,10.65c-5.88,0-10.65-4.77-10.65-10.65
				c0-5.88,4.77-10.65,10.65-10.65C387.71,345.07,392.48,349.84,392.48,355.72z"/>
			<path class="st38" d="M388.42,355.72c0,3.64-2.95,6.6-6.59,6.6c-3.64,0-6.6-2.95-6.6-6.6c0-3.64,2.96-6.59,6.6-6.59
				C385.47,349.13,388.42,352.08,388.42,355.72z"/>
			<path class="st39" d="M383.14,355.72c0,0.73-0.59,1.32-1.32,1.32c-0.73,0-1.32-0.59-1.32-1.32c0-0.73,0.59-1.32,1.32-1.32
				C382.55,354.41,383.14,355,383.14,355.72z"/>
			<path class="st38" d="M386.24,350.84c0.79,1.09,1.27,2.42,1.27,3.87c0,3.64-2.95,6.59-6.6,6.59c-1.7,0-3.25-0.65-4.42-1.71
				c1.2,1.65,3.14,2.72,5.33,2.72c3.64,0,6.59-2.95,6.59-6.6C388.42,353.78,387.57,352.04,386.24,350.84z"/>
		</g>
		<path class="st41" d="M264.71,296.75c-0.61,6.62-2.4,23.84-2.4,23.84h3.17l1.91-23.84H264.71z"/>
		<rect x="270.22" y="296.75" class="st41" width="20.22" height="23.84"/>
		<path class="st42" d="M268.65,295.39v51.41c0,0,9.79,0,10.95,0c2.72-7.53,11.61-9.45,11.61-9.45v-41.97H268.65z"/>
		<rect x="250.98" y="327.54" class="st18" width="3.63" height="12.71"/>
		<rect x="250.98" y="329.34" class="st18" width="2.72" height="9.11"/>
		<rect x="250.98" y="331.23" class="st18" width="2.72" height="5.34"/>
		<rect x="250.98" y="333.11" class="st18" width="2.72" height="1.58"/>
		<polygon class="st43" points="253.7,346.81 250.98,346.81 250.98,341.51 252.8,341.51 		"/>
		<path class="st44" d="M253.15,345.41c0,0.45-0.36,0.81-0.81,0.81c-0.45,0-0.81-0.36-0.81-0.81c0-0.45,0.36-0.81,0.81-0.81
			C252.79,344.6,253.15,344.97,253.15,345.41z"/>
		<path class="st30" d="M309.09,333.9c0,0.43-0.35,0.79-0.79,0.79h-6.47c-0.44,0-0.79-0.35-0.79-0.79l0,0
			c0-0.44,0.35-0.79,0.79-0.79h6.47C308.73,333.11,309.09,333.46,309.09,333.9L309.09,333.9z"/>
		<path class="st30" d="M308.04,336.57c0,0.44-0.35,0.79-0.79,0.79h-6.47c-0.44,0-0.79-0.35-0.79-0.79l0,0
			c0-0.44,0.35-0.79,0.79-0.79h6.47C307.69,335.78,308.04,336.13,308.04,336.57L308.04,336.57z"/>
		<path class="st30" d="M306.37,339.24c0,0.44-0.35,0.79-0.79,0.79h-6.47c-0.44,0-0.79-0.36-0.79-0.79l0,0
			c0-0.44,0.35-0.79,0.79-0.79h6.47C306.01,338.45,306.37,338.81,306.37,339.24L306.37,339.24z"/>
		<rect x="294.62" y="298.57" class="st42" width="11.01" height="24.82"/>
		<path class="st45" d="M402.36,331.4c0,0.48,0.39,0.87,0.87,0.87c0.48,0,0.87-0.39,0.87-0.87c0-0.48-0.39-0.87-0.87-0.87
			C402.75,330.53,402.36,330.92,402.36,331.4z"/>
		<path class="st45" d="M402.36,305.74c0,0.48,0.39,0.87,0.87,0.87c0.48,0,0.87-0.39,0.87-0.87c0-0.48-0.39-0.87-0.87-0.87
			C402.75,304.87,402.36,305.26,402.36,305.74z"/>
		<path class="st45" d="M402.36,292.99c0,0.48,0.39,0.87,0.87,0.87c0.48,0,0.87-0.39,0.87-0.87c0-0.48-0.39-0.87-0.87-0.87
			C402.75,292.12,402.36,292.51,402.36,292.99z"/>
		<path class="st45" d="M402.36,318.48c0,0.48,0.39,0.87,0.87,0.87c0.48,0,0.87-0.39,0.87-0.87c0-0.48-0.39-0.87-0.87-0.87
			C402.75,317.61,402.36,318,402.36,318.48z"/>
		<path class="st45" d="M314.91,331.4c0,0.48,0.39,0.87,0.87,0.87c0.48,0,0.87-0.39,0.87-0.87c0-0.48-0.39-0.87-0.87-0.87
			C315.3,330.53,314.91,330.92,314.91,331.4z"/>
		<path class="st45" d="M314.91,305.74c0,0.48,0.39,0.87,0.87,0.87c0.48,0,0.87-0.39,0.87-0.87c0-0.48-0.39-0.87-0.87-0.87
			C315.3,304.87,314.91,305.26,314.91,305.74z"/>
		<path class="st45" d="M314.91,292.99c0,0.48,0.39,0.87,0.87,0.87c0.48,0,0.87-0.39,0.87-0.87c0-0.48-0.39-0.87-0.87-0.87
			C315.3,292.12,314.91,292.51,314.91,292.99z"/>
		<path class="st45" d="M314.91,318.48c0,0.48,0.39,0.87,0.87,0.87c0.48,0,0.87-0.39,0.87-0.87c0-0.48-0.39-0.87-0.87-0.87
			C315.3,317.61,314.91,318,314.91,318.48z"/>
	</g>
</g>
<g>
	<g>
		<path class="st46" d="M50.82,367.23c-5.86,0-10.61,1.26-10.61,2.81c0,1.55,4.75,2.81,10.61,2.81c5.86,0,10.61-1.26,10.61-2.81
			C61.43,368.49,56.68,367.23,50.82,367.23z"/>
		<path class="st46" d="M116.93,370.24c0-1.55-11.1-2.81-24.8-2.81c-13.7,0-24.8,1.26-24.8,2.81c0,1.55,11.1,2.81,24.8,2.81
			C105.82,373.05,116.93,371.79,116.93,370.24z"/>
		<path class="st46" d="M130.91,372.7c-0.73,0-1.44,0.02-2.11,0.04c-1.41-0.19-3.23-0.3-5.23-0.3c-4.45,0-8.05,0.56-8.05,1.25
			c0,0.69,3.6,1.25,8.05,1.25c0.73,0,1.43-0.02,2.11-0.04c1.41,0.19,3.23,0.3,5.23,0.3c4.45,0,8.05-0.56,8.05-1.25
			C138.96,373.26,135.36,372.7,130.91,372.7z"/>
	</g>
	<g>
		<path class="st47" d="M55.08,294.25c0,0,1.04-0.72,1.59-1.16c1.58-1.02,3.77-0.6,3.77-0.6s0.03,0.65-1.65,1.49
			C57.21,294.76,55.08,294.25,55.08,294.25z"/>
		<g>
			<path class="st48" d="M64.32,323.48c0,0-9.36-1.66-9.97-2.48c-1.13-1.53-2.32-5.77-2.32-5.77l2.55-1.17l1.86,4.83l7.95,3.21
				L64.32,323.48z"/>
			<path class="st49" d="M55.46,315.14c-0.75-2.89-2.16-6.76-2.37-7.3c-0.77-1.98-3.45,0.53-3.1,1.85c0.18,0.69,1,3.26,1.87,6.38
				L55.46,315.14z"/>
			<path class="st48" d="M66.83,325.07c-0.83-0.22-2.51-1.59-2.51-1.59l0.07-1.38c0,0,1.58-0.22,2.23,0
				C67.26,322.32,67.66,325.29,66.83,325.07z"/>
		</g>
		<path class="st50" d="M48.26,366.08c-0.31,1.19-0.73,2.44,0.47,2.97c0.7,0.31,4.49,1.13,5.85,1.14c0.98,0.01,2.16,0.05,2.29-0.37
			c0.12-0.42-0.19-1.34-0.75-1.42c-1.41-0.18-2.79-0.47-3.9-1.99C51.84,365.9,48.13,365.66,48.26,366.08z"/>
		<path class="st51" d="M54.87,330.77c0,0-8.61-9.76-10.17-3.56c-1.59,6.34,0.88,12,0.88,12l3.05,9.2
			c0.93,6.73-0.38,17.68-0.38,17.68l4.7,0.83l1.33-18.51L54.87,330.77z"/>
		<path class="st52" d="M44.71,367.19c-0.39,1.17-0.9,2.38,0.25,3c0.67,0.36,4.22,1.62,5.59,1.62c0.68,0,2.32,0.16,2.47-0.26
			c0.15-0.41-0.09-1.35-0.64-1.47c-1.39-0.28-2.75-0.67-3.74-2.27C48.29,367.27,44.61,366.76,44.71,367.19z"/>
		<path class="st53" d="M51.87,336.89c0,0,3.76-3.61,3.14-8.6c-0.42-3.36-10.04-3-10.67-0.12c-0.64,2.89,0.63,12.17,0.63,12.17
			l1.54,9.98l-2.17,16.86l5,1.18l3-18.35L51.87,336.89z"/>
		<path class="st48" d="M52.99,309.89c-1.3,0-4.86-3.09-4.86-3.09s0.7-2.17-0.57-4.06c-0.13-0.19,0.77-0.15,1.84,0.04
			c0.08,0.02,0.18,0.03,0.26,0.05c0.01,0,0.02,0,0.02,0c0.43,0.08,0.88,0.18,1.29,0.3c0.01,0,0.02,0,0.02,0
			c0.9,0.25,1.59,0.57,1.46,0.88c-0.04,0.09-0.08,0.18-0.12,0.27c-0.01,0.01-0.02,0.03-0.02,0.04c-0.45,0.99-0.86,1.8-0.48,2.25
			c0.09,0.1,0.22,0.18,0.4,0.25C52.66,306.88,54.29,309.89,52.99,309.89z"/>
		<path class="st54" d="M52.42,304c-0.04,0.09-0.07,0.17-0.1,0.27c-0.01,0.01-0.02,0.03-0.02,0.04c-0.45,0.99-0.86,1.8-0.48,2.25
			c-0.73-0.3-1.36-0.84-1.82-1.47c-0.49-0.69-0.57-1.49-0.6-2.3c0.08,0.02,0.18,0.03,0.26,0.05c0.01,0,0.02,0,0.02,0
			c0.44,0.08,0.88,0.19,1.29,0.3c0.01,0,0.02,0,0.02,0C51.87,303.38,52.55,303.69,52.42,304z"/>
		<path class="st55" d="M44.34,328.17l10.67,0.12c0,0-0.45-6.1-0.17-10.59c0-10.63-2.62-10.91-2.62-10.91s-0.17,0.75-1.55,0.75
			c-1.84,0-2.54-0.75-2.54-0.75s-1.73,0.58-2.98,1.56C43.18,309.89,44.34,328.17,44.34,328.17z"/>
		<path class="st53" d="M54.84,317.71c0-1.47-0.05-2.74-0.14-3.85h-4.98v11.97h-5.51c0.07,1.42,0,3.22,0,3.22l10.8-0.34
			C55.01,328.72,54.56,322.19,54.84,317.71z"/>
		<g>
			<path class="st48" d="M56.17,299.51c-0.21,4.83-2.12,5.74-4.32,5.74c-1.96,0-5.27-0.94-5.27-6.15c0-5.34-1.09-9.29,4.02-9.29
				C57.18,289.82,56.4,294.18,56.17,299.51z"/>
			<g>
				<path class="st3" d="M53.8,301.39c0,0-0.33,0.91-1.46,0.99c-0.83,0.06-1.31-1.02-1.31-1.02L53.8,301.39z"/>
				<path class="st54" d="M53.8,301.39c-0.17,0.41-0.46,1.36-1.51,1.3c-0.82-0.05-1.17-0.91-1.26-1.33c0,0,0.32,1,1.39,1.02
					C53.23,302.4,53.8,301.39,53.8,301.39z"/>
				<path class="st56" d="M52.85,299.64c0,0.1-0.27,0.27-0.74,0.27c-0.48,0-0.53-0.81-0.53-0.81s0.05,0.45,0.53,0.45
					C52.59,299.56,52.85,299.54,52.85,299.64z"/>
				<g>
					<path class="st57" d="M55.42,297.55c0,0.26-0.21,0.47-0.46,0.47c-0.26,0-0.46-0.21-0.46-0.47c0-0.26,0.21-0.47,0.46-0.47
						C55.21,297.08,55.42,297.29,55.42,297.55z"/>
					<path class="st3" d="M55.22,297.38c0,0.1-0.08,0.18-0.17,0.18c-0.1,0-0.17-0.08-0.17-0.18c0-0.1,0.08-0.18,0.17-0.18
						C55.14,297.2,55.22,297.28,55.22,297.38z"/>
				</g>
				<path class="st58" d="M56.02,298.85c0,0.21-0.42,0.38-0.94,0.38c-0.52,0-0.94-0.17-0.94-0.38c0-0.21,0.42-0.38,0.94-0.38
					C55.6,298.47,56.02,298.64,56.02,298.85z"/>
				<g>
					<path class="st57" d="M49.19,297.55c0,0.26,0.21,0.47,0.46,0.47s0.46-0.21,0.46-0.47c0-0.26-0.21-0.47-0.46-0.47
						S49.19,297.29,49.19,297.55z"/>
					<path class="st3" d="M49.39,297.38c0,0.1,0.08,0.18,0.17,0.18c0.09,0,0.17-0.08,0.17-0.18c0-0.1-0.08-0.18-0.17-0.18
						C49.47,297.2,49.39,297.28,49.39,297.38z"/>
				</g>
				<path class="st57" d="M48.83,295.58c0.15-0.11,0.34-0.17,0.53-0.24c0.2-0.03,0.4-0.11,0.61-0.07c0.1,0.03,0.2,0.02,0.28,0.07
					c0.08,0.05,0.15,0.1,0.22,0.15c0.14,0.08-0.12,0.31-0.19,0.3c-0.11-0.03-0.24-0.06-0.38-0.06c-0.14-0.05-0.3-0.03-0.47-0.04
					c-0.16,0.04-0.34,0.05-0.48,0.12C48.79,295.86,48.67,295.66,48.83,295.58z"/>
				<path class="st57" d="M55.68,295.58c-0.15-0.11-0.34-0.17-0.53-0.24c-0.2-0.03-0.4-0.11-0.61-0.07c-0.1,0.03-0.2,0.02-0.28,0.07
					c-0.08,0.05-0.15,0.1-0.22,0.15c-0.14,0.08,0.12,0.31,0.19,0.3c0.11-0.03,0.24-0.06,0.38-0.06c0.14-0.05,0.3-0.03,0.47-0.04
					c0.16,0.04,0.34,0.05,0.48,0.12C55.72,295.86,55.84,295.66,55.68,295.58z"/>
				<path class="st58" d="M48.59,298.85c0,0.21,0.42,0.38,0.94,0.38c0.52,0,0.94-0.17,0.94-0.38c0-0.21-0.42-0.38-0.94-0.38
					C49.01,298.47,48.59,298.64,48.59,298.85z"/>
			</g>
			<path class="st57" d="M56.31,296.44c0,0,0.82-3.29,0.01-5.54c-0.81-2.25-2.88-2.83-4.74-2.91c-1.87-0.07-4.6,0.03-5.1,1.33
				c-2.82-0.61-1.63,8.88-1.63,8.88s1.31-1.19,2.77-1.6c-1.31-3.43,2.37-3.74,5.95-3.53C56.17,293.21,56.31,296.44,56.31,296.44z"/>
			<path class="st48" d="M44.69,298.85c0.01,0.83,0.73,2.26,1.92,1.93c0.86-0.24,1.32-0.71,1.32-1.63c0-0.92-0.89,0.09-1.23-0.76
				C46.19,297.13,44.68,297.61,44.69,298.85z"/>
			<path class="st57" d="M46.48,298.47c-0.23-0.5-0.79-1.39-1.63-0.27c-0.12-1.16,0.51-2.12,0.64-2.99c0.48-3.3,0.54-0.23,2.13,1.38
				c-1.43,0.8-0.21,2.43-0.21,2.43l-0.49,0.49C46.92,299.51,46.54,298.89,46.48,298.47z"/>
		</g>
		<path class="st59" d="M54.81,293.92c-3.54,0.11-10.42,0.05-10.42-0.18c0-4.56,2.33-6.15,6.27-6.15c3.7,0,5.91,0.61,6.17,5.18
			C56.85,293.08,55.98,293.31,54.81,293.92z"/>
		<path class="st60" d="M56.18,293.67c-1.51,1.17-4.6,1.2-5.67,1.01c-1.5-0.27-1.76-0.71-1.76-0.71s4.19-1.08,6.84-1.46
			c3.34-0.48,4.84-0.02,4.84-0.02S57.83,292.39,56.18,293.67z"/>
		<g>
			<g>
				<g>
					<path class="st61" d="M114.46,367.87c0,1.72-1.39,3.11-3.11,3.11c-0.65,0-1.05,0-1.05,0s-0.67-6.21,1.05-6.21
						C113.07,364.77,114.46,366.16,114.46,367.87z"/>
					<path class="st35" d="M113.41,367.87c0,1.72-1.39,3.11-3.11,3.11c-1.72,0-3.11-1.39-3.11-3.11c0-1.72,1.39-3.11,3.11-3.11
						C112.02,364.77,113.41,366.16,113.41,367.87z"/>
					<path class="st62" d="M112.07,367.87c0,0.98-0.79,1.77-1.77,1.77c-0.97,0-1.77-0.79-1.77-1.77c0-0.98,0.79-1.77,1.77-1.77
						C111.28,366.11,112.07,366.9,112.07,367.87z"/>
					<path class="st63" d="M110.55,369.4c-0.98,0-1.77-0.79-1.77-1.77c0-0.43,0.16-0.82,0.41-1.12c-0.4,0.32-0.66,0.81-0.66,1.37
						c0,0.98,0.79,1.77,1.77,1.77c0.55,0,1.03-0.25,1.36-0.65C111.35,369.24,110.97,369.4,110.55,369.4z"/>
				</g>
				<g>
					<path class="st61" d="M82.1,367.03c0,1.72-1.39,3.11-3.11,3.11c-0.65,0-1.05,0-1.05,0s-0.67-6.21,1.05-6.21
						C80.7,363.93,82.1,365.32,82.1,367.03z"/>
					<path class="st35" d="M81.05,367.03c0,1.72-1.39,3.11-3.11,3.11c-1.72,0-3.11-1.39-3.11-3.11c0-1.72,1.39-3.11,3.11-3.11
						C79.66,363.93,81.05,365.32,81.05,367.03z"/>
					<path class="st62" d="M79.71,367.03c0,0.98-0.79,1.77-1.77,1.77c-0.98,0-1.77-0.79-1.77-1.77c0-0.98,0.79-1.77,1.77-1.77
						C78.92,365.27,79.71,366.06,79.71,367.03z"/>
					<path class="st63" d="M78.19,368.55c-0.98,0-1.77-0.79-1.77-1.77c0-0.43,0.16-0.82,0.41-1.12c-0.4,0.32-0.66,0.81-0.66,1.37
						c0,0.98,0.79,1.77,1.77,1.77c0.55,0,1.03-0.25,1.36-0.65C78.99,368.4,78.61,368.55,78.19,368.55z"/>
				</g>
				<g>
					<path class="st61" d="M78.46,367.87c0,1.72-1.39,3.11-3.11,3.11c-0.65,0-1.05,0-1.05,0s-0.67-6.21,1.05-6.21
						C77.07,364.77,78.46,366.16,78.46,367.87z"/>
					<path class="st35" d="M77.42,367.87c0,1.72-1.39,3.11-3.11,3.11c-1.72,0-3.11-1.39-3.11-3.11c0-1.72,1.39-3.11,3.11-3.11
						C76.02,364.77,77.42,366.16,77.42,367.87z"/>
					<path class="st62" d="M76.08,367.87c0,0.98-0.79,1.77-1.77,1.77c-0.98,0-1.77-0.79-1.77-1.77c0-0.98,0.79-1.77,1.77-1.77
						C75.29,366.11,76.08,366.9,76.08,367.87z"/>
					<path class="st63" d="M74.56,369.4c-0.98,0-1.77-0.79-1.77-1.77c0-0.43,0.16-0.82,0.41-1.12c-0.4,0.32-0.66,0.81-0.66,1.37
						c0,0.98,0.79,1.77,1.77,1.77c0.55,0,1.03-0.25,1.36-0.65C75.36,369.24,74.98,369.4,74.56,369.4z"/>
				</g>
				<g>
					<path class="st61" d="M110.83,367.87c0,1.72-1.39,3.11-3.11,3.11c-0.65,0-1.05,0-1.05,0s-0.67-6.21,1.05-6.21
						C109.44,364.77,110.83,366.16,110.83,367.87z"/>
					<path class="st35" d="M109.78,367.87c0,1.72-1.39,3.11-3.11,3.11c-1.72,0-3.11-1.39-3.11-3.11c0-1.72,1.39-3.11,3.11-3.11
						C108.39,364.77,109.78,366.16,109.78,367.87z"/>
					<path class="st62" d="M108.44,367.87c0,0.98-0.79,1.77-1.77,1.77c-0.98,0-1.77-0.79-1.77-1.77c0-0.98,0.79-1.77,1.77-1.77
						C107.65,366.11,108.44,366.9,108.44,367.87z"/>
					<path class="st63" d="M106.92,369.4c-0.98,0-1.77-0.79-1.77-1.77c0-0.43,0.16-0.82,0.41-1.12c-0.4,0.32-0.66,0.81-0.66,1.37
						c0,0.98,0.79,1.77,1.77,1.77c0.55,0,1.03-0.25,1.36-0.65C107.72,369.24,107.34,369.4,106.92,369.4z"/>
				</g>
				<path class="st64" d="M76.38,347.12c0,0,10.6,0.58,10.6,5.32c0,3.58,0,10.09,0,10.09h-8.82L76.38,347.12z"/>
				<g>
					<path class="st11" d="M62.08,320.83c0,0,3.58,4.23,4.14,4.92c1.91,2.36,2.5,5.05,0.68,6.51c-1.82,1.46-4.32,0.32-6.22-2.04
						c-0.56-0.7-3.94-5.08-3.94-5.08l-1.26,1.02c0,0,3.49,4.33,4.04,5c2.58,3.2,6.15,4.59,8.6,2.61c2.46-1.98,1.84-5.76-0.74-8.96
						c-0.55-0.68-4.04-5-4.04-5L62.08,320.83z"/>
					<path class="st11" d="M63.52,321.19c0.26,0.32,0.27,0.75,0.02,0.95l-5.76,4.65c-0.25,0.2-0.66,0.1-0.92-0.22l0,0
						c-0.26-0.32-0.27-0.75-0.02-0.95l5.76-4.65C62.85,320.77,63.26,320.87,63.52,321.19L63.52,321.19z"/>
				</g>
				<polygon class="st11" points="73.68,347.23 66.91,332.35 68.35,331.73 75.12,346.62 				"/>
				<path class="st11" d="M76.38,347.12c0,0-3.55,0.49-3.55,4.49c0,3.02,0,8.51,0,8.51h3.56L76.38,347.12z"/>
				<path class="st65" d="M76.39,347.12c0,0,3.55,0.58,3.55,5.32c0,3.58,0,10.09,0,10.09h-3.56L76.39,347.12z"/>
				<path class="st66" d="M76.38,347.23c0,0.98-0.8,1.78-1.78,1.78c-0.98,0-1.78-0.8-1.78-1.78c0-0.98,0.8-1.78,1.78-1.78
					C75.59,345.45,76.38,346.25,76.38,347.23z"/>
				<path class="st67" d="M75.49,347.23c0,0.49-0.39,0.88-0.88,0.88c-0.49,0-0.88-0.39-0.88-0.88c0-0.49,0.39-0.88,0.88-0.88
					C75.09,346.35,75.49,346.74,75.49,347.23z"/>
				<path class="st66" d="M69.83,332.74c0,0.98-0.8,1.78-1.78,1.78c-0.98,0-1.78-0.8-1.78-1.78s0.8-1.78,1.78-1.78
					C69.03,330.97,69.83,331.76,69.83,332.74z"/>
				<path class="st67" d="M68.93,332.74c0,0.49-0.39,0.88-0.88,0.88c-0.49,0-0.88-0.39-0.88-0.88c0-0.49,0.39-0.88,0.88-0.88
					C68.54,331.86,68.93,332.26,68.93,332.74z"/>
				<rect x="70.89" y="359.04" class="st11" width="5.5" height="3.12"/>
				<rect x="69.62" y="362.16" class="st65" width="44.84" height="3.12"/>
			</g>
			<g>
				<g>
					<rect x="92.35" y="317.69" class="st21" width="5.56" height="11.12"/>
					<rect x="94.08" y="317.69" class="st22" width="1.75" height="3.34"/>
					<rect x="82.1" y="317.69" class="st23" width="10.25" height="11.12"/>
					<polygon class="st24" points="82.5,328.38 82.5,318.13 91.95,318.13 					"/>
					<rect x="94.28" y="317.69" class="st25" width="1.69" height="3.21"/>
					<rect x="87.83" y="325.35" class="st26" width="3.78" height="0.53"/>
					<rect x="89.05" y="326.35" class="st26" width="2.56" height="0.53"/>
					<rect x="90.58" y="327.19" class="st68" width="0.91" height="0.82"/>
					<rect x="89.19" y="327.19" class="st68" width="0.91" height="0.82"/>
				</g>
				<g>
					<rect x="108.16" y="317.69" class="st21" width="5.56" height="11.12"/>
					<rect x="109.89" y="317.69" class="st22" width="1.75" height="3.34"/>
					<rect x="97.91" y="317.69" class="st23" width="10.25" height="11.12"/>
					<polygon class="st24" points="98.31,328.38 98.31,318.13 107.76,318.13 					"/>
					<rect x="110.09" y="317.69" class="st25" width="1.69" height="3.21"/>
					<rect x="103.64" y="325.35" class="st26" width="3.78" height="0.53"/>
					<rect x="104.86" y="326.35" class="st26" width="2.56" height="0.53"/>
					<rect x="106.39" y="327.19" class="st68" width="0.91" height="0.82"/>
					<rect x="105" y="327.19" class="st68" width="0.91" height="0.82"/>
				</g>
				<g>
					<rect x="92.35" y="339.93" class="st21" width="5.56" height="11.12"/>
					<rect x="94.08" y="339.93" class="st22" width="1.75" height="3.33"/>
					<rect x="82.1" y="339.93" class="st23" width="10.25" height="11.12"/>
					<polygon class="st24" points="82.5,350.61 82.5,340.36 91.95,340.36 					"/>
					<rect x="94.28" y="339.93" class="st25" width="1.69" height="3.21"/>
					<rect x="87.83" y="347.58" class="st26" width="3.78" height="0.53"/>
					<rect x="89.05" y="348.58" class="st26" width="2.56" height="0.53"/>
					<rect x="90.58" y="349.43" class="st68" width="0.91" height="0.82"/>
					<rect x="89.19" y="349.43" class="st68" width="0.91" height="0.82"/>
				</g>
				<g>
					<rect x="108.16" y="339.93" class="st21" width="5.56" height="11.12"/>
					<rect x="109.89" y="339.93" class="st22" width="1.75" height="3.33"/>
					<rect x="97.91" y="339.93" class="st23" width="10.25" height="11.12"/>
					<polygon class="st24" points="98.31,350.61 98.31,340.36 107.76,340.36 					"/>
					<rect x="110.09" y="339.93" class="st25" width="1.69" height="3.21"/>
					<rect x="103.64" y="347.58" class="st26" width="3.78" height="0.53"/>
					<rect x="104.86" y="348.58" class="st26" width="2.56" height="0.53"/>
					<rect x="106.39" y="349.43" class="st68" width="0.91" height="0.82"/>
					<rect x="105" y="349.43" class="st68" width="0.91" height="0.82"/>
				</g>
				<g>
					<rect x="92.35" y="328.81" class="st28" width="5.56" height="11.12"/>
					<rect x="94.08" y="328.81" class="st22" width="1.75" height="3.34"/>
					<rect x="82.1" y="328.81" class="st29" width="10.25" height="11.12"/>
					<polygon class="st24" points="82.5,339.49 82.5,329.25 91.95,329.25 					"/>
					<rect x="94.28" y="328.81" class="st25" width="1.69" height="3.21"/>
					<rect x="87.83" y="336.46" class="st26" width="3.78" height="0.53"/>
					<rect x="89.05" y="337.47" class="st26" width="2.56" height="0.53"/>
					<rect x="90.58" y="338.31" class="st68" width="0.91" height="0.82"/>
					<rect x="89.19" y="338.31" class="st68" width="0.91" height="0.82"/>
				</g>
				<g>
					<rect x="108.16" y="328.81" class="st28" width="5.56" height="11.12"/>
					<rect x="109.89" y="328.81" class="st22" width="1.75" height="3.34"/>
					<rect x="97.91" y="328.81" class="st29" width="10.25" height="11.12"/>
					<polygon class="st24" points="98.31,339.49 98.31,329.25 107.76,329.25 					"/>
					<rect x="110.09" y="328.81" class="st25" width="1.69" height="3.21"/>
					<rect x="103.64" y="336.46" class="st26" width="3.78" height="0.53"/>
					<rect x="104.86" y="337.47" class="st26" width="2.56" height="0.53"/>
					<rect x="106.39" y="338.31" class="st68" width="0.91" height="0.82"/>
					<rect x="105" y="338.31" class="st68" width="0.91" height="0.82"/>
				</g>
				<g>
					<rect x="92.35" y="351.05" class="st28" width="5.56" height="11.12"/>
					<rect x="94.08" y="351.05" class="st22" width="1.75" height="3.34"/>
					<rect x="82.1" y="351.05" class="st29" width="10.25" height="11.12"/>
					<polygon class="st24" points="82.5,361.73 82.5,351.48 91.95,351.48 					"/>
					<rect x="94.28" y="351.05" class="st25" width="1.69" height="3.21"/>
					<rect x="87.83" y="358.7" class="st26" width="3.78" height="0.53"/>
					<rect x="89.05" y="359.7" class="st26" width="2.56" height="0.53"/>
					<rect x="90.58" y="360.54" class="st68" width="0.91" height="0.82"/>
					<rect x="89.19" y="360.54" class="st68" width="0.91" height="0.82"/>
				</g>
				<g>
					<rect x="108.16" y="351.05" class="st28" width="5.56" height="11.12"/>
					<rect x="109.89" y="351.05" class="st22" width="1.75" height="3.34"/>
					<rect x="97.91" y="351.05" class="st29" width="10.25" height="11.12"/>
					<polygon class="st24" points="98.31,361.73 98.31,351.48 107.76,351.48 					"/>
					<rect x="110.09" y="351.05" class="st25" width="1.69" height="3.21"/>
					<rect x="103.64" y="358.7" class="st26" width="3.78" height="0.53"/>
					<rect x="104.86" y="359.7" class="st26" width="2.56" height="0.53"/>
					<rect x="106.39" y="360.54" class="st68" width="0.91" height="0.82"/>
					<rect x="105" y="360.54" class="st68" width="0.91" height="0.82"/>
				</g>
			</g>
		</g>
		<path class="st48" d="M57.55,325.76c0,0-10.33-2.31-10.71-3.26c-0.71-1.76-1.54-6.97-1.54-6.97l3.02-0.52l1.07,5.97l9.64,3.47
			L57.55,325.76z"/>
		<path class="st49" d="M48.88,316.43c0-2.98-0.76-6.88-0.83-7.45c-0.25-2.11-3.47-0.36-3.47,1.01c0,0.71,0.55,3.33,0.61,6.56
			L48.88,316.43z"/>
		<g>
			<path class="st48" d="M65.72,324.12c-0.35,0.24-0.61-0.26-0.35-0.48c0.33-0.27,0.86-0.73,1.33-1.06
				c0.37-0.27,0.78,0.36,0.41,0.62C66.74,323.46,66.13,323.84,65.72,324.12z"/>
			<path class="st48" d="M66.23,324.58c-0.32,0.21-0.59-0.28-0.35-0.48c0.3-0.25,0.78-0.67,1.2-0.97c0.34-0.24,0.75,0.39,0.42,0.62
				C67.17,323.99,66.61,324.33,66.23,324.58z"/>
			<path class="st48" d="M66.69,324.98c-0.28,0.19-0.51-0.24-0.3-0.41c0.26-0.22,0.69-0.59,1.06-0.85c0.3-0.21,0.65,0.33,0.36,0.53
				C67.51,324.46,67.02,324.76,66.69,324.98z"/>
			<path class="st48" d="M65.45,323.47c-0.32,0.21-0.59-0.28-0.35-0.48c0.3-0.25,0.78-0.67,1.2-0.96c0.34-0.24,0.75,0.39,0.42,0.62
				C66.38,322.88,65.82,323.22,65.45,323.47z"/>
			<path class="st48" d="M65.3,323.25c0.26-0.03,0.29,0.53,0.09,0.59c-0.25,0.07-0.67,0.19-1.02,0.24c-0.28,0.04-0.37-0.7-0.09-0.74
				C64.55,323.3,65,323.28,65.3,323.25z"/>
		</g>
		<g>
			<path class="st48" d="M59.36,326.49c0.26,0.34-0.22,0.63-0.45,0.38c-0.29-0.31-0.79-0.81-1.15-1.25
				c-0.29-0.35,0.31-0.8,0.59-0.46C58.64,325.51,59.06,326.09,59.36,326.49z"/>
			<path class="st48" d="M59.79,325.94c0.23,0.31-0.24,0.61-0.45,0.38c-0.27-0.28-0.72-0.73-1.04-1.13
				c-0.26-0.32,0.34-0.77,0.59-0.46C59.14,325.05,59.52,325.58,59.79,325.94z"/>
			<path class="st48" d="M60.16,325.46c0.21,0.27-0.2,0.53-0.39,0.33c-0.23-0.25-0.63-0.65-0.92-1c-0.23-0.28,0.28-0.67,0.51-0.39
				C59.58,324.67,59.92,325.14,60.16,325.46z"/>
			<path class="st48" d="M58.74,326.8c0.23,0.31-0.24,0.61-0.45,0.38c-0.27-0.28-0.72-0.73-1.04-1.13
				c-0.26-0.32,0.34-0.77,0.59-0.46C58.09,325.91,58.46,326.44,58.74,326.8z"/>
			<path class="st48" d="M58.39,326.78c-0.04-0.26,0.51-0.33,0.58-0.13c0.08,0.25,0.18,0.42,0.25,0.76
				c0.06,0.28-0.67,0.39-0.73,0.12C58.43,327.25,58.44,327.08,58.39,326.78z"/>
		</g>
		<path class="st53" d="M50.92,314.38c0.06,0.46-0.76,1.27-0.69,0.4c-1.69-8.24-3.74-7.27-3.74-7.27l1.06-0.49
			C47.54,307.02,50.29,308.17,50.92,314.38z"/>
		<path class="st53" d="M54.65,313.91c0.06,0.46-0.76,1.27-0.69,0.4c-0.76-6.65-1.74-7.52-1.74-7.52S54.02,307.69,54.65,313.91z"/>
	</g>
	<g>
		<path class="st47" d="M121.74,299.77c0,0-1.04-0.72-1.59-1.16c-1.58-1.02-3.77-0.6-3.77-0.6s-0.03,0.65,1.65,1.49
			C119.61,300.28,121.74,299.77,121.74,299.77z"/>
		<g>
			<path class="st48" d="M112.5,329c0,0,9.36-1.66,9.97-2.48c1.13-1.53,2.32-5.77,2.32-5.77l-2.55-1.17l-1.86,4.83l-7.95,3.21
				L112.5,329z"/>
			<path class="st49" d="M121.36,320.66c0.75-2.89,2.16-6.76,2.37-7.3c0.77-1.98,3.45,0.53,3.1,1.85c-0.18,0.69-1,3.26-1.87,6.38
				L121.36,320.66z"/>
			<path class="st48" d="M111.34,330.48c0.83-0.22,1.16-1.48,1.16-1.48l-0.07-1.38c0,0-2.06-0.07-2.43,0.51
				C109.74,328.52,110.51,330.7,111.34,330.48z"/>
		</g>
		<path class="st50" d="M125.65,370.08c0.26,1.2,0.63,2.47-0.59,2.95c-0.71,0.28-4.53,0.96-5.89,0.92
			c-0.98-0.03-2.16-0.03-2.27-0.46c-0.11-0.43,0.24-1.34,0.8-1.39c1.41-0.13,2.81-0.36,3.97-1.83
			C122.08,369.76,125.8,369.67,125.65,370.08z"/>
		<path class="st51" d="M121.94,336.28c0,0,8.63-9.77,10.17-3.56c1.16,4.7-4.9,8.15-4.9,8.15l-1.95,12.55l0.4,16.66l-4.57,0.25
			l-0.8-17.37L121.94,336.28z"/>
		<path class="st52" d="M134.92,371.1c0.17,1.22,0.43,2.51-0.82,2.9c-0.73,0.23-4.45,0.79-5.79,0.53c-0.66-0.13-2.31-0.29-2.38-0.72
			c-0.07-0.43,0.35-1.31,0.91-1.32c1.42-0.01,2.83-0.13,4.1-1.51C131.38,370.49,135.09,370.69,134.92,371.1z"/>
		<path class="st53" d="M124.94,342.41c0,0-3.76-3.61-3.14-8.6c0.42-3.36,10.04-3.01,10.67-0.12c0.64,2.88-0.97,8.79-0.97,8.79
			l0.75,12.69l2.66,15.92h-4.77l-2.69-14.84L124.94,342.41z"/>
		<path class="st48" d="M123.83,315.41c1.3,0,4.86-3.1,4.86-3.1s-0.7-2.17,0.57-4.06c0.13-0.19-0.77-0.15-1.84,0.04
			c-0.08,0.02-0.17,0.03-0.26,0.05c-0.01,0-0.02,0-0.02,0c-0.43,0.08-0.88,0.18-1.29,0.3c-0.01,0-0.02,0-0.02,0
			c-0.9,0.25-1.59,0.57-1.46,0.88c0.04,0.09,0.08,0.18,0.12,0.27c0.01,0.01,0.02,0.03,0.02,0.04c0.45,0.99,0.86,1.8,0.48,2.25
			c-0.09,0.1-0.22,0.18-0.4,0.25C124.16,312.39,122.53,315.41,123.83,315.41z"/>
		<path class="st54" d="M124.4,309.51c0.04,0.09,0.07,0.18,0.1,0.27c0.01,0.01,0.02,0.03,0.02,0.04c0.45,0.99,0.86,1.8,0.48,2.25
			c0.73-0.3,1.36-0.84,1.82-1.47c0.49-0.69,0.57-1.49,0.6-2.3c-0.08,0.02-0.17,0.03-0.26,0.05c-0.01,0-0.02,0-0.02,0
			c-0.44,0.08-0.88,0.19-1.29,0.3c-0.01,0-0.02,0-0.02,0C124.94,308.89,124.26,309.21,124.4,309.51z"/>
		<path class="st55" d="M132.48,333.69l-10.67,0.12c0,0,0.45-6.1,0.17-10.58c0-10.63,2.62-10.91,2.62-10.91s0.17,0.74,1.55,0.74
			c1.84,0,2.54-0.74,2.54-0.74s1.73,0.58,2.99,1.56C133.64,315.41,132.48,333.69,132.48,333.69z"/>
		<path class="st53" d="M121.98,323.22c0-1.47,0.05-2.74,0.14-3.84h4.98v11.97h5.51c-0.07,1.42,0,3.22,0,3.22l-10.8-0.34
			C121.81,334.23,122.26,327.71,121.98,323.22z"/>
		<g>
			<path class="st48" d="M120.64,305.03c0.21,4.83,2.12,5.74,4.32,5.74c1.96,0,5.27-0.95,5.27-6.15c0-5.34,1.09-9.29-4.02-9.29
				C119.63,295.33,120.42,299.7,120.64,305.03z"/>
			<g>
				<path class="st3" d="M123.02,306.91c0,0,0.33,0.91,1.46,0.99c0.83,0.06,1.31-1.02,1.31-1.02L123.02,306.91z"/>
				<path class="st54" d="M123.02,306.91c0.17,0.41,0.46,1.36,1.51,1.3c0.82-0.05,1.17-0.91,1.26-1.33c0,0-0.32,1-1.39,1.02
					C123.59,307.91,123.02,306.91,123.02,306.91z"/>
				<path class="st56" d="M123.96,305.16c0,0.1,0.27,0.27,0.74,0.27s0.53-0.81,0.53-0.81s-0.05,0.45-0.53,0.45
					S123.96,305.06,123.96,305.16z"/>
				<g>
					<path class="st57" d="M121.4,303.07c0,0.26,0.21,0.47,0.46,0.47c0.26,0,0.46-0.21,0.46-0.47c0-0.26-0.21-0.47-0.46-0.47
						C121.6,302.59,121.4,302.81,121.4,303.07z"/>
					<path class="st3" d="M121.6,302.89c0,0.1,0.08,0.18,0.17,0.18c0.1,0,0.17-0.08,0.17-0.18c0-0.1-0.08-0.18-0.17-0.18
						C121.67,302.71,121.6,302.79,121.6,302.89z"/>
				</g>
				<path class="st58" d="M120.8,304.36c0,0.21,0.42,0.38,0.94,0.38c0.52,0,0.94-0.17,0.94-0.38c0-0.21-0.42-0.38-0.94-0.38
					C121.22,303.98,120.8,304.15,120.8,304.36z"/>
				<g>
					<path class="st57" d="M127.63,303.07c0,0.26-0.21,0.47-0.46,0.47c-0.26,0-0.46-0.21-0.46-0.47c0-0.26,0.21-0.47,0.46-0.47
						C127.42,302.59,127.63,302.81,127.63,303.07z"/>
					<path class="st3" d="M127.43,302.89c0,0.1-0.08,0.18-0.17,0.18c-0.09,0-0.17-0.08-0.17-0.18c0-0.1,0.08-0.18,0.17-0.18
						C127.35,302.71,127.43,302.79,127.43,302.89z"/>
				</g>
				<path class="st57" d="M127.99,301.1c-0.15-0.11-0.34-0.17-0.53-0.24c-0.2-0.03-0.4-0.11-0.61-0.07c-0.1,0.03-0.2,0.02-0.28,0.07
					c-0.08,0.05-0.15,0.1-0.22,0.15c-0.14,0.08,0.12,0.31,0.19,0.3c0.11-0.03,0.24-0.06,0.38-0.06c0.14-0.05,0.3-0.03,0.47-0.04
					c0.16,0.04,0.34,0.05,0.48,0.12C128.03,301.38,128.15,301.18,127.99,301.1z"/>
				<path class="st57" d="M121.14,301.1c0.15-0.11,0.34-0.17,0.53-0.24c0.2-0.03,0.4-0.11,0.61-0.07c0.1,0.03,0.2,0.02,0.28,0.07
					c0.08,0.05,0.15,0.1,0.22,0.15c0.14,0.08-0.13,0.31-0.19,0.3c-0.11-0.03-0.24-0.06-0.38-0.06c-0.14-0.05-0.3-0.03-0.47-0.04
					c-0.16,0.04-0.34,0.05-0.48,0.12C121.1,301.38,120.98,301.18,121.14,301.1z"/>
				<path class="st58" d="M128.23,304.36c0,0.21-0.42,0.38-0.94,0.38s-0.94-0.17-0.94-0.38c0-0.21,0.42-0.38,0.94-0.38
					S128.23,304.15,128.23,304.36z"/>
			</g>
			<path class="st57" d="M120.51,301.96c0,0-0.82-3.29-0.01-5.54c0.81-2.25,2.88-2.83,4.74-2.91c1.87-0.07,4.6,0.03,5.1,1.33
				c2.82-0.61,1.63,8.88,1.63,8.88s-1.31-1.19-2.77-1.6c1.31-3.43-2.37-3.74-5.95-3.53C120.64,298.73,120.51,301.96,120.51,301.96z"
				/>
			<path class="st48" d="M132.13,304.36c-0.01,0.83-0.73,2.26-1.92,1.93c-0.86-0.24-1.32-0.71-1.32-1.63c0-0.92,0.89,0.09,1.23-0.76
				C130.62,302.64,132.14,303.13,132.13,304.36z"/>
			<path class="st57" d="M130.33,303.98c0.23-0.5,0.79-1.39,1.63-0.27c0.12-1.16-0.51-2.12-0.64-2.99c-0.48-3.3-0.54-0.23-2.13,1.39
				c1.43,0.79,0.21,2.43,0.21,2.43l0.49,0.49C129.9,305.03,130.28,304.4,130.33,303.98z"/>
		</g>
		<path class="st59" d="M122.01,299.43c3.54,0.11,10.41,0.05,10.41-0.18c0-4.56-2.33-6.15-6.27-6.15c-3.7,0-5.91,0.61-6.17,5.18
			C119.96,298.59,120.84,298.83,122.01,299.43z"/>
		<path class="st60" d="M120.63,299.18c1.51,1.17,4.6,1.2,5.67,1.01c1.5-0.27,1.76-0.71,1.76-0.71s-4.19-1.08-6.84-1.46
			c-3.34-0.48-4.84-0.02-4.84-0.02S118.99,297.9,120.63,299.18z"/>
		<path class="st53" d="M125.9,319.9c-0.06,0.46,0.76,1.27,0.69,0.4c1.69-8.24,3.74-7.27,3.74-7.27l-1.06-0.49
			C129.28,312.53,126.53,313.68,125.9,319.9z"/>
		<path class="st53" d="M122.17,319.43c-0.06,0.46,0.76,1.27,0.69,0.4c0.76-6.66,1.74-7.52,1.74-7.52S122.79,313.21,122.17,319.43z"
			/>
		<path class="st48" d="M119.26,331.28c0,0,10.32-2.31,10.7-3.26c0.71-1.76,1.54-6.97,1.54-6.97l-3.02-0.52l-1.07,5.97l-9.12,3.29
			l-1.09-0.78v2.54L119.26,331.28z"/>
		<path class="st49" d="M127.94,321.94c0-2.98,0.76-6.88,0.83-7.45c0.25-2.11,3.47-0.36,3.47,1.01c0,0.71-0.55,3.33-0.61,6.56
			L127.94,321.94z"/>
		<g>
			<path class="st48" d="M115.49,330.1c-0.42,0-0.37,0.56-0.03,0.59c0.42,0.04,1.12,0.14,1.69,0.16c0.46,0.02,0.45-0.73,0.01-0.75
				C116.7,330.09,115.98,330.11,115.49,330.1z"/>
			<path class="st48" d="M115.66,329.43c-0.38,0-0.34,0.56-0.03,0.59c0.38,0.04,1.02,0.13,1.53,0.15c0.41,0.01,0.41-0.73,0.01-0.75
				C116.77,329.41,116.11,329.43,115.66,329.43z"/>
			<path class="st48" d="M115.82,328.85c-0.34,0-0.3,0.48-0.02,0.51c0.34,0.04,0.9,0.12,1.35,0.13c0.37,0.01,0.37-0.63,0.01-0.64
				C116.8,328.83,116.22,328.85,115.82,328.85z"/>
			<path class="st48" d="M115.61,330.79c-0.39,0-0.34,0.56-0.03,0.59c0.38,0.04,1.02,0.13,1.53,0.15c0.41,0.02,0.41-0.73,0.01-0.75
				C116.72,330.77,116.06,330.8,115.61,330.79z"/>
		</g>
		
			<rect x="117.25" y="328.31" transform="matrix(0.6222 -0.7828 0.7828 0.6222 -212.0738 217.7977)" class="st69" width="4.76" height="0.64"/>
		<g>
			<polygon class="st70" points="124.22,333.33 124.32,333.08 116.22,325.33 109.03,325.46 108.69,325.6 			"/>
			<polygon class="st71" points="116.82,333.33 124.22,333.33 116.08,325.6 108.69,325.6 			"/>
			<path class="st3" d="M111.9,332.26h6.3c0,0,0.58-0.56,0.15-1.35c-0.99-1.79-2.63-4.74-2.73-5c-0.24-0.57,0.43-0.57,0.43-0.57
				s-0.15-0.34-0.77-0.34c-0.68,0-3.11,0.1-5.01,0.1c-0.96,0-0.94,0.57-0.94,0.57s2.63,4.62,2.84,5.4
				C112.38,331.85,111.9,332.26,111.9,332.26z"/>
		</g>
		<g>
			<path class="st48" d="M111.96,328.67c0.36-0.23,0.01-0.67-0.3-0.51c-0.38,0.19-1.02,0.5-1.5,0.79c-0.39,0.23,0.02,0.86,0.4,0.63
				C110.95,329.35,111.54,328.94,111.96,328.67z"/>
			<path class="st48" d="M112.18,329.33c0.32-0.21-0.02-0.65-0.3-0.51c-0.34,0.17-0.92,0.44-1.36,0.71
				c-0.35,0.21,0.05,0.84,0.4,0.63C111.26,329.95,111.8,329.58,112.18,329.33z"/>
			<path class="st48" d="M112.36,329.91c0.29-0.18-0.01-0.56-0.26-0.44c-0.3,0.15-0.82,0.39-1.21,0.63
				c-0.31,0.19,0.04,0.73,0.34,0.54C111.55,330.45,112.03,330.12,112.36,329.91z"/>
			<path class="st48" d="M111.47,328.17c0.32-0.21-0.02-0.65-0.3-0.51c-0.35,0.17-0.92,0.44-1.37,0.71
				c-0.36,0.21,0.05,0.84,0.4,0.63C110.56,328.78,111.1,328.41,111.47,328.17z"/>
		</g>
	</g>
</g>
</svg>
